%TF.GenerationSoftware,KiCad,Pcbnew,9.0.4*%
%TF.CreationDate,2026-02-16T13:06:27-07:00*%
%TF.ProjectId,BatteryProtection,42617474-6572-4795-9072-6f7465637469,rev?*%
%TF.SameCoordinates,Original*%
%TF.FileFunction,Copper,L2,Bot*%
%TF.FilePolarity,Positive*%
%FSLAX46Y46*%
G04 Gerber Fmt 4.6, Leading zero omitted, Abs format (unit mm)*
G04 Created by KiCad (PCBNEW 9.0.4) date 2026-02-16 13:06:27*
%MOMM*%
%LPD*%
G01*
G04 APERTURE LIST*
G04 Aperture macros list*
%AMRoundRect*
0 Rectangle with rounded corners*
0 $1 Rounding radius*
0 $2 $3 $4 $5 $6 $7 $8 $9 X,Y pos of 4 corners*
0 Add a 4 corners polygon primitive as box body*
4,1,4,$2,$3,$4,$5,$6,$7,$8,$9,$2,$3,0*
0 Add four circle primitives for the rounded corners*
1,1,$1+$1,$2,$3*
1,1,$1+$1,$4,$5*
1,1,$1+$1,$6,$7*
1,1,$1+$1,$8,$9*
0 Add four rect primitives between the rounded corners*
20,1,$1+$1,$2,$3,$4,$5,0*
20,1,$1+$1,$4,$5,$6,$7,0*
20,1,$1+$1,$6,$7,$8,$9,0*
20,1,$1+$1,$8,$9,$2,$3,0*%
G04 Aperture macros list end*
%TA.AperFunction,ComponentPad*%
%ADD10RoundRect,0.250000X0.600000X0.750000X-0.600000X0.750000X-0.600000X-0.750000X0.600000X-0.750000X0*%
%TD*%
%TA.AperFunction,ComponentPad*%
%ADD11O,1.700000X2.000000*%
%TD*%
%TA.AperFunction,ComponentPad*%
%ADD12R,1.508000X1.508000*%
%TD*%
%TA.AperFunction,ComponentPad*%
%ADD13C,1.508000*%
%TD*%
%TA.AperFunction,ComponentPad*%
%ADD14R,4.700000X4.700000*%
%TD*%
%TA.AperFunction,ComponentPad*%
%ADD15C,4.700000*%
%TD*%
%TA.AperFunction,ComponentPad*%
%ADD16RoundRect,0.250000X0.250000X0.950000X-0.250000X0.950000X-0.250000X-0.950000X0.250000X-0.950000X0*%
%TD*%
%TA.AperFunction,ViaPad*%
%ADD17C,0.711200*%
%TD*%
%TA.AperFunction,ViaPad*%
%ADD18C,0.600000*%
%TD*%
%TA.AperFunction,Conductor*%
%ADD19C,0.260000*%
%TD*%
G04 APERTURE END LIST*
D10*
%TO.P,J1,1,Pin_1*%
%TO.N,GPIO*%
X163923750Y-104751250D03*
D11*
%TO.P,J1,2,Pin_2*%
%TO.N,GND*%
X161423750Y-104751250D03*
%TD*%
D12*
%TO.P,J4,1,Pin_1*%
%TO.N,GND*%
X225000000Y-105525000D03*
D13*
%TO.P,J4,2,Pin_2*%
%TO.N,SW Out*%
X222500000Y-105525000D03*
%TO.P,J4,3,Pin_3*%
%TO.N,+5V*%
X220000000Y-105525000D03*
%TD*%
D14*
%TO.P,J3,1,Pin_1*%
%TO.N,VOUT*%
X252073750Y-84951250D03*
D15*
%TO.P,J3,2,Pin_2*%
%TO.N,GND*%
X262923750Y-84951250D03*
D16*
%TO.P,J3,3*%
%TO.N,N/C*%
X248073750Y-75751250D03*
%TO.P,J3,4*%
X266973750Y-75751250D03*
%TD*%
D14*
%TO.P,J2,1,Pin_1*%
%TO.N,Vs*%
X146423750Y-84951250D03*
D15*
%TO.P,J2,2,Pin_2*%
%TO.N,GND*%
X135573750Y-84951250D03*
D16*
%TO.P,J2,3*%
%TO.N,N/C*%
X131573750Y-75751250D03*
%TO.P,J2,4*%
X150473750Y-75751250D03*
%TD*%
D17*
%TO.N,+5V*%
X207423750Y-112000000D03*
X196000000Y-111251250D03*
%TO.N,Vs*%
X170336250Y-104163750D03*
X180423750Y-101000000D03*
X205423750Y-93500000D03*
X178000000Y-115251250D03*
X201923750Y-109500000D03*
%TO.N,Net-(Q2-B)*%
X208836250Y-103663750D03*
X204143750Y-104143750D03*
%TO.N,GND*%
X204036250Y-108251250D03*
X205923750Y-103751250D03*
D18*
X229000000Y-105500000D03*
D17*
X195923750Y-112176250D03*
X197973750Y-113751250D03*
X213923750Y-106251250D03*
X177772604Y-108957500D03*
X195000000Y-102576250D03*
X170623750Y-108000000D03*
X196373750Y-107201250D03*
X187500000Y-104570000D03*
X172923750Y-109007500D03*
X202961875Y-113538125D03*
X210923750Y-108751250D03*
X179500000Y-103500000D03*
X258836250Y-90500000D03*
X201361250Y-104251250D03*
X202000000Y-97626250D03*
X194923750Y-92251250D03*
X184423750Y-115251250D03*
%TO.N,Net-(Q6-C)*%
X188000000Y-107751250D03*
X190836250Y-101163750D03*
%TO.N,Net-(U2--)*%
X199923750Y-110000000D03*
X194423750Y-99000000D03*
%TO.N,Net-(U1--)*%
X200087500Y-112087500D03*
X208837500Y-109837500D03*
%TO.N,Net-(D1-A)*%
X191500000Y-95000000D03*
X189000000Y-96500000D03*
%TO.N,Net-(Q13-B)*%
X187500000Y-110500000D03*
X212000000Y-114000000D03*
%TD*%
D19*
%TO.N,+5V*%
X207423750Y-111251250D02*
X207423750Y-112000000D01*
X200423750Y-111251250D02*
X200923750Y-110751250D01*
X206923750Y-110751250D02*
X207423750Y-111251250D01*
X207423750Y-112000000D02*
X207423750Y-112251250D01*
X200923750Y-110751250D02*
X206923750Y-110751250D01*
X196000000Y-111251250D02*
X200423750Y-111251250D01*
%TO.N,Vs*%
X205423750Y-93500000D02*
X203923750Y-95000000D01*
X201923750Y-108813750D02*
X201923750Y-109500000D01*
X179923750Y-111388579D02*
X178780000Y-110244829D01*
X179923750Y-113251250D02*
X179923750Y-111388579D01*
X177923750Y-115251250D02*
X179923750Y-113251250D01*
X180423750Y-101000000D02*
X180423750Y-100751250D01*
X203923750Y-95000000D02*
X203923750Y-99095085D01*
X180423750Y-103607500D02*
X180423750Y-101000000D01*
X203923750Y-99095085D02*
X202923750Y-100095085D01*
X178780000Y-105251250D02*
X179561250Y-104470000D01*
X205423750Y-93751250D02*
X205423750Y-93500000D01*
X171423750Y-105251250D02*
X178780000Y-105251250D01*
X178780000Y-110244829D02*
X178780000Y-105251250D01*
X202923750Y-100095085D02*
X202923750Y-107813750D01*
X202923750Y-107813750D02*
X201923750Y-108813750D01*
X170173750Y-104001250D02*
X170336250Y-104163750D01*
X170336250Y-104163750D02*
X171423750Y-105251250D01*
X179561250Y-104470000D02*
X180423750Y-103607500D01*
%TO.N,Net-(Q2-B)*%
X208836250Y-103663750D02*
X208923750Y-103751250D01*
X206036250Y-102251250D02*
X207423750Y-102251250D01*
X204036250Y-104251250D02*
X204143750Y-104143750D01*
X204143750Y-104143750D02*
X206036250Y-102251250D01*
X207423750Y-102251250D02*
X208836250Y-103663750D01*
%TO.N,Net-(Q6-C)*%
X190829380Y-104921870D02*
X190829380Y-101170620D01*
X190829380Y-101170620D02*
X190836250Y-101163750D01*
X188000000Y-107751250D02*
X190829380Y-104921870D01*
%TO.N,Net-(U2--)*%
X197923750Y-106751250D02*
X197923750Y-103251250D01*
X197923750Y-103251250D02*
X194423750Y-99751250D01*
X199923750Y-108751250D02*
X197923750Y-106751250D01*
X199923750Y-110038750D02*
X199923750Y-110000000D01*
X199923750Y-110000000D02*
X199923750Y-108751250D01*
X194423750Y-99751250D02*
X194423750Y-99076250D01*
%TO.N,Net-(U1--)*%
X207171079Y-112861250D02*
X206309829Y-112000000D01*
X200087500Y-112087500D02*
X199923750Y-112251250D01*
X207676421Y-112861250D02*
X207171079Y-112861250D01*
X208423750Y-110251250D02*
X208423750Y-112113921D01*
X208423750Y-112113921D02*
X207676421Y-112861250D01*
X206309829Y-112000000D02*
X200175000Y-112000000D01*
X200175000Y-112000000D02*
X200087500Y-112087500D01*
X208923750Y-109751250D02*
X208837500Y-109837500D01*
X208837500Y-109837500D02*
X208423750Y-110251250D01*
%TO.N,Net-(D1-A)*%
X190500000Y-95000000D02*
X191500000Y-95000000D01*
X189000000Y-96500000D02*
X190500000Y-95000000D01*
%TO.N,Net-(Q13-B)*%
X195000000Y-114500000D02*
X190000000Y-109500000D01*
X212000000Y-114000000D02*
X209500000Y-114000000D01*
X188500000Y-109500000D02*
X187500000Y-110500000D01*
X209000000Y-114500000D02*
X195000000Y-114500000D01*
X209500000Y-114000000D02*
X209000000Y-114500000D01*
X190000000Y-109500000D02*
X188500000Y-109500000D01*
%TD*%
%TA.AperFunction,Conductor*%
%TO.N,GND*%
G36*
X267873059Y-60752311D02*
G01*
X268013163Y-60770756D01*
X268044431Y-60779134D01*
X268167418Y-60830077D01*
X268195451Y-60846262D01*
X268197040Y-60847481D01*
X268301063Y-60927300D01*
X268323951Y-60950188D01*
X268404987Y-61055798D01*
X268421172Y-61083831D01*
X268472115Y-61206818D01*
X268480493Y-61238085D01*
X268498939Y-61378189D01*
X268500000Y-61394375D01*
X268500000Y-115856874D01*
X268498939Y-115873060D01*
X268480493Y-116013164D01*
X268472115Y-116044431D01*
X268421172Y-116167418D01*
X268404987Y-116195451D01*
X268323951Y-116301061D01*
X268301061Y-116323951D01*
X268195451Y-116404987D01*
X268167418Y-116421172D01*
X268044431Y-116472115D01*
X268013164Y-116480493D01*
X267888625Y-116496889D01*
X267873058Y-116498939D01*
X267856874Y-116500000D01*
X132136543Y-116500000D01*
X132120465Y-116498953D01*
X132091443Y-116495157D01*
X131981254Y-116480747D01*
X131950178Y-116472477D01*
X131827866Y-116422184D01*
X131799960Y-116406201D01*
X131694691Y-116326143D01*
X131671834Y-116303521D01*
X131590694Y-116199087D01*
X131574423Y-116171348D01*
X131522867Y-116049558D01*
X131514277Y-116018569D01*
X131499815Y-115916226D01*
X131494632Y-115879548D01*
X131493420Y-115863496D01*
X131370289Y-103951233D01*
X162573250Y-103951233D01*
X162573250Y-105551251D01*
X162573251Y-105551268D01*
X162583750Y-105654046D01*
X162583751Y-105654049D01*
X162626268Y-105782354D01*
X162638936Y-105820584D01*
X162731038Y-105969906D01*
X162855094Y-106093962D01*
X163004416Y-106186064D01*
X163170953Y-106241249D01*
X163273741Y-106251750D01*
X164573758Y-106251749D01*
X164676547Y-106241249D01*
X164843084Y-106186064D01*
X164992406Y-106093962D01*
X165116462Y-105969906D01*
X165208564Y-105820584D01*
X165263749Y-105654047D01*
X165274250Y-105551259D01*
X165274249Y-104248070D01*
X169480149Y-104248070D01*
X169513048Y-104413459D01*
X169513051Y-104413469D01*
X169577580Y-104569258D01*
X169577587Y-104569271D01*
X169671273Y-104709481D01*
X169671276Y-104709485D01*
X169790514Y-104828723D01*
X169790518Y-104828726D01*
X169930728Y-104922412D01*
X169930741Y-104922419D01*
X170079338Y-104983969D01*
X170086535Y-104986950D01*
X170086539Y-104986950D01*
X170086540Y-104986951D01*
X170251929Y-105019850D01*
X170257992Y-105020447D01*
X170257805Y-105022339D01*
X170316366Y-105039535D01*
X170337008Y-105056169D01*
X170934005Y-105653166D01*
X170934008Y-105653170D01*
X171021830Y-105740992D01*
X171083732Y-105782354D01*
X171090008Y-105786547D01*
X171090011Y-105786550D01*
X171125089Y-105809989D01*
X171125095Y-105809992D01*
X171150664Y-105820582D01*
X171150666Y-105820584D01*
X171150667Y-105820584D01*
X171239840Y-105857521D01*
X171341440Y-105877730D01*
X171361650Y-105881750D01*
X171361651Y-105881750D01*
X178025500Y-105881750D01*
X178092539Y-105901435D01*
X178138294Y-105954239D01*
X178149500Y-106005750D01*
X178149500Y-110182729D01*
X178149500Y-110306929D01*
X178149500Y-110306931D01*
X178149499Y-110306931D01*
X178169109Y-110405510D01*
X178169109Y-110405513D01*
X178169110Y-110405513D01*
X178169110Y-110405515D01*
X178171132Y-110415679D01*
X178173729Y-110428738D01*
X178173731Y-110428744D01*
X178221254Y-110543476D01*
X178221261Y-110543489D01*
X178290256Y-110646747D01*
X178290257Y-110646748D01*
X178290258Y-110646749D01*
X178378080Y-110734571D01*
X178378081Y-110734571D01*
X178385148Y-110741638D01*
X178385147Y-110741638D01*
X178385151Y-110741641D01*
X179256931Y-111613421D01*
X179290416Y-111674744D01*
X179293250Y-111701102D01*
X179293250Y-112938726D01*
X179273565Y-113005765D01*
X179256931Y-113026407D01*
X177907959Y-114375378D01*
X177846636Y-114408863D01*
X177844470Y-114409314D01*
X177750290Y-114428048D01*
X177750282Y-114428050D01*
X177594491Y-114492580D01*
X177594478Y-114492587D01*
X177454268Y-114586273D01*
X177454264Y-114586276D01*
X177335026Y-114705514D01*
X177335023Y-114705518D01*
X177241337Y-114845728D01*
X177241330Y-114845741D01*
X177176801Y-115001530D01*
X177176798Y-115001540D01*
X177143900Y-115166929D01*
X177143900Y-115166932D01*
X177143900Y-115335568D01*
X177143900Y-115335570D01*
X177143899Y-115335570D01*
X177176798Y-115500959D01*
X177176801Y-115500969D01*
X177241330Y-115656758D01*
X177241337Y-115656771D01*
X177335023Y-115796981D01*
X177335026Y-115796985D01*
X177454264Y-115916223D01*
X177454268Y-115916226D01*
X177594478Y-116009912D01*
X177594491Y-116009919D01*
X177750280Y-116074448D01*
X177750285Y-116074450D01*
X177750289Y-116074450D01*
X177750290Y-116074451D01*
X177915679Y-116107350D01*
X177915682Y-116107350D01*
X178084320Y-116107350D01*
X178195590Y-116085216D01*
X178249715Y-116074450D01*
X178405515Y-116009916D01*
X178545732Y-115916226D01*
X178664976Y-115796982D01*
X178758666Y-115656765D01*
X178823200Y-115500965D01*
X178856100Y-115335568D01*
X178856100Y-115261922D01*
X178875785Y-115194883D01*
X178892414Y-115174246D01*
X180325666Y-113740994D01*
X180325670Y-113740992D01*
X180413492Y-113653170D01*
X180482492Y-113549904D01*
X180530021Y-113435160D01*
X180554250Y-113313349D01*
X180554250Y-111326480D01*
X180530021Y-111204669D01*
X180523593Y-111189150D01*
X180482493Y-111089925D01*
X180413492Y-110986659D01*
X180413489Y-110986655D01*
X180011154Y-110584320D01*
X186643899Y-110584320D01*
X186676798Y-110749709D01*
X186676801Y-110749719D01*
X186741330Y-110905508D01*
X186741337Y-110905521D01*
X186835023Y-111045731D01*
X186835026Y-111045735D01*
X186954264Y-111164973D01*
X186954268Y-111164976D01*
X187094478Y-111258662D01*
X187094491Y-111258669D01*
X187250280Y-111323198D01*
X187250285Y-111323200D01*
X187250289Y-111323200D01*
X187250290Y-111323201D01*
X187415679Y-111356100D01*
X187415682Y-111356100D01*
X187584320Y-111356100D01*
X187695590Y-111333966D01*
X187749715Y-111323200D01*
X187905515Y-111258666D01*
X188045732Y-111164976D01*
X188164976Y-111045732D01*
X188258666Y-110905515D01*
X188323200Y-110749715D01*
X188339602Y-110667257D01*
X188356100Y-110584320D01*
X188356697Y-110578258D01*
X188358589Y-110578444D01*
X188375785Y-110519884D01*
X188392419Y-110499242D01*
X188724843Y-110166819D01*
X188786166Y-110133334D01*
X188812524Y-110130500D01*
X189687477Y-110130500D01*
X189754516Y-110150185D01*
X189775157Y-110166818D01*
X194510257Y-114901919D01*
X194510258Y-114901920D01*
X194598080Y-114989742D01*
X194598081Y-114989743D01*
X194701339Y-115058738D01*
X194701343Y-115058740D01*
X194701346Y-115058742D01*
X194816090Y-115106271D01*
X194937896Y-115130499D01*
X194937900Y-115130500D01*
X194937901Y-115130500D01*
X209062101Y-115130500D01*
X209062102Y-115130499D01*
X209183910Y-115106271D01*
X209298654Y-115058742D01*
X209401920Y-114989742D01*
X209489742Y-114901920D01*
X209489742Y-114901918D01*
X209499950Y-114891711D01*
X209499950Y-114891709D01*
X209724844Y-114666818D01*
X209786168Y-114633334D01*
X209812525Y-114630500D01*
X211368429Y-114630500D01*
X211435468Y-114650185D01*
X211449346Y-114661368D01*
X211449558Y-114661111D01*
X211454268Y-114664976D01*
X211594478Y-114758662D01*
X211594491Y-114758669D01*
X211750280Y-114823198D01*
X211750285Y-114823200D01*
X211750289Y-114823200D01*
X211750290Y-114823201D01*
X211915679Y-114856100D01*
X211915682Y-114856100D01*
X212084320Y-114856100D01*
X212195590Y-114833966D01*
X212249715Y-114823200D01*
X212405515Y-114758666D01*
X212545732Y-114664976D01*
X212664976Y-114545732D01*
X212758666Y-114405515D01*
X212823200Y-114249715D01*
X212856100Y-114084318D01*
X212856100Y-113915682D01*
X212856100Y-113915679D01*
X212823201Y-113750290D01*
X212823200Y-113750289D01*
X212823200Y-113750285D01*
X212823198Y-113750280D01*
X212758669Y-113594491D01*
X212758662Y-113594478D01*
X212664976Y-113454268D01*
X212664973Y-113454264D01*
X212545735Y-113335026D01*
X212545731Y-113335023D01*
X212405521Y-113241337D01*
X212405508Y-113241330D01*
X212249719Y-113176801D01*
X212249709Y-113176798D01*
X212084320Y-113143900D01*
X212084318Y-113143900D01*
X211915682Y-113143900D01*
X211915680Y-113143900D01*
X211750290Y-113176798D01*
X211750280Y-113176801D01*
X211594491Y-113241330D01*
X211594478Y-113241337D01*
X211454268Y-113335023D01*
X211449558Y-113338889D01*
X211448350Y-113337417D01*
X211394787Y-113366666D01*
X211368429Y-113369500D01*
X209437896Y-113369500D01*
X209316097Y-113393727D01*
X209316087Y-113393730D01*
X209201349Y-113441256D01*
X209201339Y-113441261D01*
X209098081Y-113510256D01*
X209013860Y-113594478D01*
X208775156Y-113833182D01*
X208713835Y-113866666D01*
X208687477Y-113869500D01*
X195312524Y-113869500D01*
X195245485Y-113849815D01*
X195224843Y-113833181D01*
X190496812Y-109105151D01*
X190496809Y-109105147D01*
X190496809Y-109105148D01*
X190489742Y-109098081D01*
X190489742Y-109098080D01*
X190401920Y-109010258D01*
X190401919Y-109010257D01*
X190401918Y-109010256D01*
X190298660Y-108941261D01*
X190298650Y-108941256D01*
X190183910Y-108893729D01*
X190183900Y-108893727D01*
X190094024Y-108875850D01*
X190078062Y-108872675D01*
X190062101Y-108869500D01*
X190062100Y-108869500D01*
X190062099Y-108869500D01*
X188568234Y-108869500D01*
X188568214Y-108869499D01*
X188562100Y-108869499D01*
X188437901Y-108869499D01*
X188437899Y-108869499D01*
X188316096Y-108893727D01*
X188316088Y-108893729D01*
X188201350Y-108941254D01*
X188201348Y-108941255D01*
X188098080Y-109010257D01*
X188098076Y-109010260D01*
X187500758Y-109607581D01*
X187439435Y-109641066D01*
X187421709Y-109642971D01*
X187421742Y-109643303D01*
X187415679Y-109643899D01*
X187250290Y-109676798D01*
X187250280Y-109676801D01*
X187094491Y-109741330D01*
X187094478Y-109741337D01*
X186954268Y-109835023D01*
X186954264Y-109835026D01*
X186835026Y-109954264D01*
X186835023Y-109954268D01*
X186741337Y-110094478D01*
X186741330Y-110094491D01*
X186676801Y-110250280D01*
X186676798Y-110250290D01*
X186643900Y-110415679D01*
X186643900Y-110415682D01*
X186643900Y-110584318D01*
X186643900Y-110584320D01*
X186643899Y-110584320D01*
X180011154Y-110584320D01*
X179446819Y-110019985D01*
X179413334Y-109958662D01*
X179410500Y-109932304D01*
X179410500Y-107835570D01*
X187143899Y-107835570D01*
X187176798Y-108000959D01*
X187176801Y-108000969D01*
X187241330Y-108156758D01*
X187241337Y-108156771D01*
X187335023Y-108296981D01*
X187335026Y-108296985D01*
X187454264Y-108416223D01*
X187454268Y-108416226D01*
X187594478Y-108509912D01*
X187594491Y-108509919D01*
X187750280Y-108574448D01*
X187750285Y-108574450D01*
X187750289Y-108574450D01*
X187750290Y-108574451D01*
X187915679Y-108607350D01*
X187915682Y-108607350D01*
X188084320Y-108607350D01*
X188195590Y-108585216D01*
X188249715Y-108574450D01*
X188405515Y-108509916D01*
X188545732Y-108416226D01*
X188664976Y-108296982D01*
X188758666Y-108156765D01*
X188823200Y-108000965D01*
X188848087Y-107875851D01*
X188856100Y-107835570D01*
X188856697Y-107829508D01*
X188858589Y-107829694D01*
X188875785Y-107771134D01*
X188892419Y-107750492D01*
X191319119Y-105323793D01*
X191319119Y-105323792D01*
X191319122Y-105323790D01*
X191388123Y-105220524D01*
X191435651Y-105105780D01*
X191459288Y-104986950D01*
X191459881Y-104983971D01*
X191459881Y-104854660D01*
X191459880Y-104854634D01*
X191459880Y-101802190D01*
X191479565Y-101735151D01*
X191496198Y-101714509D01*
X191501226Y-101709482D01*
X191594916Y-101569265D01*
X191602212Y-101551652D01*
X191659448Y-101413469D01*
X191659450Y-101413465D01*
X191692022Y-101249719D01*
X191692350Y-101248070D01*
X191692350Y-101079429D01*
X191659451Y-100914040D01*
X191659450Y-100914039D01*
X191659450Y-100914035D01*
X191659448Y-100914030D01*
X191594919Y-100758241D01*
X191594912Y-100758228D01*
X191501226Y-100618018D01*
X191501223Y-100618014D01*
X191381985Y-100498776D01*
X191381981Y-100498773D01*
X191241771Y-100405087D01*
X191241758Y-100405080D01*
X191085969Y-100340551D01*
X191085959Y-100340548D01*
X190920570Y-100307650D01*
X190920568Y-100307650D01*
X190751932Y-100307650D01*
X190751930Y-100307650D01*
X190586540Y-100340548D01*
X190586530Y-100340551D01*
X190430741Y-100405080D01*
X190430728Y-100405087D01*
X190290518Y-100498773D01*
X190290514Y-100498776D01*
X190171276Y-100618014D01*
X190171273Y-100618018D01*
X190077587Y-100758228D01*
X190077580Y-100758241D01*
X190013051Y-100914030D01*
X190013048Y-100914040D01*
X189980150Y-101079429D01*
X189980150Y-101079432D01*
X189980150Y-101248068D01*
X189980150Y-101248070D01*
X189980149Y-101248070D01*
X190013048Y-101413459D01*
X190013051Y-101413469D01*
X190077580Y-101569258D01*
X190077587Y-101569271D01*
X190174658Y-101714547D01*
X190173493Y-101715325D01*
X190198046Y-101773129D01*
X190198880Y-101787488D01*
X190198880Y-104609346D01*
X190179195Y-104676385D01*
X190162561Y-104697027D01*
X188000758Y-106858831D01*
X187939435Y-106892316D01*
X187921709Y-106894221D01*
X187921742Y-106894553D01*
X187915679Y-106895149D01*
X187750290Y-106928048D01*
X187750280Y-106928051D01*
X187594491Y-106992580D01*
X187594478Y-106992587D01*
X187454268Y-107086273D01*
X187454264Y-107086276D01*
X187335026Y-107205514D01*
X187335023Y-107205518D01*
X187241337Y-107345728D01*
X187241330Y-107345741D01*
X187176801Y-107501530D01*
X187176798Y-107501540D01*
X187143900Y-107666929D01*
X187143900Y-107666932D01*
X187143900Y-107835568D01*
X187143900Y-107835570D01*
X187143899Y-107835570D01*
X179410500Y-107835570D01*
X179410500Y-105563773D01*
X179430185Y-105496734D01*
X179446819Y-105476092D01*
X180050991Y-104871920D01*
X180233430Y-104689481D01*
X180825666Y-104097244D01*
X180825670Y-104097242D01*
X180913492Y-104009420D01*
X180982492Y-103906154D01*
X181030021Y-103791410D01*
X181054250Y-103669599D01*
X181054250Y-101631570D01*
X181073935Y-101564531D01*
X181085119Y-101550654D01*
X181084861Y-101550442D01*
X181088721Y-101545736D01*
X181088726Y-101545732D01*
X181182416Y-101405515D01*
X181246950Y-101249715D01*
X181279850Y-101084318D01*
X181279850Y-100915682D01*
X181279850Y-100915679D01*
X181246951Y-100750290D01*
X181246950Y-100750289D01*
X181246950Y-100750285D01*
X181192162Y-100618014D01*
X181182419Y-100594491D01*
X181182412Y-100594478D01*
X181088726Y-100454268D01*
X181088723Y-100454264D01*
X180969485Y-100335026D01*
X180969481Y-100335023D01*
X180829271Y-100241337D01*
X180829261Y-100241332D01*
X180751654Y-100209186D01*
X180730221Y-100197730D01*
X180722405Y-100192508D01*
X180641268Y-100158900D01*
X180607660Y-100144979D01*
X180607656Y-100144978D01*
X180607652Y-100144977D01*
X180485853Y-100120750D01*
X180485849Y-100120750D01*
X180361651Y-100120750D01*
X180361646Y-100120750D01*
X180239847Y-100144977D01*
X180239837Y-100144980D01*
X180125093Y-100192509D01*
X180117281Y-100197729D01*
X180095848Y-100209185D01*
X180018238Y-100241332D01*
X180018228Y-100241337D01*
X179878018Y-100335023D01*
X179878014Y-100335026D01*
X179758776Y-100454264D01*
X179758773Y-100454268D01*
X179665087Y-100594478D01*
X179665080Y-100594491D01*
X179600551Y-100750280D01*
X179600548Y-100750290D01*
X179567650Y-100915679D01*
X179567650Y-100915682D01*
X179567650Y-101084318D01*
X179567650Y-101084320D01*
X179567649Y-101084320D01*
X179600548Y-101249709D01*
X179600551Y-101249719D01*
X179665080Y-101405508D01*
X179665087Y-101405521D01*
X179758773Y-101545731D01*
X179762639Y-101550442D01*
X179761164Y-101551652D01*
X179790411Y-101605187D01*
X179793250Y-101631570D01*
X179793250Y-103294977D01*
X179773565Y-103362016D01*
X179756931Y-103382658D01*
X178555158Y-104584431D01*
X178493835Y-104617916D01*
X178467477Y-104620750D01*
X171736273Y-104620750D01*
X171669234Y-104601065D01*
X171648592Y-104584431D01*
X171228669Y-104164508D01*
X171195184Y-104103185D01*
X171193278Y-104085459D01*
X171192947Y-104085492D01*
X171192350Y-104079429D01*
X171159451Y-103914040D01*
X171159450Y-103914039D01*
X171159450Y-103914035D01*
X171132286Y-103848454D01*
X171094919Y-103758241D01*
X171094912Y-103758228D01*
X171001226Y-103618018D01*
X171001223Y-103618014D01*
X170881985Y-103498776D01*
X170881981Y-103498773D01*
X170741771Y-103405087D01*
X170741758Y-103405080D01*
X170585969Y-103340551D01*
X170585959Y-103340548D01*
X170420570Y-103307650D01*
X170420568Y-103307650D01*
X170251932Y-103307650D01*
X170251930Y-103307650D01*
X170086540Y-103340548D01*
X170086530Y-103340551D01*
X169930741Y-103405080D01*
X169930728Y-103405087D01*
X169794737Y-103495954D01*
X169794734Y-103495956D01*
X169790518Y-103498774D01*
X169789770Y-103499521D01*
X169771830Y-103511509D01*
X169684009Y-103599330D01*
X169672021Y-103617270D01*
X169671274Y-103618018D01*
X169668456Y-103622234D01*
X169668454Y-103622237D01*
X169577587Y-103758228D01*
X169577580Y-103758241D01*
X169513051Y-103914030D01*
X169513048Y-103914040D01*
X169480150Y-104079429D01*
X169480150Y-104079432D01*
X169480150Y-104248068D01*
X169480150Y-104248070D01*
X169480149Y-104248070D01*
X165274249Y-104248070D01*
X165274249Y-103951242D01*
X165270390Y-103913469D01*
X165263749Y-103848453D01*
X165263748Y-103848450D01*
X165244844Y-103791402D01*
X165208564Y-103681916D01*
X165116462Y-103532594D01*
X164992406Y-103408538D01*
X164849751Y-103320548D01*
X164843086Y-103316437D01*
X164843081Y-103316435D01*
X164841612Y-103315948D01*
X164676547Y-103261251D01*
X164676545Y-103261250D01*
X164573760Y-103250750D01*
X163273748Y-103250750D01*
X163273731Y-103250751D01*
X163170953Y-103261250D01*
X163170950Y-103261251D01*
X163004418Y-103316435D01*
X163004413Y-103316437D01*
X162855092Y-103408539D01*
X162731039Y-103532592D01*
X162638937Y-103681913D01*
X162638936Y-103681916D01*
X162583751Y-103848453D01*
X162583751Y-103848454D01*
X162583750Y-103848454D01*
X162573250Y-103951233D01*
X131370289Y-103951233D01*
X131319982Y-99084320D01*
X193567649Y-99084320D01*
X193600548Y-99249709D01*
X193600551Y-99249719D01*
X193665080Y-99405508D01*
X193665087Y-99405521D01*
X193758773Y-99545731D01*
X193762639Y-99550442D01*
X193761164Y-99551652D01*
X193790411Y-99605187D01*
X193793250Y-99631570D01*
X193793250Y-99813353D01*
X193817477Y-99935152D01*
X193817480Y-99935162D01*
X193865006Y-100049900D01*
X193865011Y-100049910D01*
X193934006Y-100153168D01*
X193934007Y-100153169D01*
X193934008Y-100153170D01*
X194021830Y-100240992D01*
X194021831Y-100240992D01*
X194028898Y-100248059D01*
X194028897Y-100248059D01*
X194028901Y-100248062D01*
X197256931Y-103476092D01*
X197290416Y-103537415D01*
X197293250Y-103563773D01*
X197293250Y-106813353D01*
X197317477Y-106935152D01*
X197317480Y-106935162D01*
X197365006Y-107049900D01*
X197365011Y-107049910D01*
X197434007Y-107153169D01*
X197434010Y-107153173D01*
X197526149Y-107245312D01*
X197526171Y-107245332D01*
X199256931Y-108976092D01*
X199290416Y-109037415D01*
X199293250Y-109063773D01*
X199293250Y-109368429D01*
X199273565Y-109435468D01*
X199262381Y-109449346D01*
X199262639Y-109449558D01*
X199258773Y-109454268D01*
X199165087Y-109594478D01*
X199165080Y-109594491D01*
X199100551Y-109750280D01*
X199100548Y-109750290D01*
X199067650Y-109915679D01*
X199067650Y-109915682D01*
X199067650Y-110084318D01*
X199067650Y-110084320D01*
X199067649Y-110084320D01*
X199100548Y-110249709D01*
X199100551Y-110249719D01*
X199165080Y-110405508D01*
X199165090Y-110405526D01*
X199180013Y-110427860D01*
X199200891Y-110494537D01*
X199182406Y-110561917D01*
X199130427Y-110608607D01*
X199076911Y-110620750D01*
X196631571Y-110620750D01*
X196564532Y-110601065D01*
X196550653Y-110589881D01*
X196550442Y-110590139D01*
X196545731Y-110586273D01*
X196405521Y-110492587D01*
X196405508Y-110492580D01*
X196249719Y-110428051D01*
X196249709Y-110428048D01*
X196084320Y-110395150D01*
X196084318Y-110395150D01*
X195915682Y-110395150D01*
X195915680Y-110395150D01*
X195750290Y-110428048D01*
X195750280Y-110428051D01*
X195594491Y-110492580D01*
X195594478Y-110492587D01*
X195454268Y-110586273D01*
X195454264Y-110586276D01*
X195335026Y-110705514D01*
X195335023Y-110705518D01*
X195241337Y-110845728D01*
X195241330Y-110845741D01*
X195176801Y-111001530D01*
X195176798Y-111001540D01*
X195143900Y-111166929D01*
X195143900Y-111166932D01*
X195143900Y-111335568D01*
X195143900Y-111335570D01*
X195143899Y-111335570D01*
X195176798Y-111500959D01*
X195176801Y-111500969D01*
X195241330Y-111656758D01*
X195241337Y-111656771D01*
X195335023Y-111796981D01*
X195335026Y-111796985D01*
X195454264Y-111916223D01*
X195454268Y-111916226D01*
X195594478Y-112009912D01*
X195594491Y-112009919D01*
X195695653Y-112051821D01*
X195750285Y-112074450D01*
X195750289Y-112074450D01*
X195750290Y-112074451D01*
X195915679Y-112107350D01*
X195915682Y-112107350D01*
X196084320Y-112107350D01*
X196195590Y-112085216D01*
X196249715Y-112074450D01*
X196405515Y-112009916D01*
X196545732Y-111916226D01*
X196545736Y-111916221D01*
X196550442Y-111912361D01*
X196551649Y-111913832D01*
X196605213Y-111884584D01*
X196631571Y-111881750D01*
X199107400Y-111881750D01*
X199174439Y-111901435D01*
X199220194Y-111954239D01*
X199231400Y-112005750D01*
X199231400Y-112171818D01*
X199231400Y-112171820D01*
X199231399Y-112171820D01*
X199264298Y-112337209D01*
X199264301Y-112337219D01*
X199328831Y-112493010D01*
X199355225Y-112532512D01*
X199361763Y-112544739D01*
X199362140Y-112544538D01*
X199365009Y-112549906D01*
X199434008Y-112653169D01*
X199434011Y-112653173D01*
X199521826Y-112740988D01*
X199521830Y-112740991D01*
X199625096Y-112809992D01*
X199625097Y-112809992D01*
X199625098Y-112809993D01*
X199630467Y-112812863D01*
X199630263Y-112813243D01*
X199642487Y-112819774D01*
X199681985Y-112846166D01*
X199681988Y-112846167D01*
X199681989Y-112846168D01*
X199837780Y-112910698D01*
X199837785Y-112910700D01*
X199837789Y-112910700D01*
X199837790Y-112910701D01*
X200003179Y-112943600D01*
X200003182Y-112943600D01*
X200171820Y-112943600D01*
X200283090Y-112921466D01*
X200337215Y-112910700D01*
X200493015Y-112846166D01*
X200633232Y-112752476D01*
X200718890Y-112666817D01*
X200780211Y-112633334D01*
X200806570Y-112630500D01*
X205997306Y-112630500D01*
X206064345Y-112650185D01*
X206084987Y-112666819D01*
X206769154Y-113350988D01*
X206769158Y-113350991D01*
X206833120Y-113393730D01*
X206872424Y-113419992D01*
X206875843Y-113421408D01*
X206987169Y-113467521D01*
X207088769Y-113487730D01*
X207108979Y-113491750D01*
X207738522Y-113491750D01*
X207738523Y-113491749D01*
X207860331Y-113467521D01*
X207975075Y-113419992D01*
X208014380Y-113393729D01*
X208078341Y-113350992D01*
X208166163Y-113263170D01*
X208166163Y-113263168D01*
X208176371Y-113252961D01*
X208176372Y-113252958D01*
X208913492Y-112515841D01*
X208982492Y-112412575D01*
X209030021Y-112297831D01*
X209054250Y-112176020D01*
X209054250Y-112051821D01*
X209054250Y-110757208D01*
X209073935Y-110690169D01*
X209126739Y-110644414D01*
X209130729Y-110642675D01*
X209243015Y-110596166D01*
X209383232Y-110502476D01*
X209502476Y-110383232D01*
X209596166Y-110243015D01*
X209660700Y-110087215D01*
X209687478Y-109952596D01*
X209693600Y-109921820D01*
X209693600Y-109753179D01*
X209660701Y-109587790D01*
X209660700Y-109587789D01*
X209660700Y-109587785D01*
X209603445Y-109449558D01*
X209596169Y-109431991D01*
X209596162Y-109431978D01*
X209502476Y-109291768D01*
X209502473Y-109291764D01*
X209383235Y-109172526D01*
X209383231Y-109172523D01*
X209243021Y-109078837D01*
X209243008Y-109078830D01*
X209087219Y-109014301D01*
X209087209Y-109014298D01*
X208921820Y-108981400D01*
X208921818Y-108981400D01*
X208753182Y-108981400D01*
X208753180Y-108981400D01*
X208587790Y-109014298D01*
X208587780Y-109014301D01*
X208431991Y-109078830D01*
X208431978Y-109078837D01*
X208291768Y-109172523D01*
X208291764Y-109172526D01*
X208172526Y-109291764D01*
X208172523Y-109291768D01*
X208078837Y-109431978D01*
X208078830Y-109431991D01*
X208014301Y-109587780D01*
X208014298Y-109587790D01*
X207981399Y-109753179D01*
X207980803Y-109759242D01*
X207978909Y-109759055D01*
X207961715Y-109817614D01*
X207945081Y-109838256D01*
X207934010Y-109849326D01*
X207934009Y-109849327D01*
X207876302Y-109935694D01*
X207865006Y-109952599D01*
X207826429Y-110045732D01*
X207817479Y-110067340D01*
X207798059Y-110164976D01*
X207795654Y-110177063D01*
X207793250Y-110189150D01*
X207793250Y-110429726D01*
X207773565Y-110496765D01*
X207720761Y-110542520D01*
X207651603Y-110552464D01*
X207588047Y-110523439D01*
X207581569Y-110517408D01*
X207556741Y-110492580D01*
X207413493Y-110349332D01*
X207413492Y-110349330D01*
X207325670Y-110261508D01*
X207325669Y-110261507D01*
X207325668Y-110261506D01*
X207222410Y-110192511D01*
X207222400Y-110192506D01*
X207107660Y-110144979D01*
X207107652Y-110144977D01*
X206985854Y-110120750D01*
X206985850Y-110120750D01*
X206985849Y-110120750D01*
X202770589Y-110120750D01*
X202703550Y-110101065D01*
X202657795Y-110048261D01*
X202647851Y-109979103D01*
X202667487Y-109927860D01*
X202682409Y-109905526D01*
X202682410Y-109905522D01*
X202682416Y-109905515D01*
X202746950Y-109749715D01*
X202767998Y-109643900D01*
X202779850Y-109584320D01*
X202779850Y-109415679D01*
X202746951Y-109250290D01*
X202746950Y-109250289D01*
X202746950Y-109250285D01*
X202746948Y-109250280D01*
X202682419Y-109094491D01*
X202682415Y-109094484D01*
X202679779Y-109090539D01*
X202658898Y-109023863D01*
X202677379Y-108956482D01*
X202695192Y-108933967D01*
X203413492Y-108215670D01*
X203482493Y-108112404D01*
X203530021Y-107997660D01*
X203554251Y-107875849D01*
X203554251Y-107751650D01*
X203554251Y-107746540D01*
X203554250Y-107746514D01*
X203554250Y-105426263D01*
X218745500Y-105426263D01*
X218745500Y-105623736D01*
X218776389Y-105818763D01*
X218825499Y-105969906D01*
X218837409Y-106006561D01*
X218881942Y-106093960D01*
X218927058Y-106182504D01*
X219043115Y-106342246D01*
X219182753Y-106481884D01*
X219332234Y-106590486D01*
X219342499Y-106597944D01*
X219518439Y-106687591D01*
X219643637Y-106728270D01*
X219706236Y-106748610D01*
X219901264Y-106779500D01*
X219901269Y-106779500D01*
X220098736Y-106779500D01*
X220293763Y-106748610D01*
X220481561Y-106687591D01*
X220657501Y-106597944D01*
X220755963Y-106526408D01*
X220817246Y-106481884D01*
X220817248Y-106481881D01*
X220817252Y-106481879D01*
X220956879Y-106342252D01*
X220956881Y-106342248D01*
X220956884Y-106342246D01*
X221072941Y-106182505D01*
X221072942Y-106182504D01*
X221072944Y-106182501D01*
X221139516Y-106051846D01*
X221187490Y-106001052D01*
X221255311Y-105984257D01*
X221321446Y-106006794D01*
X221360482Y-106051845D01*
X221381942Y-106093960D01*
X221427058Y-106182505D01*
X221543115Y-106342246D01*
X221682753Y-106481884D01*
X221832234Y-106590486D01*
X221842499Y-106597944D01*
X222018439Y-106687591D01*
X222143637Y-106728270D01*
X222206236Y-106748610D01*
X222401264Y-106779500D01*
X222401269Y-106779500D01*
X222598736Y-106779500D01*
X222793763Y-106748610D01*
X222981561Y-106687591D01*
X223157501Y-106597944D01*
X223255963Y-106526408D01*
X223317246Y-106481884D01*
X223317248Y-106481881D01*
X223317252Y-106481879D01*
X223456879Y-106342252D01*
X223456881Y-106342248D01*
X223456884Y-106342246D01*
X223570355Y-106186064D01*
X223572944Y-106182501D01*
X223662591Y-106006561D01*
X223723610Y-105818763D01*
X223735928Y-105740992D01*
X223754500Y-105623736D01*
X223754500Y-105426263D01*
X223723610Y-105231236D01*
X223682847Y-105105781D01*
X223662591Y-105043439D01*
X223572944Y-104867499D01*
X223544772Y-104828723D01*
X223456884Y-104707753D01*
X223317246Y-104568115D01*
X223157504Y-104452058D01*
X223157503Y-104452057D01*
X223157501Y-104452056D01*
X222981561Y-104362409D01*
X222981558Y-104362408D01*
X222793763Y-104301389D01*
X222598736Y-104270500D01*
X222598731Y-104270500D01*
X222401269Y-104270500D01*
X222401264Y-104270500D01*
X222206236Y-104301389D01*
X222018441Y-104362408D01*
X221842495Y-104452058D01*
X221682753Y-104568115D01*
X221543115Y-104707753D01*
X221427058Y-104867495D01*
X221427056Y-104867499D01*
X221366192Y-104986951D01*
X221360485Y-104998151D01*
X221312510Y-105048947D01*
X221244689Y-105065742D01*
X221178554Y-105043204D01*
X221139515Y-104998151D01*
X221072944Y-104867499D01*
X221044772Y-104828723D01*
X220956884Y-104707753D01*
X220817246Y-104568115D01*
X220657504Y-104452058D01*
X220657503Y-104452057D01*
X220657501Y-104452056D01*
X220481561Y-104362409D01*
X220481558Y-104362408D01*
X220293763Y-104301389D01*
X220098736Y-104270500D01*
X220098731Y-104270500D01*
X219901269Y-104270500D01*
X219901264Y-104270500D01*
X219706236Y-104301389D01*
X219518441Y-104362408D01*
X219342495Y-104452058D01*
X219182753Y-104568115D01*
X219043115Y-104707753D01*
X218927058Y-104867495D01*
X218837408Y-105043441D01*
X218776389Y-105231236D01*
X218745500Y-105426263D01*
X203554250Y-105426263D01*
X203554250Y-105010955D01*
X203573935Y-104943916D01*
X203626739Y-104898161D01*
X203695897Y-104888217D01*
X203732543Y-104900235D01*
X203732606Y-104900085D01*
X203734582Y-104900903D01*
X203736712Y-104901602D01*
X203738237Y-104902417D01*
X203894030Y-104966948D01*
X203894035Y-104966950D01*
X203894039Y-104966950D01*
X203894040Y-104966951D01*
X204059429Y-104999850D01*
X204059432Y-104999850D01*
X204228070Y-104999850D01*
X204339340Y-104977716D01*
X204393465Y-104966950D01*
X204549265Y-104902416D01*
X204689482Y-104808726D01*
X204808726Y-104689482D01*
X204902416Y-104549265D01*
X204966950Y-104393465D01*
X204991410Y-104270500D01*
X204999850Y-104228070D01*
X205000447Y-104222008D01*
X205002339Y-104222194D01*
X205019535Y-104163634D01*
X205036169Y-104142992D01*
X206261092Y-102918069D01*
X206322415Y-102884584D01*
X206348773Y-102881750D01*
X207111227Y-102881750D01*
X207178266Y-102901435D01*
X207198908Y-102918069D01*
X207943831Y-103662992D01*
X207977316Y-103724315D01*
X207979221Y-103742040D01*
X207979553Y-103742008D01*
X207980149Y-103748070D01*
X208013048Y-103913459D01*
X208013051Y-103913469D01*
X208077580Y-104069258D01*
X208077587Y-104069271D01*
X208171273Y-104209481D01*
X208171276Y-104209485D01*
X208290514Y-104328723D01*
X208290518Y-104328726D01*
X208430728Y-104422412D01*
X208430741Y-104422419D01*
X208586530Y-104486948D01*
X208586535Y-104486950D01*
X208586539Y-104486950D01*
X208586540Y-104486951D01*
X208751929Y-104519850D01*
X208751932Y-104519850D01*
X208920570Y-104519850D01*
X209031840Y-104497716D01*
X209085965Y-104486950D01*
X209241765Y-104422416D01*
X209381982Y-104328726D01*
X209501226Y-104209482D01*
X209594916Y-104069265D01*
X209659450Y-103913465D01*
X209672382Y-103848453D01*
X209692350Y-103748070D01*
X209692350Y-103579429D01*
X209659451Y-103414040D01*
X209659450Y-103414039D01*
X209659450Y-103414035D01*
X209659448Y-103414030D01*
X209594919Y-103258241D01*
X209594912Y-103258228D01*
X209501226Y-103118018D01*
X209501223Y-103118014D01*
X209381985Y-102998776D01*
X209381981Y-102998773D01*
X209241771Y-102905087D01*
X209241758Y-102905080D01*
X209085969Y-102840551D01*
X209085959Y-102840548D01*
X208920570Y-102807649D01*
X208914508Y-102807053D01*
X208914694Y-102805160D01*
X208856135Y-102787965D01*
X208835493Y-102771331D01*
X207920562Y-101856401D01*
X207920559Y-101856397D01*
X207920559Y-101856398D01*
X207913492Y-101849331D01*
X207913492Y-101849330D01*
X207825670Y-101761508D01*
X207825669Y-101761507D01*
X207825668Y-101761506D01*
X207722410Y-101692511D01*
X207722400Y-101692506D01*
X207607660Y-101644979D01*
X207607652Y-101644977D01*
X207485854Y-101620750D01*
X207485850Y-101620750D01*
X207485849Y-101620750D01*
X206098349Y-101620750D01*
X205974150Y-101620750D01*
X205974148Y-101620750D01*
X205953934Y-101624770D01*
X205953933Y-101624769D01*
X205852345Y-101644977D01*
X205852339Y-101644979D01*
X205737599Y-101692506D01*
X205737589Y-101692511D01*
X205634331Y-101761506D01*
X205608350Y-101787488D01*
X205546508Y-101849330D01*
X205546505Y-101849333D01*
X204144508Y-103251331D01*
X204083185Y-103284816D01*
X204065459Y-103286721D01*
X204065492Y-103287053D01*
X204059429Y-103287649D01*
X203894040Y-103320548D01*
X203894030Y-103320551D01*
X203738236Y-103385082D01*
X203736700Y-103385904D01*
X203735803Y-103386090D01*
X203732606Y-103387415D01*
X203732354Y-103386808D01*
X203668297Y-103400144D01*
X203603054Y-103375142D01*
X203561685Y-103318835D01*
X203554250Y-103276544D01*
X203554250Y-100407608D01*
X203573935Y-100340569D01*
X203590569Y-100319927D01*
X203999315Y-99911182D01*
X204413492Y-99497005D01*
X204482493Y-99393739D01*
X204530021Y-99278995D01*
X204554251Y-99157184D01*
X204554251Y-99032985D01*
X204554251Y-99027875D01*
X204554250Y-99027849D01*
X204554250Y-95312523D01*
X204573935Y-95245484D01*
X204590569Y-95224842D01*
X205397342Y-94418069D01*
X205458665Y-94384584D01*
X205485023Y-94381750D01*
X205485850Y-94381750D01*
X205485851Y-94381749D01*
X205607660Y-94357521D01*
X205722404Y-94309992D01*
X205740057Y-94298195D01*
X205761497Y-94286736D01*
X205800657Y-94270515D01*
X205829265Y-94258666D01*
X205969482Y-94164976D01*
X206088726Y-94045732D01*
X206182416Y-93905515D01*
X206246950Y-93749715D01*
X206279850Y-93584318D01*
X206279850Y-93415682D01*
X206279850Y-93415679D01*
X206246951Y-93250290D01*
X206246950Y-93250289D01*
X206246950Y-93250285D01*
X206246948Y-93250280D01*
X206182419Y-93094491D01*
X206182412Y-93094478D01*
X206088726Y-92954268D01*
X206088723Y-92954264D01*
X205969485Y-92835026D01*
X205969481Y-92835023D01*
X205829271Y-92741337D01*
X205829258Y-92741330D01*
X205673469Y-92676801D01*
X205673459Y-92676798D01*
X205508070Y-92643900D01*
X205508068Y-92643900D01*
X205339432Y-92643900D01*
X205339430Y-92643900D01*
X205174040Y-92676798D01*
X205174030Y-92676801D01*
X205018241Y-92741330D01*
X205018228Y-92741337D01*
X204878018Y-92835023D01*
X204878014Y-92835026D01*
X204758776Y-92954264D01*
X204758773Y-92954268D01*
X204665087Y-93094478D01*
X204665080Y-93094491D01*
X204600551Y-93250280D01*
X204600548Y-93250290D01*
X204567649Y-93415679D01*
X204567053Y-93421742D01*
X204565160Y-93421555D01*
X204547965Y-93480115D01*
X204531331Y-93500757D01*
X203986357Y-94045731D01*
X203521833Y-94510255D01*
X203521830Y-94510258D01*
X203434008Y-94598080D01*
X203434007Y-94598080D01*
X203372096Y-94690737D01*
X203365012Y-94701337D01*
X203365007Y-94701347D01*
X203317480Y-94816087D01*
X203317479Y-94816089D01*
X203297671Y-94915679D01*
X203297670Y-94915684D01*
X203293250Y-94937901D01*
X203293250Y-98782561D01*
X203273565Y-98849600D01*
X203256931Y-98870242D01*
X202521832Y-99605341D01*
X202521830Y-99605343D01*
X202495603Y-99631570D01*
X202434006Y-99693166D01*
X202365011Y-99796424D01*
X202365006Y-99796434D01*
X202317480Y-99911172D01*
X202317477Y-99911182D01*
X202293250Y-100032981D01*
X202293250Y-107501226D01*
X202273565Y-107568265D01*
X202256931Y-107588907D01*
X201521832Y-108324006D01*
X201521830Y-108324008D01*
X201496512Y-108349326D01*
X201434006Y-108411831D01*
X201365011Y-108515089D01*
X201365006Y-108515099D01*
X201317480Y-108629837D01*
X201317477Y-108629847D01*
X201293250Y-108751646D01*
X201293250Y-108868429D01*
X201273565Y-108935468D01*
X201262381Y-108949346D01*
X201262639Y-108949558D01*
X201258773Y-108954268D01*
X201165087Y-109094478D01*
X201165080Y-109094491D01*
X201100551Y-109250280D01*
X201100548Y-109250290D01*
X201067650Y-109415679D01*
X201067650Y-109415682D01*
X201067650Y-109584318D01*
X201067650Y-109584320D01*
X201067649Y-109584320D01*
X201100548Y-109749709D01*
X201100551Y-109749719D01*
X201165080Y-109905508D01*
X201165090Y-109905526D01*
X201180013Y-109927860D01*
X201183049Y-109937558D01*
X201189705Y-109945239D01*
X201193314Y-109970338D01*
X201200891Y-109994537D01*
X201198202Y-110004336D01*
X201199649Y-110014397D01*
X201189114Y-110037465D01*
X201182406Y-110061917D01*
X201174846Y-110068707D01*
X201170624Y-110077953D01*
X201149289Y-110091663D01*
X201130427Y-110108607D01*
X201118830Y-110111238D01*
X201111846Y-110115727D01*
X201076911Y-110120750D01*
X200903850Y-110120750D01*
X200836811Y-110101065D01*
X200791056Y-110048261D01*
X200779850Y-109996750D01*
X200779850Y-109915679D01*
X200746951Y-109750290D01*
X200746950Y-109750289D01*
X200746950Y-109750285D01*
X200716511Y-109676798D01*
X200682419Y-109594491D01*
X200682412Y-109594478D01*
X200588726Y-109454268D01*
X200584861Y-109449558D01*
X200586332Y-109448350D01*
X200557084Y-109394787D01*
X200554250Y-109368429D01*
X200554250Y-108689150D01*
X200554249Y-108689146D01*
X200542454Y-108629847D01*
X200530021Y-108567340D01*
X200482492Y-108452596D01*
X200482490Y-108452593D01*
X200482488Y-108452589D01*
X200413492Y-108349330D01*
X200413489Y-108349326D01*
X200322574Y-108258411D01*
X200322543Y-108258382D01*
X198590569Y-106526408D01*
X198557084Y-106465085D01*
X198554250Y-106438727D01*
X198554250Y-103189150D01*
X198554249Y-103189146D01*
X198530022Y-103067347D01*
X198530021Y-103067340D01*
X198484816Y-102958207D01*
X198483173Y-102953615D01*
X198482492Y-102952595D01*
X198413491Y-102849329D01*
X198413488Y-102849325D01*
X195169162Y-99605001D01*
X195135677Y-99543678D01*
X195140661Y-99473986D01*
X195153738Y-99448433D01*
X195182416Y-99405515D01*
X195246950Y-99249715D01*
X195257716Y-99195590D01*
X195279850Y-99084320D01*
X195279850Y-98915679D01*
X195246951Y-98750290D01*
X195246950Y-98750289D01*
X195246950Y-98750285D01*
X195246948Y-98750280D01*
X195182419Y-98594491D01*
X195182412Y-98594478D01*
X195088726Y-98454268D01*
X195088723Y-98454264D01*
X194969485Y-98335026D01*
X194969481Y-98335023D01*
X194829271Y-98241337D01*
X194829258Y-98241330D01*
X194673469Y-98176801D01*
X194673459Y-98176798D01*
X194508070Y-98143900D01*
X194508068Y-98143900D01*
X194339432Y-98143900D01*
X194339430Y-98143900D01*
X194174040Y-98176798D01*
X194174030Y-98176801D01*
X194018241Y-98241330D01*
X194018228Y-98241337D01*
X193878018Y-98335023D01*
X193878014Y-98335026D01*
X193758776Y-98454264D01*
X193758773Y-98454268D01*
X193665087Y-98594478D01*
X193665080Y-98594491D01*
X193600551Y-98750280D01*
X193600548Y-98750290D01*
X193567650Y-98915679D01*
X193567650Y-98915682D01*
X193567650Y-99084318D01*
X193567650Y-99084320D01*
X193567649Y-99084320D01*
X131319982Y-99084320D01*
X131294141Y-96584320D01*
X188143899Y-96584320D01*
X188176798Y-96749709D01*
X188176801Y-96749719D01*
X188241330Y-96905508D01*
X188241337Y-96905521D01*
X188335023Y-97045731D01*
X188335026Y-97045735D01*
X188454264Y-97164973D01*
X188454268Y-97164976D01*
X188594478Y-97258662D01*
X188594491Y-97258669D01*
X188750280Y-97323198D01*
X188750285Y-97323200D01*
X188750289Y-97323200D01*
X188750290Y-97323201D01*
X188915679Y-97356100D01*
X188915682Y-97356100D01*
X189084320Y-97356100D01*
X189195590Y-97333966D01*
X189249715Y-97323200D01*
X189405515Y-97258666D01*
X189545732Y-97164976D01*
X189664976Y-97045732D01*
X189758666Y-96905515D01*
X189823200Y-96749715D01*
X189856100Y-96584318D01*
X189856697Y-96578258D01*
X189858589Y-96578444D01*
X189875785Y-96519884D01*
X189892419Y-96499242D01*
X190724842Y-95666819D01*
X190751769Y-95652115D01*
X190777588Y-95635523D01*
X190783788Y-95634631D01*
X190786165Y-95633334D01*
X190812523Y-95630500D01*
X190868429Y-95630500D01*
X190935468Y-95650185D01*
X190949346Y-95661368D01*
X190949558Y-95661111D01*
X190954268Y-95664976D01*
X191094478Y-95758662D01*
X191094491Y-95758669D01*
X191250280Y-95823198D01*
X191250285Y-95823200D01*
X191250289Y-95823200D01*
X191250290Y-95823201D01*
X191415679Y-95856100D01*
X191415682Y-95856100D01*
X191584320Y-95856100D01*
X191695590Y-95833966D01*
X191749715Y-95823200D01*
X191905515Y-95758666D01*
X192045732Y-95664976D01*
X192164976Y-95545732D01*
X192258666Y-95405515D01*
X192323200Y-95249715D01*
X192356100Y-95084318D01*
X192356100Y-94915682D01*
X192356100Y-94915679D01*
X192323201Y-94750290D01*
X192323200Y-94750289D01*
X192323200Y-94750285D01*
X192323198Y-94750280D01*
X192258669Y-94594491D01*
X192258662Y-94594478D01*
X192164976Y-94454268D01*
X192164973Y-94454264D01*
X192045735Y-94335026D01*
X192045731Y-94335023D01*
X191905521Y-94241337D01*
X191905508Y-94241330D01*
X191749719Y-94176801D01*
X191749709Y-94176798D01*
X191584320Y-94143900D01*
X191584318Y-94143900D01*
X191415682Y-94143900D01*
X191415680Y-94143900D01*
X191250290Y-94176798D01*
X191250280Y-94176801D01*
X191094491Y-94241330D01*
X191094478Y-94241337D01*
X190954268Y-94335023D01*
X190949558Y-94338889D01*
X190948350Y-94337417D01*
X190894787Y-94366666D01*
X190868429Y-94369500D01*
X190437900Y-94369500D01*
X190424371Y-94372191D01*
X190424370Y-94372190D01*
X190316097Y-94393727D01*
X190316089Y-94393729D01*
X190253281Y-94419745D01*
X190253272Y-94419749D01*
X190249268Y-94421408D01*
X190201345Y-94441258D01*
X190181875Y-94454268D01*
X190175363Y-94458618D01*
X190175355Y-94458623D01*
X190098081Y-94510256D01*
X190054170Y-94554168D01*
X190010258Y-94598080D01*
X190010255Y-94598083D01*
X189000758Y-95607581D01*
X188939435Y-95641066D01*
X188921709Y-95642971D01*
X188921742Y-95643303D01*
X188915679Y-95643899D01*
X188750290Y-95676798D01*
X188750280Y-95676801D01*
X188594491Y-95741330D01*
X188594478Y-95741337D01*
X188454268Y-95835023D01*
X188454264Y-95835026D01*
X188335026Y-95954264D01*
X188335023Y-95954268D01*
X188241337Y-96094478D01*
X188241330Y-96094491D01*
X188176801Y-96250280D01*
X188176798Y-96250290D01*
X188143900Y-96415679D01*
X188143900Y-96415682D01*
X188143900Y-96584318D01*
X188143900Y-96584320D01*
X188143899Y-96584320D01*
X131294141Y-96584320D01*
X131149109Y-82553385D01*
X143573250Y-82553385D01*
X143573250Y-87349120D01*
X143573251Y-87349126D01*
X143579658Y-87408733D01*
X143629952Y-87543578D01*
X143629956Y-87543585D01*
X143716202Y-87658794D01*
X143716205Y-87658797D01*
X143831414Y-87745043D01*
X143831421Y-87745047D01*
X143966267Y-87795341D01*
X143966266Y-87795341D01*
X143973194Y-87796085D01*
X144025877Y-87801750D01*
X148821622Y-87801749D01*
X148881233Y-87795341D01*
X149016081Y-87745046D01*
X149131296Y-87658796D01*
X149217546Y-87543581D01*
X149267841Y-87408733D01*
X149274250Y-87349123D01*
X149274249Y-82553385D01*
X249223250Y-82553385D01*
X249223250Y-87349120D01*
X249223251Y-87349126D01*
X249229658Y-87408733D01*
X249279952Y-87543578D01*
X249279956Y-87543585D01*
X249366202Y-87658794D01*
X249366205Y-87658797D01*
X249481414Y-87745043D01*
X249481421Y-87745047D01*
X249616267Y-87795341D01*
X249616266Y-87795341D01*
X249623194Y-87796085D01*
X249675877Y-87801750D01*
X254471622Y-87801749D01*
X254531233Y-87795341D01*
X254666081Y-87745046D01*
X254781296Y-87658796D01*
X254867546Y-87543581D01*
X254917841Y-87408733D01*
X254924250Y-87349123D01*
X254924249Y-82553378D01*
X254917841Y-82493767D01*
X254867546Y-82358919D01*
X254867545Y-82358918D01*
X254867543Y-82358914D01*
X254781297Y-82243705D01*
X254781294Y-82243702D01*
X254666085Y-82157456D01*
X254666078Y-82157452D01*
X254531232Y-82107158D01*
X254531233Y-82107158D01*
X254471633Y-82100751D01*
X254471631Y-82100750D01*
X254471623Y-82100750D01*
X254471614Y-82100750D01*
X249675879Y-82100750D01*
X249675873Y-82100751D01*
X249616266Y-82107158D01*
X249481421Y-82157452D01*
X249481414Y-82157456D01*
X249366205Y-82243702D01*
X249366202Y-82243705D01*
X249279956Y-82358914D01*
X249279952Y-82358921D01*
X249229658Y-82493767D01*
X249223251Y-82553366D01*
X249223251Y-82553373D01*
X249223250Y-82553385D01*
X149274249Y-82553385D01*
X149274249Y-82553378D01*
X149267841Y-82493767D01*
X149217546Y-82358919D01*
X149217545Y-82358918D01*
X149217543Y-82358914D01*
X149131297Y-82243705D01*
X149131294Y-82243702D01*
X149016085Y-82157456D01*
X149016078Y-82157452D01*
X148881232Y-82107158D01*
X148881233Y-82107158D01*
X148821633Y-82100751D01*
X148821631Y-82100750D01*
X148821623Y-82100750D01*
X148821614Y-82100750D01*
X144025879Y-82100750D01*
X144025873Y-82100751D01*
X143966266Y-82107158D01*
X143831421Y-82157452D01*
X143831414Y-82157456D01*
X143716205Y-82243702D01*
X143716202Y-82243705D01*
X143629956Y-82358914D01*
X143629952Y-82358921D01*
X143579658Y-82493767D01*
X143573251Y-82553366D01*
X143573251Y-82553373D01*
X143573250Y-82553385D01*
X131149109Y-82553385D01*
X131097622Y-77572346D01*
X131116611Y-77505112D01*
X131168939Y-77458814D01*
X131234216Y-77447712D01*
X131273741Y-77451750D01*
X131873758Y-77451749D01*
X131873766Y-77451748D01*
X131873769Y-77451748D01*
X131930052Y-77445998D01*
X131976547Y-77441249D01*
X132143084Y-77386064D01*
X132292406Y-77293962D01*
X132416462Y-77169906D01*
X132508564Y-77020584D01*
X132563749Y-76854047D01*
X132574250Y-76751259D01*
X132574249Y-74751242D01*
X132574248Y-74751233D01*
X149473250Y-74751233D01*
X149473250Y-76751251D01*
X149473251Y-76751268D01*
X149483750Y-76854046D01*
X149483751Y-76854049D01*
X149538935Y-77020581D01*
X149538936Y-77020584D01*
X149631038Y-77169906D01*
X149755094Y-77293962D01*
X149904416Y-77386064D01*
X150070953Y-77441249D01*
X150173741Y-77451750D01*
X150773758Y-77451749D01*
X150773766Y-77451748D01*
X150773769Y-77451748D01*
X150830052Y-77445998D01*
X150876547Y-77441249D01*
X151043084Y-77386064D01*
X151192406Y-77293962D01*
X151316462Y-77169906D01*
X151408564Y-77020584D01*
X151463749Y-76854047D01*
X151474250Y-76751259D01*
X151474249Y-74751242D01*
X151474248Y-74751233D01*
X247073250Y-74751233D01*
X247073250Y-76751251D01*
X247073251Y-76751268D01*
X247083750Y-76854046D01*
X247083751Y-76854049D01*
X247138935Y-77020581D01*
X247138936Y-77020584D01*
X247231038Y-77169906D01*
X247355094Y-77293962D01*
X247504416Y-77386064D01*
X247670953Y-77441249D01*
X247773741Y-77451750D01*
X248373758Y-77451749D01*
X248373766Y-77451748D01*
X248373769Y-77451748D01*
X248430052Y-77445998D01*
X248476547Y-77441249D01*
X248643084Y-77386064D01*
X248792406Y-77293962D01*
X248916462Y-77169906D01*
X249008564Y-77020584D01*
X249063749Y-76854047D01*
X249074250Y-76751259D01*
X249074249Y-74751242D01*
X249074248Y-74751233D01*
X265973250Y-74751233D01*
X265973250Y-76751251D01*
X265973251Y-76751268D01*
X265983750Y-76854046D01*
X265983751Y-76854049D01*
X266038935Y-77020581D01*
X266038936Y-77020584D01*
X266131038Y-77169906D01*
X266255094Y-77293962D01*
X266404416Y-77386064D01*
X266570953Y-77441249D01*
X266673741Y-77451750D01*
X267273758Y-77451749D01*
X267273766Y-77451748D01*
X267273769Y-77451748D01*
X267330052Y-77445998D01*
X267376547Y-77441249D01*
X267543084Y-77386064D01*
X267692406Y-77293962D01*
X267816462Y-77169906D01*
X267908564Y-77020584D01*
X267963749Y-76854047D01*
X267974250Y-76751259D01*
X267974249Y-74751242D01*
X267963749Y-74648453D01*
X267908564Y-74481916D01*
X267816462Y-74332594D01*
X267692406Y-74208538D01*
X267543084Y-74116436D01*
X267376547Y-74061251D01*
X267376545Y-74061250D01*
X267273760Y-74050750D01*
X266673748Y-74050750D01*
X266673730Y-74050751D01*
X266570953Y-74061250D01*
X266570950Y-74061251D01*
X266404418Y-74116435D01*
X266404413Y-74116437D01*
X266255092Y-74208539D01*
X266131039Y-74332592D01*
X266038937Y-74481913D01*
X266038936Y-74481916D01*
X265983751Y-74648453D01*
X265983751Y-74648454D01*
X265983750Y-74648454D01*
X265973250Y-74751233D01*
X249074248Y-74751233D01*
X249063749Y-74648453D01*
X249008564Y-74481916D01*
X248916462Y-74332594D01*
X248792406Y-74208538D01*
X248643084Y-74116436D01*
X248476547Y-74061251D01*
X248476545Y-74061250D01*
X248373760Y-74050750D01*
X247773748Y-74050750D01*
X247773730Y-74050751D01*
X247670953Y-74061250D01*
X247670950Y-74061251D01*
X247504418Y-74116435D01*
X247504413Y-74116437D01*
X247355092Y-74208539D01*
X247231039Y-74332592D01*
X247138937Y-74481913D01*
X247138936Y-74481916D01*
X247083751Y-74648453D01*
X247083751Y-74648454D01*
X247083750Y-74648454D01*
X247073250Y-74751233D01*
X151474248Y-74751233D01*
X151463749Y-74648453D01*
X151408564Y-74481916D01*
X151316462Y-74332594D01*
X151192406Y-74208538D01*
X151043084Y-74116436D01*
X150876547Y-74061251D01*
X150876545Y-74061250D01*
X150773760Y-74050750D01*
X150173748Y-74050750D01*
X150173730Y-74050751D01*
X150070953Y-74061250D01*
X150070950Y-74061251D01*
X149904418Y-74116435D01*
X149904413Y-74116437D01*
X149755092Y-74208539D01*
X149631039Y-74332592D01*
X149538937Y-74481913D01*
X149538936Y-74481916D01*
X149483751Y-74648453D01*
X149483751Y-74648454D01*
X149483750Y-74648454D01*
X149473250Y-74751233D01*
X132574248Y-74751233D01*
X132563749Y-74648453D01*
X132508564Y-74481916D01*
X132416462Y-74332594D01*
X132292406Y-74208538D01*
X132143084Y-74116436D01*
X131976547Y-74061251D01*
X131976545Y-74061250D01*
X131873760Y-74050750D01*
X131273748Y-74050750D01*
X131273730Y-74050751D01*
X131196634Y-74058627D01*
X131127941Y-74045857D01*
X131077057Y-73997976D01*
X131060040Y-73936554D01*
X130930466Y-61400987D01*
X130931371Y-61384703D01*
X130948602Y-61243495D01*
X130956760Y-61211963D01*
X131007078Y-61087771D01*
X131023167Y-61059456D01*
X131104099Y-60952655D01*
X131127009Y-60929507D01*
X131232963Y-60847479D01*
X131261117Y-60831094D01*
X131384781Y-60779496D01*
X131416228Y-60771012D01*
X131545132Y-60753929D01*
X131557237Y-60752325D01*
X131573527Y-60751250D01*
X267856874Y-60751250D01*
X267873059Y-60752311D01*
G37*
%TD.AperFunction*%
%TD*%
M02*
