%TF.GenerationSoftware,KiCad,Pcbnew,9.0.4*%
%TF.CreationDate,2026-02-16T13:06:27-07:00*%
%TF.ProjectId,BatteryProtection,42617474-6572-4795-9072-6f7465637469,rev?*%
%TF.SameCoordinates,Original*%
%TF.FileFunction,Legend,Top*%
%TF.FilePolarity,Positive*%
%FSLAX46Y46*%
G04 Gerber Fmt 4.6, Leading zero omitted, Abs format (unit mm)*
G04 Created by KiCad (PCBNEW 9.0.4) date 2026-02-16 13:06:27*
%MOMM*%
%LPD*%
G01*
G04 APERTURE LIST*
%ADD10C,0.750000*%
%ADD11C,0.130000*%
%ADD12C,0.150000*%
%ADD13C,0.100000*%
%ADD14C,0.120000*%
%ADD15C,0.127000*%
%ADD16C,0.200000*%
G04 APERTURE END LIST*
D10*
X135631456Y-94273678D02*
X136060028Y-94416535D01*
X136060028Y-94416535D02*
X136202885Y-94559392D01*
X136202885Y-94559392D02*
X136345742Y-94845107D01*
X136345742Y-94845107D02*
X136345742Y-95273678D01*
X136345742Y-95273678D02*
X136202885Y-95559392D01*
X136202885Y-95559392D02*
X136060028Y-95702250D01*
X136060028Y-95702250D02*
X135774313Y-95845107D01*
X135774313Y-95845107D02*
X134631456Y-95845107D01*
X134631456Y-95845107D02*
X134631456Y-92845107D01*
X134631456Y-92845107D02*
X135631456Y-92845107D01*
X135631456Y-92845107D02*
X135917171Y-92987964D01*
X135917171Y-92987964D02*
X136060028Y-93130821D01*
X136060028Y-93130821D02*
X136202885Y-93416535D01*
X136202885Y-93416535D02*
X136202885Y-93702250D01*
X136202885Y-93702250D02*
X136060028Y-93987964D01*
X136060028Y-93987964D02*
X135917171Y-94130821D01*
X135917171Y-94130821D02*
X135631456Y-94273678D01*
X135631456Y-94273678D02*
X134631456Y-94273678D01*
X137488599Y-94987964D02*
X138917171Y-94987964D01*
X137202885Y-95845107D02*
X138202885Y-92845107D01*
X138202885Y-92845107D02*
X139202885Y-95845107D01*
X139774314Y-92845107D02*
X141488600Y-92845107D01*
X140631457Y-95845107D02*
X140631457Y-92845107D01*
X144774313Y-95845107D02*
X144774313Y-92845107D01*
X146202884Y-95845107D02*
X146202884Y-92845107D01*
X146202884Y-92845107D02*
X147917170Y-95845107D01*
X147917170Y-95845107D02*
X147917170Y-92845107D01*
X157279135Y-111736714D02*
X156993421Y-111593857D01*
X156993421Y-111593857D02*
X156564849Y-111593857D01*
X156564849Y-111593857D02*
X156136278Y-111736714D01*
X156136278Y-111736714D02*
X155850563Y-112022428D01*
X155850563Y-112022428D02*
X155707706Y-112308142D01*
X155707706Y-112308142D02*
X155564849Y-112879571D01*
X155564849Y-112879571D02*
X155564849Y-113308142D01*
X155564849Y-113308142D02*
X155707706Y-113879571D01*
X155707706Y-113879571D02*
X155850563Y-114165285D01*
X155850563Y-114165285D02*
X156136278Y-114451000D01*
X156136278Y-114451000D02*
X156564849Y-114593857D01*
X156564849Y-114593857D02*
X156850563Y-114593857D01*
X156850563Y-114593857D02*
X157279135Y-114451000D01*
X157279135Y-114451000D02*
X157421992Y-114308142D01*
X157421992Y-114308142D02*
X157421992Y-113308142D01*
X157421992Y-113308142D02*
X156850563Y-113308142D01*
X158707706Y-114593857D02*
X158707706Y-111593857D01*
X158707706Y-111593857D02*
X159850563Y-111593857D01*
X159850563Y-111593857D02*
X160136278Y-111736714D01*
X160136278Y-111736714D02*
X160279135Y-111879571D01*
X160279135Y-111879571D02*
X160421992Y-112165285D01*
X160421992Y-112165285D02*
X160421992Y-112593857D01*
X160421992Y-112593857D02*
X160279135Y-112879571D01*
X160279135Y-112879571D02*
X160136278Y-113022428D01*
X160136278Y-113022428D02*
X159850563Y-113165285D01*
X159850563Y-113165285D02*
X158707706Y-113165285D01*
X161707706Y-114593857D02*
X161707706Y-111593857D01*
X163707706Y-111593857D02*
X164279134Y-111593857D01*
X164279134Y-111593857D02*
X164564849Y-111736714D01*
X164564849Y-111736714D02*
X164850563Y-112022428D01*
X164850563Y-112022428D02*
X164993420Y-112593857D01*
X164993420Y-112593857D02*
X164993420Y-113593857D01*
X164993420Y-113593857D02*
X164850563Y-114165285D01*
X164850563Y-114165285D02*
X164564849Y-114451000D01*
X164564849Y-114451000D02*
X164279134Y-114593857D01*
X164279134Y-114593857D02*
X163707706Y-114593857D01*
X163707706Y-114593857D02*
X163421992Y-114451000D01*
X163421992Y-114451000D02*
X163136277Y-114165285D01*
X163136277Y-114165285D02*
X162993420Y-113593857D01*
X162993420Y-113593857D02*
X162993420Y-112593857D01*
X162993420Y-112593857D02*
X163136277Y-112022428D01*
X163136277Y-112022428D02*
X163421992Y-111736714D01*
X163421992Y-111736714D02*
X163707706Y-111593857D01*
D11*
X163357142Y-99738240D02*
X165642857Y-99738240D01*
X164499999Y-100881097D02*
X164499999Y-98595382D01*
X159357142Y-99738240D02*
X161642857Y-99738240D01*
D10*
X231064849Y-109451000D02*
X231493421Y-109593857D01*
X231493421Y-109593857D02*
X232207706Y-109593857D01*
X232207706Y-109593857D02*
X232493421Y-109451000D01*
X232493421Y-109451000D02*
X232636278Y-109308142D01*
X232636278Y-109308142D02*
X232779135Y-109022428D01*
X232779135Y-109022428D02*
X232779135Y-108736714D01*
X232779135Y-108736714D02*
X232636278Y-108451000D01*
X232636278Y-108451000D02*
X232493421Y-108308142D01*
X232493421Y-108308142D02*
X232207706Y-108165285D01*
X232207706Y-108165285D02*
X231636278Y-108022428D01*
X231636278Y-108022428D02*
X231350563Y-107879571D01*
X231350563Y-107879571D02*
X231207706Y-107736714D01*
X231207706Y-107736714D02*
X231064849Y-107451000D01*
X231064849Y-107451000D02*
X231064849Y-107165285D01*
X231064849Y-107165285D02*
X231207706Y-106879571D01*
X231207706Y-106879571D02*
X231350563Y-106736714D01*
X231350563Y-106736714D02*
X231636278Y-106593857D01*
X231636278Y-106593857D02*
X232350563Y-106593857D01*
X232350563Y-106593857D02*
X232779135Y-106736714D01*
X233779135Y-107593857D02*
X234350564Y-109593857D01*
X234350564Y-109593857D02*
X234921992Y-108165285D01*
X234921992Y-108165285D02*
X235493421Y-109593857D01*
X235493421Y-109593857D02*
X236064849Y-107593857D01*
X237207706Y-109593857D02*
X237207706Y-107593857D01*
X237207706Y-106593857D02*
X237064849Y-106736714D01*
X237064849Y-106736714D02*
X237207706Y-106879571D01*
X237207706Y-106879571D02*
X237350563Y-106736714D01*
X237350563Y-106736714D02*
X237207706Y-106593857D01*
X237207706Y-106593857D02*
X237207706Y-106879571D01*
X238207706Y-107593857D02*
X239350563Y-107593857D01*
X238636277Y-106593857D02*
X238636277Y-109165285D01*
X238636277Y-109165285D02*
X238779134Y-109451000D01*
X238779134Y-109451000D02*
X239064849Y-109593857D01*
X239064849Y-109593857D02*
X239350563Y-109593857D01*
X241636278Y-109451000D02*
X241350563Y-109593857D01*
X241350563Y-109593857D02*
X240779135Y-109593857D01*
X240779135Y-109593857D02*
X240493420Y-109451000D01*
X240493420Y-109451000D02*
X240350563Y-109308142D01*
X240350563Y-109308142D02*
X240207706Y-109022428D01*
X240207706Y-109022428D02*
X240207706Y-108165285D01*
X240207706Y-108165285D02*
X240350563Y-107879571D01*
X240350563Y-107879571D02*
X240493420Y-107736714D01*
X240493420Y-107736714D02*
X240779135Y-107593857D01*
X240779135Y-107593857D02*
X241350563Y-107593857D01*
X241350563Y-107593857D02*
X241636278Y-107736714D01*
X242921992Y-109593857D02*
X242921992Y-106593857D01*
X244207707Y-109593857D02*
X244207707Y-108022428D01*
X244207707Y-108022428D02*
X244064849Y-107736714D01*
X244064849Y-107736714D02*
X243779135Y-107593857D01*
X243779135Y-107593857D02*
X243350564Y-107593857D01*
X243350564Y-107593857D02*
X243064849Y-107736714D01*
X243064849Y-107736714D02*
X242921992Y-107879571D01*
D11*
X224758597Y-112142856D02*
X224687168Y-112285714D01*
X224687168Y-112285714D02*
X224687168Y-112499999D01*
X224687168Y-112499999D02*
X224758597Y-112714285D01*
X224758597Y-112714285D02*
X224901454Y-112857142D01*
X224901454Y-112857142D02*
X225044311Y-112928571D01*
X225044311Y-112928571D02*
X225330025Y-112999999D01*
X225330025Y-112999999D02*
X225544311Y-112999999D01*
X225544311Y-112999999D02*
X225830025Y-112928571D01*
X225830025Y-112928571D02*
X225972882Y-112857142D01*
X225972882Y-112857142D02*
X226115740Y-112714285D01*
X226115740Y-112714285D02*
X226187168Y-112499999D01*
X226187168Y-112499999D02*
X226187168Y-112357142D01*
X226187168Y-112357142D02*
X226115740Y-112142856D01*
X226115740Y-112142856D02*
X226044311Y-112071428D01*
X226044311Y-112071428D02*
X225544311Y-112071428D01*
X225544311Y-112071428D02*
X225544311Y-112357142D01*
X226187168Y-111428571D02*
X224687168Y-111428571D01*
X224687168Y-111428571D02*
X226187168Y-110571428D01*
X226187168Y-110571428D02*
X224687168Y-110571428D01*
X226187168Y-109857142D02*
X224687168Y-109857142D01*
X224687168Y-109857142D02*
X224687168Y-109499999D01*
X224687168Y-109499999D02*
X224758597Y-109285713D01*
X224758597Y-109285713D02*
X224901454Y-109142856D01*
X224901454Y-109142856D02*
X225044311Y-109071427D01*
X225044311Y-109071427D02*
X225330025Y-108999999D01*
X225330025Y-108999999D02*
X225544311Y-108999999D01*
X225544311Y-108999999D02*
X225830025Y-109071427D01*
X225830025Y-109071427D02*
X225972882Y-109142856D01*
X225972882Y-109142856D02*
X226115740Y-109285713D01*
X226115740Y-109285713D02*
X226187168Y-109499999D01*
X226187168Y-109499999D02*
X226187168Y-109857142D01*
D10*
X250631456Y-96273678D02*
X251060028Y-96416535D01*
X251060028Y-96416535D02*
X251202885Y-96559392D01*
X251202885Y-96559392D02*
X251345742Y-96845107D01*
X251345742Y-96845107D02*
X251345742Y-97273678D01*
X251345742Y-97273678D02*
X251202885Y-97559392D01*
X251202885Y-97559392D02*
X251060028Y-97702250D01*
X251060028Y-97702250D02*
X250774313Y-97845107D01*
X250774313Y-97845107D02*
X249631456Y-97845107D01*
X249631456Y-97845107D02*
X249631456Y-94845107D01*
X249631456Y-94845107D02*
X250631456Y-94845107D01*
X250631456Y-94845107D02*
X250917171Y-94987964D01*
X250917171Y-94987964D02*
X251060028Y-95130821D01*
X251060028Y-95130821D02*
X251202885Y-95416535D01*
X251202885Y-95416535D02*
X251202885Y-95702250D01*
X251202885Y-95702250D02*
X251060028Y-95987964D01*
X251060028Y-95987964D02*
X250917171Y-96130821D01*
X250917171Y-96130821D02*
X250631456Y-96273678D01*
X250631456Y-96273678D02*
X249631456Y-96273678D01*
X252488599Y-96987964D02*
X253917171Y-96987964D01*
X252202885Y-97845107D02*
X253202885Y-94845107D01*
X253202885Y-94845107D02*
X254202885Y-97845107D01*
X254774314Y-94845107D02*
X256488600Y-94845107D01*
X255631457Y-97845107D02*
X255631457Y-94845107D01*
X260345742Y-94845107D02*
X260917170Y-94845107D01*
X260917170Y-94845107D02*
X261202885Y-94987964D01*
X261202885Y-94987964D02*
X261488599Y-95273678D01*
X261488599Y-95273678D02*
X261631456Y-95845107D01*
X261631456Y-95845107D02*
X261631456Y-96845107D01*
X261631456Y-96845107D02*
X261488599Y-97416535D01*
X261488599Y-97416535D02*
X261202885Y-97702250D01*
X261202885Y-97702250D02*
X260917170Y-97845107D01*
X260917170Y-97845107D02*
X260345742Y-97845107D01*
X260345742Y-97845107D02*
X260060028Y-97702250D01*
X260060028Y-97702250D02*
X259774313Y-97416535D01*
X259774313Y-97416535D02*
X259631456Y-96845107D01*
X259631456Y-96845107D02*
X259631456Y-95845107D01*
X259631456Y-95845107D02*
X259774313Y-95273678D01*
X259774313Y-95273678D02*
X260060028Y-94987964D01*
X260060028Y-94987964D02*
X260345742Y-94845107D01*
X262917170Y-94845107D02*
X262917170Y-97273678D01*
X262917170Y-97273678D02*
X263060027Y-97559392D01*
X263060027Y-97559392D02*
X263202885Y-97702250D01*
X263202885Y-97702250D02*
X263488599Y-97845107D01*
X263488599Y-97845107D02*
X264060027Y-97845107D01*
X264060027Y-97845107D02*
X264345742Y-97702250D01*
X264345742Y-97702250D02*
X264488599Y-97559392D01*
X264488599Y-97559392D02*
X264631456Y-97273678D01*
X264631456Y-97273678D02*
X264631456Y-94845107D01*
X265631456Y-94845107D02*
X267345742Y-94845107D01*
X266488599Y-97845107D02*
X266488599Y-94845107D01*
D11*
X222615740Y-111785713D02*
X222687168Y-111571428D01*
X222687168Y-111571428D02*
X222687168Y-111214285D01*
X222687168Y-111214285D02*
X222615740Y-111071428D01*
X222615740Y-111071428D02*
X222544311Y-110999999D01*
X222544311Y-110999999D02*
X222401454Y-110928570D01*
X222401454Y-110928570D02*
X222258597Y-110928570D01*
X222258597Y-110928570D02*
X222115740Y-110999999D01*
X222115740Y-110999999D02*
X222044311Y-111071428D01*
X222044311Y-111071428D02*
X221972882Y-111214285D01*
X221972882Y-111214285D02*
X221901454Y-111499999D01*
X221901454Y-111499999D02*
X221830025Y-111642856D01*
X221830025Y-111642856D02*
X221758597Y-111714285D01*
X221758597Y-111714285D02*
X221615740Y-111785713D01*
X221615740Y-111785713D02*
X221472882Y-111785713D01*
X221472882Y-111785713D02*
X221330025Y-111714285D01*
X221330025Y-111714285D02*
X221258597Y-111642856D01*
X221258597Y-111642856D02*
X221187168Y-111499999D01*
X221187168Y-111499999D02*
X221187168Y-111142856D01*
X221187168Y-111142856D02*
X221258597Y-110928570D01*
X221187168Y-110428571D02*
X222687168Y-110071428D01*
X222687168Y-110071428D02*
X221615740Y-109785714D01*
X221615740Y-109785714D02*
X222687168Y-109499999D01*
X222687168Y-109499999D02*
X221187168Y-109142857D01*
X219115740Y-113428571D02*
X219115740Y-112285714D01*
X219687168Y-112857142D02*
X218544311Y-112857142D01*
X218187168Y-110857142D02*
X218187168Y-111571428D01*
X218187168Y-111571428D02*
X218901454Y-111642856D01*
X218901454Y-111642856D02*
X218830025Y-111571428D01*
X218830025Y-111571428D02*
X218758597Y-111428571D01*
X218758597Y-111428571D02*
X218758597Y-111071428D01*
X218758597Y-111071428D02*
X218830025Y-110928571D01*
X218830025Y-110928571D02*
X218901454Y-110857142D01*
X218901454Y-110857142D02*
X219044311Y-110785713D01*
X219044311Y-110785713D02*
X219401454Y-110785713D01*
X219401454Y-110785713D02*
X219544311Y-110857142D01*
X219544311Y-110857142D02*
X219615740Y-110928571D01*
X219615740Y-110928571D02*
X219687168Y-111071428D01*
X219687168Y-111071428D02*
X219687168Y-111428571D01*
X219687168Y-111428571D02*
X219615740Y-111571428D01*
X219615740Y-111571428D02*
X219544311Y-111642856D01*
X218187168Y-110357142D02*
X219687168Y-109857142D01*
X219687168Y-109857142D02*
X218187168Y-109357142D01*
D12*
X182300057Y-106485238D02*
X182252438Y-106580476D01*
X182252438Y-106580476D02*
X182157200Y-106675714D01*
X182157200Y-106675714D02*
X182014342Y-106818571D01*
X182014342Y-106818571D02*
X181966723Y-106913809D01*
X181966723Y-106913809D02*
X181966723Y-107009047D01*
X182204819Y-106961428D02*
X182157200Y-107056666D01*
X182157200Y-107056666D02*
X182061961Y-107151904D01*
X182061961Y-107151904D02*
X181871485Y-107199523D01*
X181871485Y-107199523D02*
X181538152Y-107199523D01*
X181538152Y-107199523D02*
X181347676Y-107151904D01*
X181347676Y-107151904D02*
X181252438Y-107056666D01*
X181252438Y-107056666D02*
X181204819Y-106961428D01*
X181204819Y-106961428D02*
X181204819Y-106770952D01*
X181204819Y-106770952D02*
X181252438Y-106675714D01*
X181252438Y-106675714D02*
X181347676Y-106580476D01*
X181347676Y-106580476D02*
X181538152Y-106532857D01*
X181538152Y-106532857D02*
X181871485Y-106532857D01*
X181871485Y-106532857D02*
X182061961Y-106580476D01*
X182061961Y-106580476D02*
X182157200Y-106675714D01*
X182157200Y-106675714D02*
X182204819Y-106770952D01*
X182204819Y-106770952D02*
X182204819Y-106961428D01*
X181204819Y-105675714D02*
X181204819Y-105866190D01*
X181204819Y-105866190D02*
X181252438Y-105961428D01*
X181252438Y-105961428D02*
X181300057Y-106009047D01*
X181300057Y-106009047D02*
X181442914Y-106104285D01*
X181442914Y-106104285D02*
X181633390Y-106151904D01*
X181633390Y-106151904D02*
X182014342Y-106151904D01*
X182014342Y-106151904D02*
X182109580Y-106104285D01*
X182109580Y-106104285D02*
X182157200Y-106056666D01*
X182157200Y-106056666D02*
X182204819Y-105961428D01*
X182204819Y-105961428D02*
X182204819Y-105770952D01*
X182204819Y-105770952D02*
X182157200Y-105675714D01*
X182157200Y-105675714D02*
X182109580Y-105628095D01*
X182109580Y-105628095D02*
X182014342Y-105580476D01*
X182014342Y-105580476D02*
X181776247Y-105580476D01*
X181776247Y-105580476D02*
X181681009Y-105628095D01*
X181681009Y-105628095D02*
X181633390Y-105675714D01*
X181633390Y-105675714D02*
X181585771Y-105770952D01*
X181585771Y-105770952D02*
X181585771Y-105961428D01*
X181585771Y-105961428D02*
X181633390Y-106056666D01*
X181633390Y-106056666D02*
X181681009Y-106104285D01*
X181681009Y-106104285D02*
X181776247Y-106151904D01*
X187524819Y-110082857D02*
X187048628Y-110416190D01*
X187524819Y-110654285D02*
X186524819Y-110654285D01*
X186524819Y-110654285D02*
X186524819Y-110273333D01*
X186524819Y-110273333D02*
X186572438Y-110178095D01*
X186572438Y-110178095D02*
X186620057Y-110130476D01*
X186620057Y-110130476D02*
X186715295Y-110082857D01*
X186715295Y-110082857D02*
X186858152Y-110082857D01*
X186858152Y-110082857D02*
X186953390Y-110130476D01*
X186953390Y-110130476D02*
X187001009Y-110178095D01*
X187001009Y-110178095D02*
X187048628Y-110273333D01*
X187048628Y-110273333D02*
X187048628Y-110654285D01*
X187524819Y-109130476D02*
X187524819Y-109701904D01*
X187524819Y-109416190D02*
X186524819Y-109416190D01*
X186524819Y-109416190D02*
X186667676Y-109511428D01*
X186667676Y-109511428D02*
X186762914Y-109606666D01*
X186762914Y-109606666D02*
X186810533Y-109701904D01*
X186858152Y-108273333D02*
X187524819Y-108273333D01*
X186477200Y-108511428D02*
X187191485Y-108749523D01*
X187191485Y-108749523D02*
X187191485Y-108130476D01*
X210364819Y-103266666D02*
X209888628Y-103599999D01*
X210364819Y-103838094D02*
X209364819Y-103838094D01*
X209364819Y-103838094D02*
X209364819Y-103457142D01*
X209364819Y-103457142D02*
X209412438Y-103361904D01*
X209412438Y-103361904D02*
X209460057Y-103314285D01*
X209460057Y-103314285D02*
X209555295Y-103266666D01*
X209555295Y-103266666D02*
X209698152Y-103266666D01*
X209698152Y-103266666D02*
X209793390Y-103314285D01*
X209793390Y-103314285D02*
X209841009Y-103361904D01*
X209841009Y-103361904D02*
X209888628Y-103457142D01*
X209888628Y-103457142D02*
X209888628Y-103838094D01*
X209364819Y-102361904D02*
X209364819Y-102838094D01*
X209364819Y-102838094D02*
X209841009Y-102885713D01*
X209841009Y-102885713D02*
X209793390Y-102838094D01*
X209793390Y-102838094D02*
X209745771Y-102742856D01*
X209745771Y-102742856D02*
X209745771Y-102504761D01*
X209745771Y-102504761D02*
X209793390Y-102409523D01*
X209793390Y-102409523D02*
X209841009Y-102361904D01*
X209841009Y-102361904D02*
X209936247Y-102314285D01*
X209936247Y-102314285D02*
X210174342Y-102314285D01*
X210174342Y-102314285D02*
X210269580Y-102361904D01*
X210269580Y-102361904D02*
X210317200Y-102409523D01*
X210317200Y-102409523D02*
X210364819Y-102504761D01*
X210364819Y-102504761D02*
X210364819Y-102742856D01*
X210364819Y-102742856D02*
X210317200Y-102838094D01*
X210317200Y-102838094D02*
X210269580Y-102885713D01*
X193377142Y-89744819D02*
X193043809Y-89268628D01*
X192805714Y-89744819D02*
X192805714Y-88744819D01*
X192805714Y-88744819D02*
X193186666Y-88744819D01*
X193186666Y-88744819D02*
X193281904Y-88792438D01*
X193281904Y-88792438D02*
X193329523Y-88840057D01*
X193329523Y-88840057D02*
X193377142Y-88935295D01*
X193377142Y-88935295D02*
X193377142Y-89078152D01*
X193377142Y-89078152D02*
X193329523Y-89173390D01*
X193329523Y-89173390D02*
X193281904Y-89221009D01*
X193281904Y-89221009D02*
X193186666Y-89268628D01*
X193186666Y-89268628D02*
X192805714Y-89268628D01*
X193758095Y-88840057D02*
X193805714Y-88792438D01*
X193805714Y-88792438D02*
X193900952Y-88744819D01*
X193900952Y-88744819D02*
X194139047Y-88744819D01*
X194139047Y-88744819D02*
X194234285Y-88792438D01*
X194234285Y-88792438D02*
X194281904Y-88840057D01*
X194281904Y-88840057D02*
X194329523Y-88935295D01*
X194329523Y-88935295D02*
X194329523Y-89030533D01*
X194329523Y-89030533D02*
X194281904Y-89173390D01*
X194281904Y-89173390D02*
X193710476Y-89744819D01*
X193710476Y-89744819D02*
X194329523Y-89744819D01*
X195186666Y-88744819D02*
X194996190Y-88744819D01*
X194996190Y-88744819D02*
X194900952Y-88792438D01*
X194900952Y-88792438D02*
X194853333Y-88840057D01*
X194853333Y-88840057D02*
X194758095Y-88982914D01*
X194758095Y-88982914D02*
X194710476Y-89173390D01*
X194710476Y-89173390D02*
X194710476Y-89554342D01*
X194710476Y-89554342D02*
X194758095Y-89649580D01*
X194758095Y-89649580D02*
X194805714Y-89697200D01*
X194805714Y-89697200D02*
X194900952Y-89744819D01*
X194900952Y-89744819D02*
X195091428Y-89744819D01*
X195091428Y-89744819D02*
X195186666Y-89697200D01*
X195186666Y-89697200D02*
X195234285Y-89649580D01*
X195234285Y-89649580D02*
X195281904Y-89554342D01*
X195281904Y-89554342D02*
X195281904Y-89316247D01*
X195281904Y-89316247D02*
X195234285Y-89221009D01*
X195234285Y-89221009D02*
X195186666Y-89173390D01*
X195186666Y-89173390D02*
X195091428Y-89125771D01*
X195091428Y-89125771D02*
X194900952Y-89125771D01*
X194900952Y-89125771D02*
X194805714Y-89173390D01*
X194805714Y-89173390D02*
X194758095Y-89221009D01*
X194758095Y-89221009D02*
X194710476Y-89316247D01*
X199526569Y-70013154D02*
X199526569Y-69441726D01*
X200526569Y-69727440D02*
X199526569Y-69727440D01*
X200526569Y-69108392D02*
X199526569Y-69108392D01*
X199526569Y-69108392D02*
X199526569Y-68727440D01*
X199526569Y-68727440D02*
X199574188Y-68632202D01*
X199574188Y-68632202D02*
X199621807Y-68584583D01*
X199621807Y-68584583D02*
X199717045Y-68536964D01*
X199717045Y-68536964D02*
X199859902Y-68536964D01*
X199859902Y-68536964D02*
X199955140Y-68584583D01*
X199955140Y-68584583D02*
X200002759Y-68632202D01*
X200002759Y-68632202D02*
X200050378Y-68727440D01*
X200050378Y-68727440D02*
X200050378Y-69108392D01*
X199526569Y-68203630D02*
X199526569Y-67584583D01*
X199526569Y-67584583D02*
X199907521Y-67917916D01*
X199907521Y-67917916D02*
X199907521Y-67775059D01*
X199907521Y-67775059D02*
X199955140Y-67679821D01*
X199955140Y-67679821D02*
X200002759Y-67632202D01*
X200002759Y-67632202D02*
X200097997Y-67584583D01*
X200097997Y-67584583D02*
X200336092Y-67584583D01*
X200336092Y-67584583D02*
X200431330Y-67632202D01*
X200431330Y-67632202D02*
X200478950Y-67679821D01*
X200478950Y-67679821D02*
X200526569Y-67775059D01*
X200526569Y-67775059D02*
X200526569Y-68060773D01*
X200526569Y-68060773D02*
X200478950Y-68156011D01*
X200478950Y-68156011D02*
X200431330Y-68203630D01*
X205257083Y-116610830D02*
X205209464Y-116658450D01*
X205209464Y-116658450D02*
X205066607Y-116706069D01*
X205066607Y-116706069D02*
X204971369Y-116706069D01*
X204971369Y-116706069D02*
X204828512Y-116658450D01*
X204828512Y-116658450D02*
X204733274Y-116563211D01*
X204733274Y-116563211D02*
X204685655Y-116467973D01*
X204685655Y-116467973D02*
X204638036Y-116277497D01*
X204638036Y-116277497D02*
X204638036Y-116134640D01*
X204638036Y-116134640D02*
X204685655Y-115944164D01*
X204685655Y-115944164D02*
X204733274Y-115848926D01*
X204733274Y-115848926D02*
X204828512Y-115753688D01*
X204828512Y-115753688D02*
X204971369Y-115706069D01*
X204971369Y-115706069D02*
X205066607Y-115706069D01*
X205066607Y-115706069D02*
X205209464Y-115753688D01*
X205209464Y-115753688D02*
X205257083Y-115801307D01*
X206114226Y-116039402D02*
X206114226Y-116706069D01*
X205876131Y-115658450D02*
X205638036Y-116372735D01*
X205638036Y-116372735D02*
X206257083Y-116372735D01*
X192744819Y-116001904D02*
X192744819Y-115430476D01*
X193744819Y-115716190D02*
X192744819Y-115716190D01*
X193744819Y-115097142D02*
X192744819Y-115097142D01*
X192744819Y-115097142D02*
X192744819Y-114716190D01*
X192744819Y-114716190D02*
X192792438Y-114620952D01*
X192792438Y-114620952D02*
X192840057Y-114573333D01*
X192840057Y-114573333D02*
X192935295Y-114525714D01*
X192935295Y-114525714D02*
X193078152Y-114525714D01*
X193078152Y-114525714D02*
X193173390Y-114573333D01*
X193173390Y-114573333D02*
X193221009Y-114620952D01*
X193221009Y-114620952D02*
X193268628Y-114716190D01*
X193268628Y-114716190D02*
X193268628Y-115097142D01*
X192744819Y-113620952D02*
X192744819Y-114097142D01*
X192744819Y-114097142D02*
X193221009Y-114144761D01*
X193221009Y-114144761D02*
X193173390Y-114097142D01*
X193173390Y-114097142D02*
X193125771Y-114001904D01*
X193125771Y-114001904D02*
X193125771Y-113763809D01*
X193125771Y-113763809D02*
X193173390Y-113668571D01*
X193173390Y-113668571D02*
X193221009Y-113620952D01*
X193221009Y-113620952D02*
X193316247Y-113573333D01*
X193316247Y-113573333D02*
X193554342Y-113573333D01*
X193554342Y-113573333D02*
X193649580Y-113620952D01*
X193649580Y-113620952D02*
X193697200Y-113668571D01*
X193697200Y-113668571D02*
X193744819Y-113763809D01*
X193744819Y-113763809D02*
X193744819Y-114001904D01*
X193744819Y-114001904D02*
X193697200Y-114097142D01*
X193697200Y-114097142D02*
X193649580Y-114144761D01*
X187520057Y-105965238D02*
X187472438Y-106060476D01*
X187472438Y-106060476D02*
X187377200Y-106155714D01*
X187377200Y-106155714D02*
X187234342Y-106298571D01*
X187234342Y-106298571D02*
X187186723Y-106393809D01*
X187186723Y-106393809D02*
X187186723Y-106489047D01*
X187424819Y-106441428D02*
X187377200Y-106536666D01*
X187377200Y-106536666D02*
X187281961Y-106631904D01*
X187281961Y-106631904D02*
X187091485Y-106679523D01*
X187091485Y-106679523D02*
X186758152Y-106679523D01*
X186758152Y-106679523D02*
X186567676Y-106631904D01*
X186567676Y-106631904D02*
X186472438Y-106536666D01*
X186472438Y-106536666D02*
X186424819Y-106441428D01*
X186424819Y-106441428D02*
X186424819Y-106250952D01*
X186424819Y-106250952D02*
X186472438Y-106155714D01*
X186472438Y-106155714D02*
X186567676Y-106060476D01*
X186567676Y-106060476D02*
X186758152Y-106012857D01*
X186758152Y-106012857D02*
X187091485Y-106012857D01*
X187091485Y-106012857D02*
X187281961Y-106060476D01*
X187281961Y-106060476D02*
X187377200Y-106155714D01*
X187377200Y-106155714D02*
X187424819Y-106250952D01*
X187424819Y-106250952D02*
X187424819Y-106441428D01*
X186853390Y-105441428D02*
X186805771Y-105536666D01*
X186805771Y-105536666D02*
X186758152Y-105584285D01*
X186758152Y-105584285D02*
X186662914Y-105631904D01*
X186662914Y-105631904D02*
X186615295Y-105631904D01*
X186615295Y-105631904D02*
X186520057Y-105584285D01*
X186520057Y-105584285D02*
X186472438Y-105536666D01*
X186472438Y-105536666D02*
X186424819Y-105441428D01*
X186424819Y-105441428D02*
X186424819Y-105250952D01*
X186424819Y-105250952D02*
X186472438Y-105155714D01*
X186472438Y-105155714D02*
X186520057Y-105108095D01*
X186520057Y-105108095D02*
X186615295Y-105060476D01*
X186615295Y-105060476D02*
X186662914Y-105060476D01*
X186662914Y-105060476D02*
X186758152Y-105108095D01*
X186758152Y-105108095D02*
X186805771Y-105155714D01*
X186805771Y-105155714D02*
X186853390Y-105250952D01*
X186853390Y-105250952D02*
X186853390Y-105441428D01*
X186853390Y-105441428D02*
X186901009Y-105536666D01*
X186901009Y-105536666D02*
X186948628Y-105584285D01*
X186948628Y-105584285D02*
X187043866Y-105631904D01*
X187043866Y-105631904D02*
X187234342Y-105631904D01*
X187234342Y-105631904D02*
X187329580Y-105584285D01*
X187329580Y-105584285D02*
X187377200Y-105536666D01*
X187377200Y-105536666D02*
X187424819Y-105441428D01*
X187424819Y-105441428D02*
X187424819Y-105250952D01*
X187424819Y-105250952D02*
X187377200Y-105155714D01*
X187377200Y-105155714D02*
X187329580Y-105108095D01*
X187329580Y-105108095D02*
X187234342Y-105060476D01*
X187234342Y-105060476D02*
X187043866Y-105060476D01*
X187043866Y-105060476D02*
X186948628Y-105108095D01*
X186948628Y-105108095D02*
X186901009Y-105155714D01*
X186901009Y-105155714D02*
X186853390Y-105250952D01*
X212284819Y-102531904D02*
X212284819Y-101960476D01*
X213284819Y-102246190D02*
X212284819Y-102246190D01*
X213284819Y-101627142D02*
X212284819Y-101627142D01*
X212284819Y-101627142D02*
X212284819Y-101246190D01*
X212284819Y-101246190D02*
X212332438Y-101150952D01*
X212332438Y-101150952D02*
X212380057Y-101103333D01*
X212380057Y-101103333D02*
X212475295Y-101055714D01*
X212475295Y-101055714D02*
X212618152Y-101055714D01*
X212618152Y-101055714D02*
X212713390Y-101103333D01*
X212713390Y-101103333D02*
X212761009Y-101150952D01*
X212761009Y-101150952D02*
X212808628Y-101246190D01*
X212808628Y-101246190D02*
X212808628Y-101627142D01*
X212618152Y-100198571D02*
X213284819Y-100198571D01*
X212237200Y-100436666D02*
X212951485Y-100674761D01*
X212951485Y-100674761D02*
X212951485Y-100055714D01*
X204378569Y-102394107D02*
X203902378Y-102727440D01*
X204378569Y-102965535D02*
X203378569Y-102965535D01*
X203378569Y-102965535D02*
X203378569Y-102584583D01*
X203378569Y-102584583D02*
X203426188Y-102489345D01*
X203426188Y-102489345D02*
X203473807Y-102441726D01*
X203473807Y-102441726D02*
X203569045Y-102394107D01*
X203569045Y-102394107D02*
X203711902Y-102394107D01*
X203711902Y-102394107D02*
X203807140Y-102441726D01*
X203807140Y-102441726D02*
X203854759Y-102489345D01*
X203854759Y-102489345D02*
X203902378Y-102584583D01*
X203902378Y-102584583D02*
X203902378Y-102965535D01*
X203473807Y-102013154D02*
X203426188Y-101965535D01*
X203426188Y-101965535D02*
X203378569Y-101870297D01*
X203378569Y-101870297D02*
X203378569Y-101632202D01*
X203378569Y-101632202D02*
X203426188Y-101536964D01*
X203426188Y-101536964D02*
X203473807Y-101489345D01*
X203473807Y-101489345D02*
X203569045Y-101441726D01*
X203569045Y-101441726D02*
X203664283Y-101441726D01*
X203664283Y-101441726D02*
X203807140Y-101489345D01*
X203807140Y-101489345D02*
X204378569Y-102060773D01*
X204378569Y-102060773D02*
X204378569Y-101441726D01*
X203711902Y-100584583D02*
X204378569Y-100584583D01*
X203330950Y-100822678D02*
X204045235Y-101060773D01*
X204045235Y-101060773D02*
X204045235Y-100441726D01*
X172686307Y-110403928D02*
X172638688Y-110499166D01*
X172638688Y-110499166D02*
X172543450Y-110594404D01*
X172543450Y-110594404D02*
X172400592Y-110737261D01*
X172400592Y-110737261D02*
X172352973Y-110832499D01*
X172352973Y-110832499D02*
X172352973Y-110927737D01*
X172591069Y-110880118D02*
X172543450Y-110975356D01*
X172543450Y-110975356D02*
X172448211Y-111070594D01*
X172448211Y-111070594D02*
X172257735Y-111118213D01*
X172257735Y-111118213D02*
X171924402Y-111118213D01*
X171924402Y-111118213D02*
X171733926Y-111070594D01*
X171733926Y-111070594D02*
X171638688Y-110975356D01*
X171638688Y-110975356D02*
X171591069Y-110880118D01*
X171591069Y-110880118D02*
X171591069Y-110689642D01*
X171591069Y-110689642D02*
X171638688Y-110594404D01*
X171638688Y-110594404D02*
X171733926Y-110499166D01*
X171733926Y-110499166D02*
X171924402Y-110451547D01*
X171924402Y-110451547D02*
X172257735Y-110451547D01*
X172257735Y-110451547D02*
X172448211Y-110499166D01*
X172448211Y-110499166D02*
X172543450Y-110594404D01*
X172543450Y-110594404D02*
X172591069Y-110689642D01*
X172591069Y-110689642D02*
X172591069Y-110880118D01*
X172591069Y-109499166D02*
X172591069Y-110070594D01*
X172591069Y-109784880D02*
X171591069Y-109784880D01*
X171591069Y-109784880D02*
X171733926Y-109880118D01*
X171733926Y-109880118D02*
X171829164Y-109975356D01*
X171829164Y-109975356D02*
X171876783Y-110070594D01*
X172591069Y-108546785D02*
X172591069Y-109118213D01*
X172591069Y-108832499D02*
X171591069Y-108832499D01*
X171591069Y-108832499D02*
X171733926Y-108927737D01*
X171733926Y-108927737D02*
X171829164Y-109022975D01*
X171829164Y-109022975D02*
X171876783Y-109118213D01*
X161166666Y-107756069D02*
X161166666Y-108470354D01*
X161166666Y-108470354D02*
X161119047Y-108613211D01*
X161119047Y-108613211D02*
X161023809Y-108708450D01*
X161023809Y-108708450D02*
X160880952Y-108756069D01*
X160880952Y-108756069D02*
X160785714Y-108756069D01*
X162166666Y-108756069D02*
X161595238Y-108756069D01*
X161880952Y-108756069D02*
X161880952Y-107756069D01*
X161880952Y-107756069D02*
X161785714Y-107898926D01*
X161785714Y-107898926D02*
X161690476Y-107994164D01*
X161690476Y-107994164D02*
X161595238Y-108041783D01*
X213944642Y-115884819D02*
X213611309Y-115408628D01*
X213373214Y-115884819D02*
X213373214Y-114884819D01*
X213373214Y-114884819D02*
X213754166Y-114884819D01*
X213754166Y-114884819D02*
X213849404Y-114932438D01*
X213849404Y-114932438D02*
X213897023Y-114980057D01*
X213897023Y-114980057D02*
X213944642Y-115075295D01*
X213944642Y-115075295D02*
X213944642Y-115218152D01*
X213944642Y-115218152D02*
X213897023Y-115313390D01*
X213897023Y-115313390D02*
X213849404Y-115361009D01*
X213849404Y-115361009D02*
X213754166Y-115408628D01*
X213754166Y-115408628D02*
X213373214Y-115408628D01*
X214325595Y-114980057D02*
X214373214Y-114932438D01*
X214373214Y-114932438D02*
X214468452Y-114884819D01*
X214468452Y-114884819D02*
X214706547Y-114884819D01*
X214706547Y-114884819D02*
X214801785Y-114932438D01*
X214801785Y-114932438D02*
X214849404Y-114980057D01*
X214849404Y-114980057D02*
X214897023Y-115075295D01*
X214897023Y-115075295D02*
X214897023Y-115170533D01*
X214897023Y-115170533D02*
X214849404Y-115313390D01*
X214849404Y-115313390D02*
X214277976Y-115884819D01*
X214277976Y-115884819D02*
X214897023Y-115884819D01*
X215230357Y-114884819D02*
X215897023Y-114884819D01*
X215897023Y-114884819D02*
X215468452Y-115884819D01*
X189378569Y-93489344D02*
X188378569Y-93489344D01*
X188378569Y-93489344D02*
X188378569Y-93251249D01*
X188378569Y-93251249D02*
X188426188Y-93108392D01*
X188426188Y-93108392D02*
X188521426Y-93013154D01*
X188521426Y-93013154D02*
X188616664Y-92965535D01*
X188616664Y-92965535D02*
X188807140Y-92917916D01*
X188807140Y-92917916D02*
X188949997Y-92917916D01*
X188949997Y-92917916D02*
X189140473Y-92965535D01*
X189140473Y-92965535D02*
X189235711Y-93013154D01*
X189235711Y-93013154D02*
X189330950Y-93108392D01*
X189330950Y-93108392D02*
X189378569Y-93251249D01*
X189378569Y-93251249D02*
X189378569Y-93489344D01*
X189378569Y-91965535D02*
X189378569Y-92536963D01*
X189378569Y-92251249D02*
X188378569Y-92251249D01*
X188378569Y-92251249D02*
X188521426Y-92346487D01*
X188521426Y-92346487D02*
X188616664Y-92441725D01*
X188616664Y-92441725D02*
X188664283Y-92536963D01*
X165454819Y-110513154D02*
X165454819Y-109941726D01*
X166454819Y-110227440D02*
X165454819Y-110227440D01*
X166454819Y-109608392D02*
X165454819Y-109608392D01*
X165454819Y-109608392D02*
X165454819Y-109227440D01*
X165454819Y-109227440D02*
X165502438Y-109132202D01*
X165502438Y-109132202D02*
X165550057Y-109084583D01*
X165550057Y-109084583D02*
X165645295Y-109036964D01*
X165645295Y-109036964D02*
X165788152Y-109036964D01*
X165788152Y-109036964D02*
X165883390Y-109084583D01*
X165883390Y-109084583D02*
X165931009Y-109132202D01*
X165931009Y-109132202D02*
X165978628Y-109227440D01*
X165978628Y-109227440D02*
X165978628Y-109608392D01*
X166454819Y-108084583D02*
X166454819Y-108656011D01*
X166454819Y-108370297D02*
X165454819Y-108370297D01*
X165454819Y-108370297D02*
X165597676Y-108465535D01*
X165597676Y-108465535D02*
X165692914Y-108560773D01*
X165692914Y-108560773D02*
X165740533Y-108656011D01*
X190057142Y-99014819D02*
X189723809Y-98538628D01*
X189485714Y-99014819D02*
X189485714Y-98014819D01*
X189485714Y-98014819D02*
X189866666Y-98014819D01*
X189866666Y-98014819D02*
X189961904Y-98062438D01*
X189961904Y-98062438D02*
X190009523Y-98110057D01*
X190009523Y-98110057D02*
X190057142Y-98205295D01*
X190057142Y-98205295D02*
X190057142Y-98348152D01*
X190057142Y-98348152D02*
X190009523Y-98443390D01*
X190009523Y-98443390D02*
X189961904Y-98491009D01*
X189961904Y-98491009D02*
X189866666Y-98538628D01*
X189866666Y-98538628D02*
X189485714Y-98538628D01*
X191009523Y-99014819D02*
X190438095Y-99014819D01*
X190723809Y-99014819D02*
X190723809Y-98014819D01*
X190723809Y-98014819D02*
X190628571Y-98157676D01*
X190628571Y-98157676D02*
X190533333Y-98252914D01*
X190533333Y-98252914D02*
X190438095Y-98300533D01*
X191342857Y-98014819D02*
X191961904Y-98014819D01*
X191961904Y-98014819D02*
X191628571Y-98395771D01*
X191628571Y-98395771D02*
X191771428Y-98395771D01*
X191771428Y-98395771D02*
X191866666Y-98443390D01*
X191866666Y-98443390D02*
X191914285Y-98491009D01*
X191914285Y-98491009D02*
X191961904Y-98586247D01*
X191961904Y-98586247D02*
X191961904Y-98824342D01*
X191961904Y-98824342D02*
X191914285Y-98919580D01*
X191914285Y-98919580D02*
X191866666Y-98967200D01*
X191866666Y-98967200D02*
X191771428Y-99014819D01*
X191771428Y-99014819D02*
X191485714Y-99014819D01*
X191485714Y-99014819D02*
X191390476Y-98967200D01*
X191390476Y-98967200D02*
X191342857Y-98919580D01*
X176670057Y-101125238D02*
X176622438Y-101220476D01*
X176622438Y-101220476D02*
X176527200Y-101315714D01*
X176527200Y-101315714D02*
X176384342Y-101458571D01*
X176384342Y-101458571D02*
X176336723Y-101553809D01*
X176336723Y-101553809D02*
X176336723Y-101649047D01*
X176574819Y-101601428D02*
X176527200Y-101696666D01*
X176527200Y-101696666D02*
X176431961Y-101791904D01*
X176431961Y-101791904D02*
X176241485Y-101839523D01*
X176241485Y-101839523D02*
X175908152Y-101839523D01*
X175908152Y-101839523D02*
X175717676Y-101791904D01*
X175717676Y-101791904D02*
X175622438Y-101696666D01*
X175622438Y-101696666D02*
X175574819Y-101601428D01*
X175574819Y-101601428D02*
X175574819Y-101410952D01*
X175574819Y-101410952D02*
X175622438Y-101315714D01*
X175622438Y-101315714D02*
X175717676Y-101220476D01*
X175717676Y-101220476D02*
X175908152Y-101172857D01*
X175908152Y-101172857D02*
X176241485Y-101172857D01*
X176241485Y-101172857D02*
X176431961Y-101220476D01*
X176431961Y-101220476D02*
X176527200Y-101315714D01*
X176527200Y-101315714D02*
X176574819Y-101410952D01*
X176574819Y-101410952D02*
X176574819Y-101601428D01*
X175574819Y-100268095D02*
X175574819Y-100744285D01*
X175574819Y-100744285D02*
X176051009Y-100791904D01*
X176051009Y-100791904D02*
X176003390Y-100744285D01*
X176003390Y-100744285D02*
X175955771Y-100649047D01*
X175955771Y-100649047D02*
X175955771Y-100410952D01*
X175955771Y-100410952D02*
X176003390Y-100315714D01*
X176003390Y-100315714D02*
X176051009Y-100268095D01*
X176051009Y-100268095D02*
X176146247Y-100220476D01*
X176146247Y-100220476D02*
X176384342Y-100220476D01*
X176384342Y-100220476D02*
X176479580Y-100268095D01*
X176479580Y-100268095D02*
X176527200Y-100315714D01*
X176527200Y-100315714D02*
X176574819Y-100410952D01*
X176574819Y-100410952D02*
X176574819Y-100649047D01*
X176574819Y-100649047D02*
X176527200Y-100744285D01*
X176527200Y-100744285D02*
X176479580Y-100791904D01*
X177394819Y-115652857D02*
X176918628Y-115986190D01*
X177394819Y-116224285D02*
X176394819Y-116224285D01*
X176394819Y-116224285D02*
X176394819Y-115843333D01*
X176394819Y-115843333D02*
X176442438Y-115748095D01*
X176442438Y-115748095D02*
X176490057Y-115700476D01*
X176490057Y-115700476D02*
X176585295Y-115652857D01*
X176585295Y-115652857D02*
X176728152Y-115652857D01*
X176728152Y-115652857D02*
X176823390Y-115700476D01*
X176823390Y-115700476D02*
X176871009Y-115748095D01*
X176871009Y-115748095D02*
X176918628Y-115843333D01*
X176918628Y-115843333D02*
X176918628Y-116224285D01*
X176490057Y-115271904D02*
X176442438Y-115224285D01*
X176442438Y-115224285D02*
X176394819Y-115129047D01*
X176394819Y-115129047D02*
X176394819Y-114890952D01*
X176394819Y-114890952D02*
X176442438Y-114795714D01*
X176442438Y-114795714D02*
X176490057Y-114748095D01*
X176490057Y-114748095D02*
X176585295Y-114700476D01*
X176585295Y-114700476D02*
X176680533Y-114700476D01*
X176680533Y-114700476D02*
X176823390Y-114748095D01*
X176823390Y-114748095D02*
X177394819Y-115319523D01*
X177394819Y-115319523D02*
X177394819Y-114700476D01*
X177394819Y-113748095D02*
X177394819Y-114319523D01*
X177394819Y-114033809D02*
X176394819Y-114033809D01*
X176394819Y-114033809D02*
X176537676Y-114129047D01*
X176537676Y-114129047D02*
X176632914Y-114224285D01*
X176632914Y-114224285D02*
X176680533Y-114319523D01*
X200134819Y-91316666D02*
X199658628Y-91649999D01*
X200134819Y-91888094D02*
X199134819Y-91888094D01*
X199134819Y-91888094D02*
X199134819Y-91507142D01*
X199134819Y-91507142D02*
X199182438Y-91411904D01*
X199182438Y-91411904D02*
X199230057Y-91364285D01*
X199230057Y-91364285D02*
X199325295Y-91316666D01*
X199325295Y-91316666D02*
X199468152Y-91316666D01*
X199468152Y-91316666D02*
X199563390Y-91364285D01*
X199563390Y-91364285D02*
X199611009Y-91411904D01*
X199611009Y-91411904D02*
X199658628Y-91507142D01*
X199658628Y-91507142D02*
X199658628Y-91888094D01*
X200134819Y-90840475D02*
X200134819Y-90649999D01*
X200134819Y-90649999D02*
X200087200Y-90554761D01*
X200087200Y-90554761D02*
X200039580Y-90507142D01*
X200039580Y-90507142D02*
X199896723Y-90411904D01*
X199896723Y-90411904D02*
X199706247Y-90364285D01*
X199706247Y-90364285D02*
X199325295Y-90364285D01*
X199325295Y-90364285D02*
X199230057Y-90411904D01*
X199230057Y-90411904D02*
X199182438Y-90459523D01*
X199182438Y-90459523D02*
X199134819Y-90554761D01*
X199134819Y-90554761D02*
X199134819Y-90745237D01*
X199134819Y-90745237D02*
X199182438Y-90840475D01*
X199182438Y-90840475D02*
X199230057Y-90888094D01*
X199230057Y-90888094D02*
X199325295Y-90935713D01*
X199325295Y-90935713D02*
X199563390Y-90935713D01*
X199563390Y-90935713D02*
X199658628Y-90888094D01*
X199658628Y-90888094D02*
X199706247Y-90840475D01*
X199706247Y-90840475D02*
X199753866Y-90745237D01*
X199753866Y-90745237D02*
X199753866Y-90554761D01*
X199753866Y-90554761D02*
X199706247Y-90459523D01*
X199706247Y-90459523D02*
X199658628Y-90411904D01*
X199658628Y-90411904D02*
X199563390Y-90364285D01*
X194878569Y-101917916D02*
X194402378Y-102251249D01*
X194878569Y-102489344D02*
X193878569Y-102489344D01*
X193878569Y-102489344D02*
X193878569Y-102108392D01*
X193878569Y-102108392D02*
X193926188Y-102013154D01*
X193926188Y-102013154D02*
X193973807Y-101965535D01*
X193973807Y-101965535D02*
X194069045Y-101917916D01*
X194069045Y-101917916D02*
X194211902Y-101917916D01*
X194211902Y-101917916D02*
X194307140Y-101965535D01*
X194307140Y-101965535D02*
X194354759Y-102013154D01*
X194354759Y-102013154D02*
X194402378Y-102108392D01*
X194402378Y-102108392D02*
X194402378Y-102489344D01*
X193973807Y-101536963D02*
X193926188Y-101489344D01*
X193926188Y-101489344D02*
X193878569Y-101394106D01*
X193878569Y-101394106D02*
X193878569Y-101156011D01*
X193878569Y-101156011D02*
X193926188Y-101060773D01*
X193926188Y-101060773D02*
X193973807Y-101013154D01*
X193973807Y-101013154D02*
X194069045Y-100965535D01*
X194069045Y-100965535D02*
X194164283Y-100965535D01*
X194164283Y-100965535D02*
X194307140Y-101013154D01*
X194307140Y-101013154D02*
X194878569Y-101584582D01*
X194878569Y-101584582D02*
X194878569Y-100965535D01*
X194684819Y-97066666D02*
X194208628Y-97399999D01*
X194684819Y-97638094D02*
X193684819Y-97638094D01*
X193684819Y-97638094D02*
X193684819Y-97257142D01*
X193684819Y-97257142D02*
X193732438Y-97161904D01*
X193732438Y-97161904D02*
X193780057Y-97114285D01*
X193780057Y-97114285D02*
X193875295Y-97066666D01*
X193875295Y-97066666D02*
X194018152Y-97066666D01*
X194018152Y-97066666D02*
X194113390Y-97114285D01*
X194113390Y-97114285D02*
X194161009Y-97161904D01*
X194161009Y-97161904D02*
X194208628Y-97257142D01*
X194208628Y-97257142D02*
X194208628Y-97638094D01*
X194684819Y-96114285D02*
X194684819Y-96685713D01*
X194684819Y-96399999D02*
X193684819Y-96399999D01*
X193684819Y-96399999D02*
X193827676Y-96495237D01*
X193827676Y-96495237D02*
X193922914Y-96590475D01*
X193922914Y-96590475D02*
X193970533Y-96685713D01*
X187866071Y-116050057D02*
X187770833Y-116002438D01*
X187770833Y-116002438D02*
X187675595Y-115907200D01*
X187675595Y-115907200D02*
X187532738Y-115764342D01*
X187532738Y-115764342D02*
X187437500Y-115716723D01*
X187437500Y-115716723D02*
X187342262Y-115716723D01*
X187389881Y-115954819D02*
X187294643Y-115907200D01*
X187294643Y-115907200D02*
X187199405Y-115811961D01*
X187199405Y-115811961D02*
X187151786Y-115621485D01*
X187151786Y-115621485D02*
X187151786Y-115288152D01*
X187151786Y-115288152D02*
X187199405Y-115097676D01*
X187199405Y-115097676D02*
X187294643Y-115002438D01*
X187294643Y-115002438D02*
X187389881Y-114954819D01*
X187389881Y-114954819D02*
X187580357Y-114954819D01*
X187580357Y-114954819D02*
X187675595Y-115002438D01*
X187675595Y-115002438D02*
X187770833Y-115097676D01*
X187770833Y-115097676D02*
X187818452Y-115288152D01*
X187818452Y-115288152D02*
X187818452Y-115621485D01*
X187818452Y-115621485D02*
X187770833Y-115811961D01*
X187770833Y-115811961D02*
X187675595Y-115907200D01*
X187675595Y-115907200D02*
X187580357Y-115954819D01*
X187580357Y-115954819D02*
X187389881Y-115954819D01*
X188770833Y-115954819D02*
X188199405Y-115954819D01*
X188485119Y-115954819D02*
X188485119Y-114954819D01*
X188485119Y-114954819D02*
X188389881Y-115097676D01*
X188389881Y-115097676D02*
X188294643Y-115192914D01*
X188294643Y-115192914D02*
X188199405Y-115240533D01*
X189104167Y-114954819D02*
X189723214Y-114954819D01*
X189723214Y-114954819D02*
X189389881Y-115335771D01*
X189389881Y-115335771D02*
X189532738Y-115335771D01*
X189532738Y-115335771D02*
X189627976Y-115383390D01*
X189627976Y-115383390D02*
X189675595Y-115431009D01*
X189675595Y-115431009D02*
X189723214Y-115526247D01*
X189723214Y-115526247D02*
X189723214Y-115764342D01*
X189723214Y-115764342D02*
X189675595Y-115859580D01*
X189675595Y-115859580D02*
X189627976Y-115907200D01*
X189627976Y-115907200D02*
X189532738Y-115954819D01*
X189532738Y-115954819D02*
X189247024Y-115954819D01*
X189247024Y-115954819D02*
X189151786Y-115907200D01*
X189151786Y-115907200D02*
X189104167Y-115859580D01*
X180584819Y-105782857D02*
X180108628Y-106116190D01*
X180584819Y-106354285D02*
X179584819Y-106354285D01*
X179584819Y-106354285D02*
X179584819Y-105973333D01*
X179584819Y-105973333D02*
X179632438Y-105878095D01*
X179632438Y-105878095D02*
X179680057Y-105830476D01*
X179680057Y-105830476D02*
X179775295Y-105782857D01*
X179775295Y-105782857D02*
X179918152Y-105782857D01*
X179918152Y-105782857D02*
X180013390Y-105830476D01*
X180013390Y-105830476D02*
X180061009Y-105878095D01*
X180061009Y-105878095D02*
X180108628Y-105973333D01*
X180108628Y-105973333D02*
X180108628Y-106354285D01*
X180584819Y-104830476D02*
X180584819Y-105401904D01*
X180584819Y-105116190D02*
X179584819Y-105116190D01*
X179584819Y-105116190D02*
X179727676Y-105211428D01*
X179727676Y-105211428D02*
X179822914Y-105306666D01*
X179822914Y-105306666D02*
X179870533Y-105401904D01*
X180584819Y-103878095D02*
X180584819Y-104449523D01*
X180584819Y-104163809D02*
X179584819Y-104163809D01*
X179584819Y-104163809D02*
X179727676Y-104259047D01*
X179727676Y-104259047D02*
X179822914Y-104354285D01*
X179822914Y-104354285D02*
X179870533Y-104449523D01*
X207494819Y-96546666D02*
X207018628Y-96879999D01*
X207494819Y-97118094D02*
X206494819Y-97118094D01*
X206494819Y-97118094D02*
X206494819Y-96737142D01*
X206494819Y-96737142D02*
X206542438Y-96641904D01*
X206542438Y-96641904D02*
X206590057Y-96594285D01*
X206590057Y-96594285D02*
X206685295Y-96546666D01*
X206685295Y-96546666D02*
X206828152Y-96546666D01*
X206828152Y-96546666D02*
X206923390Y-96594285D01*
X206923390Y-96594285D02*
X206971009Y-96641904D01*
X206971009Y-96641904D02*
X207018628Y-96737142D01*
X207018628Y-96737142D02*
X207018628Y-97118094D01*
X206494819Y-96213332D02*
X206494819Y-95594285D01*
X206494819Y-95594285D02*
X206875771Y-95927618D01*
X206875771Y-95927618D02*
X206875771Y-95784761D01*
X206875771Y-95784761D02*
X206923390Y-95689523D01*
X206923390Y-95689523D02*
X206971009Y-95641904D01*
X206971009Y-95641904D02*
X207066247Y-95594285D01*
X207066247Y-95594285D02*
X207304342Y-95594285D01*
X207304342Y-95594285D02*
X207399580Y-95641904D01*
X207399580Y-95641904D02*
X207447200Y-95689523D01*
X207447200Y-95689523D02*
X207494819Y-95784761D01*
X207494819Y-95784761D02*
X207494819Y-96070475D01*
X207494819Y-96070475D02*
X207447200Y-96165713D01*
X207447200Y-96165713D02*
X207399580Y-96213332D01*
X219985039Y-99884439D02*
X219985039Y-100559355D01*
X219985039Y-100559355D02*
X219940044Y-100694338D01*
X219940044Y-100694338D02*
X219850056Y-100784327D01*
X219850056Y-100784327D02*
X219715072Y-100829321D01*
X219715072Y-100829321D02*
X219625084Y-100829321D01*
X220839932Y-100199400D02*
X220839932Y-100829321D01*
X220614960Y-99839445D02*
X220389988Y-100514360D01*
X220389988Y-100514360D02*
X220974915Y-100514360D01*
D13*
X258240416Y-87908669D02*
X258240416Y-88622954D01*
X258240416Y-88622954D02*
X258192797Y-88765811D01*
X258192797Y-88765811D02*
X258097559Y-88861050D01*
X258097559Y-88861050D02*
X257954702Y-88908669D01*
X257954702Y-88908669D02*
X257859464Y-88908669D01*
X258621369Y-87908669D02*
X259240416Y-87908669D01*
X259240416Y-87908669D02*
X258907083Y-88289621D01*
X258907083Y-88289621D02*
X259049940Y-88289621D01*
X259049940Y-88289621D02*
X259145178Y-88337240D01*
X259145178Y-88337240D02*
X259192797Y-88384859D01*
X259192797Y-88384859D02*
X259240416Y-88480097D01*
X259240416Y-88480097D02*
X259240416Y-88718192D01*
X259240416Y-88718192D02*
X259192797Y-88813430D01*
X259192797Y-88813430D02*
X259145178Y-88861050D01*
X259145178Y-88861050D02*
X259049940Y-88908669D01*
X259049940Y-88908669D02*
X258764226Y-88908669D01*
X258764226Y-88908669D02*
X258668988Y-88861050D01*
X258668988Y-88861050D02*
X258621369Y-88813430D01*
D12*
X187094819Y-99656666D02*
X186618628Y-99989999D01*
X187094819Y-100228094D02*
X186094819Y-100228094D01*
X186094819Y-100228094D02*
X186094819Y-99847142D01*
X186094819Y-99847142D02*
X186142438Y-99751904D01*
X186142438Y-99751904D02*
X186190057Y-99704285D01*
X186190057Y-99704285D02*
X186285295Y-99656666D01*
X186285295Y-99656666D02*
X186428152Y-99656666D01*
X186428152Y-99656666D02*
X186523390Y-99704285D01*
X186523390Y-99704285D02*
X186571009Y-99751904D01*
X186571009Y-99751904D02*
X186618628Y-99847142D01*
X186618628Y-99847142D02*
X186618628Y-100228094D01*
X186094819Y-99323332D02*
X186094819Y-98656666D01*
X186094819Y-98656666D02*
X187094819Y-99085237D01*
X177973807Y-109990238D02*
X177926188Y-110085476D01*
X177926188Y-110085476D02*
X177830950Y-110180714D01*
X177830950Y-110180714D02*
X177688092Y-110323571D01*
X177688092Y-110323571D02*
X177640473Y-110418809D01*
X177640473Y-110418809D02*
X177640473Y-110514047D01*
X177878569Y-110466428D02*
X177830950Y-110561666D01*
X177830950Y-110561666D02*
X177735711Y-110656904D01*
X177735711Y-110656904D02*
X177545235Y-110704523D01*
X177545235Y-110704523D02*
X177211902Y-110704523D01*
X177211902Y-110704523D02*
X177021426Y-110656904D01*
X177021426Y-110656904D02*
X176926188Y-110561666D01*
X176926188Y-110561666D02*
X176878569Y-110466428D01*
X176878569Y-110466428D02*
X176878569Y-110275952D01*
X176878569Y-110275952D02*
X176926188Y-110180714D01*
X176926188Y-110180714D02*
X177021426Y-110085476D01*
X177021426Y-110085476D02*
X177211902Y-110037857D01*
X177211902Y-110037857D02*
X177545235Y-110037857D01*
X177545235Y-110037857D02*
X177735711Y-110085476D01*
X177735711Y-110085476D02*
X177830950Y-110180714D01*
X177830950Y-110180714D02*
X177878569Y-110275952D01*
X177878569Y-110275952D02*
X177878569Y-110466428D01*
X177878569Y-109561666D02*
X177878569Y-109371190D01*
X177878569Y-109371190D02*
X177830950Y-109275952D01*
X177830950Y-109275952D02*
X177783330Y-109228333D01*
X177783330Y-109228333D02*
X177640473Y-109133095D01*
X177640473Y-109133095D02*
X177449997Y-109085476D01*
X177449997Y-109085476D02*
X177069045Y-109085476D01*
X177069045Y-109085476D02*
X176973807Y-109133095D01*
X176973807Y-109133095D02*
X176926188Y-109180714D01*
X176926188Y-109180714D02*
X176878569Y-109275952D01*
X176878569Y-109275952D02*
X176878569Y-109466428D01*
X176878569Y-109466428D02*
X176926188Y-109561666D01*
X176926188Y-109561666D02*
X176973807Y-109609285D01*
X176973807Y-109609285D02*
X177069045Y-109656904D01*
X177069045Y-109656904D02*
X177307140Y-109656904D01*
X177307140Y-109656904D02*
X177402378Y-109609285D01*
X177402378Y-109609285D02*
X177449997Y-109561666D01*
X177449997Y-109561666D02*
X177497616Y-109466428D01*
X177497616Y-109466428D02*
X177497616Y-109275952D01*
X177497616Y-109275952D02*
X177449997Y-109180714D01*
X177449997Y-109180714D02*
X177402378Y-109133095D01*
X177402378Y-109133095D02*
X177307140Y-109085476D01*
X191974819Y-111136666D02*
X191498628Y-111469999D01*
X191974819Y-111708094D02*
X190974819Y-111708094D01*
X190974819Y-111708094D02*
X190974819Y-111327142D01*
X190974819Y-111327142D02*
X191022438Y-111231904D01*
X191022438Y-111231904D02*
X191070057Y-111184285D01*
X191070057Y-111184285D02*
X191165295Y-111136666D01*
X191165295Y-111136666D02*
X191308152Y-111136666D01*
X191308152Y-111136666D02*
X191403390Y-111184285D01*
X191403390Y-111184285D02*
X191451009Y-111231904D01*
X191451009Y-111231904D02*
X191498628Y-111327142D01*
X191498628Y-111327142D02*
X191498628Y-111708094D01*
X190974819Y-110279523D02*
X190974819Y-110469999D01*
X190974819Y-110469999D02*
X191022438Y-110565237D01*
X191022438Y-110565237D02*
X191070057Y-110612856D01*
X191070057Y-110612856D02*
X191212914Y-110708094D01*
X191212914Y-110708094D02*
X191403390Y-110755713D01*
X191403390Y-110755713D02*
X191784342Y-110755713D01*
X191784342Y-110755713D02*
X191879580Y-110708094D01*
X191879580Y-110708094D02*
X191927200Y-110660475D01*
X191927200Y-110660475D02*
X191974819Y-110565237D01*
X191974819Y-110565237D02*
X191974819Y-110374761D01*
X191974819Y-110374761D02*
X191927200Y-110279523D01*
X191927200Y-110279523D02*
X191879580Y-110231904D01*
X191879580Y-110231904D02*
X191784342Y-110184285D01*
X191784342Y-110184285D02*
X191546247Y-110184285D01*
X191546247Y-110184285D02*
X191451009Y-110231904D01*
X191451009Y-110231904D02*
X191403390Y-110279523D01*
X191403390Y-110279523D02*
X191355771Y-110374761D01*
X191355771Y-110374761D02*
X191355771Y-110565237D01*
X191355771Y-110565237D02*
X191403390Y-110660475D01*
X191403390Y-110660475D02*
X191451009Y-110708094D01*
X191451009Y-110708094D02*
X191546247Y-110755713D01*
X200328511Y-109301307D02*
X200233273Y-109253688D01*
X200233273Y-109253688D02*
X200138035Y-109158450D01*
X200138035Y-109158450D02*
X199995178Y-109015592D01*
X199995178Y-109015592D02*
X199899940Y-108967973D01*
X199899940Y-108967973D02*
X199804702Y-108967973D01*
X199852321Y-109206069D02*
X199757083Y-109158450D01*
X199757083Y-109158450D02*
X199661845Y-109063211D01*
X199661845Y-109063211D02*
X199614226Y-108872735D01*
X199614226Y-108872735D02*
X199614226Y-108539402D01*
X199614226Y-108539402D02*
X199661845Y-108348926D01*
X199661845Y-108348926D02*
X199757083Y-108253688D01*
X199757083Y-108253688D02*
X199852321Y-108206069D01*
X199852321Y-108206069D02*
X200042797Y-108206069D01*
X200042797Y-108206069D02*
X200138035Y-108253688D01*
X200138035Y-108253688D02*
X200233273Y-108348926D01*
X200233273Y-108348926D02*
X200280892Y-108539402D01*
X200280892Y-108539402D02*
X200280892Y-108872735D01*
X200280892Y-108872735D02*
X200233273Y-109063211D01*
X200233273Y-109063211D02*
X200138035Y-109158450D01*
X200138035Y-109158450D02*
X200042797Y-109206069D01*
X200042797Y-109206069D02*
X199852321Y-109206069D01*
X200614226Y-108206069D02*
X201233273Y-108206069D01*
X201233273Y-108206069D02*
X200899940Y-108587021D01*
X200899940Y-108587021D02*
X201042797Y-108587021D01*
X201042797Y-108587021D02*
X201138035Y-108634640D01*
X201138035Y-108634640D02*
X201185654Y-108682259D01*
X201185654Y-108682259D02*
X201233273Y-108777497D01*
X201233273Y-108777497D02*
X201233273Y-109015592D01*
X201233273Y-109015592D02*
X201185654Y-109110830D01*
X201185654Y-109110830D02*
X201138035Y-109158450D01*
X201138035Y-109158450D02*
X201042797Y-109206069D01*
X201042797Y-109206069D02*
X200757083Y-109206069D01*
X200757083Y-109206069D02*
X200661845Y-109158450D01*
X200661845Y-109158450D02*
X200614226Y-109110830D01*
X202814819Y-112271904D02*
X203624342Y-112271904D01*
X203624342Y-112271904D02*
X203719580Y-112224285D01*
X203719580Y-112224285D02*
X203767200Y-112176666D01*
X203767200Y-112176666D02*
X203814819Y-112081428D01*
X203814819Y-112081428D02*
X203814819Y-111890952D01*
X203814819Y-111890952D02*
X203767200Y-111795714D01*
X203767200Y-111795714D02*
X203719580Y-111748095D01*
X203719580Y-111748095D02*
X203624342Y-111700476D01*
X203624342Y-111700476D02*
X202814819Y-111700476D01*
X202814819Y-111319523D02*
X202814819Y-110700476D01*
X202814819Y-110700476D02*
X203195771Y-111033809D01*
X203195771Y-111033809D02*
X203195771Y-110890952D01*
X203195771Y-110890952D02*
X203243390Y-110795714D01*
X203243390Y-110795714D02*
X203291009Y-110748095D01*
X203291009Y-110748095D02*
X203386247Y-110700476D01*
X203386247Y-110700476D02*
X203624342Y-110700476D01*
X203624342Y-110700476D02*
X203719580Y-110748095D01*
X203719580Y-110748095D02*
X203767200Y-110795714D01*
X203767200Y-110795714D02*
X203814819Y-110890952D01*
X203814819Y-110890952D02*
X203814819Y-111176666D01*
X203814819Y-111176666D02*
X203767200Y-111271904D01*
X203767200Y-111271904D02*
X203719580Y-111319523D01*
X207784819Y-109231904D02*
X208594342Y-109231904D01*
X208594342Y-109231904D02*
X208689580Y-109184285D01*
X208689580Y-109184285D02*
X208737200Y-109136666D01*
X208737200Y-109136666D02*
X208784819Y-109041428D01*
X208784819Y-109041428D02*
X208784819Y-108850952D01*
X208784819Y-108850952D02*
X208737200Y-108755714D01*
X208737200Y-108755714D02*
X208689580Y-108708095D01*
X208689580Y-108708095D02*
X208594342Y-108660476D01*
X208594342Y-108660476D02*
X207784819Y-108660476D01*
X208784819Y-107660476D02*
X208784819Y-108231904D01*
X208784819Y-107946190D02*
X207784819Y-107946190D01*
X207784819Y-107946190D02*
X207927676Y-108041428D01*
X207927676Y-108041428D02*
X208022914Y-108136666D01*
X208022914Y-108136666D02*
X208070533Y-108231904D01*
X171867142Y-108064819D02*
X171533809Y-107588628D01*
X171295714Y-108064819D02*
X171295714Y-107064819D01*
X171295714Y-107064819D02*
X171676666Y-107064819D01*
X171676666Y-107064819D02*
X171771904Y-107112438D01*
X171771904Y-107112438D02*
X171819523Y-107160057D01*
X171819523Y-107160057D02*
X171867142Y-107255295D01*
X171867142Y-107255295D02*
X171867142Y-107398152D01*
X171867142Y-107398152D02*
X171819523Y-107493390D01*
X171819523Y-107493390D02*
X171771904Y-107541009D01*
X171771904Y-107541009D02*
X171676666Y-107588628D01*
X171676666Y-107588628D02*
X171295714Y-107588628D01*
X172248095Y-107160057D02*
X172295714Y-107112438D01*
X172295714Y-107112438D02*
X172390952Y-107064819D01*
X172390952Y-107064819D02*
X172629047Y-107064819D01*
X172629047Y-107064819D02*
X172724285Y-107112438D01*
X172724285Y-107112438D02*
X172771904Y-107160057D01*
X172771904Y-107160057D02*
X172819523Y-107255295D01*
X172819523Y-107255295D02*
X172819523Y-107350533D01*
X172819523Y-107350533D02*
X172771904Y-107493390D01*
X172771904Y-107493390D02*
X172200476Y-108064819D01*
X172200476Y-108064819D02*
X172819523Y-108064819D01*
X173438571Y-107064819D02*
X173533809Y-107064819D01*
X173533809Y-107064819D02*
X173629047Y-107112438D01*
X173629047Y-107112438D02*
X173676666Y-107160057D01*
X173676666Y-107160057D02*
X173724285Y-107255295D01*
X173724285Y-107255295D02*
X173771904Y-107445771D01*
X173771904Y-107445771D02*
X173771904Y-107683866D01*
X173771904Y-107683866D02*
X173724285Y-107874342D01*
X173724285Y-107874342D02*
X173676666Y-107969580D01*
X173676666Y-107969580D02*
X173629047Y-108017200D01*
X173629047Y-108017200D02*
X173533809Y-108064819D01*
X173533809Y-108064819D02*
X173438571Y-108064819D01*
X173438571Y-108064819D02*
X173343333Y-108017200D01*
X173343333Y-108017200D02*
X173295714Y-107969580D01*
X173295714Y-107969580D02*
X173248095Y-107874342D01*
X173248095Y-107874342D02*
X173200476Y-107683866D01*
X173200476Y-107683866D02*
X173200476Y-107445771D01*
X173200476Y-107445771D02*
X173248095Y-107255295D01*
X173248095Y-107255295D02*
X173295714Y-107160057D01*
X173295714Y-107160057D02*
X173343333Y-107112438D01*
X173343333Y-107112438D02*
X173438571Y-107064819D01*
X176187142Y-105694819D02*
X175853809Y-105218628D01*
X175615714Y-105694819D02*
X175615714Y-104694819D01*
X175615714Y-104694819D02*
X175996666Y-104694819D01*
X175996666Y-104694819D02*
X176091904Y-104742438D01*
X176091904Y-104742438D02*
X176139523Y-104790057D01*
X176139523Y-104790057D02*
X176187142Y-104885295D01*
X176187142Y-104885295D02*
X176187142Y-105028152D01*
X176187142Y-105028152D02*
X176139523Y-105123390D01*
X176139523Y-105123390D02*
X176091904Y-105171009D01*
X176091904Y-105171009D02*
X175996666Y-105218628D01*
X175996666Y-105218628D02*
X175615714Y-105218628D01*
X177139523Y-105694819D02*
X176568095Y-105694819D01*
X176853809Y-105694819D02*
X176853809Y-104694819D01*
X176853809Y-104694819D02*
X176758571Y-104837676D01*
X176758571Y-104837676D02*
X176663333Y-104932914D01*
X176663333Y-104932914D02*
X176568095Y-104980533D01*
X177615714Y-105694819D02*
X177806190Y-105694819D01*
X177806190Y-105694819D02*
X177901428Y-105647200D01*
X177901428Y-105647200D02*
X177949047Y-105599580D01*
X177949047Y-105599580D02*
X178044285Y-105456723D01*
X178044285Y-105456723D02*
X178091904Y-105266247D01*
X178091904Y-105266247D02*
X178091904Y-104885295D01*
X178091904Y-104885295D02*
X178044285Y-104790057D01*
X178044285Y-104790057D02*
X177996666Y-104742438D01*
X177996666Y-104742438D02*
X177901428Y-104694819D01*
X177901428Y-104694819D02*
X177710952Y-104694819D01*
X177710952Y-104694819D02*
X177615714Y-104742438D01*
X177615714Y-104742438D02*
X177568095Y-104790057D01*
X177568095Y-104790057D02*
X177520476Y-104885295D01*
X177520476Y-104885295D02*
X177520476Y-105123390D01*
X177520476Y-105123390D02*
X177568095Y-105218628D01*
X177568095Y-105218628D02*
X177615714Y-105266247D01*
X177615714Y-105266247D02*
X177710952Y-105313866D01*
X177710952Y-105313866D02*
X177901428Y-105313866D01*
X177901428Y-105313866D02*
X177996666Y-105266247D01*
X177996666Y-105266247D02*
X178044285Y-105218628D01*
X178044285Y-105218628D02*
X178091904Y-105123390D01*
D13*
X143090416Y-89458669D02*
X143090416Y-90172954D01*
X143090416Y-90172954D02*
X143042797Y-90315811D01*
X143042797Y-90315811D02*
X142947559Y-90411050D01*
X142947559Y-90411050D02*
X142804702Y-90458669D01*
X142804702Y-90458669D02*
X142709464Y-90458669D01*
X143518988Y-89553907D02*
X143566607Y-89506288D01*
X143566607Y-89506288D02*
X143661845Y-89458669D01*
X143661845Y-89458669D02*
X143899940Y-89458669D01*
X143899940Y-89458669D02*
X143995178Y-89506288D01*
X143995178Y-89506288D02*
X144042797Y-89553907D01*
X144042797Y-89553907D02*
X144090416Y-89649145D01*
X144090416Y-89649145D02*
X144090416Y-89744383D01*
X144090416Y-89744383D02*
X144042797Y-89887240D01*
X144042797Y-89887240D02*
X143471369Y-90458669D01*
X143471369Y-90458669D02*
X144090416Y-90458669D01*
D12*
X200320057Y-96441428D02*
X200272438Y-96536666D01*
X200272438Y-96536666D02*
X200177200Y-96631904D01*
X200177200Y-96631904D02*
X200034342Y-96774761D01*
X200034342Y-96774761D02*
X199986723Y-96869999D01*
X199986723Y-96869999D02*
X199986723Y-96965237D01*
X200224819Y-96917618D02*
X200177200Y-97012856D01*
X200177200Y-97012856D02*
X200081961Y-97108094D01*
X200081961Y-97108094D02*
X199891485Y-97155713D01*
X199891485Y-97155713D02*
X199558152Y-97155713D01*
X199558152Y-97155713D02*
X199367676Y-97108094D01*
X199367676Y-97108094D02*
X199272438Y-97012856D01*
X199272438Y-97012856D02*
X199224819Y-96917618D01*
X199224819Y-96917618D02*
X199224819Y-96727142D01*
X199224819Y-96727142D02*
X199272438Y-96631904D01*
X199272438Y-96631904D02*
X199367676Y-96536666D01*
X199367676Y-96536666D02*
X199558152Y-96489047D01*
X199558152Y-96489047D02*
X199891485Y-96489047D01*
X199891485Y-96489047D02*
X200081961Y-96536666D01*
X200081961Y-96536666D02*
X200177200Y-96631904D01*
X200177200Y-96631904D02*
X200224819Y-96727142D01*
X200224819Y-96727142D02*
X200224819Y-96917618D01*
X200224819Y-95536666D02*
X200224819Y-96108094D01*
X200224819Y-95822380D02*
X199224819Y-95822380D01*
X199224819Y-95822380D02*
X199367676Y-95917618D01*
X199367676Y-95917618D02*
X199462914Y-96012856D01*
X199462914Y-96012856D02*
X199510533Y-96108094D01*
X199320057Y-95155713D02*
X199272438Y-95108094D01*
X199272438Y-95108094D02*
X199224819Y-95012856D01*
X199224819Y-95012856D02*
X199224819Y-94774761D01*
X199224819Y-94774761D02*
X199272438Y-94679523D01*
X199272438Y-94679523D02*
X199320057Y-94631904D01*
X199320057Y-94631904D02*
X199415295Y-94584285D01*
X199415295Y-94584285D02*
X199510533Y-94584285D01*
X199510533Y-94584285D02*
X199653390Y-94631904D01*
X199653390Y-94631904D02*
X200224819Y-95203332D01*
X200224819Y-95203332D02*
X200224819Y-94584285D01*
X197664819Y-97272857D02*
X197188628Y-97606190D01*
X197664819Y-97844285D02*
X196664819Y-97844285D01*
X196664819Y-97844285D02*
X196664819Y-97463333D01*
X196664819Y-97463333D02*
X196712438Y-97368095D01*
X196712438Y-97368095D02*
X196760057Y-97320476D01*
X196760057Y-97320476D02*
X196855295Y-97272857D01*
X196855295Y-97272857D02*
X196998152Y-97272857D01*
X196998152Y-97272857D02*
X197093390Y-97320476D01*
X197093390Y-97320476D02*
X197141009Y-97368095D01*
X197141009Y-97368095D02*
X197188628Y-97463333D01*
X197188628Y-97463333D02*
X197188628Y-97844285D01*
X196760057Y-96891904D02*
X196712438Y-96844285D01*
X196712438Y-96844285D02*
X196664819Y-96749047D01*
X196664819Y-96749047D02*
X196664819Y-96510952D01*
X196664819Y-96510952D02*
X196712438Y-96415714D01*
X196712438Y-96415714D02*
X196760057Y-96368095D01*
X196760057Y-96368095D02*
X196855295Y-96320476D01*
X196855295Y-96320476D02*
X196950533Y-96320476D01*
X196950533Y-96320476D02*
X197093390Y-96368095D01*
X197093390Y-96368095D02*
X197664819Y-96939523D01*
X197664819Y-96939523D02*
X197664819Y-96320476D01*
X196664819Y-95415714D02*
X196664819Y-95891904D01*
X196664819Y-95891904D02*
X197141009Y-95939523D01*
X197141009Y-95939523D02*
X197093390Y-95891904D01*
X197093390Y-95891904D02*
X197045771Y-95796666D01*
X197045771Y-95796666D02*
X197045771Y-95558571D01*
X197045771Y-95558571D02*
X197093390Y-95463333D01*
X197093390Y-95463333D02*
X197141009Y-95415714D01*
X197141009Y-95415714D02*
X197236247Y-95368095D01*
X197236247Y-95368095D02*
X197474342Y-95368095D01*
X197474342Y-95368095D02*
X197569580Y-95415714D01*
X197569580Y-95415714D02*
X197617200Y-95463333D01*
X197617200Y-95463333D02*
X197664819Y-95558571D01*
X197664819Y-95558571D02*
X197664819Y-95796666D01*
X197664819Y-95796666D02*
X197617200Y-95891904D01*
X197617200Y-95891904D02*
X197569580Y-95939523D01*
X181720057Y-114355238D02*
X181672438Y-114450476D01*
X181672438Y-114450476D02*
X181577200Y-114545714D01*
X181577200Y-114545714D02*
X181434342Y-114688571D01*
X181434342Y-114688571D02*
X181386723Y-114783809D01*
X181386723Y-114783809D02*
X181386723Y-114879047D01*
X181624819Y-114831428D02*
X181577200Y-114926666D01*
X181577200Y-114926666D02*
X181481961Y-115021904D01*
X181481961Y-115021904D02*
X181291485Y-115069523D01*
X181291485Y-115069523D02*
X180958152Y-115069523D01*
X180958152Y-115069523D02*
X180767676Y-115021904D01*
X180767676Y-115021904D02*
X180672438Y-114926666D01*
X180672438Y-114926666D02*
X180624819Y-114831428D01*
X180624819Y-114831428D02*
X180624819Y-114640952D01*
X180624819Y-114640952D02*
X180672438Y-114545714D01*
X180672438Y-114545714D02*
X180767676Y-114450476D01*
X180767676Y-114450476D02*
X180958152Y-114402857D01*
X180958152Y-114402857D02*
X181291485Y-114402857D01*
X181291485Y-114402857D02*
X181481961Y-114450476D01*
X181481961Y-114450476D02*
X181577200Y-114545714D01*
X181577200Y-114545714D02*
X181624819Y-114640952D01*
X181624819Y-114640952D02*
X181624819Y-114831428D01*
X180624819Y-114069523D02*
X180624819Y-113402857D01*
X180624819Y-113402857D02*
X181624819Y-113831428D01*
X173577142Y-112674819D02*
X173243809Y-112198628D01*
X173005714Y-112674819D02*
X173005714Y-111674819D01*
X173005714Y-111674819D02*
X173386666Y-111674819D01*
X173386666Y-111674819D02*
X173481904Y-111722438D01*
X173481904Y-111722438D02*
X173529523Y-111770057D01*
X173529523Y-111770057D02*
X173577142Y-111865295D01*
X173577142Y-111865295D02*
X173577142Y-112008152D01*
X173577142Y-112008152D02*
X173529523Y-112103390D01*
X173529523Y-112103390D02*
X173481904Y-112151009D01*
X173481904Y-112151009D02*
X173386666Y-112198628D01*
X173386666Y-112198628D02*
X173005714Y-112198628D01*
X174529523Y-112674819D02*
X173958095Y-112674819D01*
X174243809Y-112674819D02*
X174243809Y-111674819D01*
X174243809Y-111674819D02*
X174148571Y-111817676D01*
X174148571Y-111817676D02*
X174053333Y-111912914D01*
X174053333Y-111912914D02*
X173958095Y-111960533D01*
X175100952Y-112103390D02*
X175005714Y-112055771D01*
X175005714Y-112055771D02*
X174958095Y-112008152D01*
X174958095Y-112008152D02*
X174910476Y-111912914D01*
X174910476Y-111912914D02*
X174910476Y-111865295D01*
X174910476Y-111865295D02*
X174958095Y-111770057D01*
X174958095Y-111770057D02*
X175005714Y-111722438D01*
X175005714Y-111722438D02*
X175100952Y-111674819D01*
X175100952Y-111674819D02*
X175291428Y-111674819D01*
X175291428Y-111674819D02*
X175386666Y-111722438D01*
X175386666Y-111722438D02*
X175434285Y-111770057D01*
X175434285Y-111770057D02*
X175481904Y-111865295D01*
X175481904Y-111865295D02*
X175481904Y-111912914D01*
X175481904Y-111912914D02*
X175434285Y-112008152D01*
X175434285Y-112008152D02*
X175386666Y-112055771D01*
X175386666Y-112055771D02*
X175291428Y-112103390D01*
X175291428Y-112103390D02*
X175100952Y-112103390D01*
X175100952Y-112103390D02*
X175005714Y-112151009D01*
X175005714Y-112151009D02*
X174958095Y-112198628D01*
X174958095Y-112198628D02*
X174910476Y-112293866D01*
X174910476Y-112293866D02*
X174910476Y-112484342D01*
X174910476Y-112484342D02*
X174958095Y-112579580D01*
X174958095Y-112579580D02*
X175005714Y-112627200D01*
X175005714Y-112627200D02*
X175100952Y-112674819D01*
X175100952Y-112674819D02*
X175291428Y-112674819D01*
X175291428Y-112674819D02*
X175386666Y-112627200D01*
X175386666Y-112627200D02*
X175434285Y-112579580D01*
X175434285Y-112579580D02*
X175481904Y-112484342D01*
X175481904Y-112484342D02*
X175481904Y-112293866D01*
X175481904Y-112293866D02*
X175434285Y-112198628D01*
X175434285Y-112198628D02*
X175386666Y-112151009D01*
X175386666Y-112151009D02*
X175291428Y-112103390D01*
X199878569Y-101417916D02*
X199402378Y-101751249D01*
X199878569Y-101989344D02*
X198878569Y-101989344D01*
X198878569Y-101989344D02*
X198878569Y-101608392D01*
X198878569Y-101608392D02*
X198926188Y-101513154D01*
X198926188Y-101513154D02*
X198973807Y-101465535D01*
X198973807Y-101465535D02*
X199069045Y-101417916D01*
X199069045Y-101417916D02*
X199211902Y-101417916D01*
X199211902Y-101417916D02*
X199307140Y-101465535D01*
X199307140Y-101465535D02*
X199354759Y-101513154D01*
X199354759Y-101513154D02*
X199402378Y-101608392D01*
X199402378Y-101608392D02*
X199402378Y-101989344D01*
X199307140Y-100846487D02*
X199259521Y-100941725D01*
X199259521Y-100941725D02*
X199211902Y-100989344D01*
X199211902Y-100989344D02*
X199116664Y-101036963D01*
X199116664Y-101036963D02*
X199069045Y-101036963D01*
X199069045Y-101036963D02*
X198973807Y-100989344D01*
X198973807Y-100989344D02*
X198926188Y-100941725D01*
X198926188Y-100941725D02*
X198878569Y-100846487D01*
X198878569Y-100846487D02*
X198878569Y-100656011D01*
X198878569Y-100656011D02*
X198926188Y-100560773D01*
X198926188Y-100560773D02*
X198973807Y-100513154D01*
X198973807Y-100513154D02*
X199069045Y-100465535D01*
X199069045Y-100465535D02*
X199116664Y-100465535D01*
X199116664Y-100465535D02*
X199211902Y-100513154D01*
X199211902Y-100513154D02*
X199259521Y-100560773D01*
X199259521Y-100560773D02*
X199307140Y-100656011D01*
X199307140Y-100656011D02*
X199307140Y-100846487D01*
X199307140Y-100846487D02*
X199354759Y-100941725D01*
X199354759Y-100941725D02*
X199402378Y-100989344D01*
X199402378Y-100989344D02*
X199497616Y-101036963D01*
X199497616Y-101036963D02*
X199688092Y-101036963D01*
X199688092Y-101036963D02*
X199783330Y-100989344D01*
X199783330Y-100989344D02*
X199830950Y-100941725D01*
X199830950Y-100941725D02*
X199878569Y-100846487D01*
X199878569Y-100846487D02*
X199878569Y-100656011D01*
X199878569Y-100656011D02*
X199830950Y-100560773D01*
X199830950Y-100560773D02*
X199783330Y-100513154D01*
X199783330Y-100513154D02*
X199688092Y-100465535D01*
X199688092Y-100465535D02*
X199497616Y-100465535D01*
X199497616Y-100465535D02*
X199402378Y-100513154D01*
X199402378Y-100513154D02*
X199354759Y-100560773D01*
X199354759Y-100560773D02*
X199307140Y-100656011D01*
X200773333Y-113879580D02*
X200725714Y-113927200D01*
X200725714Y-113927200D02*
X200582857Y-113974819D01*
X200582857Y-113974819D02*
X200487619Y-113974819D01*
X200487619Y-113974819D02*
X200344762Y-113927200D01*
X200344762Y-113927200D02*
X200249524Y-113831961D01*
X200249524Y-113831961D02*
X200201905Y-113736723D01*
X200201905Y-113736723D02*
X200154286Y-113546247D01*
X200154286Y-113546247D02*
X200154286Y-113403390D01*
X200154286Y-113403390D02*
X200201905Y-113212914D01*
X200201905Y-113212914D02*
X200249524Y-113117676D01*
X200249524Y-113117676D02*
X200344762Y-113022438D01*
X200344762Y-113022438D02*
X200487619Y-112974819D01*
X200487619Y-112974819D02*
X200582857Y-112974819D01*
X200582857Y-112974819D02*
X200725714Y-113022438D01*
X200725714Y-113022438D02*
X200773333Y-113070057D01*
X201106667Y-112974819D02*
X201725714Y-112974819D01*
X201725714Y-112974819D02*
X201392381Y-113355771D01*
X201392381Y-113355771D02*
X201535238Y-113355771D01*
X201535238Y-113355771D02*
X201630476Y-113403390D01*
X201630476Y-113403390D02*
X201678095Y-113451009D01*
X201678095Y-113451009D02*
X201725714Y-113546247D01*
X201725714Y-113546247D02*
X201725714Y-113784342D01*
X201725714Y-113784342D02*
X201678095Y-113879580D01*
X201678095Y-113879580D02*
X201630476Y-113927200D01*
X201630476Y-113927200D02*
X201535238Y-113974819D01*
X201535238Y-113974819D02*
X201249524Y-113974819D01*
X201249524Y-113974819D02*
X201154286Y-113927200D01*
X201154286Y-113927200D02*
X201106667Y-113879580D01*
X172844819Y-101202857D02*
X172368628Y-101536190D01*
X172844819Y-101774285D02*
X171844819Y-101774285D01*
X171844819Y-101774285D02*
X171844819Y-101393333D01*
X171844819Y-101393333D02*
X171892438Y-101298095D01*
X171892438Y-101298095D02*
X171940057Y-101250476D01*
X171940057Y-101250476D02*
X172035295Y-101202857D01*
X172035295Y-101202857D02*
X172178152Y-101202857D01*
X172178152Y-101202857D02*
X172273390Y-101250476D01*
X172273390Y-101250476D02*
X172321009Y-101298095D01*
X172321009Y-101298095D02*
X172368628Y-101393333D01*
X172368628Y-101393333D02*
X172368628Y-101774285D01*
X172844819Y-100250476D02*
X172844819Y-100821904D01*
X172844819Y-100536190D02*
X171844819Y-100536190D01*
X171844819Y-100536190D02*
X171987676Y-100631428D01*
X171987676Y-100631428D02*
X172082914Y-100726666D01*
X172082914Y-100726666D02*
X172130533Y-100821904D01*
X171844819Y-99345714D02*
X171844819Y-99821904D01*
X171844819Y-99821904D02*
X172321009Y-99869523D01*
X172321009Y-99869523D02*
X172273390Y-99821904D01*
X172273390Y-99821904D02*
X172225771Y-99726666D01*
X172225771Y-99726666D02*
X172225771Y-99488571D01*
X172225771Y-99488571D02*
X172273390Y-99393333D01*
X172273390Y-99393333D02*
X172321009Y-99345714D01*
X172321009Y-99345714D02*
X172416247Y-99298095D01*
X172416247Y-99298095D02*
X172654342Y-99298095D01*
X172654342Y-99298095D02*
X172749580Y-99345714D01*
X172749580Y-99345714D02*
X172797200Y-99393333D01*
X172797200Y-99393333D02*
X172844819Y-99488571D01*
X172844819Y-99488571D02*
X172844819Y-99726666D01*
X172844819Y-99726666D02*
X172797200Y-99821904D01*
X172797200Y-99821904D02*
X172749580Y-99869523D01*
X202654819Y-96271904D02*
X202654819Y-95700476D01*
X203654819Y-95986190D02*
X202654819Y-95986190D01*
X203654819Y-95367142D02*
X202654819Y-95367142D01*
X202654819Y-95367142D02*
X202654819Y-94986190D01*
X202654819Y-94986190D02*
X202702438Y-94890952D01*
X202702438Y-94890952D02*
X202750057Y-94843333D01*
X202750057Y-94843333D02*
X202845295Y-94795714D01*
X202845295Y-94795714D02*
X202988152Y-94795714D01*
X202988152Y-94795714D02*
X203083390Y-94843333D01*
X203083390Y-94843333D02*
X203131009Y-94890952D01*
X203131009Y-94890952D02*
X203178628Y-94986190D01*
X203178628Y-94986190D02*
X203178628Y-95367142D01*
X203083390Y-94224285D02*
X203035771Y-94319523D01*
X203035771Y-94319523D02*
X202988152Y-94367142D01*
X202988152Y-94367142D02*
X202892914Y-94414761D01*
X202892914Y-94414761D02*
X202845295Y-94414761D01*
X202845295Y-94414761D02*
X202750057Y-94367142D01*
X202750057Y-94367142D02*
X202702438Y-94319523D01*
X202702438Y-94319523D02*
X202654819Y-94224285D01*
X202654819Y-94224285D02*
X202654819Y-94033809D01*
X202654819Y-94033809D02*
X202702438Y-93938571D01*
X202702438Y-93938571D02*
X202750057Y-93890952D01*
X202750057Y-93890952D02*
X202845295Y-93843333D01*
X202845295Y-93843333D02*
X202892914Y-93843333D01*
X202892914Y-93843333D02*
X202988152Y-93890952D01*
X202988152Y-93890952D02*
X203035771Y-93938571D01*
X203035771Y-93938571D02*
X203083390Y-94033809D01*
X203083390Y-94033809D02*
X203083390Y-94224285D01*
X203083390Y-94224285D02*
X203131009Y-94319523D01*
X203131009Y-94319523D02*
X203178628Y-94367142D01*
X203178628Y-94367142D02*
X203273866Y-94414761D01*
X203273866Y-94414761D02*
X203464342Y-94414761D01*
X203464342Y-94414761D02*
X203559580Y-94367142D01*
X203559580Y-94367142D02*
X203607200Y-94319523D01*
X203607200Y-94319523D02*
X203654819Y-94224285D01*
X203654819Y-94224285D02*
X203654819Y-94033809D01*
X203654819Y-94033809D02*
X203607200Y-93938571D01*
X203607200Y-93938571D02*
X203559580Y-93890952D01*
X203559580Y-93890952D02*
X203464342Y-93843333D01*
X203464342Y-93843333D02*
X203273866Y-93843333D01*
X203273866Y-93843333D02*
X203178628Y-93890952D01*
X203178628Y-93890952D02*
X203131009Y-93938571D01*
X203131009Y-93938571D02*
X203083390Y-94033809D01*
X257280892Y-93636069D02*
X256947559Y-93159878D01*
X256709464Y-93636069D02*
X256709464Y-92636069D01*
X256709464Y-92636069D02*
X257090416Y-92636069D01*
X257090416Y-92636069D02*
X257185654Y-92683688D01*
X257185654Y-92683688D02*
X257233273Y-92731307D01*
X257233273Y-92731307D02*
X257280892Y-92826545D01*
X257280892Y-92826545D02*
X257280892Y-92969402D01*
X257280892Y-92969402D02*
X257233273Y-93064640D01*
X257233273Y-93064640D02*
X257185654Y-93112259D01*
X257185654Y-93112259D02*
X257090416Y-93159878D01*
X257090416Y-93159878D02*
X256709464Y-93159878D01*
X258233273Y-93636069D02*
X257661845Y-93636069D01*
X257947559Y-93636069D02*
X257947559Y-92636069D01*
X257947559Y-92636069D02*
X257852321Y-92778926D01*
X257852321Y-92778926D02*
X257757083Y-92874164D01*
X257757083Y-92874164D02*
X257661845Y-92921783D01*
X258852321Y-92636069D02*
X258947559Y-92636069D01*
X258947559Y-92636069D02*
X259042797Y-92683688D01*
X259042797Y-92683688D02*
X259090416Y-92731307D01*
X259090416Y-92731307D02*
X259138035Y-92826545D01*
X259138035Y-92826545D02*
X259185654Y-93017021D01*
X259185654Y-93017021D02*
X259185654Y-93255116D01*
X259185654Y-93255116D02*
X259138035Y-93445592D01*
X259138035Y-93445592D02*
X259090416Y-93540830D01*
X259090416Y-93540830D02*
X259042797Y-93588450D01*
X259042797Y-93588450D02*
X258947559Y-93636069D01*
X258947559Y-93636069D02*
X258852321Y-93636069D01*
X258852321Y-93636069D02*
X258757083Y-93588450D01*
X258757083Y-93588450D02*
X258709464Y-93540830D01*
X258709464Y-93540830D02*
X258661845Y-93445592D01*
X258661845Y-93445592D02*
X258614226Y-93255116D01*
X258614226Y-93255116D02*
X258614226Y-93017021D01*
X258614226Y-93017021D02*
X258661845Y-92826545D01*
X258661845Y-92826545D02*
X258709464Y-92731307D01*
X258709464Y-92731307D02*
X258757083Y-92683688D01*
X258757083Y-92683688D02*
X258852321Y-92636069D01*
X193324761Y-108520057D02*
X193229523Y-108472438D01*
X193229523Y-108472438D02*
X193134285Y-108377200D01*
X193134285Y-108377200D02*
X192991428Y-108234342D01*
X192991428Y-108234342D02*
X192896190Y-108186723D01*
X192896190Y-108186723D02*
X192800952Y-108186723D01*
X192848571Y-108424819D02*
X192753333Y-108377200D01*
X192753333Y-108377200D02*
X192658095Y-108281961D01*
X192658095Y-108281961D02*
X192610476Y-108091485D01*
X192610476Y-108091485D02*
X192610476Y-107758152D01*
X192610476Y-107758152D02*
X192658095Y-107567676D01*
X192658095Y-107567676D02*
X192753333Y-107472438D01*
X192753333Y-107472438D02*
X192848571Y-107424819D01*
X192848571Y-107424819D02*
X193039047Y-107424819D01*
X193039047Y-107424819D02*
X193134285Y-107472438D01*
X193134285Y-107472438D02*
X193229523Y-107567676D01*
X193229523Y-107567676D02*
X193277142Y-107758152D01*
X193277142Y-107758152D02*
X193277142Y-108091485D01*
X193277142Y-108091485D02*
X193229523Y-108281961D01*
X193229523Y-108281961D02*
X193134285Y-108377200D01*
X193134285Y-108377200D02*
X193039047Y-108424819D01*
X193039047Y-108424819D02*
X192848571Y-108424819D01*
X194134285Y-107758152D02*
X194134285Y-108424819D01*
X193896190Y-107377200D02*
X193658095Y-108091485D01*
X193658095Y-108091485D02*
X194277142Y-108091485D01*
X194863807Y-78196488D02*
X194816188Y-78291726D01*
X194816188Y-78291726D02*
X194720950Y-78386964D01*
X194720950Y-78386964D02*
X194578092Y-78529821D01*
X194578092Y-78529821D02*
X194530473Y-78625059D01*
X194530473Y-78625059D02*
X194530473Y-78720297D01*
X194768569Y-78672678D02*
X194720950Y-78767916D01*
X194720950Y-78767916D02*
X194625711Y-78863154D01*
X194625711Y-78863154D02*
X194435235Y-78910773D01*
X194435235Y-78910773D02*
X194101902Y-78910773D01*
X194101902Y-78910773D02*
X193911426Y-78863154D01*
X193911426Y-78863154D02*
X193816188Y-78767916D01*
X193816188Y-78767916D02*
X193768569Y-78672678D01*
X193768569Y-78672678D02*
X193768569Y-78482202D01*
X193768569Y-78482202D02*
X193816188Y-78386964D01*
X193816188Y-78386964D02*
X193911426Y-78291726D01*
X193911426Y-78291726D02*
X194101902Y-78244107D01*
X194101902Y-78244107D02*
X194435235Y-78244107D01*
X194435235Y-78244107D02*
X194625711Y-78291726D01*
X194625711Y-78291726D02*
X194720950Y-78386964D01*
X194720950Y-78386964D02*
X194768569Y-78482202D01*
X194768569Y-78482202D02*
X194768569Y-78672678D01*
X194768569Y-77291726D02*
X194768569Y-77863154D01*
X194768569Y-77577440D02*
X193768569Y-77577440D01*
X193768569Y-77577440D02*
X193911426Y-77672678D01*
X193911426Y-77672678D02*
X194006664Y-77767916D01*
X194006664Y-77767916D02*
X194054283Y-77863154D01*
X168478571Y-112970057D02*
X168383333Y-112922438D01*
X168383333Y-112922438D02*
X168288095Y-112827200D01*
X168288095Y-112827200D02*
X168145238Y-112684342D01*
X168145238Y-112684342D02*
X168050000Y-112636723D01*
X168050000Y-112636723D02*
X167954762Y-112636723D01*
X168002381Y-112874819D02*
X167907143Y-112827200D01*
X167907143Y-112827200D02*
X167811905Y-112731961D01*
X167811905Y-112731961D02*
X167764286Y-112541485D01*
X167764286Y-112541485D02*
X167764286Y-112208152D01*
X167764286Y-112208152D02*
X167811905Y-112017676D01*
X167811905Y-112017676D02*
X167907143Y-111922438D01*
X167907143Y-111922438D02*
X168002381Y-111874819D01*
X168002381Y-111874819D02*
X168192857Y-111874819D01*
X168192857Y-111874819D02*
X168288095Y-111922438D01*
X168288095Y-111922438D02*
X168383333Y-112017676D01*
X168383333Y-112017676D02*
X168430952Y-112208152D01*
X168430952Y-112208152D02*
X168430952Y-112541485D01*
X168430952Y-112541485D02*
X168383333Y-112731961D01*
X168383333Y-112731961D02*
X168288095Y-112827200D01*
X168288095Y-112827200D02*
X168192857Y-112874819D01*
X168192857Y-112874819D02*
X168002381Y-112874819D01*
X169383333Y-112874819D02*
X168811905Y-112874819D01*
X169097619Y-112874819D02*
X169097619Y-111874819D01*
X169097619Y-111874819D02*
X169002381Y-112017676D01*
X169002381Y-112017676D02*
X168907143Y-112112914D01*
X168907143Y-112112914D02*
X168811905Y-112160533D01*
X170002381Y-111874819D02*
X170097619Y-111874819D01*
X170097619Y-111874819D02*
X170192857Y-111922438D01*
X170192857Y-111922438D02*
X170240476Y-111970057D01*
X170240476Y-111970057D02*
X170288095Y-112065295D01*
X170288095Y-112065295D02*
X170335714Y-112255771D01*
X170335714Y-112255771D02*
X170335714Y-112493866D01*
X170335714Y-112493866D02*
X170288095Y-112684342D01*
X170288095Y-112684342D02*
X170240476Y-112779580D01*
X170240476Y-112779580D02*
X170192857Y-112827200D01*
X170192857Y-112827200D02*
X170097619Y-112874819D01*
X170097619Y-112874819D02*
X170002381Y-112874819D01*
X170002381Y-112874819D02*
X169907143Y-112827200D01*
X169907143Y-112827200D02*
X169859524Y-112779580D01*
X169859524Y-112779580D02*
X169811905Y-112684342D01*
X169811905Y-112684342D02*
X169764286Y-112493866D01*
X169764286Y-112493866D02*
X169764286Y-112255771D01*
X169764286Y-112255771D02*
X169811905Y-112065295D01*
X169811905Y-112065295D02*
X169859524Y-111970057D01*
X169859524Y-111970057D02*
X169907143Y-111922438D01*
X169907143Y-111922438D02*
X170002381Y-111874819D01*
X194614819Y-95341904D02*
X194614819Y-94770476D01*
X195614819Y-95056190D02*
X194614819Y-95056190D01*
X195614819Y-94437142D02*
X194614819Y-94437142D01*
X194614819Y-94437142D02*
X194614819Y-94056190D01*
X194614819Y-94056190D02*
X194662438Y-93960952D01*
X194662438Y-93960952D02*
X194710057Y-93913333D01*
X194710057Y-93913333D02*
X194805295Y-93865714D01*
X194805295Y-93865714D02*
X194948152Y-93865714D01*
X194948152Y-93865714D02*
X195043390Y-93913333D01*
X195043390Y-93913333D02*
X195091009Y-93960952D01*
X195091009Y-93960952D02*
X195138628Y-94056190D01*
X195138628Y-94056190D02*
X195138628Y-94437142D01*
X194614819Y-93008571D02*
X194614819Y-93199047D01*
X194614819Y-93199047D02*
X194662438Y-93294285D01*
X194662438Y-93294285D02*
X194710057Y-93341904D01*
X194710057Y-93341904D02*
X194852914Y-93437142D01*
X194852914Y-93437142D02*
X195043390Y-93484761D01*
X195043390Y-93484761D02*
X195424342Y-93484761D01*
X195424342Y-93484761D02*
X195519580Y-93437142D01*
X195519580Y-93437142D02*
X195567200Y-93389523D01*
X195567200Y-93389523D02*
X195614819Y-93294285D01*
X195614819Y-93294285D02*
X195614819Y-93103809D01*
X195614819Y-93103809D02*
X195567200Y-93008571D01*
X195567200Y-93008571D02*
X195519580Y-92960952D01*
X195519580Y-92960952D02*
X195424342Y-92913333D01*
X195424342Y-92913333D02*
X195186247Y-92913333D01*
X195186247Y-92913333D02*
X195091009Y-92960952D01*
X195091009Y-92960952D02*
X195043390Y-93008571D01*
X195043390Y-93008571D02*
X194995771Y-93103809D01*
X194995771Y-93103809D02*
X194995771Y-93294285D01*
X194995771Y-93294285D02*
X195043390Y-93389523D01*
X195043390Y-93389523D02*
X195091009Y-93437142D01*
X195091009Y-93437142D02*
X195186247Y-93484761D01*
X168034819Y-116381904D02*
X168034819Y-115810476D01*
X169034819Y-116096190D02*
X168034819Y-116096190D01*
X169034819Y-115477142D02*
X168034819Y-115477142D01*
X168034819Y-115477142D02*
X168034819Y-115096190D01*
X168034819Y-115096190D02*
X168082438Y-115000952D01*
X168082438Y-115000952D02*
X168130057Y-114953333D01*
X168130057Y-114953333D02*
X168225295Y-114905714D01*
X168225295Y-114905714D02*
X168368152Y-114905714D01*
X168368152Y-114905714D02*
X168463390Y-114953333D01*
X168463390Y-114953333D02*
X168511009Y-115000952D01*
X168511009Y-115000952D02*
X168558628Y-115096190D01*
X168558628Y-115096190D02*
X168558628Y-115477142D01*
X168034819Y-114572380D02*
X168034819Y-113905714D01*
X168034819Y-113905714D02*
X169034819Y-114334285D01*
X167780892Y-107706069D02*
X167447559Y-107229878D01*
X167209464Y-107706069D02*
X167209464Y-106706069D01*
X167209464Y-106706069D02*
X167590416Y-106706069D01*
X167590416Y-106706069D02*
X167685654Y-106753688D01*
X167685654Y-106753688D02*
X167733273Y-106801307D01*
X167733273Y-106801307D02*
X167780892Y-106896545D01*
X167780892Y-106896545D02*
X167780892Y-107039402D01*
X167780892Y-107039402D02*
X167733273Y-107134640D01*
X167733273Y-107134640D02*
X167685654Y-107182259D01*
X167685654Y-107182259D02*
X167590416Y-107229878D01*
X167590416Y-107229878D02*
X167209464Y-107229878D01*
X168161845Y-106801307D02*
X168209464Y-106753688D01*
X168209464Y-106753688D02*
X168304702Y-106706069D01*
X168304702Y-106706069D02*
X168542797Y-106706069D01*
X168542797Y-106706069D02*
X168638035Y-106753688D01*
X168638035Y-106753688D02*
X168685654Y-106801307D01*
X168685654Y-106801307D02*
X168733273Y-106896545D01*
X168733273Y-106896545D02*
X168733273Y-106991783D01*
X168733273Y-106991783D02*
X168685654Y-107134640D01*
X168685654Y-107134640D02*
X168114226Y-107706069D01*
X168114226Y-107706069D02*
X168733273Y-107706069D01*
X169114226Y-106801307D02*
X169161845Y-106753688D01*
X169161845Y-106753688D02*
X169257083Y-106706069D01*
X169257083Y-106706069D02*
X169495178Y-106706069D01*
X169495178Y-106706069D02*
X169590416Y-106753688D01*
X169590416Y-106753688D02*
X169638035Y-106801307D01*
X169638035Y-106801307D02*
X169685654Y-106896545D01*
X169685654Y-106896545D02*
X169685654Y-106991783D01*
X169685654Y-106991783D02*
X169638035Y-107134640D01*
X169638035Y-107134640D02*
X169066607Y-107706069D01*
X169066607Y-107706069D02*
X169685654Y-107706069D01*
X205344761Y-109160057D02*
X205249523Y-109112438D01*
X205249523Y-109112438D02*
X205154285Y-109017200D01*
X205154285Y-109017200D02*
X205011428Y-108874342D01*
X205011428Y-108874342D02*
X204916190Y-108826723D01*
X204916190Y-108826723D02*
X204820952Y-108826723D01*
X204868571Y-109064819D02*
X204773333Y-109017200D01*
X204773333Y-109017200D02*
X204678095Y-108921961D01*
X204678095Y-108921961D02*
X204630476Y-108731485D01*
X204630476Y-108731485D02*
X204630476Y-108398152D01*
X204630476Y-108398152D02*
X204678095Y-108207676D01*
X204678095Y-108207676D02*
X204773333Y-108112438D01*
X204773333Y-108112438D02*
X204868571Y-108064819D01*
X204868571Y-108064819D02*
X205059047Y-108064819D01*
X205059047Y-108064819D02*
X205154285Y-108112438D01*
X205154285Y-108112438D02*
X205249523Y-108207676D01*
X205249523Y-108207676D02*
X205297142Y-108398152D01*
X205297142Y-108398152D02*
X205297142Y-108731485D01*
X205297142Y-108731485D02*
X205249523Y-108921961D01*
X205249523Y-108921961D02*
X205154285Y-109017200D01*
X205154285Y-109017200D02*
X205059047Y-109064819D01*
X205059047Y-109064819D02*
X204868571Y-109064819D01*
X205678095Y-108160057D02*
X205725714Y-108112438D01*
X205725714Y-108112438D02*
X205820952Y-108064819D01*
X205820952Y-108064819D02*
X206059047Y-108064819D01*
X206059047Y-108064819D02*
X206154285Y-108112438D01*
X206154285Y-108112438D02*
X206201904Y-108160057D01*
X206201904Y-108160057D02*
X206249523Y-108255295D01*
X206249523Y-108255295D02*
X206249523Y-108350533D01*
X206249523Y-108350533D02*
X206201904Y-108493390D01*
X206201904Y-108493390D02*
X205630476Y-109064819D01*
X205630476Y-109064819D02*
X206249523Y-109064819D01*
X190780892Y-101706069D02*
X190447559Y-101229878D01*
X190209464Y-101706069D02*
X190209464Y-100706069D01*
X190209464Y-100706069D02*
X190590416Y-100706069D01*
X190590416Y-100706069D02*
X190685654Y-100753688D01*
X190685654Y-100753688D02*
X190733273Y-100801307D01*
X190733273Y-100801307D02*
X190780892Y-100896545D01*
X190780892Y-100896545D02*
X190780892Y-101039402D01*
X190780892Y-101039402D02*
X190733273Y-101134640D01*
X190733273Y-101134640D02*
X190685654Y-101182259D01*
X190685654Y-101182259D02*
X190590416Y-101229878D01*
X190590416Y-101229878D02*
X190209464Y-101229878D01*
X191733273Y-101706069D02*
X191161845Y-101706069D01*
X191447559Y-101706069D02*
X191447559Y-100706069D01*
X191447559Y-100706069D02*
X191352321Y-100848926D01*
X191352321Y-100848926D02*
X191257083Y-100944164D01*
X191257083Y-100944164D02*
X191161845Y-100991783D01*
X192114226Y-100801307D02*
X192161845Y-100753688D01*
X192161845Y-100753688D02*
X192257083Y-100706069D01*
X192257083Y-100706069D02*
X192495178Y-100706069D01*
X192495178Y-100706069D02*
X192590416Y-100753688D01*
X192590416Y-100753688D02*
X192638035Y-100801307D01*
X192638035Y-100801307D02*
X192685654Y-100896545D01*
X192685654Y-100896545D02*
X192685654Y-100991783D01*
X192685654Y-100991783D02*
X192638035Y-101134640D01*
X192638035Y-101134640D02*
X192066607Y-101706069D01*
X192066607Y-101706069D02*
X192685654Y-101706069D01*
X185954819Y-103362857D02*
X185478628Y-103696190D01*
X185954819Y-103934285D02*
X184954819Y-103934285D01*
X184954819Y-103934285D02*
X184954819Y-103553333D01*
X184954819Y-103553333D02*
X185002438Y-103458095D01*
X185002438Y-103458095D02*
X185050057Y-103410476D01*
X185050057Y-103410476D02*
X185145295Y-103362857D01*
X185145295Y-103362857D02*
X185288152Y-103362857D01*
X185288152Y-103362857D02*
X185383390Y-103410476D01*
X185383390Y-103410476D02*
X185431009Y-103458095D01*
X185431009Y-103458095D02*
X185478628Y-103553333D01*
X185478628Y-103553333D02*
X185478628Y-103934285D01*
X185954819Y-102410476D02*
X185954819Y-102981904D01*
X185954819Y-102696190D02*
X184954819Y-102696190D01*
X184954819Y-102696190D02*
X185097676Y-102791428D01*
X185097676Y-102791428D02*
X185192914Y-102886666D01*
X185192914Y-102886666D02*
X185240533Y-102981904D01*
X184954819Y-101553333D02*
X184954819Y-101743809D01*
X184954819Y-101743809D02*
X185002438Y-101839047D01*
X185002438Y-101839047D02*
X185050057Y-101886666D01*
X185050057Y-101886666D02*
X185192914Y-101981904D01*
X185192914Y-101981904D02*
X185383390Y-102029523D01*
X185383390Y-102029523D02*
X185764342Y-102029523D01*
X185764342Y-102029523D02*
X185859580Y-101981904D01*
X185859580Y-101981904D02*
X185907200Y-101934285D01*
X185907200Y-101934285D02*
X185954819Y-101839047D01*
X185954819Y-101839047D02*
X185954819Y-101648571D01*
X185954819Y-101648571D02*
X185907200Y-101553333D01*
X185907200Y-101553333D02*
X185859580Y-101505714D01*
X185859580Y-101505714D02*
X185764342Y-101458095D01*
X185764342Y-101458095D02*
X185526247Y-101458095D01*
X185526247Y-101458095D02*
X185431009Y-101505714D01*
X185431009Y-101505714D02*
X185383390Y-101553333D01*
X185383390Y-101553333D02*
X185335771Y-101648571D01*
X185335771Y-101648571D02*
X185335771Y-101839047D01*
X185335771Y-101839047D02*
X185383390Y-101934285D01*
X185383390Y-101934285D02*
X185431009Y-101981904D01*
X185431009Y-101981904D02*
X185526247Y-102029523D01*
X208714819Y-113666666D02*
X208238628Y-113999999D01*
X208714819Y-114238094D02*
X207714819Y-114238094D01*
X207714819Y-114238094D02*
X207714819Y-113857142D01*
X207714819Y-113857142D02*
X207762438Y-113761904D01*
X207762438Y-113761904D02*
X207810057Y-113714285D01*
X207810057Y-113714285D02*
X207905295Y-113666666D01*
X207905295Y-113666666D02*
X208048152Y-113666666D01*
X208048152Y-113666666D02*
X208143390Y-113714285D01*
X208143390Y-113714285D02*
X208191009Y-113761904D01*
X208191009Y-113761904D02*
X208238628Y-113857142D01*
X208238628Y-113857142D02*
X208238628Y-114238094D01*
X208048152Y-112809523D02*
X208714819Y-112809523D01*
X207667200Y-113047618D02*
X208381485Y-113285713D01*
X208381485Y-113285713D02*
X208381485Y-112666666D01*
X213757083Y-111610830D02*
X213709464Y-111658450D01*
X213709464Y-111658450D02*
X213566607Y-111706069D01*
X213566607Y-111706069D02*
X213471369Y-111706069D01*
X213471369Y-111706069D02*
X213328512Y-111658450D01*
X213328512Y-111658450D02*
X213233274Y-111563211D01*
X213233274Y-111563211D02*
X213185655Y-111467973D01*
X213185655Y-111467973D02*
X213138036Y-111277497D01*
X213138036Y-111277497D02*
X213138036Y-111134640D01*
X213138036Y-111134640D02*
X213185655Y-110944164D01*
X213185655Y-110944164D02*
X213233274Y-110848926D01*
X213233274Y-110848926D02*
X213328512Y-110753688D01*
X213328512Y-110753688D02*
X213471369Y-110706069D01*
X213471369Y-110706069D02*
X213566607Y-110706069D01*
X213566607Y-110706069D02*
X213709464Y-110753688D01*
X213709464Y-110753688D02*
X213757083Y-110801307D01*
X214138036Y-110801307D02*
X214185655Y-110753688D01*
X214185655Y-110753688D02*
X214280893Y-110706069D01*
X214280893Y-110706069D02*
X214518988Y-110706069D01*
X214518988Y-110706069D02*
X214614226Y-110753688D01*
X214614226Y-110753688D02*
X214661845Y-110801307D01*
X214661845Y-110801307D02*
X214709464Y-110896545D01*
X214709464Y-110896545D02*
X214709464Y-110991783D01*
X214709464Y-110991783D02*
X214661845Y-111134640D01*
X214661845Y-111134640D02*
X214090417Y-111706069D01*
X214090417Y-111706069D02*
X214709464Y-111706069D01*
X253026569Y-91013154D02*
X253026569Y-90441726D01*
X254026569Y-90727440D02*
X253026569Y-90727440D01*
X254026569Y-90108392D02*
X253026569Y-90108392D01*
X253026569Y-90108392D02*
X253026569Y-89727440D01*
X253026569Y-89727440D02*
X253074188Y-89632202D01*
X253074188Y-89632202D02*
X253121807Y-89584583D01*
X253121807Y-89584583D02*
X253217045Y-89536964D01*
X253217045Y-89536964D02*
X253359902Y-89536964D01*
X253359902Y-89536964D02*
X253455140Y-89584583D01*
X253455140Y-89584583D02*
X253502759Y-89632202D01*
X253502759Y-89632202D02*
X253550378Y-89727440D01*
X253550378Y-89727440D02*
X253550378Y-90108392D01*
X253121807Y-89156011D02*
X253074188Y-89108392D01*
X253074188Y-89108392D02*
X253026569Y-89013154D01*
X253026569Y-89013154D02*
X253026569Y-88775059D01*
X253026569Y-88775059D02*
X253074188Y-88679821D01*
X253074188Y-88679821D02*
X253121807Y-88632202D01*
X253121807Y-88632202D02*
X253217045Y-88584583D01*
X253217045Y-88584583D02*
X253312283Y-88584583D01*
X253312283Y-88584583D02*
X253455140Y-88632202D01*
X253455140Y-88632202D02*
X254026569Y-89203630D01*
X254026569Y-89203630D02*
X254026569Y-88584583D01*
X194833333Y-114239580D02*
X194785714Y-114287200D01*
X194785714Y-114287200D02*
X194642857Y-114334819D01*
X194642857Y-114334819D02*
X194547619Y-114334819D01*
X194547619Y-114334819D02*
X194404762Y-114287200D01*
X194404762Y-114287200D02*
X194309524Y-114191961D01*
X194309524Y-114191961D02*
X194261905Y-114096723D01*
X194261905Y-114096723D02*
X194214286Y-113906247D01*
X194214286Y-113906247D02*
X194214286Y-113763390D01*
X194214286Y-113763390D02*
X194261905Y-113572914D01*
X194261905Y-113572914D02*
X194309524Y-113477676D01*
X194309524Y-113477676D02*
X194404762Y-113382438D01*
X194404762Y-113382438D02*
X194547619Y-113334819D01*
X194547619Y-113334819D02*
X194642857Y-113334819D01*
X194642857Y-113334819D02*
X194785714Y-113382438D01*
X194785714Y-113382438D02*
X194833333Y-113430057D01*
X195785714Y-114334819D02*
X195214286Y-114334819D01*
X195500000Y-114334819D02*
X195500000Y-113334819D01*
X195500000Y-113334819D02*
X195404762Y-113477676D01*
X195404762Y-113477676D02*
X195309524Y-113572914D01*
X195309524Y-113572914D02*
X195214286Y-113620533D01*
X200280892Y-116706069D02*
X199947559Y-116229878D01*
X199709464Y-116706069D02*
X199709464Y-115706069D01*
X199709464Y-115706069D02*
X200090416Y-115706069D01*
X200090416Y-115706069D02*
X200185654Y-115753688D01*
X200185654Y-115753688D02*
X200233273Y-115801307D01*
X200233273Y-115801307D02*
X200280892Y-115896545D01*
X200280892Y-115896545D02*
X200280892Y-116039402D01*
X200280892Y-116039402D02*
X200233273Y-116134640D01*
X200233273Y-116134640D02*
X200185654Y-116182259D01*
X200185654Y-116182259D02*
X200090416Y-116229878D01*
X200090416Y-116229878D02*
X199709464Y-116229878D01*
X200661845Y-115801307D02*
X200709464Y-115753688D01*
X200709464Y-115753688D02*
X200804702Y-115706069D01*
X200804702Y-115706069D02*
X201042797Y-115706069D01*
X201042797Y-115706069D02*
X201138035Y-115753688D01*
X201138035Y-115753688D02*
X201185654Y-115801307D01*
X201185654Y-115801307D02*
X201233273Y-115896545D01*
X201233273Y-115896545D02*
X201233273Y-115991783D01*
X201233273Y-115991783D02*
X201185654Y-116134640D01*
X201185654Y-116134640D02*
X200614226Y-116706069D01*
X200614226Y-116706069D02*
X201233273Y-116706069D01*
X201566607Y-115706069D02*
X202185654Y-115706069D01*
X202185654Y-115706069D02*
X201852321Y-116087021D01*
X201852321Y-116087021D02*
X201995178Y-116087021D01*
X201995178Y-116087021D02*
X202090416Y-116134640D01*
X202090416Y-116134640D02*
X202138035Y-116182259D01*
X202138035Y-116182259D02*
X202185654Y-116277497D01*
X202185654Y-116277497D02*
X202185654Y-116515592D01*
X202185654Y-116515592D02*
X202138035Y-116610830D01*
X202138035Y-116610830D02*
X202090416Y-116658450D01*
X202090416Y-116658450D02*
X201995178Y-116706069D01*
X201995178Y-116706069D02*
X201709464Y-116706069D01*
X201709464Y-116706069D02*
X201614226Y-116658450D01*
X201614226Y-116658450D02*
X201566607Y-116610830D01*
X197008095Y-114444819D02*
X197008095Y-115254342D01*
X197008095Y-115254342D02*
X197055714Y-115349580D01*
X197055714Y-115349580D02*
X197103333Y-115397200D01*
X197103333Y-115397200D02*
X197198571Y-115444819D01*
X197198571Y-115444819D02*
X197389047Y-115444819D01*
X197389047Y-115444819D02*
X197484285Y-115397200D01*
X197484285Y-115397200D02*
X197531904Y-115349580D01*
X197531904Y-115349580D02*
X197579523Y-115254342D01*
X197579523Y-115254342D02*
X197579523Y-114444819D01*
X198008095Y-114540057D02*
X198055714Y-114492438D01*
X198055714Y-114492438D02*
X198150952Y-114444819D01*
X198150952Y-114444819D02*
X198389047Y-114444819D01*
X198389047Y-114444819D02*
X198484285Y-114492438D01*
X198484285Y-114492438D02*
X198531904Y-114540057D01*
X198531904Y-114540057D02*
X198579523Y-114635295D01*
X198579523Y-114635295D02*
X198579523Y-114730533D01*
X198579523Y-114730533D02*
X198531904Y-114873390D01*
X198531904Y-114873390D02*
X197960476Y-115444819D01*
X197960476Y-115444819D02*
X198579523Y-115444819D01*
X181897142Y-112584819D02*
X181563809Y-112108628D01*
X181325714Y-112584819D02*
X181325714Y-111584819D01*
X181325714Y-111584819D02*
X181706666Y-111584819D01*
X181706666Y-111584819D02*
X181801904Y-111632438D01*
X181801904Y-111632438D02*
X181849523Y-111680057D01*
X181849523Y-111680057D02*
X181897142Y-111775295D01*
X181897142Y-111775295D02*
X181897142Y-111918152D01*
X181897142Y-111918152D02*
X181849523Y-112013390D01*
X181849523Y-112013390D02*
X181801904Y-112061009D01*
X181801904Y-112061009D02*
X181706666Y-112108628D01*
X181706666Y-112108628D02*
X181325714Y-112108628D01*
X182849523Y-112584819D02*
X182278095Y-112584819D01*
X182563809Y-112584819D02*
X182563809Y-111584819D01*
X182563809Y-111584819D02*
X182468571Y-111727676D01*
X182468571Y-111727676D02*
X182373333Y-111822914D01*
X182373333Y-111822914D02*
X182278095Y-111870533D01*
X183182857Y-111584819D02*
X183849523Y-111584819D01*
X183849523Y-111584819D02*
X183420952Y-112584819D01*
D14*
%TO.C,Q6*%
X182551250Y-107395000D02*
X182551250Y-106745000D01*
X182551250Y-107395000D02*
X182551250Y-108045000D01*
X185671250Y-107395000D02*
X185671250Y-106745000D01*
X185671250Y-107395000D02*
X185671250Y-108045000D01*
X182601250Y-108557500D02*
X182271250Y-108797500D01*
X182271250Y-108317500D01*
X182601250Y-108557500D01*
G36*
X182601250Y-108557500D02*
G01*
X182271250Y-108797500D01*
X182271250Y-108317500D01*
X182601250Y-108557500D01*
G37*
%TO.C,R14*%
X189169026Y-108422500D02*
X189678474Y-108422500D01*
X189169026Y-109467500D02*
X189678474Y-109467500D01*
%TO.C,R5*%
X209581526Y-104228750D02*
X210090974Y-104228750D01*
X209581526Y-105273750D02*
X210090974Y-105273750D01*
%TO.C,R26*%
X194265974Y-90228750D02*
X193756526Y-90228750D01*
X194265974Y-91273750D02*
X193756526Y-91273750D01*
%TO.C,TP3*%
X199373750Y-68751250D02*
G75*
G02*
X197473750Y-68751250I-950000J0D01*
G01*
X197473750Y-68751250D02*
G75*
G02*
X199373750Y-68751250I950000J0D01*
G01*
%TO.C,C4*%
X205570017Y-114303750D02*
X205277483Y-114303750D01*
X205570017Y-115323750D02*
X205277483Y-115323750D01*
%TO.C,TP5*%
X192373750Y-114751250D02*
G75*
G02*
X190473750Y-114751250I-950000J0D01*
G01*
X190473750Y-114751250D02*
G75*
G02*
X192373750Y-114751250I950000J0D01*
G01*
%TO.C,Q8*%
X187776250Y-105507500D02*
X187776250Y-104857500D01*
X187776250Y-105507500D02*
X187776250Y-106157500D01*
X190896250Y-105507500D02*
X190896250Y-104857500D01*
X190896250Y-105507500D02*
X190896250Y-106157500D01*
X191176250Y-104585000D02*
X190846250Y-104345000D01*
X191176250Y-104105000D01*
X191176250Y-104585000D01*
G36*
X191176250Y-104585000D02*
G01*
X190846250Y-104345000D01*
X191176250Y-104105000D01*
X191176250Y-104585000D01*
G37*
%TO.C,TP4*%
X211873750Y-101251250D02*
G75*
G02*
X209973750Y-101251250I-950000J0D01*
G01*
X209973750Y-101251250D02*
G75*
G02*
X211873750Y-101251250I950000J0D01*
G01*
%TO.C,R24*%
X204901250Y-101409026D02*
X204901250Y-101918474D01*
X205946250Y-101409026D02*
X205946250Y-101918474D01*
%TO.C,Q11*%
X173126250Y-109945000D02*
X173126250Y-109295000D01*
X173126250Y-109945000D02*
X173126250Y-110595000D01*
X176246250Y-109945000D02*
X176246250Y-109295000D01*
X176246250Y-109945000D02*
X176246250Y-110595000D01*
X176526250Y-109022500D02*
X176196250Y-108782500D01*
X176526250Y-108542500D01*
X176526250Y-109022500D01*
G36*
X176526250Y-109022500D02*
G01*
X176196250Y-108782500D01*
X176526250Y-108542500D01*
X176526250Y-109022500D01*
G37*
%TO.C,J1*%
X158863750Y-101241250D02*
X158863750Y-107211250D01*
X158863750Y-107211250D02*
X166483750Y-107211250D01*
X158873750Y-104951250D02*
X159623750Y-104951250D01*
X158873750Y-106451250D02*
X158873750Y-107201250D01*
X158873750Y-107201250D02*
X160673750Y-107201250D01*
X159623750Y-102001250D02*
X162673750Y-102001250D01*
X159623750Y-104951250D02*
X159623750Y-102001250D01*
X160673750Y-106451250D02*
X158873750Y-106451250D01*
X160673750Y-107201250D02*
X160673750Y-106451250D01*
X162173750Y-106451250D02*
X162173750Y-107201250D01*
X162173750Y-107201250D02*
X163173750Y-107201250D01*
X163173750Y-106451250D02*
X162173750Y-106451250D01*
X163173750Y-107201250D02*
X163173750Y-106451250D01*
X164673750Y-106451250D02*
X164673750Y-107201250D01*
X164673750Y-107201250D02*
X166473750Y-107201250D01*
X165523750Y-107501250D02*
X166773750Y-107501250D01*
X165723750Y-102001250D02*
X162673750Y-102001250D01*
X165723750Y-104951250D02*
X165723750Y-102001250D01*
X166473750Y-104951250D02*
X165723750Y-104951250D01*
X166473750Y-106451250D02*
X164673750Y-106451250D01*
X166473750Y-107201250D02*
X166473750Y-106451250D01*
X166483750Y-101241250D02*
X158863750Y-101241250D01*
X166483750Y-107211250D02*
X166483750Y-101241250D01*
X166773750Y-107501250D02*
X166773750Y-106251250D01*
%TO.C,R27*%
X214842224Y-113477500D02*
X214332776Y-113477500D01*
X214842224Y-114522500D02*
X214332776Y-114522500D01*
%TO.C,D1*%
X189963750Y-91066250D02*
X189963750Y-93751250D01*
X191883750Y-91066250D02*
X189963750Y-91066250D01*
X191883750Y-93751250D02*
X191883750Y-91066250D01*
%TO.C,TP1*%
X164873750Y-109251250D02*
G75*
G02*
X162973750Y-109251250I-950000J0D01*
G01*
X162973750Y-109251250D02*
G75*
G02*
X164873750Y-109251250I950000J0D01*
G01*
%TO.C,R13*%
X191169026Y-96728750D02*
X191678474Y-96728750D01*
X191169026Y-97773750D02*
X191678474Y-97773750D01*
%TO.C,Q5*%
X175688750Y-102882500D02*
X175688750Y-102232500D01*
X175688750Y-102882500D02*
X175688750Y-103532500D01*
X178808750Y-102882500D02*
X178808750Y-102232500D01*
X178808750Y-102882500D02*
X178808750Y-103532500D01*
X175738750Y-104045000D02*
X175408750Y-104285000D01*
X175408750Y-103805000D01*
X175738750Y-104045000D01*
G36*
X175738750Y-104045000D02*
G01*
X175408750Y-104285000D01*
X175408750Y-103805000D01*
X175738750Y-104045000D01*
G37*
%TO.C,R21*%
X179038750Y-114699724D02*
X179038750Y-114190276D01*
X180083750Y-114699724D02*
X180083750Y-114190276D01*
%TO.C,R9*%
X200451250Y-92468474D02*
X200451250Y-91959026D01*
X201496250Y-92468474D02*
X201496250Y-91959026D01*
%TO.C,R2*%
X195401250Y-101409026D02*
X195401250Y-101918474D01*
X196446250Y-101409026D02*
X196446250Y-101918474D01*
%TO.C,R1*%
X195401250Y-96409026D02*
X195401250Y-96918474D01*
X196446250Y-96409026D02*
X196446250Y-96918474D01*
%TO.C,Q13*%
X188437500Y-111390000D02*
X187787500Y-111390000D01*
X188437500Y-111390000D02*
X189087500Y-111390000D01*
X188437500Y-114510000D02*
X187787500Y-114510000D01*
X188437500Y-114510000D02*
X189087500Y-114510000D01*
X187275000Y-111440000D02*
X187035000Y-111110000D01*
X187515000Y-111110000D01*
X187275000Y-111440000D01*
G36*
X187275000Y-111440000D02*
G01*
X187035000Y-111110000D01*
X187515000Y-111110000D01*
X187275000Y-111440000D01*
G37*
%TO.C,R11*%
X180976250Y-103699724D02*
X180976250Y-103190276D01*
X182021250Y-103699724D02*
X182021250Y-103190276D01*
%TO.C,R3*%
X204901250Y-96084026D02*
X204901250Y-96593474D01*
X205946250Y-96084026D02*
X205946250Y-96593474D01*
D15*
%TO.C,J4*%
X217550000Y-102125000D02*
X227450000Y-102125000D01*
X217550000Y-107875000D02*
X217550000Y-102125000D01*
X227450000Y-102125000D02*
X227450000Y-107875000D01*
X227450000Y-107875000D02*
X217550000Y-107875000D01*
D16*
X228350000Y-105525000D02*
G75*
G02*
X228150000Y-105525000I-100000J0D01*
G01*
X228150000Y-105525000D02*
G75*
G02*
X228350000Y-105525000I100000J0D01*
G01*
D12*
%TO.C,J3*%
X247123750Y-75751250D02*
X247123750Y-81701250D01*
X247128750Y-75727250D02*
X247128750Y-72727250D01*
D13*
X250128750Y-60527250D02*
X264923750Y-60551250D01*
D12*
X250128750Y-72727250D02*
X247128750Y-72727250D01*
X250128750Y-72727250D02*
X250128750Y-60527250D01*
X264923750Y-72751250D02*
X264923750Y-60551250D01*
X265653750Y-87651250D02*
X249653750Y-87651250D01*
X267923750Y-72751250D02*
X264923750Y-72751250D01*
X267923750Y-75751250D02*
X267923750Y-72751250D01*
X267923750Y-75751250D02*
X267923750Y-81701250D01*
X249653750Y-87651250D02*
G75*
G02*
X247123750Y-81701250I9766538J7665721D01*
G01*
X267923750Y-81701250D02*
G75*
G02*
X265653750Y-87651250I-12609720J1402750D01*
G01*
D14*
%TO.C,R7*%
X187988750Y-98696526D02*
X187988750Y-99205974D01*
X189033750Y-98696526D02*
X189033750Y-99205974D01*
%TO.C,Q9*%
X178001250Y-109895000D02*
X178001250Y-109245000D01*
X178001250Y-109895000D02*
X178001250Y-110545000D01*
X181121250Y-109895000D02*
X181121250Y-109245000D01*
X181121250Y-109895000D02*
X181121250Y-110545000D01*
X181401250Y-108972500D02*
X181071250Y-108732500D01*
X181401250Y-108492500D01*
X181401250Y-108972500D01*
G36*
X181401250Y-108972500D02*
G01*
X181071250Y-108732500D01*
X181401250Y-108492500D01*
X181401250Y-108972500D01*
G37*
%TO.C,R6*%
X192451250Y-111568474D02*
X192451250Y-111059026D01*
X193496250Y-111568474D02*
X193496250Y-111059026D01*
%TO.C,Q3*%
X200423750Y-104691250D02*
X199773750Y-104691250D01*
X200423750Y-104691250D02*
X201073750Y-104691250D01*
X200423750Y-107811250D02*
X199773750Y-107811250D01*
X200423750Y-107811250D02*
X201073750Y-107811250D01*
X201826250Y-108091250D02*
X201346250Y-108091250D01*
X201586250Y-107761250D01*
X201826250Y-108091250D01*
G36*
X201826250Y-108091250D02*
G01*
X201346250Y-108091250D01*
X201586250Y-107761250D01*
X201826250Y-108091250D01*
G37*
%TO.C,U3*%
X203863750Y-111251250D02*
X203863750Y-110601250D01*
X203863750Y-111251250D02*
X203863750Y-111901250D01*
X206983750Y-111251250D02*
X206983750Y-110601250D01*
X206983750Y-111251250D02*
X206983750Y-111901250D01*
X203913750Y-112413750D02*
X203583750Y-112653750D01*
X203583750Y-112173750D01*
X203913750Y-112413750D01*
G36*
X203913750Y-112413750D02*
G01*
X203583750Y-112653750D01*
X203583750Y-112173750D01*
X203913750Y-112413750D01*
G37*
%TO.C,U1*%
X209313750Y-108613750D02*
X209313750Y-107813750D01*
X209313750Y-108613750D02*
X209313750Y-109413750D01*
X212433750Y-108613750D02*
X212433750Y-107813750D01*
X212433750Y-108613750D02*
X212433750Y-109413750D01*
X212713750Y-107553750D02*
X212383750Y-107313750D01*
X212713750Y-107073750D01*
X212713750Y-107553750D01*
G36*
X212713750Y-107553750D02*
G01*
X212383750Y-107313750D01*
X212713750Y-107073750D01*
X212713750Y-107553750D01*
G37*
%TO.C,R20*%
X172806526Y-105810000D02*
X173315974Y-105810000D01*
X172806526Y-106855000D02*
X173315974Y-106855000D01*
%TO.C,R19*%
X177290974Y-105872500D02*
X176781526Y-105872500D01*
X177290974Y-106917500D02*
X176781526Y-106917500D01*
D12*
%TO.C,J2*%
X130623750Y-60551250D02*
X130623750Y-75751250D01*
X130623750Y-75751250D02*
X130623750Y-81701250D01*
X149153750Y-87651250D02*
X133153750Y-87651250D01*
X151423750Y-60551250D02*
X130623750Y-60551250D01*
X151423750Y-75751250D02*
X151423750Y-60551250D01*
X151423750Y-75751250D02*
X151423750Y-81701250D01*
X133153750Y-87651250D02*
G75*
G02*
X130623750Y-81701250I9766538J7665721D01*
G01*
X151423750Y-81701250D02*
G75*
G02*
X149153750Y-87651250I-12609720J1402750D01*
G01*
D14*
%TO.C,Q12*%
X200363750Y-96688750D02*
X200363750Y-96038750D01*
X200363750Y-96688750D02*
X200363750Y-97338750D01*
X203483750Y-96688750D02*
X203483750Y-96038750D01*
X203483750Y-96688750D02*
X203483750Y-97338750D01*
X200413750Y-97851250D02*
X200083750Y-98091250D01*
X200083750Y-97611250D01*
X200413750Y-97851250D01*
G36*
X200413750Y-97851250D02*
G01*
X200083750Y-98091250D01*
X200083750Y-97611250D01*
X200413750Y-97851250D01*
G37*
%TO.C,R25*%
X197901250Y-97005974D02*
X197901250Y-96496526D01*
X198946250Y-97005974D02*
X198946250Y-96496526D01*
%TO.C,Q7*%
X183498750Y-112722500D02*
X182848750Y-112722500D01*
X183498750Y-112722500D02*
X184148750Y-112722500D01*
X183498750Y-115842500D02*
X182848750Y-115842500D01*
X183498750Y-115842500D02*
X184148750Y-115842500D01*
X182336250Y-112772500D02*
X182096250Y-112442500D01*
X182576250Y-112442500D01*
X182336250Y-112772500D01*
G36*
X182336250Y-112772500D02*
G01*
X182096250Y-112442500D01*
X182576250Y-112442500D01*
X182336250Y-112772500D01*
G37*
%TO.C,R18*%
X174790974Y-112872500D02*
X174281526Y-112872500D01*
X174790974Y-113917500D02*
X174281526Y-113917500D01*
%TO.C,R8*%
X200401250Y-101084026D02*
X200401250Y-101593474D01*
X201446250Y-101084026D02*
X201446250Y-101593474D01*
%TO.C,C3*%
X201413750Y-111242483D02*
X201413750Y-111535017D01*
X202433750Y-111242483D02*
X202433750Y-111535017D01*
%TO.C,R15*%
X173226250Y-102777776D02*
X173226250Y-103287224D01*
X174271250Y-102777776D02*
X174271250Y-103287224D01*
%TO.C,TP8*%
X204373750Y-92751250D02*
G75*
G02*
X202473750Y-92751250I-950000J0D01*
G01*
X202473750Y-92751250D02*
G75*
G02*
X204373750Y-92751250I950000J0D01*
G01*
%TO.C,R10*%
X258178474Y-91228750D02*
X257669026Y-91228750D01*
X258178474Y-92273750D02*
X257669026Y-92273750D01*
%TO.C,Q4*%
X195923750Y-104691250D02*
X195273750Y-104691250D01*
X195923750Y-104691250D02*
X196573750Y-104691250D01*
X195923750Y-107811250D02*
X195273750Y-107811250D01*
X195923750Y-107811250D02*
X196573750Y-107811250D01*
X194761250Y-104741250D02*
X194521250Y-104411250D01*
X195001250Y-104411250D01*
X194761250Y-104741250D01*
G36*
X194761250Y-104741250D02*
G01*
X194521250Y-104411250D01*
X195001250Y-104411250D01*
X194761250Y-104741250D01*
G37*
%TO.C,Q1*%
X195763750Y-81426250D02*
X195763750Y-82926250D01*
X195763750Y-82926250D02*
X197573750Y-82926250D01*
X206163750Y-81426250D02*
X206163750Y-82926250D01*
X206163750Y-82926250D02*
X204353750Y-82926250D01*
X197573750Y-85488750D02*
X197243750Y-85728750D01*
X197243750Y-85248750D01*
X197573750Y-85488750D01*
G36*
X197573750Y-85488750D02*
G01*
X197243750Y-85728750D01*
X197243750Y-85248750D01*
X197573750Y-85488750D01*
G37*
%TO.C,Q10*%
X169686250Y-108385000D02*
X169036250Y-108385000D01*
X169686250Y-108385000D02*
X170336250Y-108385000D01*
X169686250Y-111505000D02*
X169036250Y-111505000D01*
X169686250Y-111505000D02*
X170336250Y-111505000D01*
X171088750Y-111785000D02*
X170608750Y-111785000D01*
X170848750Y-111455000D01*
X171088750Y-111785000D01*
G36*
X171088750Y-111785000D02*
G01*
X170608750Y-111785000D01*
X170848750Y-111455000D01*
X171088750Y-111785000D01*
G37*
%TO.C,TP6*%
X194373750Y-94251250D02*
G75*
G02*
X192473750Y-94251250I-950000J0D01*
G01*
X192473750Y-94251250D02*
G75*
G02*
X194373750Y-94251250I950000J0D01*
G01*
%TO.C,TP7*%
X171373750Y-115251250D02*
G75*
G02*
X169473750Y-115251250I-950000J0D01*
G01*
X169473750Y-115251250D02*
G75*
G02*
X171373750Y-115251250I950000J0D01*
G01*
%TO.C,R22*%
X167976250Y-104690276D02*
X167976250Y-105199724D01*
X169021250Y-104690276D02*
X169021250Y-105199724D01*
%TO.C,Q2*%
X204973750Y-104691250D02*
X204323750Y-104691250D01*
X204973750Y-104691250D02*
X205623750Y-104691250D01*
X204973750Y-107811250D02*
X204323750Y-107811250D01*
X204973750Y-107811250D02*
X205623750Y-107811250D01*
X203811250Y-104741250D02*
X203571250Y-104411250D01*
X204051250Y-104411250D01*
X203811250Y-104741250D01*
G36*
X203811250Y-104741250D02*
G01*
X203571250Y-104411250D01*
X204051250Y-104411250D01*
X203811250Y-104741250D01*
G37*
%TO.C,R12*%
X191169026Y-99228750D02*
X191678474Y-99228750D01*
X191169026Y-100273750D02*
X191678474Y-100273750D01*
%TO.C,R16*%
X183538750Y-102577776D02*
X183538750Y-103087224D01*
X184583750Y-102577776D02*
X184583750Y-103087224D01*
%TO.C,R4*%
X208901250Y-114005974D02*
X208901250Y-113496526D01*
X209946250Y-114005974D02*
X209946250Y-113496526D01*
%TO.C,C2*%
X213413750Y-108604983D02*
X213413750Y-108897517D01*
X214433750Y-108604983D02*
X214433750Y-108897517D01*
%TO.C,TP2*%
X252873750Y-89751250D02*
G75*
G02*
X250973750Y-89751250I-950000J0D01*
G01*
X250973750Y-89751250D02*
G75*
G02*
X252873750Y-89751250I950000J0D01*
G01*
%TO.C,C1*%
X194413750Y-111460017D02*
X194413750Y-111167483D01*
X195433750Y-111460017D02*
X195433750Y-111167483D01*
%TO.C,R23*%
X200669026Y-114228750D02*
X201178474Y-114228750D01*
X200669026Y-115273750D02*
X201178474Y-115273750D01*
%TO.C,U2*%
X196413750Y-111176250D02*
X196413750Y-110376250D01*
X196413750Y-111176250D02*
X196413750Y-111976250D01*
X199533750Y-111176250D02*
X199533750Y-110376250D01*
X199533750Y-111176250D02*
X199533750Y-111976250D01*
X196463750Y-112476250D02*
X196133750Y-112716250D01*
X196133750Y-112236250D01*
X196463750Y-112476250D01*
G36*
X196463750Y-112476250D02*
G01*
X196133750Y-112716250D01*
X196133750Y-112236250D01*
X196463750Y-112476250D01*
G37*
%TO.C,R17*%
X183581526Y-110422500D02*
X184090974Y-110422500D01*
X183581526Y-111467500D02*
X184090974Y-111467500D01*
%TD*%
M02*
