M48
; DRILL file {KiCad 9.0.4} date 2026-02-16T13:08:03-0700
; FORMAT={-:-/ absolute / metric / decimal}
; #@! TF.CreationDate,2026-02-16T13:08:03-07:00
; #@! TF.GenerationSoftware,Kicad,Pcbnew,9.0.4
; #@! TF.FileFunction,Plated,1,2,PTH
FMAT,2
METRIC
; #@! TA.AperFunction,Plated,PTH,ViaDrill
T1C0.300
; #@! TA.AperFunction,Plated,PTH,ViaDrill
T2C0.305
; #@! TA.AperFunction,Plated,PTH,ComponentDrill
T3C0.600
; #@! TA.AperFunction,Plated,PTH,ComponentDrill
T4C1.000
; #@! TA.AperFunction,Plated,PTH,ComponentDrill
T5C3.800
%
G90
G05
T1
X229.0Y-105.5
T2
X170.336Y-104.164
X170.624Y-108.0
X172.924Y-109.007
X177.773Y-108.957
X178.0Y-115.251
X179.5Y-103.5
X180.424Y-101.0
X184.424Y-115.251
X187.5Y-104.57
X187.5Y-110.5
X188.0Y-107.751
X189.0Y-96.5
X190.836Y-101.164
X191.5Y-95.0
X194.424Y-99.0
X194.924Y-92.251
X195.0Y-102.576
X195.924Y-112.176
X196.0Y-111.251
X196.374Y-107.201
X197.974Y-113.751
X199.924Y-110.0
X200.087Y-112.087
X201.361Y-104.251
X201.924Y-109.5
X202.0Y-97.626
X202.962Y-113.538
X204.036Y-108.251
X204.144Y-104.144
X205.424Y-93.5
X205.924Y-103.751
X207.424Y-112.0
X208.836Y-103.664
X208.837Y-109.837
X210.924Y-108.751
X212.0Y-114.0
X213.924Y-106.251
X258.836Y-90.5
T4
X161.424Y-104.751
X163.924Y-104.751
X220.0Y-105.525
X222.5Y-105.525
X225.0Y-105.525
T5
X135.574Y-84.951
X146.424Y-84.951
X252.074Y-84.951
X262.924Y-84.951
T3
G00X131.574Y-76.151
M15
G01X131.574Y-75.351
M16
G05
G00X150.474Y-76.151
M15
G01X150.474Y-75.351
M16
G05
G00X248.074Y-76.151
M15
G01X248.074Y-75.351
M16
G05
G00X266.974Y-76.151
M15
G01X266.974Y-75.351
M16
G05
M30
