M48
; DRILL file {KiCad 8.0.0} date 2024-03-01T13:10:15-0700
; FORMAT={-:-/ absolute / inch / decimal}
; #@! TF.CreationDate,2024-03-01T13:10:15-07:00
; #@! TF.GenerationSoftware,Kicad,Pcbnew,8.0.0
; #@! TF.FileFunction,Plated,1,2,PTH
FMAT,2
INCH
; #@! TA.AperFunction,Plated,PTH,ViaDrill
T1C0.0157
; #@! TA.AperFunction,Plated,PTH,ComponentDrill
T2C0.0236
; #@! TA.AperFunction,Plated,PTH,ComponentDrill
T3C0.0354
; #@! TA.AperFunction,Plated,PTH,ComponentDrill
T4C0.0394
; #@! TA.AperFunction,Plated,PTH,ComponentDrill
T5C0.0748
; #@! TA.AperFunction,Plated,PTH,ComponentDrill
T6C0.1496
%
G90
G05
T1
X12.925Y-10.575
X13.025Y-9.725
X13.025Y-9.925
X13.15Y-9.5
X13.15Y-9.675
X13.25Y-10.0
X13.35Y-9.675
X13.45Y-10.0
X13.8Y-9.375
T4
X13.5494Y-8.8738
X14.0612Y-8.8738
T5
X13.6675Y-9.2675
X13.8053Y-9.2675
X13.9431Y-9.2675
T6
X11.9311Y-10.2736
X11.9311Y-10.7008
X11.9321Y-8.95
X11.9321Y-9.3772
X13.1628Y-10.4197
X13.1628Y-10.8469
T2
G00X11.5846Y-10.1142
M15
G01X11.5531Y-10.1142
M16
G05
G00X11.5846Y-10.8583
M15
G01X11.5531Y-10.8583
M16
G05
G00X11.5856Y-8.7906
M15
G01X11.5541Y-8.7906
M16
G05
G00X11.5856Y-9.5346
M15
G01X11.5541Y-9.5346
M16
G05
G00X13.5093Y-10.2622
M15
G01X13.5407Y-10.2622
M16
G05
G00X13.5093Y-11.0063
M15
G01X13.5407Y-11.0063
M16
G05
T3
G00X12.1844Y-9.0921
M15
G01X12.1844Y-9.1276
M16
G05
G00X12.1844Y-9.6224
M15
G01X12.1844Y-9.6579
M16
G05
G00X12.1844Y-10.4073
M15
G01X12.1844Y-10.4427
M16
G05
G00X12.1844Y-10.9376
M15
G01X12.1844Y-10.973
M16
G05
G00X12.3156Y-9.0921
M15
G01X12.3156Y-9.1276
M16
G05
G00X12.3156Y-9.6224
M15
G01X12.3156Y-9.6579
M16
G05
G00X12.3156Y-10.4073
M15
G01X12.3156Y-10.4427
M16
G05
G00X12.3156Y-10.9376
M15
G01X12.3156Y-10.973
M16
G05
M30
