%TF.GenerationSoftware,KiCad,Pcbnew,8.0.0*%
%TF.CreationDate,2024-03-01T13:17:00-07:00*%
%TF.ProjectId,2023IdealDiode,32303233-4964-4656-916c-44696f64652e,rev?*%
%TF.SameCoordinates,Original*%
%TF.FileFunction,Drillmap*%
%TF.FilePolarity,Positive*%
%FSLAX45Y45*%
G04 Gerber Fmt 4.5, Leading zero omitted, Abs format (unit mm)*
G04 Created by KiCad (PCBNEW 8.0.0) date 2024-03-01 13:17:00*
%MOMM*%
%LPD*%
G01*
G04 APERTURE LIST*
%ADD10C,0.200000*%
G04 APERTURE END LIST*
D10*
X27876500Y-22161500D02*
X35941000Y-22161500D01*
X35941000Y-28257500D01*
X27876500Y-28257500D01*
X27876500Y-22161500D01*
X28127277Y-28578984D02*
X28127277Y-28378984D01*
X28127277Y-28378984D02*
X28174896Y-28378984D01*
X28174896Y-28378984D02*
X28203467Y-28388508D01*
X28203467Y-28388508D02*
X28222515Y-28407555D01*
X28222515Y-28407555D02*
X28232039Y-28426603D01*
X28232039Y-28426603D02*
X28241562Y-28464698D01*
X28241562Y-28464698D02*
X28241562Y-28493269D01*
X28241562Y-28493269D02*
X28232039Y-28531365D01*
X28232039Y-28531365D02*
X28222515Y-28550412D01*
X28222515Y-28550412D02*
X28203467Y-28569460D01*
X28203467Y-28569460D02*
X28174896Y-28578984D01*
X28174896Y-28578984D02*
X28127277Y-28578984D01*
X28327277Y-28578984D02*
X28327277Y-28445650D01*
X28327277Y-28483746D02*
X28336801Y-28464698D01*
X28336801Y-28464698D02*
X28346324Y-28455174D01*
X28346324Y-28455174D02*
X28365372Y-28445650D01*
X28365372Y-28445650D02*
X28384420Y-28445650D01*
X28451086Y-28578984D02*
X28451086Y-28445650D01*
X28451086Y-28378984D02*
X28441562Y-28388508D01*
X28441562Y-28388508D02*
X28451086Y-28398031D01*
X28451086Y-28398031D02*
X28460610Y-28388508D01*
X28460610Y-28388508D02*
X28451086Y-28378984D01*
X28451086Y-28378984D02*
X28451086Y-28398031D01*
X28574896Y-28578984D02*
X28555848Y-28569460D01*
X28555848Y-28569460D02*
X28546324Y-28550412D01*
X28546324Y-28550412D02*
X28546324Y-28378984D01*
X28679658Y-28578984D02*
X28660610Y-28569460D01*
X28660610Y-28569460D02*
X28651086Y-28550412D01*
X28651086Y-28550412D02*
X28651086Y-28378984D01*
X28908229Y-28578984D02*
X28908229Y-28378984D01*
X28908229Y-28378984D02*
X28974896Y-28521841D01*
X28974896Y-28521841D02*
X29041562Y-28378984D01*
X29041562Y-28378984D02*
X29041562Y-28578984D01*
X29222515Y-28578984D02*
X29222515Y-28474222D01*
X29222515Y-28474222D02*
X29212991Y-28455174D01*
X29212991Y-28455174D02*
X29193943Y-28445650D01*
X29193943Y-28445650D02*
X29155848Y-28445650D01*
X29155848Y-28445650D02*
X29136801Y-28455174D01*
X29222515Y-28569460D02*
X29203467Y-28578984D01*
X29203467Y-28578984D02*
X29155848Y-28578984D01*
X29155848Y-28578984D02*
X29136801Y-28569460D01*
X29136801Y-28569460D02*
X29127277Y-28550412D01*
X29127277Y-28550412D02*
X29127277Y-28531365D01*
X29127277Y-28531365D02*
X29136801Y-28512317D01*
X29136801Y-28512317D02*
X29155848Y-28502793D01*
X29155848Y-28502793D02*
X29203467Y-28502793D01*
X29203467Y-28502793D02*
X29222515Y-28493269D01*
X29317753Y-28445650D02*
X29317753Y-28645650D01*
X29317753Y-28455174D02*
X29336801Y-28445650D01*
X29336801Y-28445650D02*
X29374896Y-28445650D01*
X29374896Y-28445650D02*
X29393943Y-28455174D01*
X29393943Y-28455174D02*
X29403467Y-28464698D01*
X29403467Y-28464698D02*
X29412991Y-28483746D01*
X29412991Y-28483746D02*
X29412991Y-28540888D01*
X29412991Y-28540888D02*
X29403467Y-28559936D01*
X29403467Y-28559936D02*
X29393943Y-28569460D01*
X29393943Y-28569460D02*
X29374896Y-28578984D01*
X29374896Y-28578984D02*
X29336801Y-28578984D01*
X29336801Y-28578984D02*
X29317753Y-28569460D01*
X29498705Y-28559936D02*
X29508229Y-28569460D01*
X29508229Y-28569460D02*
X29498705Y-28578984D01*
X29498705Y-28578984D02*
X29489182Y-28569460D01*
X29489182Y-28569460D02*
X29498705Y-28559936D01*
X29498705Y-28559936D02*
X29498705Y-28578984D01*
X29498705Y-28455174D02*
X29508229Y-28464698D01*
X29508229Y-28464698D02*
X29498705Y-28474222D01*
X29498705Y-28474222D02*
X29489182Y-28464698D01*
X29489182Y-28464698D02*
X29498705Y-28455174D01*
X29498705Y-28455174D02*
X29498705Y-28474222D01*
M02*
