%TF.GenerationSoftware,KiCad,Pcbnew,8.0.0*%
%TF.CreationDate,2024-03-01T13:10:07-07:00*%
%TF.ProjectId,2023IdealDiode,32303233-4964-4656-916c-44696f64652e,rev?*%
%TF.SameCoordinates,Original*%
%TF.FileFunction,Copper,L2,Bot*%
%TF.FilePolarity,Positive*%
%FSLAX46Y46*%
G04 Gerber Fmt 4.6, Leading zero omitted, Abs format (unit mm)*
G04 Created by KiCad (PCBNEW 8.0.0) date 2024-03-01 13:10:07*
%MOMM*%
%LPD*%
G01*
G04 APERTURE LIST*
G04 Aperture macros list*
%AMRoundRect*
0 Rectangle with rounded corners*
0 $1 Rounding radius*
0 $2 $3 $4 $5 $6 $7 $8 $9 X,Y pos of 4 corners*
0 Add a 4 corners polygon primitive as box body*
4,1,4,$2,$3,$4,$5,$6,$7,$8,$9,$2,$3,0*
0 Add four circle primitives for the rounded corners*
1,1,$1+$1,$2,$3*
1,1,$1+$1,$4,$5*
1,1,$1+$1,$6,$7*
1,1,$1+$1,$8,$9*
0 Add four rect primitives between the rounded corners*
20,1,$1+$1,$2,$3,$4,$5,0*
20,1,$1+$1,$4,$5,$6,$7,0*
20,1,$1+$1,$6,$7,$8,$9,0*
20,1,$1+$1,$8,$9,$2,$3,0*%
G04 Aperture macros list end*
%TA.AperFunction,ComponentPad*%
%ADD10C,4.700000*%
%TD*%
%TA.AperFunction,ComponentPad*%
%ADD11R,4.700000X4.700000*%
%TD*%
%TA.AperFunction,ComponentPad*%
%ADD12RoundRect,0.250000X-0.950000X0.250000X-0.950000X-0.250000X0.950000X-0.250000X0.950000X0.250000X0*%
%TD*%
%TA.AperFunction,ComponentPad*%
%ADD13RoundRect,0.375000X-0.375000X0.825000X-0.375000X-0.825000X0.375000X-0.825000X0.375000X0.825000X0*%
%TD*%
%TA.AperFunction,ComponentPad*%
%ADD14RoundRect,0.250000X0.950000X-0.250000X0.950000X0.250000X-0.950000X0.250000X-0.950000X-0.250000X0*%
%TD*%
%TA.AperFunction,ComponentPad*%
%ADD15C,3.000000*%
%TD*%
%TA.AperFunction,ComponentPad*%
%ADD16R,3.000000X3.000000*%
%TD*%
%TA.AperFunction,ComponentPad*%
%ADD17C,1.400000*%
%TD*%
%TA.AperFunction,ViaPad*%
%ADD18C,0.800000*%
%TD*%
%TA.AperFunction,Conductor*%
%ADD19C,0.300000*%
%TD*%
%TA.AperFunction,Conductor*%
%ADD20C,0.250000*%
%TD*%
G04 APERTURE END LIST*
D10*
%TO.P,J1,1,+*%
%TO.N,Net-(J1-+)*%
X303075000Y-238180000D03*
D11*
%TO.P,J1,2,-*%
%TO.N,GND*%
X303075000Y-227330000D03*
D12*
%TO.P,J1,3*%
%TO.N,N/C*%
X293875000Y-242180000D03*
%TO.P,J1,4*%
X293875000Y-223280000D03*
%TD*%
D13*
%TO.P,F2,1*%
%TO.N,Net-(D2-A)*%
X312815000Y-264795000D03*
X309485000Y-264795000D03*
%TO.P,F2,2*%
%TO.N,Net-(J2-+)*%
X312815000Y-278265000D03*
X309485000Y-278265000D03*
%TD*%
%TO.P,F1,1*%
%TO.N,Net-(D1-A)*%
X312815000Y-231390000D03*
X309485000Y-231390000D03*
%TO.P,F1,2*%
%TO.N,Net-(J1-+)*%
X312815000Y-244860000D03*
X309485000Y-244860000D03*
%TD*%
D10*
%TO.P,J3,1,+*%
%TO.N,Net-(IC1-OUT1)*%
X334335000Y-264660000D03*
D11*
%TO.P,J3,2,-*%
%TO.N,GND*%
X334335000Y-275510000D03*
D14*
%TO.P,J3,3*%
%TO.N,N/C*%
X343535000Y-260660000D03*
%TO.P,J3,4*%
X343535000Y-279560000D03*
%TD*%
D10*
%TO.P,J2,1,+*%
%TO.N,Net-(J2-+)*%
X303050000Y-271800000D03*
D11*
%TO.P,J2,2,-*%
%TO.N,GND*%
X303050000Y-260950000D03*
D12*
%TO.P,J2,3*%
%TO.N,N/C*%
X293850000Y-275800000D03*
%TO.P,J2,4*%
X293850000Y-256900000D03*
%TD*%
D15*
%TO.P,SW1,3,C*%
%TO.N,Net-(D1-K)*%
X354155000Y-235395000D03*
%TO.P,SW1,2,B*%
%TO.N,Net-(IC1-EN1)*%
X350655000Y-235395000D03*
D16*
%TO.P,SW1,1,A*%
%TO.N,GND*%
X347155000Y-235395000D03*
D17*
%TO.P,SW1,*%
%TO.N,*%
X357155000Y-225395000D03*
X344155000Y-225395000D03*
%TD*%
D18*
%TO.N,Net-(IC1-EN1)*%
X339090000Y-245745000D03*
X350520000Y-238125000D03*
%TO.N,GND*%
X341630000Y-254000000D03*
%TO.N,Net-(D1-K)*%
X330835000Y-252095000D03*
X330835000Y-247015000D03*
%TO.N,Net-(IC1-OUT1)*%
X334010000Y-241300000D03*
X334010000Y-245745000D03*
%TO.N,Net-(IC1-GATE1)*%
X336550000Y-254000000D03*
X328295000Y-268605000D03*
%TD*%
D19*
%TO.N,Net-(IC1-EN1)*%
X346710000Y-238125000D02*
X350520000Y-238125000D01*
X339090000Y-245745000D02*
X346710000Y-238125000D01*
%TO.N,Net-(D1-K)*%
X338455000Y-233045000D02*
X351805000Y-233045000D01*
X351805000Y-233045000D02*
X354155000Y-235395000D01*
X330835000Y-252095000D02*
X330835000Y-240665000D01*
X330835000Y-240665000D02*
X338455000Y-233045000D01*
X330835000Y-252095000D02*
X330835000Y-247015000D01*
D20*
%TO.N,Net-(IC1-OUT1)*%
X334010000Y-245745000D02*
X334010000Y-241300000D01*
%TO.N,Net-(IC1-GATE1)*%
X328295000Y-262255000D02*
X336550000Y-254000000D01*
X328295000Y-268605000D02*
X328295000Y-262255000D01*
%TD*%
%TA.AperFunction,Conductor*%
%TO.N,GND*%
G36*
X359353039Y-221634685D02*
G01*
X359398794Y-221687489D01*
X359410000Y-221739000D01*
X359410000Y-282451000D01*
X359390315Y-282518039D01*
X359337511Y-282563794D01*
X359286000Y-282575000D01*
X278889000Y-282575000D01*
X278821961Y-282555315D01*
X278776206Y-282502511D01*
X278765000Y-282451000D01*
X278765000Y-279166122D01*
X308234500Y-279166122D01*
X308234501Y-279166125D01*
X308237399Y-279208886D01*
X308237399Y-279208887D01*
X308283360Y-279393696D01*
X308367967Y-279564292D01*
X308367969Y-279564295D01*
X308487277Y-279712721D01*
X308487278Y-279712722D01*
X308635704Y-279832030D01*
X308635707Y-279832032D01*
X308806302Y-279916639D01*
X308806303Y-279916639D01*
X308806307Y-279916641D01*
X308991111Y-279962600D01*
X309033877Y-279965500D01*
X309936122Y-279965499D01*
X309978889Y-279962600D01*
X310163693Y-279916641D01*
X310334296Y-279832030D01*
X310482722Y-279712722D01*
X310602030Y-279564296D01*
X310686641Y-279393693D01*
X310732600Y-279208889D01*
X310735500Y-279166123D01*
X310735500Y-279166122D01*
X311564500Y-279166122D01*
X311564501Y-279166125D01*
X311567399Y-279208886D01*
X311567399Y-279208887D01*
X311613360Y-279393696D01*
X311697967Y-279564292D01*
X311697969Y-279564295D01*
X311817277Y-279712721D01*
X311817278Y-279712722D01*
X311965704Y-279832030D01*
X311965707Y-279832032D01*
X312136302Y-279916639D01*
X312136303Y-279916639D01*
X312136307Y-279916641D01*
X312321111Y-279962600D01*
X312363877Y-279965500D01*
X313266122Y-279965499D01*
X313308889Y-279962600D01*
X313493693Y-279916641D01*
X313607897Y-279860001D01*
X341834500Y-279860001D01*
X341834501Y-279860019D01*
X341845000Y-279962796D01*
X341845001Y-279962799D01*
X341900185Y-280129331D01*
X341900186Y-280129334D01*
X341992288Y-280278656D01*
X342116344Y-280402712D01*
X342265666Y-280494814D01*
X342432203Y-280549999D01*
X342534991Y-280560500D01*
X344535008Y-280560499D01*
X344637797Y-280549999D01*
X344804334Y-280494814D01*
X344953656Y-280402712D01*
X345077712Y-280278656D01*
X345169814Y-280129334D01*
X345224999Y-279962797D01*
X345235500Y-279860009D01*
X345235499Y-279259992D01*
X345230278Y-279208886D01*
X345224999Y-279157203D01*
X345224998Y-279157200D01*
X345169814Y-278990666D01*
X345077712Y-278841344D01*
X344953656Y-278717288D01*
X344804334Y-278625186D01*
X344637797Y-278570001D01*
X344637795Y-278570000D01*
X344535010Y-278559500D01*
X342534998Y-278559500D01*
X342534981Y-278559501D01*
X342432203Y-278570000D01*
X342432200Y-278570001D01*
X342265668Y-278625185D01*
X342265663Y-278625187D01*
X342116342Y-278717289D01*
X341992289Y-278841342D01*
X341900187Y-278990663D01*
X341900186Y-278990666D01*
X341845001Y-279157203D01*
X341845001Y-279157204D01*
X341845000Y-279157204D01*
X341834500Y-279259983D01*
X341834500Y-279860001D01*
X313607897Y-279860001D01*
X313664296Y-279832030D01*
X313812722Y-279712722D01*
X313932030Y-279564296D01*
X314016641Y-279393693D01*
X314062600Y-279208889D01*
X314065500Y-279166123D01*
X314065499Y-277363878D01*
X314062600Y-277321111D01*
X314016641Y-277136307D01*
X314014046Y-277131075D01*
X313932032Y-276965707D01*
X313932030Y-276965704D01*
X313812722Y-276817278D01*
X313812721Y-276817277D01*
X313664295Y-276697969D01*
X313664292Y-276697967D01*
X313493697Y-276613360D01*
X313308892Y-276567400D01*
X313287506Y-276565950D01*
X313266123Y-276564500D01*
X313266120Y-276564500D01*
X312363877Y-276564500D01*
X312363874Y-276564501D01*
X312321113Y-276567399D01*
X312321112Y-276567399D01*
X312136303Y-276613360D01*
X311965707Y-276697967D01*
X311965704Y-276697969D01*
X311817278Y-276817277D01*
X311817277Y-276817278D01*
X311697969Y-276965704D01*
X311697967Y-276965707D01*
X311613360Y-277136302D01*
X311567400Y-277321107D01*
X311564500Y-277363879D01*
X311564500Y-279166122D01*
X310735500Y-279166122D01*
X310735499Y-277363878D01*
X310732600Y-277321111D01*
X310686641Y-277136307D01*
X310684046Y-277131075D01*
X310602032Y-276965707D01*
X310602030Y-276965704D01*
X310482722Y-276817278D01*
X310482721Y-276817277D01*
X310334295Y-276697969D01*
X310334292Y-276697967D01*
X310163697Y-276613360D01*
X309978892Y-276567400D01*
X309957506Y-276565950D01*
X309936123Y-276564500D01*
X309936120Y-276564500D01*
X309033877Y-276564500D01*
X309033874Y-276564501D01*
X308991113Y-276567399D01*
X308991112Y-276567399D01*
X308806303Y-276613360D01*
X308635707Y-276697967D01*
X308635704Y-276697969D01*
X308487278Y-276817277D01*
X308487277Y-276817278D01*
X308367969Y-276965704D01*
X308367967Y-276965707D01*
X308283360Y-277136302D01*
X308237400Y-277321107D01*
X308234500Y-277363879D01*
X308234500Y-279166122D01*
X278765000Y-279166122D01*
X278765000Y-276100001D01*
X292149500Y-276100001D01*
X292149501Y-276100019D01*
X292160000Y-276202796D01*
X292160001Y-276202799D01*
X292215185Y-276369331D01*
X292215186Y-276369334D01*
X292307288Y-276518656D01*
X292431344Y-276642712D01*
X292580666Y-276734814D01*
X292747203Y-276789999D01*
X292849991Y-276800500D01*
X294850008Y-276800499D01*
X294952797Y-276789999D01*
X295119334Y-276734814D01*
X295268656Y-276642712D01*
X295392712Y-276518656D01*
X295484814Y-276369334D01*
X295539999Y-276202797D01*
X295550500Y-276100009D01*
X295550499Y-275499992D01*
X295539999Y-275397203D01*
X295484814Y-275230666D01*
X295392712Y-275081344D01*
X295268656Y-274957288D01*
X295119334Y-274865186D01*
X294952797Y-274810001D01*
X294952795Y-274810000D01*
X294850010Y-274799500D01*
X292849998Y-274799500D01*
X292849981Y-274799501D01*
X292747203Y-274810000D01*
X292747200Y-274810001D01*
X292580668Y-274865185D01*
X292580663Y-274865187D01*
X292431342Y-274957289D01*
X292307289Y-275081342D01*
X292215187Y-275230663D01*
X292215186Y-275230666D01*
X292160001Y-275397203D01*
X292160001Y-275397204D01*
X292160000Y-275397204D01*
X292149500Y-275499983D01*
X292149500Y-276100001D01*
X278765000Y-276100001D01*
X278765000Y-271800003D01*
X300194669Y-271800003D01*
X300213976Y-272131484D01*
X300213977Y-272131495D01*
X300271631Y-272458467D01*
X300271634Y-272458481D01*
X300366866Y-272776580D01*
X300498379Y-273081461D01*
X300498385Y-273081474D01*
X300664406Y-273369031D01*
X300862678Y-273635356D01*
X300862683Y-273635362D01*
X300862690Y-273635371D01*
X301090553Y-273876893D01*
X301274689Y-274031400D01*
X301344912Y-274090325D01*
X301344920Y-274090331D01*
X301622330Y-274272787D01*
X301622334Y-274272789D01*
X301919061Y-274421811D01*
X302231082Y-274535377D01*
X302231088Y-274535378D01*
X302231090Y-274535379D01*
X302554161Y-274611949D01*
X302554168Y-274611950D01*
X302554177Y-274611952D01*
X302883977Y-274650500D01*
X302883984Y-274650500D01*
X303216016Y-274650500D01*
X303216023Y-274650500D01*
X303545823Y-274611952D01*
X303545832Y-274611949D01*
X303545838Y-274611949D01*
X303806445Y-274550183D01*
X303868918Y-274535377D01*
X304180939Y-274421811D01*
X304477666Y-274272789D01*
X304755085Y-274090327D01*
X305009447Y-273876893D01*
X305237310Y-273635371D01*
X305435594Y-273369030D01*
X305601617Y-273081470D01*
X305733133Y-272776581D01*
X305828365Y-272458485D01*
X305886024Y-272131484D01*
X305905331Y-271800000D01*
X305886024Y-271468516D01*
X305828365Y-271141515D01*
X305733133Y-270823419D01*
X305601617Y-270518530D01*
X305435594Y-270230970D01*
X305435593Y-270230968D01*
X305237321Y-269964643D01*
X305237314Y-269964635D01*
X305237310Y-269964629D01*
X305009447Y-269723107D01*
X304847153Y-269586926D01*
X304755087Y-269509674D01*
X304755079Y-269509668D01*
X304477669Y-269327212D01*
X304180946Y-269178192D01*
X304180940Y-269178189D01*
X303868930Y-269064627D01*
X303868909Y-269064620D01*
X303545838Y-268988050D01*
X303545823Y-268988048D01*
X303216023Y-268949500D01*
X302883977Y-268949500D01*
X302595402Y-268983229D01*
X302554176Y-268988048D01*
X302554161Y-268988050D01*
X302231090Y-269064620D01*
X302231069Y-269064627D01*
X301919059Y-269178189D01*
X301919053Y-269178192D01*
X301622330Y-269327212D01*
X301344920Y-269509668D01*
X301344912Y-269509674D01*
X301138936Y-269682508D01*
X301090553Y-269723107D01*
X300862690Y-269964629D01*
X300862687Y-269964632D01*
X300862685Y-269964635D01*
X300862678Y-269964643D01*
X300664406Y-270230968D01*
X300498385Y-270518525D01*
X300498379Y-270518538D01*
X300366866Y-270823419D01*
X300271634Y-271141518D01*
X300271631Y-271141532D01*
X300213977Y-271468504D01*
X300213976Y-271468515D01*
X300194669Y-271799996D01*
X300194669Y-271800003D01*
X278765000Y-271800003D01*
X278765000Y-268605000D01*
X327389540Y-268605000D01*
X327409326Y-268793256D01*
X327409327Y-268793259D01*
X327467818Y-268973277D01*
X327467821Y-268973284D01*
X327562467Y-269137216D01*
X327689129Y-269277888D01*
X327842265Y-269389148D01*
X327842270Y-269389151D01*
X328015192Y-269466142D01*
X328015197Y-269466144D01*
X328200354Y-269505500D01*
X328200355Y-269505500D01*
X328389644Y-269505500D01*
X328389646Y-269505500D01*
X328574803Y-269466144D01*
X328747730Y-269389151D01*
X328900871Y-269277888D01*
X329027533Y-269137216D01*
X329122179Y-268973284D01*
X329180674Y-268793256D01*
X329200460Y-268605000D01*
X329180674Y-268416744D01*
X329122179Y-268236716D01*
X329027533Y-268072784D01*
X328952350Y-267989284D01*
X328922120Y-267926292D01*
X328920500Y-267906312D01*
X328920500Y-264660003D01*
X331479669Y-264660003D01*
X331498976Y-264991484D01*
X331498977Y-264991495D01*
X331556631Y-265318467D01*
X331556634Y-265318481D01*
X331651866Y-265636580D01*
X331783379Y-265941461D01*
X331783385Y-265941474D01*
X331949406Y-266229031D01*
X332147678Y-266495356D01*
X332147683Y-266495362D01*
X332147690Y-266495371D01*
X332375553Y-266736893D01*
X332559689Y-266891400D01*
X332629912Y-266950325D01*
X332629920Y-266950331D01*
X332907330Y-267132787D01*
X332907334Y-267132789D01*
X333204061Y-267281811D01*
X333516082Y-267395377D01*
X333516088Y-267395378D01*
X333516090Y-267395379D01*
X333839161Y-267471949D01*
X333839168Y-267471950D01*
X333839177Y-267471952D01*
X334168977Y-267510500D01*
X334168984Y-267510500D01*
X334501016Y-267510500D01*
X334501023Y-267510500D01*
X334830823Y-267471952D01*
X334830832Y-267471949D01*
X334830838Y-267471949D01*
X335091445Y-267410183D01*
X335153918Y-267395377D01*
X335465939Y-267281811D01*
X335762666Y-267132789D01*
X336040085Y-266950327D01*
X336294447Y-266736893D01*
X336522310Y-266495371D01*
X336720594Y-266229030D01*
X336886617Y-265941470D01*
X337018133Y-265636581D01*
X337113365Y-265318485D01*
X337171024Y-264991484D01*
X337190331Y-264660000D01*
X337171024Y-264328516D01*
X337113365Y-264001515D01*
X337018133Y-263683419D01*
X336886617Y-263378530D01*
X336799691Y-263227970D01*
X336720593Y-263090968D01*
X336522321Y-262824643D01*
X336522314Y-262824635D01*
X336522310Y-262824629D01*
X336294447Y-262583107D01*
X336132153Y-262446926D01*
X336040087Y-262369674D01*
X336040079Y-262369668D01*
X335762669Y-262187212D01*
X335465946Y-262038192D01*
X335465937Y-262038188D01*
X335153930Y-261924627D01*
X335153909Y-261924620D01*
X334830838Y-261848050D01*
X334830823Y-261848048D01*
X334501023Y-261809500D01*
X334168977Y-261809500D01*
X333880402Y-261843229D01*
X333839176Y-261848048D01*
X333839161Y-261848050D01*
X333516090Y-261924620D01*
X333516069Y-261924627D01*
X333204063Y-262038188D01*
X333204053Y-262038192D01*
X332907330Y-262187212D01*
X332629920Y-262369668D01*
X332629912Y-262369674D01*
X332423936Y-262542508D01*
X332375553Y-262583107D01*
X332147690Y-262824629D01*
X332147687Y-262824632D01*
X332147685Y-262824635D01*
X332147678Y-262824643D01*
X331949406Y-263090968D01*
X331783385Y-263378525D01*
X331783379Y-263378538D01*
X331651866Y-263683419D01*
X331556634Y-264001518D01*
X331556631Y-264001532D01*
X331498977Y-264328504D01*
X331498976Y-264328515D01*
X331479669Y-264659996D01*
X331479669Y-264660003D01*
X328920500Y-264660003D01*
X328920500Y-262565452D01*
X328940185Y-262498413D01*
X328956819Y-262477771D01*
X330474589Y-260960001D01*
X341834500Y-260960001D01*
X341834501Y-260960019D01*
X341845000Y-261062796D01*
X341845001Y-261062799D01*
X341900185Y-261229331D01*
X341900186Y-261229334D01*
X341992288Y-261378656D01*
X342116344Y-261502712D01*
X342265666Y-261594814D01*
X342432203Y-261649999D01*
X342534991Y-261660500D01*
X344535008Y-261660499D01*
X344637797Y-261649999D01*
X344804334Y-261594814D01*
X344953656Y-261502712D01*
X345077712Y-261378656D01*
X345169814Y-261229334D01*
X345224999Y-261062797D01*
X345235500Y-260960009D01*
X345235499Y-260359992D01*
X345224999Y-260257203D01*
X345169814Y-260090666D01*
X345077712Y-259941344D01*
X344953656Y-259817288D01*
X344804334Y-259725186D01*
X344637797Y-259670001D01*
X344637795Y-259670000D01*
X344535010Y-259659500D01*
X342534998Y-259659500D01*
X342534981Y-259659501D01*
X342432203Y-259670000D01*
X342432200Y-259670001D01*
X342265668Y-259725185D01*
X342265663Y-259725187D01*
X342116342Y-259817289D01*
X341992289Y-259941342D01*
X341900187Y-260090663D01*
X341900186Y-260090666D01*
X341845001Y-260257203D01*
X341845001Y-260257204D01*
X341845000Y-260257204D01*
X341834500Y-260359983D01*
X341834500Y-260960001D01*
X330474589Y-260960001D01*
X336497771Y-254936819D01*
X336559094Y-254903334D01*
X336585452Y-254900500D01*
X336644644Y-254900500D01*
X336644646Y-254900500D01*
X336829803Y-254861144D01*
X337002730Y-254784151D01*
X337155871Y-254672888D01*
X337282533Y-254532216D01*
X337377179Y-254368284D01*
X337435674Y-254188256D01*
X337455460Y-254000000D01*
X337435674Y-253811744D01*
X337377179Y-253631716D01*
X337282533Y-253467784D01*
X337155871Y-253327112D01*
X337155870Y-253327111D01*
X337002734Y-253215851D01*
X337002729Y-253215848D01*
X336829807Y-253138857D01*
X336829802Y-253138855D01*
X336684001Y-253107865D01*
X336644646Y-253099500D01*
X336455354Y-253099500D01*
X336422897Y-253106398D01*
X336270197Y-253138855D01*
X336270192Y-253138857D01*
X336097270Y-253215848D01*
X336097265Y-253215851D01*
X335944129Y-253327111D01*
X335817466Y-253467785D01*
X335722821Y-253631715D01*
X335722818Y-253631722D01*
X335664327Y-253811740D01*
X335664326Y-253811744D01*
X335656405Y-253887105D01*
X335646678Y-253979651D01*
X335620093Y-254044266D01*
X335611038Y-254054370D01*
X327896270Y-261769139D01*
X327809144Y-261856264D01*
X327809138Y-261856272D01*
X327740690Y-261958708D01*
X327740688Y-261958713D01*
X327707769Y-262038188D01*
X327693539Y-262072541D01*
X327693535Y-262072555D01*
X327669500Y-262193389D01*
X327669500Y-267906312D01*
X327649815Y-267973351D01*
X327637650Y-267989284D01*
X327562466Y-268072784D01*
X327467821Y-268236715D01*
X327467818Y-268236722D01*
X327409327Y-268416740D01*
X327409326Y-268416744D01*
X327389540Y-268605000D01*
X278765000Y-268605000D01*
X278765000Y-265696122D01*
X308234500Y-265696122D01*
X308234501Y-265696125D01*
X308237399Y-265738886D01*
X308237399Y-265738887D01*
X308283360Y-265923696D01*
X308367967Y-266094292D01*
X308367969Y-266094295D01*
X308487277Y-266242721D01*
X308487278Y-266242722D01*
X308635704Y-266362030D01*
X308635707Y-266362032D01*
X308806302Y-266446639D01*
X308806303Y-266446639D01*
X308806307Y-266446641D01*
X308991111Y-266492600D01*
X309033877Y-266495500D01*
X309936122Y-266495499D01*
X309978889Y-266492600D01*
X310163693Y-266446641D01*
X310334296Y-266362030D01*
X310482722Y-266242722D01*
X310602030Y-266094296D01*
X310686641Y-265923693D01*
X310732600Y-265738889D01*
X310735500Y-265696123D01*
X310735500Y-265696122D01*
X311564500Y-265696122D01*
X311564501Y-265696125D01*
X311567399Y-265738886D01*
X311567399Y-265738887D01*
X311613360Y-265923696D01*
X311697967Y-266094292D01*
X311697969Y-266094295D01*
X311817277Y-266242721D01*
X311817278Y-266242722D01*
X311965704Y-266362030D01*
X311965707Y-266362032D01*
X312136302Y-266446639D01*
X312136303Y-266446639D01*
X312136307Y-266446641D01*
X312321111Y-266492600D01*
X312363877Y-266495500D01*
X313266122Y-266495499D01*
X313308889Y-266492600D01*
X313493693Y-266446641D01*
X313664296Y-266362030D01*
X313812722Y-266242722D01*
X313932030Y-266094296D01*
X314016641Y-265923693D01*
X314062600Y-265738889D01*
X314065500Y-265696123D01*
X314065499Y-263893878D01*
X314062600Y-263851111D01*
X314016641Y-263666307D01*
X314014046Y-263661075D01*
X313932032Y-263495707D01*
X313932030Y-263495704D01*
X313812722Y-263347278D01*
X313812721Y-263347277D01*
X313664295Y-263227969D01*
X313664292Y-263227967D01*
X313493697Y-263143360D01*
X313308892Y-263097400D01*
X313287506Y-263095950D01*
X313266123Y-263094500D01*
X313266120Y-263094500D01*
X312363877Y-263094500D01*
X312363874Y-263094501D01*
X312321113Y-263097399D01*
X312321112Y-263097399D01*
X312136303Y-263143360D01*
X311965707Y-263227967D01*
X311965704Y-263227969D01*
X311817278Y-263347277D01*
X311817277Y-263347278D01*
X311697969Y-263495704D01*
X311697967Y-263495707D01*
X311613360Y-263666302D01*
X311567400Y-263851107D01*
X311564500Y-263893879D01*
X311564500Y-265696122D01*
X310735500Y-265696122D01*
X310735499Y-263893878D01*
X310732600Y-263851111D01*
X310686641Y-263666307D01*
X310684046Y-263661075D01*
X310602032Y-263495707D01*
X310602030Y-263495704D01*
X310482722Y-263347278D01*
X310482721Y-263347277D01*
X310334295Y-263227969D01*
X310334292Y-263227967D01*
X310163697Y-263143360D01*
X309978892Y-263097400D01*
X309957506Y-263095950D01*
X309936123Y-263094500D01*
X309936120Y-263094500D01*
X309033877Y-263094500D01*
X309033874Y-263094501D01*
X308991113Y-263097399D01*
X308991112Y-263097399D01*
X308806303Y-263143360D01*
X308635707Y-263227967D01*
X308635704Y-263227969D01*
X308487278Y-263347277D01*
X308487277Y-263347278D01*
X308367969Y-263495704D01*
X308367967Y-263495707D01*
X308283360Y-263666302D01*
X308237400Y-263851107D01*
X308234500Y-263893879D01*
X308234500Y-265696122D01*
X278765000Y-265696122D01*
X278765000Y-257200001D01*
X292149500Y-257200001D01*
X292149501Y-257200019D01*
X292160000Y-257302796D01*
X292160001Y-257302799D01*
X292215185Y-257469331D01*
X292215186Y-257469334D01*
X292307288Y-257618656D01*
X292431344Y-257742712D01*
X292580666Y-257834814D01*
X292747203Y-257889999D01*
X292849991Y-257900500D01*
X294850008Y-257900499D01*
X294952797Y-257889999D01*
X295119334Y-257834814D01*
X295268656Y-257742712D01*
X295392712Y-257618656D01*
X295484814Y-257469334D01*
X295539999Y-257302797D01*
X295550500Y-257200009D01*
X295550499Y-256599992D01*
X295539999Y-256497203D01*
X295484814Y-256330666D01*
X295392712Y-256181344D01*
X295268656Y-256057288D01*
X295119334Y-255965186D01*
X294952797Y-255910001D01*
X294952795Y-255910000D01*
X294850010Y-255899500D01*
X292849998Y-255899500D01*
X292849981Y-255899501D01*
X292747203Y-255910000D01*
X292747200Y-255910001D01*
X292580668Y-255965185D01*
X292580663Y-255965187D01*
X292431342Y-256057289D01*
X292307289Y-256181342D01*
X292215187Y-256330663D01*
X292215186Y-256330666D01*
X292160001Y-256497203D01*
X292160001Y-256497204D01*
X292160000Y-256497204D01*
X292149500Y-256599983D01*
X292149500Y-257200001D01*
X278765000Y-257200001D01*
X278765000Y-252095000D01*
X329929540Y-252095000D01*
X329949326Y-252283256D01*
X329949327Y-252283259D01*
X330007818Y-252463277D01*
X330007821Y-252463284D01*
X330102467Y-252627216D01*
X330229129Y-252767888D01*
X330382265Y-252879148D01*
X330382270Y-252879151D01*
X330555192Y-252956142D01*
X330555197Y-252956144D01*
X330740354Y-252995500D01*
X330740355Y-252995500D01*
X330929644Y-252995500D01*
X330929646Y-252995500D01*
X331114803Y-252956144D01*
X331287730Y-252879151D01*
X331440871Y-252767888D01*
X331567533Y-252627216D01*
X331662179Y-252463284D01*
X331720674Y-252283256D01*
X331740460Y-252095000D01*
X331720674Y-251906744D01*
X331662179Y-251726716D01*
X331567533Y-251562784D01*
X331517350Y-251507050D01*
X331487120Y-251444058D01*
X331485500Y-251424078D01*
X331485500Y-247685921D01*
X331505185Y-247618882D01*
X331517351Y-247602948D01*
X331567533Y-247547216D01*
X331662179Y-247383284D01*
X331720674Y-247203256D01*
X331740460Y-247015000D01*
X331720674Y-246826744D01*
X331662179Y-246646716D01*
X331567533Y-246482784D01*
X331517350Y-246427050D01*
X331487120Y-246364058D01*
X331485500Y-246344078D01*
X331485500Y-245745000D01*
X333104540Y-245745000D01*
X333124326Y-245933256D01*
X333124327Y-245933259D01*
X333182818Y-246113277D01*
X333182821Y-246113284D01*
X333277467Y-246277216D01*
X333398032Y-246411117D01*
X333404129Y-246417888D01*
X333557265Y-246529148D01*
X333557270Y-246529151D01*
X333730192Y-246606142D01*
X333730197Y-246606144D01*
X333915354Y-246645500D01*
X333915355Y-246645500D01*
X334104644Y-246645500D01*
X334104646Y-246645500D01*
X334289803Y-246606144D01*
X334462730Y-246529151D01*
X334615871Y-246417888D01*
X334742533Y-246277216D01*
X334837179Y-246113284D01*
X334895674Y-245933256D01*
X334915460Y-245745000D01*
X334895674Y-245556744D01*
X334837179Y-245376716D01*
X334742533Y-245212784D01*
X334667350Y-245129284D01*
X334637120Y-245066292D01*
X334635500Y-245046312D01*
X334635500Y-241998687D01*
X334655185Y-241931648D01*
X334667350Y-241915715D01*
X334699509Y-241879998D01*
X334742533Y-241832216D01*
X334837179Y-241668284D01*
X334895674Y-241488256D01*
X334915460Y-241300000D01*
X334895674Y-241111744D01*
X334837179Y-240931716D01*
X334742533Y-240767784D01*
X334615871Y-240627112D01*
X334579832Y-240600928D01*
X334462734Y-240515851D01*
X334462729Y-240515848D01*
X334289807Y-240438857D01*
X334289802Y-240438855D01*
X334144001Y-240407865D01*
X334104646Y-240399500D01*
X333915354Y-240399500D01*
X333882897Y-240406398D01*
X333730197Y-240438855D01*
X333730192Y-240438857D01*
X333557270Y-240515848D01*
X333557265Y-240515851D01*
X333404129Y-240627111D01*
X333277466Y-240767785D01*
X333182821Y-240931715D01*
X333182818Y-240931722D01*
X333124327Y-241111740D01*
X333124326Y-241111744D01*
X333104540Y-241300000D01*
X333124326Y-241488256D01*
X333124327Y-241488259D01*
X333182818Y-241668277D01*
X333182821Y-241668284D01*
X333277467Y-241832216D01*
X333320474Y-241879980D01*
X333352650Y-241915715D01*
X333382880Y-241978706D01*
X333384500Y-241998687D01*
X333384500Y-245046312D01*
X333364815Y-245113351D01*
X333352650Y-245129284D01*
X333277466Y-245212784D01*
X333182821Y-245376715D01*
X333182818Y-245376722D01*
X333124327Y-245556740D01*
X333124326Y-245556744D01*
X333104540Y-245745000D01*
X331485500Y-245745000D01*
X331485500Y-240985808D01*
X331505185Y-240918769D01*
X331521819Y-240898127D01*
X338688127Y-233731819D01*
X338749450Y-233698334D01*
X338775808Y-233695500D01*
X349226003Y-233695500D01*
X349293042Y-233715185D01*
X349338797Y-233767989D01*
X349348741Y-233837147D01*
X349319716Y-233900703D01*
X349313684Y-233907181D01*
X349139270Y-234081594D01*
X349139254Y-234081612D01*
X348967775Y-234310682D01*
X348967770Y-234310690D01*
X348830635Y-234561833D01*
X348730628Y-234829962D01*
X348669804Y-235109566D01*
X348649390Y-235394998D01*
X348649390Y-235395001D01*
X348669804Y-235680433D01*
X348730628Y-235960037D01*
X348830635Y-236228166D01*
X348967770Y-236479309D01*
X348967775Y-236479317D01*
X349139254Y-236708387D01*
X349139270Y-236708405D01*
X349341594Y-236910729D01*
X349341612Y-236910745D01*
X349570682Y-237082224D01*
X349570690Y-237082229D01*
X349821833Y-237219364D01*
X349821837Y-237219366D01*
X349821839Y-237219367D01*
X349861925Y-237234318D01*
X349917859Y-237276189D01*
X349942276Y-237341654D01*
X349927424Y-237409926D01*
X349878019Y-237459332D01*
X349818592Y-237474500D01*
X346645929Y-237474500D01*
X346520261Y-237499497D01*
X346520255Y-237499499D01*
X346401870Y-237548535D01*
X346295331Y-237619722D01*
X346295324Y-237619728D01*
X339106873Y-244808181D01*
X339045550Y-244841666D01*
X339019192Y-244844500D01*
X338995354Y-244844500D01*
X338962897Y-244851398D01*
X338810197Y-244883855D01*
X338810192Y-244883857D01*
X338637270Y-244960848D01*
X338637265Y-244960851D01*
X338484129Y-245072111D01*
X338357466Y-245212785D01*
X338262821Y-245376715D01*
X338262818Y-245376722D01*
X338204327Y-245556740D01*
X338204326Y-245556744D01*
X338184540Y-245745000D01*
X338204326Y-245933256D01*
X338204327Y-245933259D01*
X338262818Y-246113277D01*
X338262821Y-246113284D01*
X338357467Y-246277216D01*
X338478032Y-246411117D01*
X338484129Y-246417888D01*
X338637265Y-246529148D01*
X338637270Y-246529151D01*
X338810192Y-246606142D01*
X338810197Y-246606144D01*
X338995354Y-246645500D01*
X338995355Y-246645500D01*
X339184644Y-246645500D01*
X339184646Y-246645500D01*
X339369803Y-246606144D01*
X339542730Y-246529151D01*
X339695871Y-246417888D01*
X339822533Y-246277216D01*
X339917179Y-246113284D01*
X339975674Y-245933256D01*
X339989168Y-245804855D01*
X340015752Y-245740242D01*
X340024799Y-245730145D01*
X346943127Y-238811819D01*
X347004450Y-238778334D01*
X347030808Y-238775500D01*
X349843025Y-238775500D01*
X349910064Y-238795185D01*
X349915910Y-238799182D01*
X350067265Y-238909148D01*
X350067270Y-238909151D01*
X350240192Y-238986142D01*
X350240197Y-238986144D01*
X350425354Y-239025500D01*
X350425355Y-239025500D01*
X350614644Y-239025500D01*
X350614646Y-239025500D01*
X350799803Y-238986144D01*
X350972730Y-238909151D01*
X351125871Y-238797888D01*
X351252533Y-238657216D01*
X351347179Y-238493284D01*
X351405674Y-238313256D01*
X351425460Y-238125000D01*
X351405674Y-237936744D01*
X351347179Y-237756716D01*
X351252533Y-237592784D01*
X351182035Y-237514488D01*
X351151807Y-237451500D01*
X351160432Y-237382165D01*
X351205173Y-237328499D01*
X351230848Y-237315339D01*
X351488161Y-237219367D01*
X351739315Y-237082226D01*
X351968395Y-236910739D01*
X352170739Y-236708395D01*
X352305733Y-236528064D01*
X352361666Y-236486192D01*
X352431358Y-236481208D01*
X352492681Y-236514693D01*
X352504267Y-236528064D01*
X352639254Y-236708387D01*
X352639270Y-236708405D01*
X352841594Y-236910729D01*
X352841612Y-236910745D01*
X353070682Y-237082224D01*
X353070690Y-237082229D01*
X353321833Y-237219364D01*
X353321832Y-237219364D01*
X353321836Y-237219365D01*
X353321839Y-237219367D01*
X353589954Y-237319369D01*
X353589960Y-237319370D01*
X353589962Y-237319371D01*
X353869566Y-237380195D01*
X353869568Y-237380195D01*
X353869572Y-237380196D01*
X354123220Y-237398337D01*
X354154999Y-237400610D01*
X354155000Y-237400610D01*
X354155001Y-237400610D01*
X354183595Y-237398564D01*
X354440428Y-237380196D01*
X354702877Y-237323104D01*
X354720037Y-237319371D01*
X354720037Y-237319370D01*
X354720046Y-237319369D01*
X354988161Y-237219367D01*
X355239315Y-237082226D01*
X355468395Y-236910739D01*
X355670739Y-236708395D01*
X355842226Y-236479315D01*
X355979367Y-236228161D01*
X356079369Y-235960046D01*
X356079371Y-235960037D01*
X356140195Y-235680433D01*
X356140195Y-235680432D01*
X356140196Y-235680428D01*
X356160610Y-235395000D01*
X356140196Y-235109572D01*
X356079369Y-234829954D01*
X355979367Y-234561839D01*
X355842226Y-234310685D01*
X355842224Y-234310682D01*
X355670745Y-234081612D01*
X355670729Y-234081594D01*
X355468405Y-233879270D01*
X355468387Y-233879254D01*
X355239317Y-233707775D01*
X355239309Y-233707770D01*
X354988166Y-233570635D01*
X354988167Y-233570635D01*
X354880915Y-233530632D01*
X354720046Y-233470631D01*
X354720043Y-233470630D01*
X354720037Y-233470628D01*
X354440433Y-233409804D01*
X354155001Y-233389390D01*
X354154999Y-233389390D01*
X353869566Y-233409804D01*
X353589960Y-233470629D01*
X353589955Y-233470630D01*
X353589954Y-233470631D01*
X353534607Y-233491274D01*
X353344602Y-233562142D01*
X353274910Y-233567126D01*
X353213588Y-233533641D01*
X352219673Y-232539726D01*
X352219669Y-232539723D01*
X352113127Y-232468535D01*
X351994744Y-232419499D01*
X351994738Y-232419497D01*
X351869071Y-232394500D01*
X351869069Y-232394500D01*
X338390931Y-232394500D01*
X338390929Y-232394500D01*
X338265261Y-232419497D01*
X338265255Y-232419499D01*
X338146870Y-232468535D01*
X338040331Y-232539722D01*
X338040324Y-232539728D01*
X330329722Y-240250331D01*
X330329718Y-240250336D01*
X330307037Y-240284283D01*
X330307037Y-240284284D01*
X330258534Y-240356874D01*
X330209499Y-240475255D01*
X330209497Y-240475261D01*
X330184500Y-240600928D01*
X330184500Y-246344078D01*
X330164815Y-246411117D01*
X330152650Y-246427050D01*
X330102466Y-246482785D01*
X330007821Y-246646715D01*
X330007818Y-246646722D01*
X329949327Y-246826740D01*
X329949326Y-246826744D01*
X329929540Y-247015000D01*
X329949326Y-247203256D01*
X329949327Y-247203259D01*
X330007818Y-247383277D01*
X330007821Y-247383284D01*
X330102466Y-247547215D01*
X330152649Y-247602948D01*
X330182880Y-247665940D01*
X330184500Y-247685921D01*
X330184500Y-251424078D01*
X330164815Y-251491117D01*
X330152650Y-251507050D01*
X330102466Y-251562785D01*
X330007821Y-251726715D01*
X330007818Y-251726722D01*
X329949327Y-251906740D01*
X329949326Y-251906744D01*
X329929540Y-252095000D01*
X278765000Y-252095000D01*
X278765000Y-245761122D01*
X308234500Y-245761122D01*
X308234501Y-245761125D01*
X308237399Y-245803886D01*
X308237399Y-245803887D01*
X308283360Y-245988696D01*
X308367967Y-246159292D01*
X308367969Y-246159295D01*
X308487277Y-246307721D01*
X308487278Y-246307722D01*
X308635704Y-246427030D01*
X308635707Y-246427032D01*
X308806302Y-246511639D01*
X308806303Y-246511639D01*
X308806307Y-246511641D01*
X308991111Y-246557600D01*
X309033877Y-246560500D01*
X309936122Y-246560499D01*
X309978889Y-246557600D01*
X310163693Y-246511641D01*
X310334296Y-246427030D01*
X310482722Y-246307722D01*
X310602030Y-246159296D01*
X310686641Y-245988693D01*
X310732600Y-245803889D01*
X310735500Y-245761123D01*
X310735500Y-245761122D01*
X311564500Y-245761122D01*
X311564501Y-245761125D01*
X311567399Y-245803886D01*
X311567399Y-245803887D01*
X311613360Y-245988696D01*
X311697967Y-246159292D01*
X311697969Y-246159295D01*
X311817277Y-246307721D01*
X311817278Y-246307722D01*
X311965704Y-246427030D01*
X311965707Y-246427032D01*
X312136302Y-246511639D01*
X312136303Y-246511639D01*
X312136307Y-246511641D01*
X312321111Y-246557600D01*
X312363877Y-246560500D01*
X313266122Y-246560499D01*
X313308889Y-246557600D01*
X313493693Y-246511641D01*
X313664296Y-246427030D01*
X313812722Y-246307722D01*
X313932030Y-246159296D01*
X314016641Y-245988693D01*
X314062600Y-245803889D01*
X314065500Y-245761123D01*
X314065499Y-243958878D01*
X314062600Y-243916111D01*
X314016641Y-243731307D01*
X314014046Y-243726075D01*
X313932032Y-243560707D01*
X313932030Y-243560704D01*
X313812722Y-243412278D01*
X313812721Y-243412277D01*
X313664295Y-243292969D01*
X313664292Y-243292967D01*
X313493697Y-243208360D01*
X313308892Y-243162400D01*
X313287506Y-243160950D01*
X313266123Y-243159500D01*
X313266120Y-243159500D01*
X312363877Y-243159500D01*
X312363874Y-243159501D01*
X312321113Y-243162399D01*
X312321112Y-243162399D01*
X312136303Y-243208360D01*
X311965707Y-243292967D01*
X311965704Y-243292969D01*
X311817278Y-243412277D01*
X311817277Y-243412278D01*
X311697969Y-243560704D01*
X311697967Y-243560707D01*
X311613360Y-243731302D01*
X311567400Y-243916107D01*
X311564500Y-243958879D01*
X311564500Y-245761122D01*
X310735500Y-245761122D01*
X310735499Y-243958878D01*
X310732600Y-243916111D01*
X310686641Y-243731307D01*
X310684046Y-243726075D01*
X310602032Y-243560707D01*
X310602030Y-243560704D01*
X310482722Y-243412278D01*
X310482721Y-243412277D01*
X310334295Y-243292969D01*
X310334292Y-243292967D01*
X310163697Y-243208360D01*
X309978892Y-243162400D01*
X309957506Y-243160950D01*
X309936123Y-243159500D01*
X309936120Y-243159500D01*
X309033877Y-243159500D01*
X309033874Y-243159501D01*
X308991113Y-243162399D01*
X308991112Y-243162399D01*
X308806303Y-243208360D01*
X308635707Y-243292967D01*
X308635704Y-243292969D01*
X308487278Y-243412277D01*
X308487277Y-243412278D01*
X308367969Y-243560704D01*
X308367967Y-243560707D01*
X308283360Y-243731302D01*
X308237400Y-243916107D01*
X308234500Y-243958879D01*
X308234500Y-245761122D01*
X278765000Y-245761122D01*
X278765000Y-242480001D01*
X292174500Y-242480001D01*
X292174501Y-242480019D01*
X292185000Y-242582796D01*
X292185001Y-242582799D01*
X292240185Y-242749331D01*
X292240186Y-242749334D01*
X292332288Y-242898656D01*
X292456344Y-243022712D01*
X292605666Y-243114814D01*
X292772203Y-243169999D01*
X292874991Y-243180500D01*
X294875008Y-243180499D01*
X294977797Y-243169999D01*
X295144334Y-243114814D01*
X295293656Y-243022712D01*
X295417712Y-242898656D01*
X295509814Y-242749334D01*
X295564999Y-242582797D01*
X295575500Y-242480009D01*
X295575499Y-241879992D01*
X295570618Y-241832214D01*
X295564999Y-241777203D01*
X295564998Y-241777200D01*
X295509814Y-241610666D01*
X295417712Y-241461344D01*
X295293656Y-241337288D01*
X295144334Y-241245186D01*
X294977797Y-241190001D01*
X294977795Y-241190000D01*
X294875010Y-241179500D01*
X292874998Y-241179500D01*
X292874981Y-241179501D01*
X292772203Y-241190000D01*
X292772200Y-241190001D01*
X292605668Y-241245185D01*
X292605663Y-241245187D01*
X292456342Y-241337289D01*
X292332289Y-241461342D01*
X292240187Y-241610663D01*
X292240185Y-241610668D01*
X292221093Y-241668284D01*
X292185001Y-241777203D01*
X292185001Y-241777204D01*
X292185000Y-241777204D01*
X292174500Y-241879983D01*
X292174500Y-242480001D01*
X278765000Y-242480001D01*
X278765000Y-238180003D01*
X300219669Y-238180003D01*
X300238976Y-238511484D01*
X300238977Y-238511495D01*
X300296631Y-238838467D01*
X300296634Y-238838481D01*
X300391866Y-239156580D01*
X300523379Y-239461461D01*
X300523385Y-239461474D01*
X300689406Y-239749031D01*
X300887678Y-240015356D01*
X300887683Y-240015362D01*
X300887690Y-240015371D01*
X301115553Y-240256893D01*
X301285506Y-240399500D01*
X301369912Y-240470325D01*
X301369920Y-240470331D01*
X301647330Y-240652787D01*
X301647334Y-240652789D01*
X301944061Y-240801811D01*
X302256082Y-240915377D01*
X302256088Y-240915378D01*
X302256090Y-240915379D01*
X302579161Y-240991949D01*
X302579168Y-240991950D01*
X302579177Y-240991952D01*
X302908977Y-241030500D01*
X302908984Y-241030500D01*
X303241016Y-241030500D01*
X303241023Y-241030500D01*
X303570823Y-240991952D01*
X303570832Y-240991949D01*
X303570838Y-240991949D01*
X303879606Y-240918769D01*
X303893918Y-240915377D01*
X304205939Y-240801811D01*
X304502666Y-240652789D01*
X304780085Y-240470327D01*
X305034447Y-240256893D01*
X305262310Y-240015371D01*
X305460594Y-239749030D01*
X305626617Y-239461470D01*
X305758133Y-239156581D01*
X305853365Y-238838485D01*
X305911024Y-238511484D01*
X305930331Y-238180000D01*
X305911024Y-237848516D01*
X305853365Y-237521515D01*
X305758133Y-237203419D01*
X305626617Y-236898530D01*
X305460594Y-236610970D01*
X305398873Y-236528064D01*
X305262321Y-236344643D01*
X305262314Y-236344635D01*
X305262310Y-236344629D01*
X305034447Y-236103107D01*
X304863942Y-235960037D01*
X304780087Y-235889674D01*
X304780079Y-235889668D01*
X304502669Y-235707212D01*
X304205946Y-235558192D01*
X304205940Y-235558189D01*
X303893930Y-235444627D01*
X303893909Y-235444620D01*
X303570838Y-235368050D01*
X303570823Y-235368048D01*
X303241023Y-235329500D01*
X302908977Y-235329500D01*
X302620402Y-235363229D01*
X302579176Y-235368048D01*
X302579161Y-235368050D01*
X302256090Y-235444620D01*
X302256069Y-235444627D01*
X301944059Y-235558189D01*
X301944053Y-235558192D01*
X301647330Y-235707212D01*
X301369920Y-235889668D01*
X301369912Y-235889674D01*
X301163936Y-236062508D01*
X301115553Y-236103107D01*
X300887690Y-236344629D01*
X300887687Y-236344632D01*
X300887685Y-236344635D01*
X300887678Y-236344643D01*
X300689406Y-236610968D01*
X300523385Y-236898525D01*
X300523379Y-236898538D01*
X300391866Y-237203419D01*
X300296634Y-237521518D01*
X300296631Y-237521532D01*
X300238977Y-237848504D01*
X300238976Y-237848515D01*
X300219669Y-238179996D01*
X300219669Y-238180003D01*
X278765000Y-238180003D01*
X278765000Y-232291122D01*
X308234500Y-232291122D01*
X308234501Y-232291125D01*
X308237399Y-232333886D01*
X308237399Y-232333887D01*
X308283360Y-232518696D01*
X308367967Y-232689292D01*
X308367969Y-232689295D01*
X308487277Y-232837721D01*
X308487278Y-232837722D01*
X308635704Y-232957030D01*
X308635707Y-232957032D01*
X308806302Y-233041639D01*
X308806303Y-233041639D01*
X308806307Y-233041641D01*
X308991111Y-233087600D01*
X309033877Y-233090500D01*
X309936122Y-233090499D01*
X309978889Y-233087600D01*
X310163693Y-233041641D01*
X310334296Y-232957030D01*
X310482722Y-232837722D01*
X310602030Y-232689296D01*
X310686641Y-232518693D01*
X310732600Y-232333889D01*
X310735500Y-232291123D01*
X310735500Y-232291122D01*
X311564500Y-232291122D01*
X311564501Y-232291125D01*
X311567399Y-232333886D01*
X311567399Y-232333887D01*
X311613360Y-232518696D01*
X311697967Y-232689292D01*
X311697969Y-232689295D01*
X311817277Y-232837721D01*
X311817278Y-232837722D01*
X311965704Y-232957030D01*
X311965707Y-232957032D01*
X312136302Y-233041639D01*
X312136303Y-233041639D01*
X312136307Y-233041641D01*
X312321111Y-233087600D01*
X312363877Y-233090500D01*
X313266122Y-233090499D01*
X313308889Y-233087600D01*
X313493693Y-233041641D01*
X313664296Y-232957030D01*
X313812722Y-232837722D01*
X313932030Y-232689296D01*
X314016641Y-232518693D01*
X314062600Y-232333889D01*
X314065500Y-232291123D01*
X314065499Y-230488878D01*
X314062600Y-230446111D01*
X314016641Y-230261307D01*
X314014046Y-230256075D01*
X313932032Y-230090707D01*
X313932030Y-230090704D01*
X313812722Y-229942278D01*
X313812721Y-229942277D01*
X313664295Y-229822969D01*
X313664292Y-229822967D01*
X313493697Y-229738360D01*
X313308892Y-229692400D01*
X313287506Y-229690950D01*
X313266123Y-229689500D01*
X313266120Y-229689500D01*
X312363877Y-229689500D01*
X312363874Y-229689501D01*
X312321113Y-229692399D01*
X312321112Y-229692399D01*
X312136303Y-229738360D01*
X311965707Y-229822967D01*
X311965704Y-229822969D01*
X311817278Y-229942277D01*
X311817277Y-229942278D01*
X311697969Y-230090704D01*
X311697967Y-230090707D01*
X311613360Y-230261302D01*
X311567400Y-230446107D01*
X311564500Y-230488879D01*
X311564500Y-232291122D01*
X310735500Y-232291122D01*
X310735499Y-230488878D01*
X310732600Y-230446111D01*
X310686641Y-230261307D01*
X310684046Y-230256075D01*
X310602032Y-230090707D01*
X310602030Y-230090704D01*
X310482722Y-229942278D01*
X310482721Y-229942277D01*
X310334295Y-229822969D01*
X310334292Y-229822967D01*
X310163697Y-229738360D01*
X309978892Y-229692400D01*
X309957506Y-229690950D01*
X309936123Y-229689500D01*
X309936120Y-229689500D01*
X309033877Y-229689500D01*
X309033874Y-229689501D01*
X308991113Y-229692399D01*
X308991112Y-229692399D01*
X308806303Y-229738360D01*
X308635707Y-229822967D01*
X308635704Y-229822969D01*
X308487278Y-229942277D01*
X308487277Y-229942278D01*
X308367969Y-230090704D01*
X308367967Y-230090707D01*
X308283360Y-230261302D01*
X308237400Y-230446107D01*
X308234500Y-230488879D01*
X308234500Y-232291122D01*
X278765000Y-232291122D01*
X278765000Y-225395000D01*
X342949357Y-225395000D01*
X342969884Y-225616535D01*
X342969885Y-225616537D01*
X343030769Y-225830523D01*
X343030775Y-225830538D01*
X343129938Y-226029683D01*
X343129943Y-226029691D01*
X343264020Y-226207238D01*
X343428437Y-226357123D01*
X343428439Y-226357125D01*
X343617595Y-226474245D01*
X343617596Y-226474245D01*
X343617599Y-226474247D01*
X343825060Y-226554618D01*
X344043757Y-226595500D01*
X344043759Y-226595500D01*
X344266241Y-226595500D01*
X344266243Y-226595500D01*
X344484940Y-226554618D01*
X344692401Y-226474247D01*
X344881562Y-226357124D01*
X345045981Y-226207236D01*
X345180058Y-226029689D01*
X345279229Y-225830528D01*
X345340115Y-225616536D01*
X345360643Y-225395000D01*
X355949357Y-225395000D01*
X355969884Y-225616535D01*
X355969885Y-225616537D01*
X356030769Y-225830523D01*
X356030775Y-225830538D01*
X356129938Y-226029683D01*
X356129943Y-226029691D01*
X356264020Y-226207238D01*
X356428437Y-226357123D01*
X356428439Y-226357125D01*
X356617595Y-226474245D01*
X356617596Y-226474245D01*
X356617599Y-226474247D01*
X356825060Y-226554618D01*
X357043757Y-226595500D01*
X357043759Y-226595500D01*
X357266241Y-226595500D01*
X357266243Y-226595500D01*
X357484940Y-226554618D01*
X357692401Y-226474247D01*
X357881562Y-226357124D01*
X358045981Y-226207236D01*
X358180058Y-226029689D01*
X358279229Y-225830528D01*
X358340115Y-225616536D01*
X358360643Y-225395000D01*
X358340115Y-225173464D01*
X358279229Y-224959472D01*
X358279224Y-224959461D01*
X358180061Y-224760316D01*
X358180056Y-224760308D01*
X358045979Y-224582761D01*
X357881562Y-224432876D01*
X357881560Y-224432874D01*
X357692404Y-224315754D01*
X357692398Y-224315752D01*
X357484940Y-224235382D01*
X357266243Y-224194500D01*
X357043757Y-224194500D01*
X356825060Y-224235382D01*
X356708600Y-224280499D01*
X356617601Y-224315752D01*
X356617595Y-224315754D01*
X356428439Y-224432874D01*
X356428437Y-224432876D01*
X356264020Y-224582761D01*
X356129943Y-224760308D01*
X356129938Y-224760316D01*
X356030775Y-224959461D01*
X356030769Y-224959476D01*
X355969885Y-225173462D01*
X355969884Y-225173464D01*
X355949357Y-225394999D01*
X355949357Y-225395000D01*
X345360643Y-225395000D01*
X345340115Y-225173464D01*
X345279229Y-224959472D01*
X345279224Y-224959461D01*
X345180061Y-224760316D01*
X345180056Y-224760308D01*
X345045979Y-224582761D01*
X344881562Y-224432876D01*
X344881560Y-224432874D01*
X344692404Y-224315754D01*
X344692398Y-224315752D01*
X344484940Y-224235382D01*
X344266243Y-224194500D01*
X344043757Y-224194500D01*
X343825060Y-224235382D01*
X343708600Y-224280499D01*
X343617601Y-224315752D01*
X343617595Y-224315754D01*
X343428439Y-224432874D01*
X343428437Y-224432876D01*
X343264020Y-224582761D01*
X343129943Y-224760308D01*
X343129938Y-224760316D01*
X343030775Y-224959461D01*
X343030769Y-224959476D01*
X342969885Y-225173462D01*
X342969884Y-225173464D01*
X342949357Y-225394999D01*
X342949357Y-225395000D01*
X278765000Y-225395000D01*
X278765000Y-223580001D01*
X292174500Y-223580001D01*
X292174501Y-223580019D01*
X292185000Y-223682796D01*
X292185001Y-223682799D01*
X292240185Y-223849331D01*
X292240186Y-223849334D01*
X292332288Y-223998656D01*
X292456344Y-224122712D01*
X292605666Y-224214814D01*
X292772203Y-224269999D01*
X292874991Y-224280500D01*
X294875008Y-224280499D01*
X294977797Y-224269999D01*
X295144334Y-224214814D01*
X295293656Y-224122712D01*
X295417712Y-223998656D01*
X295509814Y-223849334D01*
X295564999Y-223682797D01*
X295575500Y-223580009D01*
X295575499Y-222979992D01*
X295564999Y-222877203D01*
X295509814Y-222710666D01*
X295417712Y-222561344D01*
X295293656Y-222437288D01*
X295144334Y-222345186D01*
X294977797Y-222290001D01*
X294977795Y-222290000D01*
X294875010Y-222279500D01*
X292874998Y-222279500D01*
X292874981Y-222279501D01*
X292772203Y-222290000D01*
X292772200Y-222290001D01*
X292605668Y-222345185D01*
X292605663Y-222345187D01*
X292456342Y-222437289D01*
X292332289Y-222561342D01*
X292240187Y-222710663D01*
X292240186Y-222710666D01*
X292185001Y-222877203D01*
X292185001Y-222877204D01*
X292185000Y-222877204D01*
X292174500Y-222979983D01*
X292174500Y-223580001D01*
X278765000Y-223580001D01*
X278765000Y-221739000D01*
X278784685Y-221671961D01*
X278837489Y-221626206D01*
X278889000Y-221615000D01*
X359286000Y-221615000D01*
X359353039Y-221634685D01*
G37*
%TD.AperFunction*%
%TD*%
M02*
