%TF.GenerationSoftware,KiCad,Pcbnew,8.0.0*%
%TF.CreationDate,2024-03-01T13:10:07-07:00*%
%TF.ProjectId,2023IdealDiode,32303233-4964-4656-916c-44696f64652e,rev?*%
%TF.SameCoordinates,Original*%
%TF.FileFunction,Legend,Top*%
%TF.FilePolarity,Positive*%
%FSLAX46Y46*%
G04 Gerber Fmt 4.6, Leading zero omitted, Abs format (unit mm)*
G04 Created by KiCad (PCBNEW 8.0.0) date 2024-03-01 13:10:07*
%MOMM*%
%LPD*%
G01*
G04 APERTURE LIST*
%ADD10C,0.150000*%
%ADD11C,0.100000*%
%ADD12C,0.120000*%
G04 APERTURE END LIST*
D10*
X340399819Y-250721189D02*
X339399819Y-250721189D01*
X340304580Y-249673571D02*
X340352200Y-249721190D01*
X340352200Y-249721190D02*
X340399819Y-249864047D01*
X340399819Y-249864047D02*
X340399819Y-249959285D01*
X340399819Y-249959285D02*
X340352200Y-250102142D01*
X340352200Y-250102142D02*
X340256961Y-250197380D01*
X340256961Y-250197380D02*
X340161723Y-250244999D01*
X340161723Y-250244999D02*
X339971247Y-250292618D01*
X339971247Y-250292618D02*
X339828390Y-250292618D01*
X339828390Y-250292618D02*
X339637914Y-250244999D01*
X339637914Y-250244999D02*
X339542676Y-250197380D01*
X339542676Y-250197380D02*
X339447438Y-250102142D01*
X339447438Y-250102142D02*
X339399819Y-249959285D01*
X339399819Y-249959285D02*
X339399819Y-249864047D01*
X339399819Y-249864047D02*
X339447438Y-249721190D01*
X339447438Y-249721190D02*
X339495057Y-249673571D01*
X340399819Y-248721190D02*
X340399819Y-249292618D01*
X340399819Y-249006904D02*
X339399819Y-249006904D01*
X339399819Y-249006904D02*
X339542676Y-249102142D01*
X339542676Y-249102142D02*
X339637914Y-249197380D01*
X339637914Y-249197380D02*
X339685533Y-249292618D01*
X338923333Y-252679580D02*
X338875714Y-252727200D01*
X338875714Y-252727200D02*
X338732857Y-252774819D01*
X338732857Y-252774819D02*
X338637619Y-252774819D01*
X338637619Y-252774819D02*
X338494762Y-252727200D01*
X338494762Y-252727200D02*
X338399524Y-252631961D01*
X338399524Y-252631961D02*
X338351905Y-252536723D01*
X338351905Y-252536723D02*
X338304286Y-252346247D01*
X338304286Y-252346247D02*
X338304286Y-252203390D01*
X338304286Y-252203390D02*
X338351905Y-252012914D01*
X338351905Y-252012914D02*
X338399524Y-251917676D01*
X338399524Y-251917676D02*
X338494762Y-251822438D01*
X338494762Y-251822438D02*
X338637619Y-251774819D01*
X338637619Y-251774819D02*
X338732857Y-251774819D01*
X338732857Y-251774819D02*
X338875714Y-251822438D01*
X338875714Y-251822438D02*
X338923333Y-251870057D01*
X339875714Y-252774819D02*
X339304286Y-252774819D01*
X339590000Y-252774819D02*
X339590000Y-251774819D01*
X339590000Y-251774819D02*
X339494762Y-251917676D01*
X339494762Y-251917676D02*
X339399524Y-252012914D01*
X339399524Y-252012914D02*
X339304286Y-252060533D01*
D11*
X312217580Y-231696666D02*
X311503295Y-231696666D01*
X311503295Y-231696666D02*
X311360438Y-231649047D01*
X311360438Y-231649047D02*
X311265200Y-231553809D01*
X311265200Y-231553809D02*
X311217580Y-231410952D01*
X311217580Y-231410952D02*
X311217580Y-231315714D01*
X311217580Y-232696666D02*
X311217580Y-232125238D01*
X311217580Y-232410952D02*
X312217580Y-232410952D01*
X312217580Y-232410952D02*
X312074723Y-232315714D01*
X312074723Y-232315714D02*
X311979485Y-232220476D01*
X311979485Y-232220476D02*
X311931866Y-232125238D01*
D10*
X329145057Y-237615238D02*
X329097438Y-237710476D01*
X329097438Y-237710476D02*
X329002200Y-237805714D01*
X329002200Y-237805714D02*
X328859342Y-237948571D01*
X328859342Y-237948571D02*
X328811723Y-238043809D01*
X328811723Y-238043809D02*
X328811723Y-238139047D01*
X329049819Y-238091428D02*
X329002200Y-238186666D01*
X329002200Y-238186666D02*
X328906961Y-238281904D01*
X328906961Y-238281904D02*
X328716485Y-238329523D01*
X328716485Y-238329523D02*
X328383152Y-238329523D01*
X328383152Y-238329523D02*
X328192676Y-238281904D01*
X328192676Y-238281904D02*
X328097438Y-238186666D01*
X328097438Y-238186666D02*
X328049819Y-238091428D01*
X328049819Y-238091428D02*
X328049819Y-237900952D01*
X328049819Y-237900952D02*
X328097438Y-237805714D01*
X328097438Y-237805714D02*
X328192676Y-237710476D01*
X328192676Y-237710476D02*
X328383152Y-237662857D01*
X328383152Y-237662857D02*
X328716485Y-237662857D01*
X328716485Y-237662857D02*
X328906961Y-237710476D01*
X328906961Y-237710476D02*
X329002200Y-237805714D01*
X329002200Y-237805714D02*
X329049819Y-237900952D01*
X329049819Y-237900952D02*
X329049819Y-238091428D01*
X329049819Y-236710476D02*
X329049819Y-237281904D01*
X329049819Y-236996190D02*
X328049819Y-236996190D01*
X328049819Y-236996190D02*
X328192676Y-237091428D01*
X328192676Y-237091428D02*
X328287914Y-237186666D01*
X328287914Y-237186666D02*
X328335533Y-237281904D01*
X327859405Y-249119819D02*
X327859405Y-248119819D01*
X327859405Y-248119819D02*
X328097500Y-248119819D01*
X328097500Y-248119819D02*
X328240357Y-248167438D01*
X328240357Y-248167438D02*
X328335595Y-248262676D01*
X328335595Y-248262676D02*
X328383214Y-248357914D01*
X328383214Y-248357914D02*
X328430833Y-248548390D01*
X328430833Y-248548390D02*
X328430833Y-248691247D01*
X328430833Y-248691247D02*
X328383214Y-248881723D01*
X328383214Y-248881723D02*
X328335595Y-248976961D01*
X328335595Y-248976961D02*
X328240357Y-249072200D01*
X328240357Y-249072200D02*
X328097500Y-249119819D01*
X328097500Y-249119819D02*
X327859405Y-249119819D01*
X329383214Y-249119819D02*
X328811786Y-249119819D01*
X329097500Y-249119819D02*
X329097500Y-248119819D01*
X329097500Y-248119819D02*
X329002262Y-248262676D01*
X329002262Y-248262676D02*
X328907024Y-248357914D01*
X328907024Y-248357914D02*
X328811786Y-248405533D01*
X329145057Y-271270238D02*
X329097438Y-271365476D01*
X329097438Y-271365476D02*
X329002200Y-271460714D01*
X329002200Y-271460714D02*
X328859342Y-271603571D01*
X328859342Y-271603571D02*
X328811723Y-271698809D01*
X328811723Y-271698809D02*
X328811723Y-271794047D01*
X329049819Y-271746428D02*
X329002200Y-271841666D01*
X329002200Y-271841666D02*
X328906961Y-271936904D01*
X328906961Y-271936904D02*
X328716485Y-271984523D01*
X328716485Y-271984523D02*
X328383152Y-271984523D01*
X328383152Y-271984523D02*
X328192676Y-271936904D01*
X328192676Y-271936904D02*
X328097438Y-271841666D01*
X328097438Y-271841666D02*
X328049819Y-271746428D01*
X328049819Y-271746428D02*
X328049819Y-271555952D01*
X328049819Y-271555952D02*
X328097438Y-271460714D01*
X328097438Y-271460714D02*
X328192676Y-271365476D01*
X328192676Y-271365476D02*
X328383152Y-271317857D01*
X328383152Y-271317857D02*
X328716485Y-271317857D01*
X328716485Y-271317857D02*
X328906961Y-271365476D01*
X328906961Y-271365476D02*
X329002200Y-271460714D01*
X329002200Y-271460714D02*
X329049819Y-271555952D01*
X329049819Y-271555952D02*
X329049819Y-271746428D01*
X328145057Y-270936904D02*
X328097438Y-270889285D01*
X328097438Y-270889285D02*
X328049819Y-270794047D01*
X328049819Y-270794047D02*
X328049819Y-270555952D01*
X328049819Y-270555952D02*
X328097438Y-270460714D01*
X328097438Y-270460714D02*
X328145057Y-270413095D01*
X328145057Y-270413095D02*
X328240295Y-270365476D01*
X328240295Y-270365476D02*
X328335533Y-270365476D01*
X328335533Y-270365476D02*
X328478390Y-270413095D01*
X328478390Y-270413095D02*
X329049819Y-270984523D01*
X329049819Y-270984523D02*
X329049819Y-270365476D01*
D11*
X325192419Y-271143333D02*
X325906704Y-271143333D01*
X325906704Y-271143333D02*
X326049561Y-271190952D01*
X326049561Y-271190952D02*
X326144800Y-271286190D01*
X326144800Y-271286190D02*
X326192419Y-271429047D01*
X326192419Y-271429047D02*
X326192419Y-271524285D01*
X325192419Y-270762380D02*
X325192419Y-270143333D01*
X325192419Y-270143333D02*
X325573371Y-270476666D01*
X325573371Y-270476666D02*
X325573371Y-270333809D01*
X325573371Y-270333809D02*
X325620990Y-270238571D01*
X325620990Y-270238571D02*
X325668609Y-270190952D01*
X325668609Y-270190952D02*
X325763847Y-270143333D01*
X325763847Y-270143333D02*
X326001942Y-270143333D01*
X326001942Y-270143333D02*
X326097180Y-270190952D01*
X326097180Y-270190952D02*
X326144800Y-270238571D01*
X326144800Y-270238571D02*
X326192419Y-270333809D01*
X326192419Y-270333809D02*
X326192419Y-270619523D01*
X326192419Y-270619523D02*
X326144800Y-270714761D01*
X326144800Y-270714761D02*
X326097180Y-270762380D01*
X312192580Y-265316666D02*
X311478295Y-265316666D01*
X311478295Y-265316666D02*
X311335438Y-265269047D01*
X311335438Y-265269047D02*
X311240200Y-265173809D01*
X311240200Y-265173809D02*
X311192580Y-265030952D01*
X311192580Y-265030952D02*
X311192580Y-264935714D01*
X312097342Y-265745238D02*
X312144961Y-265792857D01*
X312144961Y-265792857D02*
X312192580Y-265888095D01*
X312192580Y-265888095D02*
X312192580Y-266126190D01*
X312192580Y-266126190D02*
X312144961Y-266221428D01*
X312144961Y-266221428D02*
X312097342Y-266269047D01*
X312097342Y-266269047D02*
X312002104Y-266316666D01*
X312002104Y-266316666D02*
X311906866Y-266316666D01*
X311906866Y-266316666D02*
X311764009Y-266269047D01*
X311764009Y-266269047D02*
X311192580Y-265697619D01*
X311192580Y-265697619D02*
X311192580Y-266316666D01*
D10*
X327859405Y-254199819D02*
X327859405Y-253199819D01*
X327859405Y-253199819D02*
X328097500Y-253199819D01*
X328097500Y-253199819D02*
X328240357Y-253247438D01*
X328240357Y-253247438D02*
X328335595Y-253342676D01*
X328335595Y-253342676D02*
X328383214Y-253437914D01*
X328383214Y-253437914D02*
X328430833Y-253628390D01*
X328430833Y-253628390D02*
X328430833Y-253771247D01*
X328430833Y-253771247D02*
X328383214Y-253961723D01*
X328383214Y-253961723D02*
X328335595Y-254056961D01*
X328335595Y-254056961D02*
X328240357Y-254152200D01*
X328240357Y-254152200D02*
X328097500Y-254199819D01*
X328097500Y-254199819D02*
X327859405Y-254199819D01*
X328811786Y-253295057D02*
X328859405Y-253247438D01*
X328859405Y-253247438D02*
X328954643Y-253199819D01*
X328954643Y-253199819D02*
X329192738Y-253199819D01*
X329192738Y-253199819D02*
X329287976Y-253247438D01*
X329287976Y-253247438D02*
X329335595Y-253295057D01*
X329335595Y-253295057D02*
X329383214Y-253390295D01*
X329383214Y-253390295D02*
X329383214Y-253485533D01*
X329383214Y-253485533D02*
X329335595Y-253628390D01*
X329335595Y-253628390D02*
X328764167Y-254199819D01*
X328764167Y-254199819D02*
X329383214Y-254199819D01*
X349321667Y-221302200D02*
X349464524Y-221349819D01*
X349464524Y-221349819D02*
X349702619Y-221349819D01*
X349702619Y-221349819D02*
X349797857Y-221302200D01*
X349797857Y-221302200D02*
X349845476Y-221254580D01*
X349845476Y-221254580D02*
X349893095Y-221159342D01*
X349893095Y-221159342D02*
X349893095Y-221064104D01*
X349893095Y-221064104D02*
X349845476Y-220968866D01*
X349845476Y-220968866D02*
X349797857Y-220921247D01*
X349797857Y-220921247D02*
X349702619Y-220873628D01*
X349702619Y-220873628D02*
X349512143Y-220826009D01*
X349512143Y-220826009D02*
X349416905Y-220778390D01*
X349416905Y-220778390D02*
X349369286Y-220730771D01*
X349369286Y-220730771D02*
X349321667Y-220635533D01*
X349321667Y-220635533D02*
X349321667Y-220540295D01*
X349321667Y-220540295D02*
X349369286Y-220445057D01*
X349369286Y-220445057D02*
X349416905Y-220397438D01*
X349416905Y-220397438D02*
X349512143Y-220349819D01*
X349512143Y-220349819D02*
X349750238Y-220349819D01*
X349750238Y-220349819D02*
X349893095Y-220397438D01*
X350226429Y-220349819D02*
X350464524Y-221349819D01*
X350464524Y-221349819D02*
X350655000Y-220635533D01*
X350655000Y-220635533D02*
X350845476Y-221349819D01*
X350845476Y-221349819D02*
X351083572Y-220349819D01*
X351988333Y-221349819D02*
X351416905Y-221349819D01*
X351702619Y-221349819D02*
X351702619Y-220349819D01*
X351702619Y-220349819D02*
X351607381Y-220492676D01*
X351607381Y-220492676D02*
X351512143Y-220587914D01*
X351512143Y-220587914D02*
X351416905Y-220635533D01*
D12*
%TO.C,IC1*%
X334835000Y-249745000D02*
X334835000Y-248245000D01*
X334835000Y-249745000D02*
X334835000Y-251245000D01*
X339155000Y-249745000D02*
X339155000Y-248245000D01*
X339155000Y-249745000D02*
X339155000Y-251245000D01*
X338745000Y-246610000D02*
X338505000Y-246280000D01*
X338985000Y-246280000D01*
X338745000Y-246610000D01*
G36*
X338745000Y-246610000D02*
G01*
X338505000Y-246280000D01*
X338985000Y-246280000D01*
X338745000Y-246610000D01*
G37*
%TO.C,C1*%
X338828748Y-253265000D02*
X339351252Y-253265000D01*
X338828748Y-254735000D02*
X339351252Y-254735000D01*
D10*
%TO.C,J1*%
X278675000Y-222330000D02*
X278675000Y-243130000D01*
X278675000Y-243130000D02*
X293875000Y-243130000D01*
X293875000Y-222330000D02*
X278675000Y-222330000D01*
X293875000Y-222330000D02*
X299825000Y-222330000D01*
X293875000Y-243130000D02*
X299825000Y-243130000D01*
X305775000Y-224600000D02*
X305775000Y-240600000D01*
X299825000Y-222330001D02*
G75*
G02*
X305775000Y-224600000I-1402750J-12609719D01*
G01*
X305775000Y-240600000D02*
G75*
G02*
X299825000Y-243130000I-7665721J9766538D01*
G01*
%TO.C,F2*%
D11*
X314515000Y-261625000D02*
X307785000Y-261625000D01*
X307785000Y-281435000D01*
X314515000Y-281435000D01*
X314515000Y-261625000D01*
D12*
%TO.C,Q1*%
X316745000Y-232695000D02*
X318555000Y-232695000D01*
X316745000Y-234195000D02*
X316745000Y-232695000D01*
X327145000Y-232695000D02*
X325335000Y-232695000D01*
X327145000Y-234195000D02*
X327145000Y-232695000D01*
X325665000Y-230372500D02*
X325335000Y-230132500D01*
X325665000Y-229892500D01*
X325665000Y-230372500D01*
G36*
X325665000Y-230372500D02*
G01*
X325335000Y-230132500D01*
X325665000Y-229892500D01*
X325665000Y-230372500D01*
G37*
%TO.C,D1*%
X327597500Y-247975000D02*
X330282500Y-247975000D01*
X330282500Y-246055000D02*
X327597500Y-246055000D01*
X330282500Y-247975000D02*
X330282500Y-246055000D01*
%TO.C,F1*%
D11*
X314515000Y-228220000D02*
X307785000Y-228220000D01*
X307785000Y-248030000D01*
X314515000Y-248030000D01*
X314515000Y-228220000D01*
D12*
%TO.C,Q2*%
X316745000Y-266350000D02*
X318555000Y-266350000D01*
X316745000Y-267850000D02*
X316745000Y-266350000D01*
X327145000Y-266350000D02*
X325335000Y-266350000D01*
X327145000Y-267850000D02*
X327145000Y-266350000D01*
X325665000Y-264027500D02*
X325335000Y-263787500D01*
X325665000Y-263547500D01*
X325665000Y-264027500D01*
G36*
X325665000Y-264027500D02*
G01*
X325335000Y-263787500D01*
X325665000Y-263547500D01*
X325665000Y-264027500D01*
G37*
D10*
%TO.C,J3*%
X331635000Y-278240000D02*
X331635000Y-262240000D01*
X343535000Y-259710000D02*
X337585000Y-259710000D01*
X343535000Y-280510000D02*
X337585000Y-280510000D01*
X343535000Y-280510000D02*
X346535000Y-280510000D01*
X343559000Y-259715000D02*
X346559000Y-259715000D01*
X346535000Y-277510000D02*
X358735000Y-277510000D01*
X346535000Y-280510000D02*
X346535000Y-277510000D01*
X346559000Y-262715000D02*
X346559000Y-259715000D01*
X346559000Y-262715000D02*
X358759000Y-262715000D01*
D11*
X358759000Y-262715000D02*
X358735000Y-277510000D01*
D10*
X331635000Y-262240000D02*
G75*
G02*
X337585000Y-259710000I7665721J-9766538D01*
G01*
X337585000Y-280509999D02*
G75*
G02*
X331635000Y-278240000I1402750J12609719D01*
G01*
%TO.C,J2*%
X278650000Y-255950000D02*
X278650000Y-276750000D01*
X278650000Y-276750000D02*
X293850000Y-276750000D01*
X293850000Y-255950000D02*
X278650000Y-255950000D01*
X293850000Y-255950000D02*
X299800000Y-255950000D01*
X293850000Y-276750000D02*
X299800000Y-276750000D01*
X305750000Y-258220000D02*
X305750000Y-274220000D01*
X299800000Y-255950001D02*
G75*
G02*
X305750000Y-258220000I-1402750J-12609719D01*
G01*
X305750000Y-274220000D02*
G75*
G02*
X299800000Y-276750000I-7665721J9766538D01*
G01*
D12*
%TO.C,D2*%
X327597500Y-253055000D02*
X330282500Y-253055000D01*
X330282500Y-251135000D02*
X327597500Y-251135000D01*
X330282500Y-253055000D02*
X330282500Y-251135000D01*
%TO.C,SW1*%
X357355000Y-224285000D02*
G75*
G02*
X357355000Y-226505000I0J-1110000D01*
G01*
X343955000Y-226505000D02*
G75*
G02*
X343955000Y-224285000I0J1110000D01*
G01*
X356515000Y-222085000D02*
X356515000Y-224285000D01*
X344795000Y-222085000D02*
X356515000Y-222085000D01*
X344795000Y-222085000D02*
X344795000Y-224285000D01*
X356515000Y-224285000D02*
X357355000Y-224285000D01*
X343955000Y-224285000D02*
X344795000Y-224285000D01*
X356515000Y-226505000D02*
X357355000Y-226505000D01*
X356515000Y-226505000D02*
X356515000Y-231305000D01*
X344795000Y-226505000D02*
X344795000Y-231305000D01*
X343955000Y-226505000D02*
X344795000Y-226505000D01*
X344795000Y-231305000D02*
X356515000Y-231305000D01*
%TD*%
M02*
