%TF.GenerationSoftware,KiCad,Pcbnew,8.0.0*%
%TF.CreationDate,2024-03-01T13:17:00-07:00*%
%TF.ProjectId,2023IdealDiode,32303233-4964-4656-916c-44696f64652e,rev?*%
%TF.SameCoordinates,Original*%
%TF.FileFunction,Drillmap*%
%TF.FilePolarity,Positive*%
%FSLAX45Y45*%
G04 Gerber Fmt 4.5, Leading zero omitted, Abs format (unit mm)*
G04 Created by KiCad (PCBNEW 8.0.0) date 2024-03-01 13:17:00*
%MOMM*%
%LPD*%
G01*
G04 APERTURE LIST*
%ADD10C,0.200000*%
%ADD11C,0.100000*%
%ADD12C,0.190000*%
%ADD13C,0.380000*%
G04 APERTURE END LIST*
D10*
X27876500Y-22161500D02*
X35941000Y-22161500D01*
X35941000Y-28257500D01*
X27876500Y-28257500D01*
X27876500Y-22161500D01*
D11*
X32809500Y-26840500D02*
X32849500Y-26880500D01*
X32849500Y-26840500D02*
X32809500Y-26880500D01*
X33063500Y-24681500D02*
X33103500Y-24721500D01*
X33103500Y-24681500D02*
X33063500Y-24721500D01*
X33063500Y-25189500D02*
X33103500Y-25229500D01*
X33103500Y-25189500D02*
X33063500Y-25229500D01*
X33381000Y-24110000D02*
X33421000Y-24150000D01*
X33421000Y-24110000D02*
X33381000Y-24150000D01*
X33381000Y-24554500D02*
X33421000Y-24594500D01*
X33421000Y-24554500D02*
X33381000Y-24594500D01*
X33635000Y-25380000D02*
X33675000Y-25420000D01*
X33675000Y-25380000D02*
X33635000Y-25420000D01*
X33889000Y-24554500D02*
X33929000Y-24594500D01*
X33929000Y-24554500D02*
X33889000Y-24594500D01*
X34143000Y-25380000D02*
X34183000Y-25420000D01*
X34183000Y-25380000D02*
X34143000Y-25420000D01*
X35032000Y-23792500D02*
X35072000Y-23832500D01*
X35072000Y-23792500D02*
X35032000Y-23832500D01*
X29415000Y-25690000D02*
G75*
G02*
X29355000Y-25690000I-30000J0D01*
G01*
X29355000Y-25690000D02*
G75*
G02*
X29415000Y-25690000I30000J0D01*
G01*
X29425000Y-25660000D02*
X29345000Y-25660000D01*
X29345000Y-25720000D02*
G75*
G02*
X29345000Y-25660000I0J30000D01*
G01*
X29345000Y-25720000D02*
X29425000Y-25720000D01*
X29425000Y-25720000D02*
G75*
G03*
X29425000Y-25660000I0J30000D01*
G01*
X29415000Y-27580000D02*
G75*
G02*
X29355000Y-27580000I-30000J0D01*
G01*
X29355000Y-27580000D02*
G75*
G02*
X29415000Y-27580000I30000J0D01*
G01*
X29425000Y-27550000D02*
X29345000Y-27550000D01*
X29345000Y-27610000D02*
G75*
G02*
X29345000Y-27550000I0J30000D01*
G01*
X29345000Y-27610000D02*
X29425000Y-27610000D01*
X29425000Y-27610000D02*
G75*
G03*
X29425000Y-27550000I0J30000D01*
G01*
X29417500Y-22328000D02*
G75*
G02*
X29357500Y-22328000I-30000J0D01*
G01*
X29357500Y-22328000D02*
G75*
G02*
X29417500Y-22328000I30000J0D01*
G01*
X29427500Y-22298000D02*
X29347500Y-22298000D01*
X29347500Y-22358000D02*
G75*
G02*
X29347500Y-22298000I0J30000D01*
G01*
X29347500Y-22358000D02*
X29427500Y-22358000D01*
X29427500Y-22358000D02*
G75*
G03*
X29427500Y-22298000I0J30000D01*
G01*
X29417500Y-24218000D02*
G75*
G02*
X29357500Y-24218000I-30000J0D01*
G01*
X29357500Y-24218000D02*
G75*
G02*
X29417500Y-24218000I30000J0D01*
G01*
X29427500Y-24188000D02*
X29347500Y-24188000D01*
X29347500Y-24248000D02*
G75*
G02*
X29347500Y-24188000I0J30000D01*
G01*
X29347500Y-24248000D02*
X29427500Y-24248000D01*
X29427500Y-24248000D02*
G75*
G03*
X29427500Y-24188000I0J30000D01*
G01*
X34383500Y-26066000D02*
G75*
G02*
X34323500Y-26066000I-30000J0D01*
G01*
X34323500Y-26066000D02*
G75*
G02*
X34383500Y-26066000I30000J0D01*
G01*
X34313500Y-26096000D02*
X34393500Y-26096000D01*
X34393500Y-26036000D02*
G75*
G02*
X34393500Y-26096000I0J-30000D01*
G01*
X34393500Y-26036000D02*
X34313500Y-26036000D01*
X34313500Y-26036000D02*
G75*
G03*
X34313500Y-26096000I0J-30000D01*
G01*
X34383500Y-27956000D02*
G75*
G02*
X34323500Y-27956000I-30000J0D01*
G01*
X34323500Y-27956000D02*
G75*
G02*
X34383500Y-27956000I30000J0D01*
G01*
X34313500Y-27986000D02*
X34393500Y-27986000D01*
X34393500Y-27926000D02*
G75*
G02*
X34393500Y-27986000I0J-30000D01*
G01*
X34393500Y-27926000D02*
X34313500Y-27926000D01*
X34313500Y-27926000D02*
G75*
G03*
X34313500Y-27986000I0J-30000D01*
G01*
X30948500Y-23094000D02*
X30948500Y-23184000D01*
X30903500Y-23139000D02*
X30993500Y-23139000D01*
X30903500Y-23094000D02*
X30903500Y-23184000D01*
X30993500Y-23184000D02*
G75*
G02*
X30903500Y-23184000I-45000J0D01*
G01*
X30993500Y-23184000D02*
X30993500Y-23094000D01*
X30993500Y-23094000D02*
G75*
G03*
X30903500Y-23094000I-45000J0D01*
G01*
X30948500Y-24441000D02*
X30948500Y-24531000D01*
X30903500Y-24486000D02*
X30993500Y-24486000D01*
X30903500Y-24441000D02*
X30903500Y-24531000D01*
X30993500Y-24531000D02*
G75*
G02*
X30903500Y-24531000I-45000J0D01*
G01*
X30993500Y-24531000D02*
X30993500Y-24441000D01*
X30993500Y-24441000D02*
G75*
G03*
X30903500Y-24441000I-45000J0D01*
G01*
X30948500Y-26434500D02*
X30948500Y-26524500D01*
X30903500Y-26479500D02*
X30993500Y-26479500D01*
X30903500Y-26434500D02*
X30903500Y-26524500D01*
X30993500Y-26524500D02*
G75*
G02*
X30903500Y-26524500I-45000J0D01*
G01*
X30993500Y-26524500D02*
X30993500Y-26434500D01*
X30993500Y-26434500D02*
G75*
G03*
X30903500Y-26434500I-45000J0D01*
G01*
X30948500Y-27781500D02*
X30948500Y-27871500D01*
X30903500Y-27826500D02*
X30993500Y-27826500D01*
X30903500Y-27781500D02*
X30903500Y-27871500D01*
X30993500Y-27871500D02*
G75*
G02*
X30903500Y-27871500I-45000J0D01*
G01*
X30993500Y-27871500D02*
X30993500Y-27781500D01*
X30993500Y-27781500D02*
G75*
G03*
X30903500Y-27781500I-45000J0D01*
G01*
X31281500Y-23094000D02*
X31281500Y-23184000D01*
X31236500Y-23139000D02*
X31326500Y-23139000D01*
X31236500Y-23094000D02*
X31236500Y-23184000D01*
X31326500Y-23184000D02*
G75*
G02*
X31236500Y-23184000I-45000J0D01*
G01*
X31326500Y-23184000D02*
X31326500Y-23094000D01*
X31326500Y-23094000D02*
G75*
G03*
X31236500Y-23094000I-45000J0D01*
G01*
X31281500Y-24441000D02*
X31281500Y-24531000D01*
X31236500Y-24486000D02*
X31326500Y-24486000D01*
X31236500Y-24441000D02*
X31236500Y-24531000D01*
X31326500Y-24531000D02*
G75*
G02*
X31236500Y-24531000I-45000J0D01*
G01*
X31326500Y-24531000D02*
X31326500Y-24441000D01*
X31326500Y-24441000D02*
G75*
G03*
X31236500Y-24441000I-45000J0D01*
G01*
X31281500Y-26434500D02*
X31281500Y-26524500D01*
X31236500Y-26479500D02*
X31326500Y-26479500D01*
X31236500Y-26434500D02*
X31236500Y-26524500D01*
X31326500Y-26524500D02*
G75*
G02*
X31236500Y-26524500I-45000J0D01*
G01*
X31326500Y-26524500D02*
X31326500Y-26434500D01*
X31326500Y-26434500D02*
G75*
G03*
X31236500Y-26434500I-45000J0D01*
G01*
X31281500Y-27781500D02*
X31281500Y-27871500D01*
X31236500Y-27826500D02*
X31326500Y-27826500D01*
X31236500Y-27781500D02*
X31236500Y-27871500D01*
X31326500Y-27871500D02*
G75*
G02*
X31236500Y-27871500I-45000J0D01*
G01*
X31326500Y-27871500D02*
X31326500Y-27781500D01*
X31326500Y-27781500D02*
G75*
G03*
X31236500Y-27781500I-45000J0D01*
G01*
X34450856Y-22574856D02*
X34450856Y-22504144D01*
X34380144Y-22504144D01*
X34380144Y-22574856D01*
X34450856Y-22574856D01*
X35750856Y-22574856D02*
X35750856Y-22504144D01*
X35680144Y-22504144D01*
X35680144Y-22574856D01*
X35750856Y-22574856D01*
D12*
X34715500Y-23634500D02*
X34810500Y-23539500D01*
X34715500Y-23444500D01*
X34620500Y-23539500D01*
X34715500Y-23634500D01*
X35065500Y-23634500D02*
X35160500Y-23539500D01*
X35065500Y-23444500D01*
X34970500Y-23539500D01*
X35065500Y-23634500D01*
X35415500Y-23634500D02*
X35510500Y-23539500D01*
X35415500Y-23444500D01*
X35320500Y-23539500D01*
X35415500Y-23634500D01*
D13*
X30115000Y-25905000D02*
X30495000Y-26285000D01*
X30495000Y-25905000D02*
X30115000Y-26285000D01*
X30495000Y-26095000D02*
G75*
G02*
X30115000Y-26095000I-190000J0D01*
G01*
X30115000Y-26095000D02*
G75*
G02*
X30495000Y-26095000I190000J0D01*
G01*
X30115000Y-26990000D02*
X30495000Y-27370000D01*
X30495000Y-26990000D02*
X30115000Y-27370000D01*
X30495000Y-27180000D02*
G75*
G02*
X30115000Y-27180000I-190000J0D01*
G01*
X30115000Y-27180000D02*
G75*
G02*
X30495000Y-27180000I190000J0D01*
G01*
X30117500Y-22543000D02*
X30497500Y-22923000D01*
X30497500Y-22543000D02*
X30117500Y-22923000D01*
X30497500Y-22733000D02*
G75*
G02*
X30117500Y-22733000I-190000J0D01*
G01*
X30117500Y-22733000D02*
G75*
G02*
X30497500Y-22733000I190000J0D01*
G01*
X30117500Y-23628000D02*
X30497500Y-24008000D01*
X30497500Y-23628000D02*
X30117500Y-24008000D01*
X30497500Y-23818000D02*
G75*
G02*
X30117500Y-23818000I-190000J0D01*
G01*
X30117500Y-23818000D02*
G75*
G02*
X30497500Y-23818000I190000J0D01*
G01*
X33243500Y-26276000D02*
X33623500Y-26656000D01*
X33623500Y-26276000D02*
X33243500Y-26656000D01*
X33623500Y-26466000D02*
G75*
G02*
X33243500Y-26466000I-190000J0D01*
G01*
X33243500Y-26466000D02*
G75*
G02*
X33623500Y-26466000I190000J0D01*
G01*
X33243500Y-27361000D02*
X33623500Y-27741000D01*
X33623500Y-27361000D02*
X33243500Y-27741000D01*
X33623500Y-27551000D02*
G75*
G02*
X33243500Y-27551000I-190000J0D01*
G01*
X33243500Y-27551000D02*
G75*
G02*
X33623500Y-27551000I190000J0D01*
G01*
D10*
X28127277Y-28578984D02*
X28127277Y-28378984D01*
X28127277Y-28378984D02*
X28174896Y-28378984D01*
X28174896Y-28378984D02*
X28203467Y-28388508D01*
X28203467Y-28388508D02*
X28222515Y-28407555D01*
X28222515Y-28407555D02*
X28232039Y-28426603D01*
X28232039Y-28426603D02*
X28241562Y-28464698D01*
X28241562Y-28464698D02*
X28241562Y-28493269D01*
X28241562Y-28493269D02*
X28232039Y-28531365D01*
X28232039Y-28531365D02*
X28222515Y-28550412D01*
X28222515Y-28550412D02*
X28203467Y-28569460D01*
X28203467Y-28569460D02*
X28174896Y-28578984D01*
X28174896Y-28578984D02*
X28127277Y-28578984D01*
X28327277Y-28578984D02*
X28327277Y-28445650D01*
X28327277Y-28483746D02*
X28336801Y-28464698D01*
X28336801Y-28464698D02*
X28346324Y-28455174D01*
X28346324Y-28455174D02*
X28365372Y-28445650D01*
X28365372Y-28445650D02*
X28384420Y-28445650D01*
X28451086Y-28578984D02*
X28451086Y-28445650D01*
X28451086Y-28378984D02*
X28441562Y-28388508D01*
X28441562Y-28388508D02*
X28451086Y-28398031D01*
X28451086Y-28398031D02*
X28460610Y-28388508D01*
X28460610Y-28388508D02*
X28451086Y-28378984D01*
X28451086Y-28378984D02*
X28451086Y-28398031D01*
X28574896Y-28578984D02*
X28555848Y-28569460D01*
X28555848Y-28569460D02*
X28546324Y-28550412D01*
X28546324Y-28550412D02*
X28546324Y-28378984D01*
X28679658Y-28578984D02*
X28660610Y-28569460D01*
X28660610Y-28569460D02*
X28651086Y-28550412D01*
X28651086Y-28550412D02*
X28651086Y-28378984D01*
X28908229Y-28578984D02*
X28908229Y-28378984D01*
X28908229Y-28378984D02*
X28974896Y-28521841D01*
X28974896Y-28521841D02*
X29041562Y-28378984D01*
X29041562Y-28378984D02*
X29041562Y-28578984D01*
X29222515Y-28578984D02*
X29222515Y-28474222D01*
X29222515Y-28474222D02*
X29212991Y-28455174D01*
X29212991Y-28455174D02*
X29193943Y-28445650D01*
X29193943Y-28445650D02*
X29155848Y-28445650D01*
X29155848Y-28445650D02*
X29136801Y-28455174D01*
X29222515Y-28569460D02*
X29203467Y-28578984D01*
X29203467Y-28578984D02*
X29155848Y-28578984D01*
X29155848Y-28578984D02*
X29136801Y-28569460D01*
X29136801Y-28569460D02*
X29127277Y-28550412D01*
X29127277Y-28550412D02*
X29127277Y-28531365D01*
X29127277Y-28531365D02*
X29136801Y-28512317D01*
X29136801Y-28512317D02*
X29155848Y-28502793D01*
X29155848Y-28502793D02*
X29203467Y-28502793D01*
X29203467Y-28502793D02*
X29222515Y-28493269D01*
X29317753Y-28445650D02*
X29317753Y-28645650D01*
X29317753Y-28455174D02*
X29336801Y-28445650D01*
X29336801Y-28445650D02*
X29374896Y-28445650D01*
X29374896Y-28445650D02*
X29393943Y-28455174D01*
X29393943Y-28455174D02*
X29403467Y-28464698D01*
X29403467Y-28464698D02*
X29412991Y-28483746D01*
X29412991Y-28483746D02*
X29412991Y-28540888D01*
X29412991Y-28540888D02*
X29403467Y-28559936D01*
X29403467Y-28559936D02*
X29393943Y-28569460D01*
X29393943Y-28569460D02*
X29374896Y-28578984D01*
X29374896Y-28578984D02*
X29336801Y-28578984D01*
X29336801Y-28578984D02*
X29317753Y-28569460D01*
X29498705Y-28559936D02*
X29508229Y-28569460D01*
X29508229Y-28569460D02*
X29498705Y-28578984D01*
X29498705Y-28578984D02*
X29489182Y-28569460D01*
X29489182Y-28569460D02*
X29498705Y-28559936D01*
X29498705Y-28559936D02*
X29498705Y-28578984D01*
X29498705Y-28455174D02*
X29508229Y-28464698D01*
X29508229Y-28464698D02*
X29498705Y-28474222D01*
X29498705Y-28474222D02*
X29489182Y-28464698D01*
X29489182Y-28464698D02*
X29498705Y-28455174D01*
X29498705Y-28455174D02*
X29498705Y-28474222D01*
D11*
X27826500Y-28887500D02*
X27866500Y-28927500D01*
X27866500Y-28887500D02*
X27826500Y-28927500D01*
D10*
X28165372Y-28798984D02*
X28184420Y-28798984D01*
X28184420Y-28798984D02*
X28203467Y-28808508D01*
X28203467Y-28808508D02*
X28212991Y-28818031D01*
X28212991Y-28818031D02*
X28222515Y-28837079D01*
X28222515Y-28837079D02*
X28232039Y-28875174D01*
X28232039Y-28875174D02*
X28232039Y-28922793D01*
X28232039Y-28922793D02*
X28222515Y-28960888D01*
X28222515Y-28960888D02*
X28212991Y-28979936D01*
X28212991Y-28979936D02*
X28203467Y-28989460D01*
X28203467Y-28989460D02*
X28184420Y-28998984D01*
X28184420Y-28998984D02*
X28165372Y-28998984D01*
X28165372Y-28998984D02*
X28146324Y-28989460D01*
X28146324Y-28989460D02*
X28136801Y-28979936D01*
X28136801Y-28979936D02*
X28127277Y-28960888D01*
X28127277Y-28960888D02*
X28117753Y-28922793D01*
X28117753Y-28922793D02*
X28117753Y-28875174D01*
X28117753Y-28875174D02*
X28127277Y-28837079D01*
X28127277Y-28837079D02*
X28136801Y-28818031D01*
X28136801Y-28818031D02*
X28146324Y-28808508D01*
X28146324Y-28808508D02*
X28165372Y-28798984D01*
X28317753Y-28979936D02*
X28327277Y-28989460D01*
X28327277Y-28989460D02*
X28317753Y-28998984D01*
X28317753Y-28998984D02*
X28308229Y-28989460D01*
X28308229Y-28989460D02*
X28317753Y-28979936D01*
X28317753Y-28979936D02*
X28317753Y-28998984D01*
X28498705Y-28865650D02*
X28498705Y-28998984D01*
X28451086Y-28789460D02*
X28403467Y-28932317D01*
X28403467Y-28932317D02*
X28527277Y-28932317D01*
X28641562Y-28798984D02*
X28660610Y-28798984D01*
X28660610Y-28798984D02*
X28679658Y-28808508D01*
X28679658Y-28808508D02*
X28689182Y-28818031D01*
X28689182Y-28818031D02*
X28698705Y-28837079D01*
X28698705Y-28837079D02*
X28708229Y-28875174D01*
X28708229Y-28875174D02*
X28708229Y-28922793D01*
X28708229Y-28922793D02*
X28698705Y-28960888D01*
X28698705Y-28960888D02*
X28689182Y-28979936D01*
X28689182Y-28979936D02*
X28679658Y-28989460D01*
X28679658Y-28989460D02*
X28660610Y-28998984D01*
X28660610Y-28998984D02*
X28641562Y-28998984D01*
X28641562Y-28998984D02*
X28622515Y-28989460D01*
X28622515Y-28989460D02*
X28612991Y-28979936D01*
X28612991Y-28979936D02*
X28603467Y-28960888D01*
X28603467Y-28960888D02*
X28593943Y-28922793D01*
X28593943Y-28922793D02*
X28593943Y-28875174D01*
X28593943Y-28875174D02*
X28603467Y-28837079D01*
X28603467Y-28837079D02*
X28612991Y-28818031D01*
X28612991Y-28818031D02*
X28622515Y-28808508D01*
X28622515Y-28808508D02*
X28641562Y-28798984D01*
X28832039Y-28798984D02*
X28851086Y-28798984D01*
X28851086Y-28798984D02*
X28870134Y-28808508D01*
X28870134Y-28808508D02*
X28879658Y-28818031D01*
X28879658Y-28818031D02*
X28889182Y-28837079D01*
X28889182Y-28837079D02*
X28898705Y-28875174D01*
X28898705Y-28875174D02*
X28898705Y-28922793D01*
X28898705Y-28922793D02*
X28889182Y-28960888D01*
X28889182Y-28960888D02*
X28879658Y-28979936D01*
X28879658Y-28979936D02*
X28870134Y-28989460D01*
X28870134Y-28989460D02*
X28851086Y-28998984D01*
X28851086Y-28998984D02*
X28832039Y-28998984D01*
X28832039Y-28998984D02*
X28812991Y-28989460D01*
X28812991Y-28989460D02*
X28803467Y-28979936D01*
X28803467Y-28979936D02*
X28793943Y-28960888D01*
X28793943Y-28960888D02*
X28784420Y-28922793D01*
X28784420Y-28922793D02*
X28784420Y-28875174D01*
X28784420Y-28875174D02*
X28793943Y-28837079D01*
X28793943Y-28837079D02*
X28803467Y-28818031D01*
X28803467Y-28818031D02*
X28812991Y-28808508D01*
X28812991Y-28808508D02*
X28832039Y-28798984D01*
X28984420Y-28998984D02*
X28984420Y-28865650D01*
X28984420Y-28884698D02*
X28993943Y-28875174D01*
X28993943Y-28875174D02*
X29012991Y-28865650D01*
X29012991Y-28865650D02*
X29041563Y-28865650D01*
X29041563Y-28865650D02*
X29060610Y-28875174D01*
X29060610Y-28875174D02*
X29070134Y-28894222D01*
X29070134Y-28894222D02*
X29070134Y-28998984D01*
X29070134Y-28894222D02*
X29079658Y-28875174D01*
X29079658Y-28875174D02*
X29098705Y-28865650D01*
X29098705Y-28865650D02*
X29127277Y-28865650D01*
X29127277Y-28865650D02*
X29146324Y-28875174D01*
X29146324Y-28875174D02*
X29155848Y-28894222D01*
X29155848Y-28894222D02*
X29155848Y-28998984D01*
X29251086Y-28998984D02*
X29251086Y-28865650D01*
X29251086Y-28884698D02*
X29260610Y-28875174D01*
X29260610Y-28875174D02*
X29279658Y-28865650D01*
X29279658Y-28865650D02*
X29308229Y-28865650D01*
X29308229Y-28865650D02*
X29327277Y-28875174D01*
X29327277Y-28875174D02*
X29336801Y-28894222D01*
X29336801Y-28894222D02*
X29336801Y-28998984D01*
X29336801Y-28894222D02*
X29346324Y-28875174D01*
X29346324Y-28875174D02*
X29365372Y-28865650D01*
X29365372Y-28865650D02*
X29393943Y-28865650D01*
X29393943Y-28865650D02*
X29412991Y-28875174D01*
X29412991Y-28875174D02*
X29422515Y-28894222D01*
X29422515Y-28894222D02*
X29422515Y-28998984D01*
X29812991Y-28789460D02*
X29641563Y-29046603D01*
X30070134Y-28798984D02*
X30089182Y-28798984D01*
X30089182Y-28798984D02*
X30108229Y-28808508D01*
X30108229Y-28808508D02*
X30117753Y-28818031D01*
X30117753Y-28818031D02*
X30127277Y-28837079D01*
X30127277Y-28837079D02*
X30136801Y-28875174D01*
X30136801Y-28875174D02*
X30136801Y-28922793D01*
X30136801Y-28922793D02*
X30127277Y-28960888D01*
X30127277Y-28960888D02*
X30117753Y-28979936D01*
X30117753Y-28979936D02*
X30108229Y-28989460D01*
X30108229Y-28989460D02*
X30089182Y-28998984D01*
X30089182Y-28998984D02*
X30070134Y-28998984D01*
X30070134Y-28998984D02*
X30051086Y-28989460D01*
X30051086Y-28989460D02*
X30041563Y-28979936D01*
X30041563Y-28979936D02*
X30032039Y-28960888D01*
X30032039Y-28960888D02*
X30022515Y-28922793D01*
X30022515Y-28922793D02*
X30022515Y-28875174D01*
X30022515Y-28875174D02*
X30032039Y-28837079D01*
X30032039Y-28837079D02*
X30041563Y-28818031D01*
X30041563Y-28818031D02*
X30051086Y-28808508D01*
X30051086Y-28808508D02*
X30070134Y-28798984D01*
X30222515Y-28979936D02*
X30232039Y-28989460D01*
X30232039Y-28989460D02*
X30222515Y-28998984D01*
X30222515Y-28998984D02*
X30212991Y-28989460D01*
X30212991Y-28989460D02*
X30222515Y-28979936D01*
X30222515Y-28979936D02*
X30222515Y-28998984D01*
X30355848Y-28798984D02*
X30374896Y-28798984D01*
X30374896Y-28798984D02*
X30393944Y-28808508D01*
X30393944Y-28808508D02*
X30403467Y-28818031D01*
X30403467Y-28818031D02*
X30412991Y-28837079D01*
X30412991Y-28837079D02*
X30422515Y-28875174D01*
X30422515Y-28875174D02*
X30422515Y-28922793D01*
X30422515Y-28922793D02*
X30412991Y-28960888D01*
X30412991Y-28960888D02*
X30403467Y-28979936D01*
X30403467Y-28979936D02*
X30393944Y-28989460D01*
X30393944Y-28989460D02*
X30374896Y-28998984D01*
X30374896Y-28998984D02*
X30355848Y-28998984D01*
X30355848Y-28998984D02*
X30336801Y-28989460D01*
X30336801Y-28989460D02*
X30327277Y-28979936D01*
X30327277Y-28979936D02*
X30317753Y-28960888D01*
X30317753Y-28960888D02*
X30308229Y-28922793D01*
X30308229Y-28922793D02*
X30308229Y-28875174D01*
X30308229Y-28875174D02*
X30317753Y-28837079D01*
X30317753Y-28837079D02*
X30327277Y-28818031D01*
X30327277Y-28818031D02*
X30336801Y-28808508D01*
X30336801Y-28808508D02*
X30355848Y-28798984D01*
X30612991Y-28998984D02*
X30498706Y-28998984D01*
X30555848Y-28998984D02*
X30555848Y-28798984D01*
X30555848Y-28798984D02*
X30536801Y-28827555D01*
X30536801Y-28827555D02*
X30517753Y-28846603D01*
X30517753Y-28846603D02*
X30498706Y-28856127D01*
X30793944Y-28798984D02*
X30698706Y-28798984D01*
X30698706Y-28798984D02*
X30689182Y-28894222D01*
X30689182Y-28894222D02*
X30698706Y-28884698D01*
X30698706Y-28884698D02*
X30717753Y-28875174D01*
X30717753Y-28875174D02*
X30765372Y-28875174D01*
X30765372Y-28875174D02*
X30784420Y-28884698D01*
X30784420Y-28884698D02*
X30793944Y-28894222D01*
X30793944Y-28894222D02*
X30803467Y-28913269D01*
X30803467Y-28913269D02*
X30803467Y-28960888D01*
X30803467Y-28960888D02*
X30793944Y-28979936D01*
X30793944Y-28979936D02*
X30784420Y-28989460D01*
X30784420Y-28989460D02*
X30765372Y-28998984D01*
X30765372Y-28998984D02*
X30717753Y-28998984D01*
X30717753Y-28998984D02*
X30698706Y-28989460D01*
X30698706Y-28989460D02*
X30689182Y-28979936D01*
X30870134Y-28798984D02*
X31003467Y-28798984D01*
X31003467Y-28798984D02*
X30917753Y-28998984D01*
X31070134Y-28798984D02*
X31070134Y-28837079D01*
X31146325Y-28798984D02*
X31146325Y-28837079D01*
X31441563Y-29075174D02*
X31432039Y-29065650D01*
X31432039Y-29065650D02*
X31412991Y-29037079D01*
X31412991Y-29037079D02*
X31403468Y-29018031D01*
X31403468Y-29018031D02*
X31393944Y-28989460D01*
X31393944Y-28989460D02*
X31384420Y-28941841D01*
X31384420Y-28941841D02*
X31384420Y-28903746D01*
X31384420Y-28903746D02*
X31393944Y-28856127D01*
X31393944Y-28856127D02*
X31403468Y-28827555D01*
X31403468Y-28827555D02*
X31412991Y-28808508D01*
X31412991Y-28808508D02*
X31432039Y-28779936D01*
X31432039Y-28779936D02*
X31441563Y-28770412D01*
X31527277Y-28998984D02*
X31565372Y-28998984D01*
X31565372Y-28998984D02*
X31584420Y-28989460D01*
X31584420Y-28989460D02*
X31593944Y-28979936D01*
X31593944Y-28979936D02*
X31612991Y-28951365D01*
X31612991Y-28951365D02*
X31622515Y-28913269D01*
X31622515Y-28913269D02*
X31622515Y-28837079D01*
X31622515Y-28837079D02*
X31612991Y-28818031D01*
X31612991Y-28818031D02*
X31603468Y-28808508D01*
X31603468Y-28808508D02*
X31584420Y-28798984D01*
X31584420Y-28798984D02*
X31546325Y-28798984D01*
X31546325Y-28798984D02*
X31527277Y-28808508D01*
X31527277Y-28808508D02*
X31517753Y-28818031D01*
X31517753Y-28818031D02*
X31508229Y-28837079D01*
X31508229Y-28837079D02*
X31508229Y-28884698D01*
X31508229Y-28884698D02*
X31517753Y-28903746D01*
X31517753Y-28903746D02*
X31527277Y-28913269D01*
X31527277Y-28913269D02*
X31546325Y-28922793D01*
X31546325Y-28922793D02*
X31584420Y-28922793D01*
X31584420Y-28922793D02*
X31603468Y-28913269D01*
X31603468Y-28913269D02*
X31612991Y-28903746D01*
X31612991Y-28903746D02*
X31622515Y-28884698D01*
X31860610Y-28998984D02*
X31860610Y-28798984D01*
X31946325Y-28998984D02*
X31946325Y-28894222D01*
X31946325Y-28894222D02*
X31936801Y-28875174D01*
X31936801Y-28875174D02*
X31917753Y-28865650D01*
X31917753Y-28865650D02*
X31889182Y-28865650D01*
X31889182Y-28865650D02*
X31870134Y-28875174D01*
X31870134Y-28875174D02*
X31860610Y-28884698D01*
X32070134Y-28998984D02*
X32051087Y-28989460D01*
X32051087Y-28989460D02*
X32041563Y-28979936D01*
X32041563Y-28979936D02*
X32032039Y-28960888D01*
X32032039Y-28960888D02*
X32032039Y-28903746D01*
X32032039Y-28903746D02*
X32041563Y-28884698D01*
X32041563Y-28884698D02*
X32051087Y-28875174D01*
X32051087Y-28875174D02*
X32070134Y-28865650D01*
X32070134Y-28865650D02*
X32098706Y-28865650D01*
X32098706Y-28865650D02*
X32117753Y-28875174D01*
X32117753Y-28875174D02*
X32127277Y-28884698D01*
X32127277Y-28884698D02*
X32136801Y-28903746D01*
X32136801Y-28903746D02*
X32136801Y-28960888D01*
X32136801Y-28960888D02*
X32127277Y-28979936D01*
X32127277Y-28979936D02*
X32117753Y-28989460D01*
X32117753Y-28989460D02*
X32098706Y-28998984D01*
X32098706Y-28998984D02*
X32070134Y-28998984D01*
X32251087Y-28998984D02*
X32232039Y-28989460D01*
X32232039Y-28989460D02*
X32222515Y-28970412D01*
X32222515Y-28970412D02*
X32222515Y-28798984D01*
X32403468Y-28989460D02*
X32384420Y-28998984D01*
X32384420Y-28998984D02*
X32346325Y-28998984D01*
X32346325Y-28998984D02*
X32327277Y-28989460D01*
X32327277Y-28989460D02*
X32317753Y-28970412D01*
X32317753Y-28970412D02*
X32317753Y-28894222D01*
X32317753Y-28894222D02*
X32327277Y-28875174D01*
X32327277Y-28875174D02*
X32346325Y-28865650D01*
X32346325Y-28865650D02*
X32384420Y-28865650D01*
X32384420Y-28865650D02*
X32403468Y-28875174D01*
X32403468Y-28875174D02*
X32412991Y-28894222D01*
X32412991Y-28894222D02*
X32412991Y-28913269D01*
X32412991Y-28913269D02*
X32317753Y-28932317D01*
X32489182Y-28989460D02*
X32508230Y-28998984D01*
X32508230Y-28998984D02*
X32546325Y-28998984D01*
X32546325Y-28998984D02*
X32565372Y-28989460D01*
X32565372Y-28989460D02*
X32574896Y-28970412D01*
X32574896Y-28970412D02*
X32574896Y-28960888D01*
X32574896Y-28960888D02*
X32565372Y-28941841D01*
X32565372Y-28941841D02*
X32546325Y-28932317D01*
X32546325Y-28932317D02*
X32517753Y-28932317D01*
X32517753Y-28932317D02*
X32498706Y-28922793D01*
X32498706Y-28922793D02*
X32489182Y-28903746D01*
X32489182Y-28903746D02*
X32489182Y-28894222D01*
X32489182Y-28894222D02*
X32498706Y-28875174D01*
X32498706Y-28875174D02*
X32517753Y-28865650D01*
X32517753Y-28865650D02*
X32546325Y-28865650D01*
X32546325Y-28865650D02*
X32565372Y-28875174D01*
X32641563Y-29075174D02*
X32651087Y-29065650D01*
X32651087Y-29065650D02*
X32670134Y-29037079D01*
X32670134Y-29037079D02*
X32679658Y-29018031D01*
X32679658Y-29018031D02*
X32689182Y-28989460D01*
X32689182Y-28989460D02*
X32698706Y-28941841D01*
X32698706Y-28941841D02*
X32698706Y-28903746D01*
X32698706Y-28903746D02*
X32689182Y-28856127D01*
X32689182Y-28856127D02*
X32679658Y-28827555D01*
X32679658Y-28827555D02*
X32670134Y-28808508D01*
X32670134Y-28808508D02*
X32651087Y-28779936D01*
X32651087Y-28779936D02*
X32641563Y-28770412D01*
D11*
X27866500Y-29171500D02*
G75*
G02*
X27806500Y-29171500I-30000J0D01*
G01*
X27806500Y-29171500D02*
G75*
G02*
X27866500Y-29171500I30000J0D01*
G01*
D10*
X28165372Y-29062984D02*
X28184420Y-29062984D01*
X28184420Y-29062984D02*
X28203467Y-29072508D01*
X28203467Y-29072508D02*
X28212991Y-29082031D01*
X28212991Y-29082031D02*
X28222515Y-29101079D01*
X28222515Y-29101079D02*
X28232039Y-29139174D01*
X28232039Y-29139174D02*
X28232039Y-29186793D01*
X28232039Y-29186793D02*
X28222515Y-29224888D01*
X28222515Y-29224888D02*
X28212991Y-29243936D01*
X28212991Y-29243936D02*
X28203467Y-29253460D01*
X28203467Y-29253460D02*
X28184420Y-29262984D01*
X28184420Y-29262984D02*
X28165372Y-29262984D01*
X28165372Y-29262984D02*
X28146324Y-29253460D01*
X28146324Y-29253460D02*
X28136801Y-29243936D01*
X28136801Y-29243936D02*
X28127277Y-29224888D01*
X28127277Y-29224888D02*
X28117753Y-29186793D01*
X28117753Y-29186793D02*
X28117753Y-29139174D01*
X28117753Y-29139174D02*
X28127277Y-29101079D01*
X28127277Y-29101079D02*
X28136801Y-29082031D01*
X28136801Y-29082031D02*
X28146324Y-29072508D01*
X28146324Y-29072508D02*
X28165372Y-29062984D01*
X28317753Y-29243936D02*
X28327277Y-29253460D01*
X28327277Y-29253460D02*
X28317753Y-29262984D01*
X28317753Y-29262984D02*
X28308229Y-29253460D01*
X28308229Y-29253460D02*
X28317753Y-29243936D01*
X28317753Y-29243936D02*
X28317753Y-29262984D01*
X28498705Y-29062984D02*
X28460610Y-29062984D01*
X28460610Y-29062984D02*
X28441562Y-29072508D01*
X28441562Y-29072508D02*
X28432039Y-29082031D01*
X28432039Y-29082031D02*
X28412991Y-29110603D01*
X28412991Y-29110603D02*
X28403467Y-29148698D01*
X28403467Y-29148698D02*
X28403467Y-29224888D01*
X28403467Y-29224888D02*
X28412991Y-29243936D01*
X28412991Y-29243936D02*
X28422515Y-29253460D01*
X28422515Y-29253460D02*
X28441562Y-29262984D01*
X28441562Y-29262984D02*
X28479658Y-29262984D01*
X28479658Y-29262984D02*
X28498705Y-29253460D01*
X28498705Y-29253460D02*
X28508229Y-29243936D01*
X28508229Y-29243936D02*
X28517753Y-29224888D01*
X28517753Y-29224888D02*
X28517753Y-29177269D01*
X28517753Y-29177269D02*
X28508229Y-29158222D01*
X28508229Y-29158222D02*
X28498705Y-29148698D01*
X28498705Y-29148698D02*
X28479658Y-29139174D01*
X28479658Y-29139174D02*
X28441562Y-29139174D01*
X28441562Y-29139174D02*
X28422515Y-29148698D01*
X28422515Y-29148698D02*
X28412991Y-29158222D01*
X28412991Y-29158222D02*
X28403467Y-29177269D01*
X28641562Y-29062984D02*
X28660610Y-29062984D01*
X28660610Y-29062984D02*
X28679658Y-29072508D01*
X28679658Y-29072508D02*
X28689182Y-29082031D01*
X28689182Y-29082031D02*
X28698705Y-29101079D01*
X28698705Y-29101079D02*
X28708229Y-29139174D01*
X28708229Y-29139174D02*
X28708229Y-29186793D01*
X28708229Y-29186793D02*
X28698705Y-29224888D01*
X28698705Y-29224888D02*
X28689182Y-29243936D01*
X28689182Y-29243936D02*
X28679658Y-29253460D01*
X28679658Y-29253460D02*
X28660610Y-29262984D01*
X28660610Y-29262984D02*
X28641562Y-29262984D01*
X28641562Y-29262984D02*
X28622515Y-29253460D01*
X28622515Y-29253460D02*
X28612991Y-29243936D01*
X28612991Y-29243936D02*
X28603467Y-29224888D01*
X28603467Y-29224888D02*
X28593943Y-29186793D01*
X28593943Y-29186793D02*
X28593943Y-29139174D01*
X28593943Y-29139174D02*
X28603467Y-29101079D01*
X28603467Y-29101079D02*
X28612991Y-29082031D01*
X28612991Y-29082031D02*
X28622515Y-29072508D01*
X28622515Y-29072508D02*
X28641562Y-29062984D01*
X28832039Y-29062984D02*
X28851086Y-29062984D01*
X28851086Y-29062984D02*
X28870134Y-29072508D01*
X28870134Y-29072508D02*
X28879658Y-29082031D01*
X28879658Y-29082031D02*
X28889182Y-29101079D01*
X28889182Y-29101079D02*
X28898705Y-29139174D01*
X28898705Y-29139174D02*
X28898705Y-29186793D01*
X28898705Y-29186793D02*
X28889182Y-29224888D01*
X28889182Y-29224888D02*
X28879658Y-29243936D01*
X28879658Y-29243936D02*
X28870134Y-29253460D01*
X28870134Y-29253460D02*
X28851086Y-29262984D01*
X28851086Y-29262984D02*
X28832039Y-29262984D01*
X28832039Y-29262984D02*
X28812991Y-29253460D01*
X28812991Y-29253460D02*
X28803467Y-29243936D01*
X28803467Y-29243936D02*
X28793943Y-29224888D01*
X28793943Y-29224888D02*
X28784420Y-29186793D01*
X28784420Y-29186793D02*
X28784420Y-29139174D01*
X28784420Y-29139174D02*
X28793943Y-29101079D01*
X28793943Y-29101079D02*
X28803467Y-29082031D01*
X28803467Y-29082031D02*
X28812991Y-29072508D01*
X28812991Y-29072508D02*
X28832039Y-29062984D01*
X28984420Y-29262984D02*
X28984420Y-29129650D01*
X28984420Y-29148698D02*
X28993943Y-29139174D01*
X28993943Y-29139174D02*
X29012991Y-29129650D01*
X29012991Y-29129650D02*
X29041563Y-29129650D01*
X29041563Y-29129650D02*
X29060610Y-29139174D01*
X29060610Y-29139174D02*
X29070134Y-29158222D01*
X29070134Y-29158222D02*
X29070134Y-29262984D01*
X29070134Y-29158222D02*
X29079658Y-29139174D01*
X29079658Y-29139174D02*
X29098705Y-29129650D01*
X29098705Y-29129650D02*
X29127277Y-29129650D01*
X29127277Y-29129650D02*
X29146324Y-29139174D01*
X29146324Y-29139174D02*
X29155848Y-29158222D01*
X29155848Y-29158222D02*
X29155848Y-29262984D01*
X29251086Y-29262984D02*
X29251086Y-29129650D01*
X29251086Y-29148698D02*
X29260610Y-29139174D01*
X29260610Y-29139174D02*
X29279658Y-29129650D01*
X29279658Y-29129650D02*
X29308229Y-29129650D01*
X29308229Y-29129650D02*
X29327277Y-29139174D01*
X29327277Y-29139174D02*
X29336801Y-29158222D01*
X29336801Y-29158222D02*
X29336801Y-29262984D01*
X29336801Y-29158222D02*
X29346324Y-29139174D01*
X29346324Y-29139174D02*
X29365372Y-29129650D01*
X29365372Y-29129650D02*
X29393943Y-29129650D01*
X29393943Y-29129650D02*
X29412991Y-29139174D01*
X29412991Y-29139174D02*
X29422515Y-29158222D01*
X29422515Y-29158222D02*
X29422515Y-29262984D01*
X29812991Y-29053460D02*
X29641563Y-29310603D01*
X30070134Y-29062984D02*
X30089182Y-29062984D01*
X30089182Y-29062984D02*
X30108229Y-29072508D01*
X30108229Y-29072508D02*
X30117753Y-29082031D01*
X30117753Y-29082031D02*
X30127277Y-29101079D01*
X30127277Y-29101079D02*
X30136801Y-29139174D01*
X30136801Y-29139174D02*
X30136801Y-29186793D01*
X30136801Y-29186793D02*
X30127277Y-29224888D01*
X30127277Y-29224888D02*
X30117753Y-29243936D01*
X30117753Y-29243936D02*
X30108229Y-29253460D01*
X30108229Y-29253460D02*
X30089182Y-29262984D01*
X30089182Y-29262984D02*
X30070134Y-29262984D01*
X30070134Y-29262984D02*
X30051086Y-29253460D01*
X30051086Y-29253460D02*
X30041563Y-29243936D01*
X30041563Y-29243936D02*
X30032039Y-29224888D01*
X30032039Y-29224888D02*
X30022515Y-29186793D01*
X30022515Y-29186793D02*
X30022515Y-29139174D01*
X30022515Y-29139174D02*
X30032039Y-29101079D01*
X30032039Y-29101079D02*
X30041563Y-29082031D01*
X30041563Y-29082031D02*
X30051086Y-29072508D01*
X30051086Y-29072508D02*
X30070134Y-29062984D01*
X30222515Y-29243936D02*
X30232039Y-29253460D01*
X30232039Y-29253460D02*
X30222515Y-29262984D01*
X30222515Y-29262984D02*
X30212991Y-29253460D01*
X30212991Y-29253460D02*
X30222515Y-29243936D01*
X30222515Y-29243936D02*
X30222515Y-29262984D01*
X30355848Y-29062984D02*
X30374896Y-29062984D01*
X30374896Y-29062984D02*
X30393944Y-29072508D01*
X30393944Y-29072508D02*
X30403467Y-29082031D01*
X30403467Y-29082031D02*
X30412991Y-29101079D01*
X30412991Y-29101079D02*
X30422515Y-29139174D01*
X30422515Y-29139174D02*
X30422515Y-29186793D01*
X30422515Y-29186793D02*
X30412991Y-29224888D01*
X30412991Y-29224888D02*
X30403467Y-29243936D01*
X30403467Y-29243936D02*
X30393944Y-29253460D01*
X30393944Y-29253460D02*
X30374896Y-29262984D01*
X30374896Y-29262984D02*
X30355848Y-29262984D01*
X30355848Y-29262984D02*
X30336801Y-29253460D01*
X30336801Y-29253460D02*
X30327277Y-29243936D01*
X30327277Y-29243936D02*
X30317753Y-29224888D01*
X30317753Y-29224888D02*
X30308229Y-29186793D01*
X30308229Y-29186793D02*
X30308229Y-29139174D01*
X30308229Y-29139174D02*
X30317753Y-29101079D01*
X30317753Y-29101079D02*
X30327277Y-29082031D01*
X30327277Y-29082031D02*
X30336801Y-29072508D01*
X30336801Y-29072508D02*
X30355848Y-29062984D01*
X30498706Y-29082031D02*
X30508229Y-29072508D01*
X30508229Y-29072508D02*
X30527277Y-29062984D01*
X30527277Y-29062984D02*
X30574896Y-29062984D01*
X30574896Y-29062984D02*
X30593944Y-29072508D01*
X30593944Y-29072508D02*
X30603467Y-29082031D01*
X30603467Y-29082031D02*
X30612991Y-29101079D01*
X30612991Y-29101079D02*
X30612991Y-29120127D01*
X30612991Y-29120127D02*
X30603467Y-29148698D01*
X30603467Y-29148698D02*
X30489182Y-29262984D01*
X30489182Y-29262984D02*
X30612991Y-29262984D01*
X30679658Y-29062984D02*
X30803467Y-29062984D01*
X30803467Y-29062984D02*
X30736801Y-29139174D01*
X30736801Y-29139174D02*
X30765372Y-29139174D01*
X30765372Y-29139174D02*
X30784420Y-29148698D01*
X30784420Y-29148698D02*
X30793944Y-29158222D01*
X30793944Y-29158222D02*
X30803467Y-29177269D01*
X30803467Y-29177269D02*
X30803467Y-29224888D01*
X30803467Y-29224888D02*
X30793944Y-29243936D01*
X30793944Y-29243936D02*
X30784420Y-29253460D01*
X30784420Y-29253460D02*
X30765372Y-29262984D01*
X30765372Y-29262984D02*
X30708229Y-29262984D01*
X30708229Y-29262984D02*
X30689182Y-29253460D01*
X30689182Y-29253460D02*
X30679658Y-29243936D01*
X30974896Y-29062984D02*
X30936801Y-29062984D01*
X30936801Y-29062984D02*
X30917753Y-29072508D01*
X30917753Y-29072508D02*
X30908229Y-29082031D01*
X30908229Y-29082031D02*
X30889182Y-29110603D01*
X30889182Y-29110603D02*
X30879658Y-29148698D01*
X30879658Y-29148698D02*
X30879658Y-29224888D01*
X30879658Y-29224888D02*
X30889182Y-29243936D01*
X30889182Y-29243936D02*
X30898706Y-29253460D01*
X30898706Y-29253460D02*
X30917753Y-29262984D01*
X30917753Y-29262984D02*
X30955848Y-29262984D01*
X30955848Y-29262984D02*
X30974896Y-29253460D01*
X30974896Y-29253460D02*
X30984420Y-29243936D01*
X30984420Y-29243936D02*
X30993944Y-29224888D01*
X30993944Y-29224888D02*
X30993944Y-29177269D01*
X30993944Y-29177269D02*
X30984420Y-29158222D01*
X30984420Y-29158222D02*
X30974896Y-29148698D01*
X30974896Y-29148698D02*
X30955848Y-29139174D01*
X30955848Y-29139174D02*
X30917753Y-29139174D01*
X30917753Y-29139174D02*
X30898706Y-29148698D01*
X30898706Y-29148698D02*
X30889182Y-29158222D01*
X30889182Y-29158222D02*
X30879658Y-29177269D01*
X31070134Y-29062984D02*
X31070134Y-29101079D01*
X31146325Y-29062984D02*
X31146325Y-29101079D01*
X31441563Y-29339174D02*
X31432039Y-29329650D01*
X31432039Y-29329650D02*
X31412991Y-29301079D01*
X31412991Y-29301079D02*
X31403468Y-29282031D01*
X31403468Y-29282031D02*
X31393944Y-29253460D01*
X31393944Y-29253460D02*
X31384420Y-29205841D01*
X31384420Y-29205841D02*
X31384420Y-29167746D01*
X31384420Y-29167746D02*
X31393944Y-29120127D01*
X31393944Y-29120127D02*
X31403468Y-29091555D01*
X31403468Y-29091555D02*
X31412991Y-29072508D01*
X31412991Y-29072508D02*
X31432039Y-29043936D01*
X31432039Y-29043936D02*
X31441563Y-29034412D01*
X31555848Y-29062984D02*
X31574896Y-29062984D01*
X31574896Y-29062984D02*
X31593944Y-29072508D01*
X31593944Y-29072508D02*
X31603468Y-29082031D01*
X31603468Y-29082031D02*
X31612991Y-29101079D01*
X31612991Y-29101079D02*
X31622515Y-29139174D01*
X31622515Y-29139174D02*
X31622515Y-29186793D01*
X31622515Y-29186793D02*
X31612991Y-29224888D01*
X31612991Y-29224888D02*
X31603468Y-29243936D01*
X31603468Y-29243936D02*
X31593944Y-29253460D01*
X31593944Y-29253460D02*
X31574896Y-29262984D01*
X31574896Y-29262984D02*
X31555848Y-29262984D01*
X31555848Y-29262984D02*
X31536801Y-29253460D01*
X31536801Y-29253460D02*
X31527277Y-29243936D01*
X31527277Y-29243936D02*
X31517753Y-29224888D01*
X31517753Y-29224888D02*
X31508229Y-29186793D01*
X31508229Y-29186793D02*
X31508229Y-29139174D01*
X31508229Y-29139174D02*
X31517753Y-29101079D01*
X31517753Y-29101079D02*
X31527277Y-29082031D01*
X31527277Y-29082031D02*
X31536801Y-29072508D01*
X31536801Y-29072508D02*
X31555848Y-29062984D01*
X31860610Y-29262984D02*
X31860610Y-29062984D01*
X31946325Y-29262984D02*
X31946325Y-29158222D01*
X31946325Y-29158222D02*
X31936801Y-29139174D01*
X31936801Y-29139174D02*
X31917753Y-29129650D01*
X31917753Y-29129650D02*
X31889182Y-29129650D01*
X31889182Y-29129650D02*
X31870134Y-29139174D01*
X31870134Y-29139174D02*
X31860610Y-29148698D01*
X32070134Y-29262984D02*
X32051087Y-29253460D01*
X32051087Y-29253460D02*
X32041563Y-29243936D01*
X32041563Y-29243936D02*
X32032039Y-29224888D01*
X32032039Y-29224888D02*
X32032039Y-29167746D01*
X32032039Y-29167746D02*
X32041563Y-29148698D01*
X32041563Y-29148698D02*
X32051087Y-29139174D01*
X32051087Y-29139174D02*
X32070134Y-29129650D01*
X32070134Y-29129650D02*
X32098706Y-29129650D01*
X32098706Y-29129650D02*
X32117753Y-29139174D01*
X32117753Y-29139174D02*
X32127277Y-29148698D01*
X32127277Y-29148698D02*
X32136801Y-29167746D01*
X32136801Y-29167746D02*
X32136801Y-29224888D01*
X32136801Y-29224888D02*
X32127277Y-29243936D01*
X32127277Y-29243936D02*
X32117753Y-29253460D01*
X32117753Y-29253460D02*
X32098706Y-29262984D01*
X32098706Y-29262984D02*
X32070134Y-29262984D01*
X32251087Y-29262984D02*
X32232039Y-29253460D01*
X32232039Y-29253460D02*
X32222515Y-29234412D01*
X32222515Y-29234412D02*
X32222515Y-29062984D01*
X32403468Y-29253460D02*
X32384420Y-29262984D01*
X32384420Y-29262984D02*
X32346325Y-29262984D01*
X32346325Y-29262984D02*
X32327277Y-29253460D01*
X32327277Y-29253460D02*
X32317753Y-29234412D01*
X32317753Y-29234412D02*
X32317753Y-29158222D01*
X32317753Y-29158222D02*
X32327277Y-29139174D01*
X32327277Y-29139174D02*
X32346325Y-29129650D01*
X32346325Y-29129650D02*
X32384420Y-29129650D01*
X32384420Y-29129650D02*
X32403468Y-29139174D01*
X32403468Y-29139174D02*
X32412991Y-29158222D01*
X32412991Y-29158222D02*
X32412991Y-29177269D01*
X32412991Y-29177269D02*
X32317753Y-29196317D01*
X32489182Y-29253460D02*
X32508230Y-29262984D01*
X32508230Y-29262984D02*
X32546325Y-29262984D01*
X32546325Y-29262984D02*
X32565372Y-29253460D01*
X32565372Y-29253460D02*
X32574896Y-29234412D01*
X32574896Y-29234412D02*
X32574896Y-29224888D01*
X32574896Y-29224888D02*
X32565372Y-29205841D01*
X32565372Y-29205841D02*
X32546325Y-29196317D01*
X32546325Y-29196317D02*
X32517753Y-29196317D01*
X32517753Y-29196317D02*
X32498706Y-29186793D01*
X32498706Y-29186793D02*
X32489182Y-29167746D01*
X32489182Y-29167746D02*
X32489182Y-29158222D01*
X32489182Y-29158222D02*
X32498706Y-29139174D01*
X32498706Y-29139174D02*
X32517753Y-29129650D01*
X32517753Y-29129650D02*
X32546325Y-29129650D01*
X32546325Y-29129650D02*
X32565372Y-29139174D01*
X32812992Y-29186793D02*
X32965373Y-29186793D01*
X32889182Y-29262984D02*
X32889182Y-29110603D01*
X33298706Y-29062984D02*
X33260611Y-29062984D01*
X33260611Y-29062984D02*
X33241563Y-29072508D01*
X33241563Y-29072508D02*
X33232039Y-29082031D01*
X33232039Y-29082031D02*
X33212992Y-29110603D01*
X33212992Y-29110603D02*
X33203468Y-29148698D01*
X33203468Y-29148698D02*
X33203468Y-29224888D01*
X33203468Y-29224888D02*
X33212992Y-29243936D01*
X33212992Y-29243936D02*
X33222515Y-29253460D01*
X33222515Y-29253460D02*
X33241563Y-29262984D01*
X33241563Y-29262984D02*
X33279658Y-29262984D01*
X33279658Y-29262984D02*
X33298706Y-29253460D01*
X33298706Y-29253460D02*
X33308230Y-29243936D01*
X33308230Y-29243936D02*
X33317753Y-29224888D01*
X33317753Y-29224888D02*
X33317753Y-29177269D01*
X33317753Y-29177269D02*
X33308230Y-29158222D01*
X33308230Y-29158222D02*
X33298706Y-29148698D01*
X33298706Y-29148698D02*
X33279658Y-29139174D01*
X33279658Y-29139174D02*
X33241563Y-29139174D01*
X33241563Y-29139174D02*
X33222515Y-29148698D01*
X33222515Y-29148698D02*
X33212992Y-29158222D01*
X33212992Y-29158222D02*
X33203468Y-29177269D01*
X33546325Y-29253460D02*
X33565373Y-29262984D01*
X33565373Y-29262984D02*
X33603468Y-29262984D01*
X33603468Y-29262984D02*
X33622516Y-29253460D01*
X33622516Y-29253460D02*
X33632039Y-29234412D01*
X33632039Y-29234412D02*
X33632039Y-29224888D01*
X33632039Y-29224888D02*
X33622516Y-29205841D01*
X33622516Y-29205841D02*
X33603468Y-29196317D01*
X33603468Y-29196317D02*
X33574896Y-29196317D01*
X33574896Y-29196317D02*
X33555849Y-29186793D01*
X33555849Y-29186793D02*
X33546325Y-29167746D01*
X33546325Y-29167746D02*
X33546325Y-29158222D01*
X33546325Y-29158222D02*
X33555849Y-29139174D01*
X33555849Y-29139174D02*
X33574896Y-29129650D01*
X33574896Y-29129650D02*
X33603468Y-29129650D01*
X33603468Y-29129650D02*
X33622516Y-29139174D01*
X33746325Y-29262984D02*
X33727277Y-29253460D01*
X33727277Y-29253460D02*
X33717754Y-29234412D01*
X33717754Y-29234412D02*
X33717754Y-29062984D01*
X33851087Y-29262984D02*
X33832039Y-29253460D01*
X33832039Y-29253460D02*
X33822516Y-29243936D01*
X33822516Y-29243936D02*
X33812992Y-29224888D01*
X33812992Y-29224888D02*
X33812992Y-29167746D01*
X33812992Y-29167746D02*
X33822516Y-29148698D01*
X33822516Y-29148698D02*
X33832039Y-29139174D01*
X33832039Y-29139174D02*
X33851087Y-29129650D01*
X33851087Y-29129650D02*
X33879658Y-29129650D01*
X33879658Y-29129650D02*
X33898706Y-29139174D01*
X33898706Y-29139174D02*
X33908230Y-29148698D01*
X33908230Y-29148698D02*
X33917754Y-29167746D01*
X33917754Y-29167746D02*
X33917754Y-29224888D01*
X33917754Y-29224888D02*
X33908230Y-29243936D01*
X33908230Y-29243936D02*
X33898706Y-29253460D01*
X33898706Y-29253460D02*
X33879658Y-29262984D01*
X33879658Y-29262984D02*
X33851087Y-29262984D01*
X33974897Y-29129650D02*
X34051087Y-29129650D01*
X34003468Y-29062984D02*
X34003468Y-29234412D01*
X34003468Y-29234412D02*
X34012992Y-29253460D01*
X34012992Y-29253460D02*
X34032039Y-29262984D01*
X34032039Y-29262984D02*
X34051087Y-29262984D01*
X34108230Y-29253460D02*
X34127277Y-29262984D01*
X34127277Y-29262984D02*
X34165373Y-29262984D01*
X34165373Y-29262984D02*
X34184420Y-29253460D01*
X34184420Y-29253460D02*
X34193944Y-29234412D01*
X34193944Y-29234412D02*
X34193944Y-29224888D01*
X34193944Y-29224888D02*
X34184420Y-29205841D01*
X34184420Y-29205841D02*
X34165373Y-29196317D01*
X34165373Y-29196317D02*
X34136801Y-29196317D01*
X34136801Y-29196317D02*
X34117754Y-29186793D01*
X34117754Y-29186793D02*
X34108230Y-29167746D01*
X34108230Y-29167746D02*
X34108230Y-29158222D01*
X34108230Y-29158222D02*
X34117754Y-29139174D01*
X34117754Y-29139174D02*
X34136801Y-29129650D01*
X34136801Y-29129650D02*
X34165373Y-29129650D01*
X34165373Y-29129650D02*
X34184420Y-29139174D01*
X34260611Y-29339174D02*
X34270135Y-29329650D01*
X34270135Y-29329650D02*
X34289182Y-29301079D01*
X34289182Y-29301079D02*
X34298706Y-29282031D01*
X34298706Y-29282031D02*
X34308230Y-29253460D01*
X34308230Y-29253460D02*
X34317754Y-29205841D01*
X34317754Y-29205841D02*
X34317754Y-29167746D01*
X34317754Y-29167746D02*
X34308230Y-29120127D01*
X34308230Y-29120127D02*
X34298706Y-29091555D01*
X34298706Y-29091555D02*
X34289182Y-29072508D01*
X34289182Y-29072508D02*
X34270135Y-29043936D01*
X34270135Y-29043936D02*
X34260611Y-29034412D01*
D11*
X27821500Y-29390500D02*
X27821500Y-29480500D01*
X27776500Y-29435500D02*
X27866500Y-29435500D01*
D10*
X28165372Y-29326984D02*
X28184420Y-29326984D01*
X28184420Y-29326984D02*
X28203467Y-29336508D01*
X28203467Y-29336508D02*
X28212991Y-29346031D01*
X28212991Y-29346031D02*
X28222515Y-29365079D01*
X28222515Y-29365079D02*
X28232039Y-29403174D01*
X28232039Y-29403174D02*
X28232039Y-29450793D01*
X28232039Y-29450793D02*
X28222515Y-29488888D01*
X28222515Y-29488888D02*
X28212991Y-29507936D01*
X28212991Y-29507936D02*
X28203467Y-29517460D01*
X28203467Y-29517460D02*
X28184420Y-29526984D01*
X28184420Y-29526984D02*
X28165372Y-29526984D01*
X28165372Y-29526984D02*
X28146324Y-29517460D01*
X28146324Y-29517460D02*
X28136801Y-29507936D01*
X28136801Y-29507936D02*
X28127277Y-29488888D01*
X28127277Y-29488888D02*
X28117753Y-29450793D01*
X28117753Y-29450793D02*
X28117753Y-29403174D01*
X28117753Y-29403174D02*
X28127277Y-29365079D01*
X28127277Y-29365079D02*
X28136801Y-29346031D01*
X28136801Y-29346031D02*
X28146324Y-29336508D01*
X28146324Y-29336508D02*
X28165372Y-29326984D01*
X28317753Y-29507936D02*
X28327277Y-29517460D01*
X28327277Y-29517460D02*
X28317753Y-29526984D01*
X28317753Y-29526984D02*
X28308229Y-29517460D01*
X28308229Y-29517460D02*
X28317753Y-29507936D01*
X28317753Y-29507936D02*
X28317753Y-29526984D01*
X28422515Y-29526984D02*
X28460610Y-29526984D01*
X28460610Y-29526984D02*
X28479658Y-29517460D01*
X28479658Y-29517460D02*
X28489182Y-29507936D01*
X28489182Y-29507936D02*
X28508229Y-29479365D01*
X28508229Y-29479365D02*
X28517753Y-29441269D01*
X28517753Y-29441269D02*
X28517753Y-29365079D01*
X28517753Y-29365079D02*
X28508229Y-29346031D01*
X28508229Y-29346031D02*
X28498705Y-29336508D01*
X28498705Y-29336508D02*
X28479658Y-29326984D01*
X28479658Y-29326984D02*
X28441562Y-29326984D01*
X28441562Y-29326984D02*
X28422515Y-29336508D01*
X28422515Y-29336508D02*
X28412991Y-29346031D01*
X28412991Y-29346031D02*
X28403467Y-29365079D01*
X28403467Y-29365079D02*
X28403467Y-29412698D01*
X28403467Y-29412698D02*
X28412991Y-29431746D01*
X28412991Y-29431746D02*
X28422515Y-29441269D01*
X28422515Y-29441269D02*
X28441562Y-29450793D01*
X28441562Y-29450793D02*
X28479658Y-29450793D01*
X28479658Y-29450793D02*
X28498705Y-29441269D01*
X28498705Y-29441269D02*
X28508229Y-29431746D01*
X28508229Y-29431746D02*
X28517753Y-29412698D01*
X28641562Y-29326984D02*
X28660610Y-29326984D01*
X28660610Y-29326984D02*
X28679658Y-29336508D01*
X28679658Y-29336508D02*
X28689182Y-29346031D01*
X28689182Y-29346031D02*
X28698705Y-29365079D01*
X28698705Y-29365079D02*
X28708229Y-29403174D01*
X28708229Y-29403174D02*
X28708229Y-29450793D01*
X28708229Y-29450793D02*
X28698705Y-29488888D01*
X28698705Y-29488888D02*
X28689182Y-29507936D01*
X28689182Y-29507936D02*
X28679658Y-29517460D01*
X28679658Y-29517460D02*
X28660610Y-29526984D01*
X28660610Y-29526984D02*
X28641562Y-29526984D01*
X28641562Y-29526984D02*
X28622515Y-29517460D01*
X28622515Y-29517460D02*
X28612991Y-29507936D01*
X28612991Y-29507936D02*
X28603467Y-29488888D01*
X28603467Y-29488888D02*
X28593943Y-29450793D01*
X28593943Y-29450793D02*
X28593943Y-29403174D01*
X28593943Y-29403174D02*
X28603467Y-29365079D01*
X28603467Y-29365079D02*
X28612991Y-29346031D01*
X28612991Y-29346031D02*
X28622515Y-29336508D01*
X28622515Y-29336508D02*
X28641562Y-29326984D01*
X28832039Y-29326984D02*
X28851086Y-29326984D01*
X28851086Y-29326984D02*
X28870134Y-29336508D01*
X28870134Y-29336508D02*
X28879658Y-29346031D01*
X28879658Y-29346031D02*
X28889182Y-29365079D01*
X28889182Y-29365079D02*
X28898705Y-29403174D01*
X28898705Y-29403174D02*
X28898705Y-29450793D01*
X28898705Y-29450793D02*
X28889182Y-29488888D01*
X28889182Y-29488888D02*
X28879658Y-29507936D01*
X28879658Y-29507936D02*
X28870134Y-29517460D01*
X28870134Y-29517460D02*
X28851086Y-29526984D01*
X28851086Y-29526984D02*
X28832039Y-29526984D01*
X28832039Y-29526984D02*
X28812991Y-29517460D01*
X28812991Y-29517460D02*
X28803467Y-29507936D01*
X28803467Y-29507936D02*
X28793943Y-29488888D01*
X28793943Y-29488888D02*
X28784420Y-29450793D01*
X28784420Y-29450793D02*
X28784420Y-29403174D01*
X28784420Y-29403174D02*
X28793943Y-29365079D01*
X28793943Y-29365079D02*
X28803467Y-29346031D01*
X28803467Y-29346031D02*
X28812991Y-29336508D01*
X28812991Y-29336508D02*
X28832039Y-29326984D01*
X28984420Y-29526984D02*
X28984420Y-29393650D01*
X28984420Y-29412698D02*
X28993943Y-29403174D01*
X28993943Y-29403174D02*
X29012991Y-29393650D01*
X29012991Y-29393650D02*
X29041563Y-29393650D01*
X29041563Y-29393650D02*
X29060610Y-29403174D01*
X29060610Y-29403174D02*
X29070134Y-29422222D01*
X29070134Y-29422222D02*
X29070134Y-29526984D01*
X29070134Y-29422222D02*
X29079658Y-29403174D01*
X29079658Y-29403174D02*
X29098705Y-29393650D01*
X29098705Y-29393650D02*
X29127277Y-29393650D01*
X29127277Y-29393650D02*
X29146324Y-29403174D01*
X29146324Y-29403174D02*
X29155848Y-29422222D01*
X29155848Y-29422222D02*
X29155848Y-29526984D01*
X29251086Y-29526984D02*
X29251086Y-29393650D01*
X29251086Y-29412698D02*
X29260610Y-29403174D01*
X29260610Y-29403174D02*
X29279658Y-29393650D01*
X29279658Y-29393650D02*
X29308229Y-29393650D01*
X29308229Y-29393650D02*
X29327277Y-29403174D01*
X29327277Y-29403174D02*
X29336801Y-29422222D01*
X29336801Y-29422222D02*
X29336801Y-29526984D01*
X29336801Y-29422222D02*
X29346324Y-29403174D01*
X29346324Y-29403174D02*
X29365372Y-29393650D01*
X29365372Y-29393650D02*
X29393943Y-29393650D01*
X29393943Y-29393650D02*
X29412991Y-29403174D01*
X29412991Y-29403174D02*
X29422515Y-29422222D01*
X29422515Y-29422222D02*
X29422515Y-29526984D01*
X29812991Y-29317460D02*
X29641563Y-29574603D01*
X30070134Y-29326984D02*
X30089182Y-29326984D01*
X30089182Y-29326984D02*
X30108229Y-29336508D01*
X30108229Y-29336508D02*
X30117753Y-29346031D01*
X30117753Y-29346031D02*
X30127277Y-29365079D01*
X30127277Y-29365079D02*
X30136801Y-29403174D01*
X30136801Y-29403174D02*
X30136801Y-29450793D01*
X30136801Y-29450793D02*
X30127277Y-29488888D01*
X30127277Y-29488888D02*
X30117753Y-29507936D01*
X30117753Y-29507936D02*
X30108229Y-29517460D01*
X30108229Y-29517460D02*
X30089182Y-29526984D01*
X30089182Y-29526984D02*
X30070134Y-29526984D01*
X30070134Y-29526984D02*
X30051086Y-29517460D01*
X30051086Y-29517460D02*
X30041563Y-29507936D01*
X30041563Y-29507936D02*
X30032039Y-29488888D01*
X30032039Y-29488888D02*
X30022515Y-29450793D01*
X30022515Y-29450793D02*
X30022515Y-29403174D01*
X30022515Y-29403174D02*
X30032039Y-29365079D01*
X30032039Y-29365079D02*
X30041563Y-29346031D01*
X30041563Y-29346031D02*
X30051086Y-29336508D01*
X30051086Y-29336508D02*
X30070134Y-29326984D01*
X30222515Y-29507936D02*
X30232039Y-29517460D01*
X30232039Y-29517460D02*
X30222515Y-29526984D01*
X30222515Y-29526984D02*
X30212991Y-29517460D01*
X30212991Y-29517460D02*
X30222515Y-29507936D01*
X30222515Y-29507936D02*
X30222515Y-29526984D01*
X30355848Y-29326984D02*
X30374896Y-29326984D01*
X30374896Y-29326984D02*
X30393944Y-29336508D01*
X30393944Y-29336508D02*
X30403467Y-29346031D01*
X30403467Y-29346031D02*
X30412991Y-29365079D01*
X30412991Y-29365079D02*
X30422515Y-29403174D01*
X30422515Y-29403174D02*
X30422515Y-29450793D01*
X30422515Y-29450793D02*
X30412991Y-29488888D01*
X30412991Y-29488888D02*
X30403467Y-29507936D01*
X30403467Y-29507936D02*
X30393944Y-29517460D01*
X30393944Y-29517460D02*
X30374896Y-29526984D01*
X30374896Y-29526984D02*
X30355848Y-29526984D01*
X30355848Y-29526984D02*
X30336801Y-29517460D01*
X30336801Y-29517460D02*
X30327277Y-29507936D01*
X30327277Y-29507936D02*
X30317753Y-29488888D01*
X30317753Y-29488888D02*
X30308229Y-29450793D01*
X30308229Y-29450793D02*
X30308229Y-29403174D01*
X30308229Y-29403174D02*
X30317753Y-29365079D01*
X30317753Y-29365079D02*
X30327277Y-29346031D01*
X30327277Y-29346031D02*
X30336801Y-29336508D01*
X30336801Y-29336508D02*
X30355848Y-29326984D01*
X30489182Y-29326984D02*
X30612991Y-29326984D01*
X30612991Y-29326984D02*
X30546325Y-29403174D01*
X30546325Y-29403174D02*
X30574896Y-29403174D01*
X30574896Y-29403174D02*
X30593944Y-29412698D01*
X30593944Y-29412698D02*
X30603467Y-29422222D01*
X30603467Y-29422222D02*
X30612991Y-29441269D01*
X30612991Y-29441269D02*
X30612991Y-29488888D01*
X30612991Y-29488888D02*
X30603467Y-29507936D01*
X30603467Y-29507936D02*
X30593944Y-29517460D01*
X30593944Y-29517460D02*
X30574896Y-29526984D01*
X30574896Y-29526984D02*
X30517753Y-29526984D01*
X30517753Y-29526984D02*
X30498706Y-29517460D01*
X30498706Y-29517460D02*
X30489182Y-29507936D01*
X30793944Y-29326984D02*
X30698706Y-29326984D01*
X30698706Y-29326984D02*
X30689182Y-29422222D01*
X30689182Y-29422222D02*
X30698706Y-29412698D01*
X30698706Y-29412698D02*
X30717753Y-29403174D01*
X30717753Y-29403174D02*
X30765372Y-29403174D01*
X30765372Y-29403174D02*
X30784420Y-29412698D01*
X30784420Y-29412698D02*
X30793944Y-29422222D01*
X30793944Y-29422222D02*
X30803467Y-29441269D01*
X30803467Y-29441269D02*
X30803467Y-29488888D01*
X30803467Y-29488888D02*
X30793944Y-29507936D01*
X30793944Y-29507936D02*
X30784420Y-29517460D01*
X30784420Y-29517460D02*
X30765372Y-29526984D01*
X30765372Y-29526984D02*
X30717753Y-29526984D01*
X30717753Y-29526984D02*
X30698706Y-29517460D01*
X30698706Y-29517460D02*
X30689182Y-29507936D01*
X30974896Y-29393650D02*
X30974896Y-29526984D01*
X30927277Y-29317460D02*
X30879658Y-29460317D01*
X30879658Y-29460317D02*
X31003467Y-29460317D01*
X31070134Y-29326984D02*
X31070134Y-29365079D01*
X31146325Y-29326984D02*
X31146325Y-29365079D01*
X31441563Y-29603174D02*
X31432039Y-29593650D01*
X31432039Y-29593650D02*
X31412991Y-29565079D01*
X31412991Y-29565079D02*
X31403468Y-29546031D01*
X31403468Y-29546031D02*
X31393944Y-29517460D01*
X31393944Y-29517460D02*
X31384420Y-29469841D01*
X31384420Y-29469841D02*
X31384420Y-29431746D01*
X31384420Y-29431746D02*
X31393944Y-29384127D01*
X31393944Y-29384127D02*
X31403468Y-29355555D01*
X31403468Y-29355555D02*
X31412991Y-29336508D01*
X31412991Y-29336508D02*
X31432039Y-29307936D01*
X31432039Y-29307936D02*
X31441563Y-29298412D01*
X31555848Y-29326984D02*
X31574896Y-29326984D01*
X31574896Y-29326984D02*
X31593944Y-29336508D01*
X31593944Y-29336508D02*
X31603468Y-29346031D01*
X31603468Y-29346031D02*
X31612991Y-29365079D01*
X31612991Y-29365079D02*
X31622515Y-29403174D01*
X31622515Y-29403174D02*
X31622515Y-29450793D01*
X31622515Y-29450793D02*
X31612991Y-29488888D01*
X31612991Y-29488888D02*
X31603468Y-29507936D01*
X31603468Y-29507936D02*
X31593944Y-29517460D01*
X31593944Y-29517460D02*
X31574896Y-29526984D01*
X31574896Y-29526984D02*
X31555848Y-29526984D01*
X31555848Y-29526984D02*
X31536801Y-29517460D01*
X31536801Y-29517460D02*
X31527277Y-29507936D01*
X31527277Y-29507936D02*
X31517753Y-29488888D01*
X31517753Y-29488888D02*
X31508229Y-29450793D01*
X31508229Y-29450793D02*
X31508229Y-29403174D01*
X31508229Y-29403174D02*
X31517753Y-29365079D01*
X31517753Y-29365079D02*
X31527277Y-29346031D01*
X31527277Y-29346031D02*
X31536801Y-29336508D01*
X31536801Y-29336508D02*
X31555848Y-29326984D01*
X31860610Y-29526984D02*
X31860610Y-29326984D01*
X31946325Y-29526984D02*
X31946325Y-29422222D01*
X31946325Y-29422222D02*
X31936801Y-29403174D01*
X31936801Y-29403174D02*
X31917753Y-29393650D01*
X31917753Y-29393650D02*
X31889182Y-29393650D01*
X31889182Y-29393650D02*
X31870134Y-29403174D01*
X31870134Y-29403174D02*
X31860610Y-29412698D01*
X32070134Y-29526984D02*
X32051087Y-29517460D01*
X32051087Y-29517460D02*
X32041563Y-29507936D01*
X32041563Y-29507936D02*
X32032039Y-29488888D01*
X32032039Y-29488888D02*
X32032039Y-29431746D01*
X32032039Y-29431746D02*
X32041563Y-29412698D01*
X32041563Y-29412698D02*
X32051087Y-29403174D01*
X32051087Y-29403174D02*
X32070134Y-29393650D01*
X32070134Y-29393650D02*
X32098706Y-29393650D01*
X32098706Y-29393650D02*
X32117753Y-29403174D01*
X32117753Y-29403174D02*
X32127277Y-29412698D01*
X32127277Y-29412698D02*
X32136801Y-29431746D01*
X32136801Y-29431746D02*
X32136801Y-29488888D01*
X32136801Y-29488888D02*
X32127277Y-29507936D01*
X32127277Y-29507936D02*
X32117753Y-29517460D01*
X32117753Y-29517460D02*
X32098706Y-29526984D01*
X32098706Y-29526984D02*
X32070134Y-29526984D01*
X32251087Y-29526984D02*
X32232039Y-29517460D01*
X32232039Y-29517460D02*
X32222515Y-29498412D01*
X32222515Y-29498412D02*
X32222515Y-29326984D01*
X32403468Y-29517460D02*
X32384420Y-29526984D01*
X32384420Y-29526984D02*
X32346325Y-29526984D01*
X32346325Y-29526984D02*
X32327277Y-29517460D01*
X32327277Y-29517460D02*
X32317753Y-29498412D01*
X32317753Y-29498412D02*
X32317753Y-29422222D01*
X32317753Y-29422222D02*
X32327277Y-29403174D01*
X32327277Y-29403174D02*
X32346325Y-29393650D01*
X32346325Y-29393650D02*
X32384420Y-29393650D01*
X32384420Y-29393650D02*
X32403468Y-29403174D01*
X32403468Y-29403174D02*
X32412991Y-29422222D01*
X32412991Y-29422222D02*
X32412991Y-29441269D01*
X32412991Y-29441269D02*
X32317753Y-29460317D01*
X32489182Y-29517460D02*
X32508230Y-29526984D01*
X32508230Y-29526984D02*
X32546325Y-29526984D01*
X32546325Y-29526984D02*
X32565372Y-29517460D01*
X32565372Y-29517460D02*
X32574896Y-29498412D01*
X32574896Y-29498412D02*
X32574896Y-29488888D01*
X32574896Y-29488888D02*
X32565372Y-29469841D01*
X32565372Y-29469841D02*
X32546325Y-29460317D01*
X32546325Y-29460317D02*
X32517753Y-29460317D01*
X32517753Y-29460317D02*
X32498706Y-29450793D01*
X32498706Y-29450793D02*
X32489182Y-29431746D01*
X32489182Y-29431746D02*
X32489182Y-29422222D01*
X32489182Y-29422222D02*
X32498706Y-29403174D01*
X32498706Y-29403174D02*
X32517753Y-29393650D01*
X32517753Y-29393650D02*
X32546325Y-29393650D01*
X32546325Y-29393650D02*
X32565372Y-29403174D01*
X32812992Y-29450793D02*
X32965373Y-29450793D01*
X32889182Y-29526984D02*
X32889182Y-29374603D01*
X33241563Y-29412698D02*
X33222515Y-29403174D01*
X33222515Y-29403174D02*
X33212992Y-29393650D01*
X33212992Y-29393650D02*
X33203468Y-29374603D01*
X33203468Y-29374603D02*
X33203468Y-29365079D01*
X33203468Y-29365079D02*
X33212992Y-29346031D01*
X33212992Y-29346031D02*
X33222515Y-29336508D01*
X33222515Y-29336508D02*
X33241563Y-29326984D01*
X33241563Y-29326984D02*
X33279658Y-29326984D01*
X33279658Y-29326984D02*
X33298706Y-29336508D01*
X33298706Y-29336508D02*
X33308230Y-29346031D01*
X33308230Y-29346031D02*
X33317753Y-29365079D01*
X33317753Y-29365079D02*
X33317753Y-29374603D01*
X33317753Y-29374603D02*
X33308230Y-29393650D01*
X33308230Y-29393650D02*
X33298706Y-29403174D01*
X33298706Y-29403174D02*
X33279658Y-29412698D01*
X33279658Y-29412698D02*
X33241563Y-29412698D01*
X33241563Y-29412698D02*
X33222515Y-29422222D01*
X33222515Y-29422222D02*
X33212992Y-29431746D01*
X33212992Y-29431746D02*
X33203468Y-29450793D01*
X33203468Y-29450793D02*
X33203468Y-29488888D01*
X33203468Y-29488888D02*
X33212992Y-29507936D01*
X33212992Y-29507936D02*
X33222515Y-29517460D01*
X33222515Y-29517460D02*
X33241563Y-29526984D01*
X33241563Y-29526984D02*
X33279658Y-29526984D01*
X33279658Y-29526984D02*
X33298706Y-29517460D01*
X33298706Y-29517460D02*
X33308230Y-29507936D01*
X33308230Y-29507936D02*
X33317753Y-29488888D01*
X33317753Y-29488888D02*
X33317753Y-29450793D01*
X33317753Y-29450793D02*
X33308230Y-29431746D01*
X33308230Y-29431746D02*
X33298706Y-29422222D01*
X33298706Y-29422222D02*
X33279658Y-29412698D01*
X33546325Y-29517460D02*
X33565373Y-29526984D01*
X33565373Y-29526984D02*
X33603468Y-29526984D01*
X33603468Y-29526984D02*
X33622516Y-29517460D01*
X33622516Y-29517460D02*
X33632039Y-29498412D01*
X33632039Y-29498412D02*
X33632039Y-29488888D01*
X33632039Y-29488888D02*
X33622516Y-29469841D01*
X33622516Y-29469841D02*
X33603468Y-29460317D01*
X33603468Y-29460317D02*
X33574896Y-29460317D01*
X33574896Y-29460317D02*
X33555849Y-29450793D01*
X33555849Y-29450793D02*
X33546325Y-29431746D01*
X33546325Y-29431746D02*
X33546325Y-29422222D01*
X33546325Y-29422222D02*
X33555849Y-29403174D01*
X33555849Y-29403174D02*
X33574896Y-29393650D01*
X33574896Y-29393650D02*
X33603468Y-29393650D01*
X33603468Y-29393650D02*
X33622516Y-29403174D01*
X33746325Y-29526984D02*
X33727277Y-29517460D01*
X33727277Y-29517460D02*
X33717754Y-29498412D01*
X33717754Y-29498412D02*
X33717754Y-29326984D01*
X33851087Y-29526984D02*
X33832039Y-29517460D01*
X33832039Y-29517460D02*
X33822516Y-29507936D01*
X33822516Y-29507936D02*
X33812992Y-29488888D01*
X33812992Y-29488888D02*
X33812992Y-29431746D01*
X33812992Y-29431746D02*
X33822516Y-29412698D01*
X33822516Y-29412698D02*
X33832039Y-29403174D01*
X33832039Y-29403174D02*
X33851087Y-29393650D01*
X33851087Y-29393650D02*
X33879658Y-29393650D01*
X33879658Y-29393650D02*
X33898706Y-29403174D01*
X33898706Y-29403174D02*
X33908230Y-29412698D01*
X33908230Y-29412698D02*
X33917754Y-29431746D01*
X33917754Y-29431746D02*
X33917754Y-29488888D01*
X33917754Y-29488888D02*
X33908230Y-29507936D01*
X33908230Y-29507936D02*
X33898706Y-29517460D01*
X33898706Y-29517460D02*
X33879658Y-29526984D01*
X33879658Y-29526984D02*
X33851087Y-29526984D01*
X33974897Y-29393650D02*
X34051087Y-29393650D01*
X34003468Y-29326984D02*
X34003468Y-29498412D01*
X34003468Y-29498412D02*
X34012992Y-29517460D01*
X34012992Y-29517460D02*
X34032039Y-29526984D01*
X34032039Y-29526984D02*
X34051087Y-29526984D01*
X34108230Y-29517460D02*
X34127277Y-29526984D01*
X34127277Y-29526984D02*
X34165373Y-29526984D01*
X34165373Y-29526984D02*
X34184420Y-29517460D01*
X34184420Y-29517460D02*
X34193944Y-29498412D01*
X34193944Y-29498412D02*
X34193944Y-29488888D01*
X34193944Y-29488888D02*
X34184420Y-29469841D01*
X34184420Y-29469841D02*
X34165373Y-29460317D01*
X34165373Y-29460317D02*
X34136801Y-29460317D01*
X34136801Y-29460317D02*
X34117754Y-29450793D01*
X34117754Y-29450793D02*
X34108230Y-29431746D01*
X34108230Y-29431746D02*
X34108230Y-29422222D01*
X34108230Y-29422222D02*
X34117754Y-29403174D01*
X34117754Y-29403174D02*
X34136801Y-29393650D01*
X34136801Y-29393650D02*
X34165373Y-29393650D01*
X34165373Y-29393650D02*
X34184420Y-29403174D01*
X34260611Y-29603174D02*
X34270135Y-29593650D01*
X34270135Y-29593650D02*
X34289182Y-29565079D01*
X34289182Y-29565079D02*
X34298706Y-29546031D01*
X34298706Y-29546031D02*
X34308230Y-29517460D01*
X34308230Y-29517460D02*
X34317754Y-29469841D01*
X34317754Y-29469841D02*
X34317754Y-29431746D01*
X34317754Y-29431746D02*
X34308230Y-29384127D01*
X34308230Y-29384127D02*
X34298706Y-29355555D01*
X34298706Y-29355555D02*
X34289182Y-29336508D01*
X34289182Y-29336508D02*
X34270135Y-29307936D01*
X34270135Y-29307936D02*
X34260611Y-29298412D01*
D11*
X27851856Y-29734856D02*
X27851856Y-29664144D01*
X27781144Y-29664144D01*
X27781144Y-29734856D01*
X27851856Y-29734856D01*
D10*
X28232039Y-29790984D02*
X28117753Y-29790984D01*
X28174896Y-29790984D02*
X28174896Y-29590984D01*
X28174896Y-29590984D02*
X28155848Y-29619555D01*
X28155848Y-29619555D02*
X28136801Y-29638603D01*
X28136801Y-29638603D02*
X28117753Y-29648127D01*
X28317753Y-29771936D02*
X28327277Y-29781460D01*
X28327277Y-29781460D02*
X28317753Y-29790984D01*
X28317753Y-29790984D02*
X28308229Y-29781460D01*
X28308229Y-29781460D02*
X28317753Y-29771936D01*
X28317753Y-29771936D02*
X28317753Y-29790984D01*
X28451086Y-29590984D02*
X28470134Y-29590984D01*
X28470134Y-29590984D02*
X28489182Y-29600508D01*
X28489182Y-29600508D02*
X28498705Y-29610031D01*
X28498705Y-29610031D02*
X28508229Y-29629079D01*
X28508229Y-29629079D02*
X28517753Y-29667174D01*
X28517753Y-29667174D02*
X28517753Y-29714793D01*
X28517753Y-29714793D02*
X28508229Y-29752888D01*
X28508229Y-29752888D02*
X28498705Y-29771936D01*
X28498705Y-29771936D02*
X28489182Y-29781460D01*
X28489182Y-29781460D02*
X28470134Y-29790984D01*
X28470134Y-29790984D02*
X28451086Y-29790984D01*
X28451086Y-29790984D02*
X28432039Y-29781460D01*
X28432039Y-29781460D02*
X28422515Y-29771936D01*
X28422515Y-29771936D02*
X28412991Y-29752888D01*
X28412991Y-29752888D02*
X28403467Y-29714793D01*
X28403467Y-29714793D02*
X28403467Y-29667174D01*
X28403467Y-29667174D02*
X28412991Y-29629079D01*
X28412991Y-29629079D02*
X28422515Y-29610031D01*
X28422515Y-29610031D02*
X28432039Y-29600508D01*
X28432039Y-29600508D02*
X28451086Y-29590984D01*
X28641562Y-29590984D02*
X28660610Y-29590984D01*
X28660610Y-29590984D02*
X28679658Y-29600508D01*
X28679658Y-29600508D02*
X28689182Y-29610031D01*
X28689182Y-29610031D02*
X28698705Y-29629079D01*
X28698705Y-29629079D02*
X28708229Y-29667174D01*
X28708229Y-29667174D02*
X28708229Y-29714793D01*
X28708229Y-29714793D02*
X28698705Y-29752888D01*
X28698705Y-29752888D02*
X28689182Y-29771936D01*
X28689182Y-29771936D02*
X28679658Y-29781460D01*
X28679658Y-29781460D02*
X28660610Y-29790984D01*
X28660610Y-29790984D02*
X28641562Y-29790984D01*
X28641562Y-29790984D02*
X28622515Y-29781460D01*
X28622515Y-29781460D02*
X28612991Y-29771936D01*
X28612991Y-29771936D02*
X28603467Y-29752888D01*
X28603467Y-29752888D02*
X28593943Y-29714793D01*
X28593943Y-29714793D02*
X28593943Y-29667174D01*
X28593943Y-29667174D02*
X28603467Y-29629079D01*
X28603467Y-29629079D02*
X28612991Y-29610031D01*
X28612991Y-29610031D02*
X28622515Y-29600508D01*
X28622515Y-29600508D02*
X28641562Y-29590984D01*
X28832039Y-29590984D02*
X28851086Y-29590984D01*
X28851086Y-29590984D02*
X28870134Y-29600508D01*
X28870134Y-29600508D02*
X28879658Y-29610031D01*
X28879658Y-29610031D02*
X28889182Y-29629079D01*
X28889182Y-29629079D02*
X28898705Y-29667174D01*
X28898705Y-29667174D02*
X28898705Y-29714793D01*
X28898705Y-29714793D02*
X28889182Y-29752888D01*
X28889182Y-29752888D02*
X28879658Y-29771936D01*
X28879658Y-29771936D02*
X28870134Y-29781460D01*
X28870134Y-29781460D02*
X28851086Y-29790984D01*
X28851086Y-29790984D02*
X28832039Y-29790984D01*
X28832039Y-29790984D02*
X28812991Y-29781460D01*
X28812991Y-29781460D02*
X28803467Y-29771936D01*
X28803467Y-29771936D02*
X28793943Y-29752888D01*
X28793943Y-29752888D02*
X28784420Y-29714793D01*
X28784420Y-29714793D02*
X28784420Y-29667174D01*
X28784420Y-29667174D02*
X28793943Y-29629079D01*
X28793943Y-29629079D02*
X28803467Y-29610031D01*
X28803467Y-29610031D02*
X28812991Y-29600508D01*
X28812991Y-29600508D02*
X28832039Y-29590984D01*
X28984420Y-29790984D02*
X28984420Y-29657650D01*
X28984420Y-29676698D02*
X28993943Y-29667174D01*
X28993943Y-29667174D02*
X29012991Y-29657650D01*
X29012991Y-29657650D02*
X29041563Y-29657650D01*
X29041563Y-29657650D02*
X29060610Y-29667174D01*
X29060610Y-29667174D02*
X29070134Y-29686222D01*
X29070134Y-29686222D02*
X29070134Y-29790984D01*
X29070134Y-29686222D02*
X29079658Y-29667174D01*
X29079658Y-29667174D02*
X29098705Y-29657650D01*
X29098705Y-29657650D02*
X29127277Y-29657650D01*
X29127277Y-29657650D02*
X29146324Y-29667174D01*
X29146324Y-29667174D02*
X29155848Y-29686222D01*
X29155848Y-29686222D02*
X29155848Y-29790984D01*
X29251086Y-29790984D02*
X29251086Y-29657650D01*
X29251086Y-29676698D02*
X29260610Y-29667174D01*
X29260610Y-29667174D02*
X29279658Y-29657650D01*
X29279658Y-29657650D02*
X29308229Y-29657650D01*
X29308229Y-29657650D02*
X29327277Y-29667174D01*
X29327277Y-29667174D02*
X29336801Y-29686222D01*
X29336801Y-29686222D02*
X29336801Y-29790984D01*
X29336801Y-29686222D02*
X29346324Y-29667174D01*
X29346324Y-29667174D02*
X29365372Y-29657650D01*
X29365372Y-29657650D02*
X29393943Y-29657650D01*
X29393943Y-29657650D02*
X29412991Y-29667174D01*
X29412991Y-29667174D02*
X29422515Y-29686222D01*
X29422515Y-29686222D02*
X29422515Y-29790984D01*
X29812991Y-29581460D02*
X29641563Y-29838603D01*
X30070134Y-29590984D02*
X30089182Y-29590984D01*
X30089182Y-29590984D02*
X30108229Y-29600508D01*
X30108229Y-29600508D02*
X30117753Y-29610031D01*
X30117753Y-29610031D02*
X30127277Y-29629079D01*
X30127277Y-29629079D02*
X30136801Y-29667174D01*
X30136801Y-29667174D02*
X30136801Y-29714793D01*
X30136801Y-29714793D02*
X30127277Y-29752888D01*
X30127277Y-29752888D02*
X30117753Y-29771936D01*
X30117753Y-29771936D02*
X30108229Y-29781460D01*
X30108229Y-29781460D02*
X30089182Y-29790984D01*
X30089182Y-29790984D02*
X30070134Y-29790984D01*
X30070134Y-29790984D02*
X30051086Y-29781460D01*
X30051086Y-29781460D02*
X30041563Y-29771936D01*
X30041563Y-29771936D02*
X30032039Y-29752888D01*
X30032039Y-29752888D02*
X30022515Y-29714793D01*
X30022515Y-29714793D02*
X30022515Y-29667174D01*
X30022515Y-29667174D02*
X30032039Y-29629079D01*
X30032039Y-29629079D02*
X30041563Y-29610031D01*
X30041563Y-29610031D02*
X30051086Y-29600508D01*
X30051086Y-29600508D02*
X30070134Y-29590984D01*
X30222515Y-29771936D02*
X30232039Y-29781460D01*
X30232039Y-29781460D02*
X30222515Y-29790984D01*
X30222515Y-29790984D02*
X30212991Y-29781460D01*
X30212991Y-29781460D02*
X30222515Y-29771936D01*
X30222515Y-29771936D02*
X30222515Y-29790984D01*
X30355848Y-29590984D02*
X30374896Y-29590984D01*
X30374896Y-29590984D02*
X30393944Y-29600508D01*
X30393944Y-29600508D02*
X30403467Y-29610031D01*
X30403467Y-29610031D02*
X30412991Y-29629079D01*
X30412991Y-29629079D02*
X30422515Y-29667174D01*
X30422515Y-29667174D02*
X30422515Y-29714793D01*
X30422515Y-29714793D02*
X30412991Y-29752888D01*
X30412991Y-29752888D02*
X30403467Y-29771936D01*
X30403467Y-29771936D02*
X30393944Y-29781460D01*
X30393944Y-29781460D02*
X30374896Y-29790984D01*
X30374896Y-29790984D02*
X30355848Y-29790984D01*
X30355848Y-29790984D02*
X30336801Y-29781460D01*
X30336801Y-29781460D02*
X30327277Y-29771936D01*
X30327277Y-29771936D02*
X30317753Y-29752888D01*
X30317753Y-29752888D02*
X30308229Y-29714793D01*
X30308229Y-29714793D02*
X30308229Y-29667174D01*
X30308229Y-29667174D02*
X30317753Y-29629079D01*
X30317753Y-29629079D02*
X30327277Y-29610031D01*
X30327277Y-29610031D02*
X30336801Y-29600508D01*
X30336801Y-29600508D02*
X30355848Y-29590984D01*
X30489182Y-29590984D02*
X30612991Y-29590984D01*
X30612991Y-29590984D02*
X30546325Y-29667174D01*
X30546325Y-29667174D02*
X30574896Y-29667174D01*
X30574896Y-29667174D02*
X30593944Y-29676698D01*
X30593944Y-29676698D02*
X30603467Y-29686222D01*
X30603467Y-29686222D02*
X30612991Y-29705269D01*
X30612991Y-29705269D02*
X30612991Y-29752888D01*
X30612991Y-29752888D02*
X30603467Y-29771936D01*
X30603467Y-29771936D02*
X30593944Y-29781460D01*
X30593944Y-29781460D02*
X30574896Y-29790984D01*
X30574896Y-29790984D02*
X30517753Y-29790984D01*
X30517753Y-29790984D02*
X30498706Y-29781460D01*
X30498706Y-29781460D02*
X30489182Y-29771936D01*
X30708229Y-29790984D02*
X30746325Y-29790984D01*
X30746325Y-29790984D02*
X30765372Y-29781460D01*
X30765372Y-29781460D02*
X30774896Y-29771936D01*
X30774896Y-29771936D02*
X30793944Y-29743365D01*
X30793944Y-29743365D02*
X30803467Y-29705269D01*
X30803467Y-29705269D02*
X30803467Y-29629079D01*
X30803467Y-29629079D02*
X30793944Y-29610031D01*
X30793944Y-29610031D02*
X30784420Y-29600508D01*
X30784420Y-29600508D02*
X30765372Y-29590984D01*
X30765372Y-29590984D02*
X30727277Y-29590984D01*
X30727277Y-29590984D02*
X30708229Y-29600508D01*
X30708229Y-29600508D02*
X30698706Y-29610031D01*
X30698706Y-29610031D02*
X30689182Y-29629079D01*
X30689182Y-29629079D02*
X30689182Y-29676698D01*
X30689182Y-29676698D02*
X30698706Y-29695746D01*
X30698706Y-29695746D02*
X30708229Y-29705269D01*
X30708229Y-29705269D02*
X30727277Y-29714793D01*
X30727277Y-29714793D02*
X30765372Y-29714793D01*
X30765372Y-29714793D02*
X30784420Y-29705269D01*
X30784420Y-29705269D02*
X30793944Y-29695746D01*
X30793944Y-29695746D02*
X30803467Y-29676698D01*
X30974896Y-29657650D02*
X30974896Y-29790984D01*
X30927277Y-29581460D02*
X30879658Y-29724317D01*
X30879658Y-29724317D02*
X31003467Y-29724317D01*
X31070134Y-29590984D02*
X31070134Y-29629079D01*
X31146325Y-29590984D02*
X31146325Y-29629079D01*
X31441563Y-29867174D02*
X31432039Y-29857650D01*
X31432039Y-29857650D02*
X31412991Y-29829079D01*
X31412991Y-29829079D02*
X31403468Y-29810031D01*
X31403468Y-29810031D02*
X31393944Y-29781460D01*
X31393944Y-29781460D02*
X31384420Y-29733841D01*
X31384420Y-29733841D02*
X31384420Y-29695746D01*
X31384420Y-29695746D02*
X31393944Y-29648127D01*
X31393944Y-29648127D02*
X31403468Y-29619555D01*
X31403468Y-29619555D02*
X31412991Y-29600508D01*
X31412991Y-29600508D02*
X31432039Y-29571936D01*
X31432039Y-29571936D02*
X31441563Y-29562412D01*
X31508229Y-29610031D02*
X31517753Y-29600508D01*
X31517753Y-29600508D02*
X31536801Y-29590984D01*
X31536801Y-29590984D02*
X31584420Y-29590984D01*
X31584420Y-29590984D02*
X31603468Y-29600508D01*
X31603468Y-29600508D02*
X31612991Y-29610031D01*
X31612991Y-29610031D02*
X31622515Y-29629079D01*
X31622515Y-29629079D02*
X31622515Y-29648127D01*
X31622515Y-29648127D02*
X31612991Y-29676698D01*
X31612991Y-29676698D02*
X31498706Y-29790984D01*
X31498706Y-29790984D02*
X31622515Y-29790984D01*
X31860610Y-29790984D02*
X31860610Y-29590984D01*
X31946325Y-29790984D02*
X31946325Y-29686222D01*
X31946325Y-29686222D02*
X31936801Y-29667174D01*
X31936801Y-29667174D02*
X31917753Y-29657650D01*
X31917753Y-29657650D02*
X31889182Y-29657650D01*
X31889182Y-29657650D02*
X31870134Y-29667174D01*
X31870134Y-29667174D02*
X31860610Y-29676698D01*
X32070134Y-29790984D02*
X32051087Y-29781460D01*
X32051087Y-29781460D02*
X32041563Y-29771936D01*
X32041563Y-29771936D02*
X32032039Y-29752888D01*
X32032039Y-29752888D02*
X32032039Y-29695746D01*
X32032039Y-29695746D02*
X32041563Y-29676698D01*
X32041563Y-29676698D02*
X32051087Y-29667174D01*
X32051087Y-29667174D02*
X32070134Y-29657650D01*
X32070134Y-29657650D02*
X32098706Y-29657650D01*
X32098706Y-29657650D02*
X32117753Y-29667174D01*
X32117753Y-29667174D02*
X32127277Y-29676698D01*
X32127277Y-29676698D02*
X32136801Y-29695746D01*
X32136801Y-29695746D02*
X32136801Y-29752888D01*
X32136801Y-29752888D02*
X32127277Y-29771936D01*
X32127277Y-29771936D02*
X32117753Y-29781460D01*
X32117753Y-29781460D02*
X32098706Y-29790984D01*
X32098706Y-29790984D02*
X32070134Y-29790984D01*
X32251087Y-29790984D02*
X32232039Y-29781460D01*
X32232039Y-29781460D02*
X32222515Y-29762412D01*
X32222515Y-29762412D02*
X32222515Y-29590984D01*
X32403468Y-29781460D02*
X32384420Y-29790984D01*
X32384420Y-29790984D02*
X32346325Y-29790984D01*
X32346325Y-29790984D02*
X32327277Y-29781460D01*
X32327277Y-29781460D02*
X32317753Y-29762412D01*
X32317753Y-29762412D02*
X32317753Y-29686222D01*
X32317753Y-29686222D02*
X32327277Y-29667174D01*
X32327277Y-29667174D02*
X32346325Y-29657650D01*
X32346325Y-29657650D02*
X32384420Y-29657650D01*
X32384420Y-29657650D02*
X32403468Y-29667174D01*
X32403468Y-29667174D02*
X32412991Y-29686222D01*
X32412991Y-29686222D02*
X32412991Y-29705269D01*
X32412991Y-29705269D02*
X32317753Y-29724317D01*
X32489182Y-29781460D02*
X32508230Y-29790984D01*
X32508230Y-29790984D02*
X32546325Y-29790984D01*
X32546325Y-29790984D02*
X32565372Y-29781460D01*
X32565372Y-29781460D02*
X32574896Y-29762412D01*
X32574896Y-29762412D02*
X32574896Y-29752888D01*
X32574896Y-29752888D02*
X32565372Y-29733841D01*
X32565372Y-29733841D02*
X32546325Y-29724317D01*
X32546325Y-29724317D02*
X32517753Y-29724317D01*
X32517753Y-29724317D02*
X32498706Y-29714793D01*
X32498706Y-29714793D02*
X32489182Y-29695746D01*
X32489182Y-29695746D02*
X32489182Y-29686222D01*
X32489182Y-29686222D02*
X32498706Y-29667174D01*
X32498706Y-29667174D02*
X32517753Y-29657650D01*
X32517753Y-29657650D02*
X32546325Y-29657650D01*
X32546325Y-29657650D02*
X32565372Y-29667174D01*
X32641563Y-29867174D02*
X32651087Y-29857650D01*
X32651087Y-29857650D02*
X32670134Y-29829079D01*
X32670134Y-29829079D02*
X32679658Y-29810031D01*
X32679658Y-29810031D02*
X32689182Y-29781460D01*
X32689182Y-29781460D02*
X32698706Y-29733841D01*
X32698706Y-29733841D02*
X32698706Y-29695746D01*
X32698706Y-29695746D02*
X32689182Y-29648127D01*
X32689182Y-29648127D02*
X32679658Y-29619555D01*
X32679658Y-29619555D02*
X32670134Y-29600508D01*
X32670134Y-29600508D02*
X32651087Y-29571936D01*
X32651087Y-29571936D02*
X32641563Y-29562412D01*
D12*
X27771500Y-30058500D02*
X27866500Y-29963500D01*
X27771500Y-29868500D01*
X27676500Y-29963500D01*
X27771500Y-30058500D01*
D10*
X28232039Y-30054984D02*
X28117753Y-30054984D01*
X28174896Y-30054984D02*
X28174896Y-29854984D01*
X28174896Y-29854984D02*
X28155848Y-29883555D01*
X28155848Y-29883555D02*
X28136801Y-29902603D01*
X28136801Y-29902603D02*
X28117753Y-29912127D01*
X28317753Y-30035936D02*
X28327277Y-30045460D01*
X28327277Y-30045460D02*
X28317753Y-30054984D01*
X28317753Y-30054984D02*
X28308229Y-30045460D01*
X28308229Y-30045460D02*
X28317753Y-30035936D01*
X28317753Y-30035936D02*
X28317753Y-30054984D01*
X28422515Y-30054984D02*
X28460610Y-30054984D01*
X28460610Y-30054984D02*
X28479658Y-30045460D01*
X28479658Y-30045460D02*
X28489182Y-30035936D01*
X28489182Y-30035936D02*
X28508229Y-30007365D01*
X28508229Y-30007365D02*
X28517753Y-29969269D01*
X28517753Y-29969269D02*
X28517753Y-29893079D01*
X28517753Y-29893079D02*
X28508229Y-29874031D01*
X28508229Y-29874031D02*
X28498705Y-29864508D01*
X28498705Y-29864508D02*
X28479658Y-29854984D01*
X28479658Y-29854984D02*
X28441562Y-29854984D01*
X28441562Y-29854984D02*
X28422515Y-29864508D01*
X28422515Y-29864508D02*
X28412991Y-29874031D01*
X28412991Y-29874031D02*
X28403467Y-29893079D01*
X28403467Y-29893079D02*
X28403467Y-29940698D01*
X28403467Y-29940698D02*
X28412991Y-29959746D01*
X28412991Y-29959746D02*
X28422515Y-29969269D01*
X28422515Y-29969269D02*
X28441562Y-29978793D01*
X28441562Y-29978793D02*
X28479658Y-29978793D01*
X28479658Y-29978793D02*
X28498705Y-29969269D01*
X28498705Y-29969269D02*
X28508229Y-29959746D01*
X28508229Y-29959746D02*
X28517753Y-29940698D01*
X28641562Y-29854984D02*
X28660610Y-29854984D01*
X28660610Y-29854984D02*
X28679658Y-29864508D01*
X28679658Y-29864508D02*
X28689182Y-29874031D01*
X28689182Y-29874031D02*
X28698705Y-29893079D01*
X28698705Y-29893079D02*
X28708229Y-29931174D01*
X28708229Y-29931174D02*
X28708229Y-29978793D01*
X28708229Y-29978793D02*
X28698705Y-30016888D01*
X28698705Y-30016888D02*
X28689182Y-30035936D01*
X28689182Y-30035936D02*
X28679658Y-30045460D01*
X28679658Y-30045460D02*
X28660610Y-30054984D01*
X28660610Y-30054984D02*
X28641562Y-30054984D01*
X28641562Y-30054984D02*
X28622515Y-30045460D01*
X28622515Y-30045460D02*
X28612991Y-30035936D01*
X28612991Y-30035936D02*
X28603467Y-30016888D01*
X28603467Y-30016888D02*
X28593943Y-29978793D01*
X28593943Y-29978793D02*
X28593943Y-29931174D01*
X28593943Y-29931174D02*
X28603467Y-29893079D01*
X28603467Y-29893079D02*
X28612991Y-29874031D01*
X28612991Y-29874031D02*
X28622515Y-29864508D01*
X28622515Y-29864508D02*
X28641562Y-29854984D01*
X28832039Y-29854984D02*
X28851086Y-29854984D01*
X28851086Y-29854984D02*
X28870134Y-29864508D01*
X28870134Y-29864508D02*
X28879658Y-29874031D01*
X28879658Y-29874031D02*
X28889182Y-29893079D01*
X28889182Y-29893079D02*
X28898705Y-29931174D01*
X28898705Y-29931174D02*
X28898705Y-29978793D01*
X28898705Y-29978793D02*
X28889182Y-30016888D01*
X28889182Y-30016888D02*
X28879658Y-30035936D01*
X28879658Y-30035936D02*
X28870134Y-30045460D01*
X28870134Y-30045460D02*
X28851086Y-30054984D01*
X28851086Y-30054984D02*
X28832039Y-30054984D01*
X28832039Y-30054984D02*
X28812991Y-30045460D01*
X28812991Y-30045460D02*
X28803467Y-30035936D01*
X28803467Y-30035936D02*
X28793943Y-30016888D01*
X28793943Y-30016888D02*
X28784420Y-29978793D01*
X28784420Y-29978793D02*
X28784420Y-29931174D01*
X28784420Y-29931174D02*
X28793943Y-29893079D01*
X28793943Y-29893079D02*
X28803467Y-29874031D01*
X28803467Y-29874031D02*
X28812991Y-29864508D01*
X28812991Y-29864508D02*
X28832039Y-29854984D01*
X28984420Y-30054984D02*
X28984420Y-29921650D01*
X28984420Y-29940698D02*
X28993943Y-29931174D01*
X28993943Y-29931174D02*
X29012991Y-29921650D01*
X29012991Y-29921650D02*
X29041563Y-29921650D01*
X29041563Y-29921650D02*
X29060610Y-29931174D01*
X29060610Y-29931174D02*
X29070134Y-29950222D01*
X29070134Y-29950222D02*
X29070134Y-30054984D01*
X29070134Y-29950222D02*
X29079658Y-29931174D01*
X29079658Y-29931174D02*
X29098705Y-29921650D01*
X29098705Y-29921650D02*
X29127277Y-29921650D01*
X29127277Y-29921650D02*
X29146324Y-29931174D01*
X29146324Y-29931174D02*
X29155848Y-29950222D01*
X29155848Y-29950222D02*
X29155848Y-30054984D01*
X29251086Y-30054984D02*
X29251086Y-29921650D01*
X29251086Y-29940698D02*
X29260610Y-29931174D01*
X29260610Y-29931174D02*
X29279658Y-29921650D01*
X29279658Y-29921650D02*
X29308229Y-29921650D01*
X29308229Y-29921650D02*
X29327277Y-29931174D01*
X29327277Y-29931174D02*
X29336801Y-29950222D01*
X29336801Y-29950222D02*
X29336801Y-30054984D01*
X29336801Y-29950222D02*
X29346324Y-29931174D01*
X29346324Y-29931174D02*
X29365372Y-29921650D01*
X29365372Y-29921650D02*
X29393943Y-29921650D01*
X29393943Y-29921650D02*
X29412991Y-29931174D01*
X29412991Y-29931174D02*
X29422515Y-29950222D01*
X29422515Y-29950222D02*
X29422515Y-30054984D01*
X29812991Y-29845460D02*
X29641563Y-30102603D01*
X30070134Y-29854984D02*
X30089182Y-29854984D01*
X30089182Y-29854984D02*
X30108229Y-29864508D01*
X30108229Y-29864508D02*
X30117753Y-29874031D01*
X30117753Y-29874031D02*
X30127277Y-29893079D01*
X30127277Y-29893079D02*
X30136801Y-29931174D01*
X30136801Y-29931174D02*
X30136801Y-29978793D01*
X30136801Y-29978793D02*
X30127277Y-30016888D01*
X30127277Y-30016888D02*
X30117753Y-30035936D01*
X30117753Y-30035936D02*
X30108229Y-30045460D01*
X30108229Y-30045460D02*
X30089182Y-30054984D01*
X30089182Y-30054984D02*
X30070134Y-30054984D01*
X30070134Y-30054984D02*
X30051086Y-30045460D01*
X30051086Y-30045460D02*
X30041563Y-30035936D01*
X30041563Y-30035936D02*
X30032039Y-30016888D01*
X30032039Y-30016888D02*
X30022515Y-29978793D01*
X30022515Y-29978793D02*
X30022515Y-29931174D01*
X30022515Y-29931174D02*
X30032039Y-29893079D01*
X30032039Y-29893079D02*
X30041563Y-29874031D01*
X30041563Y-29874031D02*
X30051086Y-29864508D01*
X30051086Y-29864508D02*
X30070134Y-29854984D01*
X30222515Y-30035936D02*
X30232039Y-30045460D01*
X30232039Y-30045460D02*
X30222515Y-30054984D01*
X30222515Y-30054984D02*
X30212991Y-30045460D01*
X30212991Y-30045460D02*
X30222515Y-30035936D01*
X30222515Y-30035936D02*
X30222515Y-30054984D01*
X30355848Y-29854984D02*
X30374896Y-29854984D01*
X30374896Y-29854984D02*
X30393944Y-29864508D01*
X30393944Y-29864508D02*
X30403467Y-29874031D01*
X30403467Y-29874031D02*
X30412991Y-29893079D01*
X30412991Y-29893079D02*
X30422515Y-29931174D01*
X30422515Y-29931174D02*
X30422515Y-29978793D01*
X30422515Y-29978793D02*
X30412991Y-30016888D01*
X30412991Y-30016888D02*
X30403467Y-30035936D01*
X30403467Y-30035936D02*
X30393944Y-30045460D01*
X30393944Y-30045460D02*
X30374896Y-30054984D01*
X30374896Y-30054984D02*
X30355848Y-30054984D01*
X30355848Y-30054984D02*
X30336801Y-30045460D01*
X30336801Y-30045460D02*
X30327277Y-30035936D01*
X30327277Y-30035936D02*
X30317753Y-30016888D01*
X30317753Y-30016888D02*
X30308229Y-29978793D01*
X30308229Y-29978793D02*
X30308229Y-29931174D01*
X30308229Y-29931174D02*
X30317753Y-29893079D01*
X30317753Y-29893079D02*
X30327277Y-29874031D01*
X30327277Y-29874031D02*
X30336801Y-29864508D01*
X30336801Y-29864508D02*
X30355848Y-29854984D01*
X30489182Y-29854984D02*
X30622515Y-29854984D01*
X30622515Y-29854984D02*
X30536801Y-30054984D01*
X30784420Y-29921650D02*
X30784420Y-30054984D01*
X30736801Y-29845460D02*
X30689182Y-29988317D01*
X30689182Y-29988317D02*
X30812991Y-29988317D01*
X30917753Y-29940698D02*
X30898706Y-29931174D01*
X30898706Y-29931174D02*
X30889182Y-29921650D01*
X30889182Y-29921650D02*
X30879658Y-29902603D01*
X30879658Y-29902603D02*
X30879658Y-29893079D01*
X30879658Y-29893079D02*
X30889182Y-29874031D01*
X30889182Y-29874031D02*
X30898706Y-29864508D01*
X30898706Y-29864508D02*
X30917753Y-29854984D01*
X30917753Y-29854984D02*
X30955848Y-29854984D01*
X30955848Y-29854984D02*
X30974896Y-29864508D01*
X30974896Y-29864508D02*
X30984420Y-29874031D01*
X30984420Y-29874031D02*
X30993944Y-29893079D01*
X30993944Y-29893079D02*
X30993944Y-29902603D01*
X30993944Y-29902603D02*
X30984420Y-29921650D01*
X30984420Y-29921650D02*
X30974896Y-29931174D01*
X30974896Y-29931174D02*
X30955848Y-29940698D01*
X30955848Y-29940698D02*
X30917753Y-29940698D01*
X30917753Y-29940698D02*
X30898706Y-29950222D01*
X30898706Y-29950222D02*
X30889182Y-29959746D01*
X30889182Y-29959746D02*
X30879658Y-29978793D01*
X30879658Y-29978793D02*
X30879658Y-30016888D01*
X30879658Y-30016888D02*
X30889182Y-30035936D01*
X30889182Y-30035936D02*
X30898706Y-30045460D01*
X30898706Y-30045460D02*
X30917753Y-30054984D01*
X30917753Y-30054984D02*
X30955848Y-30054984D01*
X30955848Y-30054984D02*
X30974896Y-30045460D01*
X30974896Y-30045460D02*
X30984420Y-30035936D01*
X30984420Y-30035936D02*
X30993944Y-30016888D01*
X30993944Y-30016888D02*
X30993944Y-29978793D01*
X30993944Y-29978793D02*
X30984420Y-29959746D01*
X30984420Y-29959746D02*
X30974896Y-29950222D01*
X30974896Y-29950222D02*
X30955848Y-29940698D01*
X31070134Y-29854984D02*
X31070134Y-29893079D01*
X31146325Y-29854984D02*
X31146325Y-29893079D01*
X31441563Y-30131174D02*
X31432039Y-30121650D01*
X31432039Y-30121650D02*
X31412991Y-30093079D01*
X31412991Y-30093079D02*
X31403468Y-30074031D01*
X31403468Y-30074031D02*
X31393944Y-30045460D01*
X31393944Y-30045460D02*
X31384420Y-29997841D01*
X31384420Y-29997841D02*
X31384420Y-29959746D01*
X31384420Y-29959746D02*
X31393944Y-29912127D01*
X31393944Y-29912127D02*
X31403468Y-29883555D01*
X31403468Y-29883555D02*
X31412991Y-29864508D01*
X31412991Y-29864508D02*
X31432039Y-29835936D01*
X31432039Y-29835936D02*
X31441563Y-29826412D01*
X31498706Y-29854984D02*
X31622515Y-29854984D01*
X31622515Y-29854984D02*
X31555848Y-29931174D01*
X31555848Y-29931174D02*
X31584420Y-29931174D01*
X31584420Y-29931174D02*
X31603468Y-29940698D01*
X31603468Y-29940698D02*
X31612991Y-29950222D01*
X31612991Y-29950222D02*
X31622515Y-29969269D01*
X31622515Y-29969269D02*
X31622515Y-30016888D01*
X31622515Y-30016888D02*
X31612991Y-30035936D01*
X31612991Y-30035936D02*
X31603468Y-30045460D01*
X31603468Y-30045460D02*
X31584420Y-30054984D01*
X31584420Y-30054984D02*
X31527277Y-30054984D01*
X31527277Y-30054984D02*
X31508229Y-30045460D01*
X31508229Y-30045460D02*
X31498706Y-30035936D01*
X31860610Y-30054984D02*
X31860610Y-29854984D01*
X31946325Y-30054984D02*
X31946325Y-29950222D01*
X31946325Y-29950222D02*
X31936801Y-29931174D01*
X31936801Y-29931174D02*
X31917753Y-29921650D01*
X31917753Y-29921650D02*
X31889182Y-29921650D01*
X31889182Y-29921650D02*
X31870134Y-29931174D01*
X31870134Y-29931174D02*
X31860610Y-29940698D01*
X32070134Y-30054984D02*
X32051087Y-30045460D01*
X32051087Y-30045460D02*
X32041563Y-30035936D01*
X32041563Y-30035936D02*
X32032039Y-30016888D01*
X32032039Y-30016888D02*
X32032039Y-29959746D01*
X32032039Y-29959746D02*
X32041563Y-29940698D01*
X32041563Y-29940698D02*
X32051087Y-29931174D01*
X32051087Y-29931174D02*
X32070134Y-29921650D01*
X32070134Y-29921650D02*
X32098706Y-29921650D01*
X32098706Y-29921650D02*
X32117753Y-29931174D01*
X32117753Y-29931174D02*
X32127277Y-29940698D01*
X32127277Y-29940698D02*
X32136801Y-29959746D01*
X32136801Y-29959746D02*
X32136801Y-30016888D01*
X32136801Y-30016888D02*
X32127277Y-30035936D01*
X32127277Y-30035936D02*
X32117753Y-30045460D01*
X32117753Y-30045460D02*
X32098706Y-30054984D01*
X32098706Y-30054984D02*
X32070134Y-30054984D01*
X32251087Y-30054984D02*
X32232039Y-30045460D01*
X32232039Y-30045460D02*
X32222515Y-30026412D01*
X32222515Y-30026412D02*
X32222515Y-29854984D01*
X32403468Y-30045460D02*
X32384420Y-30054984D01*
X32384420Y-30054984D02*
X32346325Y-30054984D01*
X32346325Y-30054984D02*
X32327277Y-30045460D01*
X32327277Y-30045460D02*
X32317753Y-30026412D01*
X32317753Y-30026412D02*
X32317753Y-29950222D01*
X32317753Y-29950222D02*
X32327277Y-29931174D01*
X32327277Y-29931174D02*
X32346325Y-29921650D01*
X32346325Y-29921650D02*
X32384420Y-29921650D01*
X32384420Y-29921650D02*
X32403468Y-29931174D01*
X32403468Y-29931174D02*
X32412991Y-29950222D01*
X32412991Y-29950222D02*
X32412991Y-29969269D01*
X32412991Y-29969269D02*
X32317753Y-29988317D01*
X32489182Y-30045460D02*
X32508230Y-30054984D01*
X32508230Y-30054984D02*
X32546325Y-30054984D01*
X32546325Y-30054984D02*
X32565372Y-30045460D01*
X32565372Y-30045460D02*
X32574896Y-30026412D01*
X32574896Y-30026412D02*
X32574896Y-30016888D01*
X32574896Y-30016888D02*
X32565372Y-29997841D01*
X32565372Y-29997841D02*
X32546325Y-29988317D01*
X32546325Y-29988317D02*
X32517753Y-29988317D01*
X32517753Y-29988317D02*
X32498706Y-29978793D01*
X32498706Y-29978793D02*
X32489182Y-29959746D01*
X32489182Y-29959746D02*
X32489182Y-29950222D01*
X32489182Y-29950222D02*
X32498706Y-29931174D01*
X32498706Y-29931174D02*
X32517753Y-29921650D01*
X32517753Y-29921650D02*
X32546325Y-29921650D01*
X32546325Y-29921650D02*
X32565372Y-29931174D01*
X32641563Y-30131174D02*
X32651087Y-30121650D01*
X32651087Y-30121650D02*
X32670134Y-30093079D01*
X32670134Y-30093079D02*
X32679658Y-30074031D01*
X32679658Y-30074031D02*
X32689182Y-30045460D01*
X32689182Y-30045460D02*
X32698706Y-29997841D01*
X32698706Y-29997841D02*
X32698706Y-29959746D01*
X32698706Y-29959746D02*
X32689182Y-29912127D01*
X32689182Y-29912127D02*
X32679658Y-29883555D01*
X32679658Y-29883555D02*
X32670134Y-29864508D01*
X32670134Y-29864508D02*
X32651087Y-29835936D01*
X32651087Y-29835936D02*
X32641563Y-29826412D01*
X27666500Y-30173500D02*
X27866500Y-30373500D01*
X27866500Y-30173500D02*
X27666500Y-30373500D01*
X27866500Y-30273500D02*
G75*
G02*
X27666500Y-30273500I-100000J0D01*
G01*
X27666500Y-30273500D02*
G75*
G02*
X27866500Y-30273500I100000J0D01*
G01*
X28108229Y-30164984D02*
X28232039Y-30164984D01*
X28232039Y-30164984D02*
X28165372Y-30241174D01*
X28165372Y-30241174D02*
X28193943Y-30241174D01*
X28193943Y-30241174D02*
X28212991Y-30250698D01*
X28212991Y-30250698D02*
X28222515Y-30260222D01*
X28222515Y-30260222D02*
X28232039Y-30279269D01*
X28232039Y-30279269D02*
X28232039Y-30326888D01*
X28232039Y-30326888D02*
X28222515Y-30345936D01*
X28222515Y-30345936D02*
X28212991Y-30355460D01*
X28212991Y-30355460D02*
X28193943Y-30364984D01*
X28193943Y-30364984D02*
X28136801Y-30364984D01*
X28136801Y-30364984D02*
X28117753Y-30355460D01*
X28117753Y-30355460D02*
X28108229Y-30345936D01*
X28317753Y-30345936D02*
X28327277Y-30355460D01*
X28327277Y-30355460D02*
X28317753Y-30364984D01*
X28317753Y-30364984D02*
X28308229Y-30355460D01*
X28308229Y-30355460D02*
X28317753Y-30345936D01*
X28317753Y-30345936D02*
X28317753Y-30364984D01*
X28441562Y-30250698D02*
X28422515Y-30241174D01*
X28422515Y-30241174D02*
X28412991Y-30231650D01*
X28412991Y-30231650D02*
X28403467Y-30212603D01*
X28403467Y-30212603D02*
X28403467Y-30203079D01*
X28403467Y-30203079D02*
X28412991Y-30184031D01*
X28412991Y-30184031D02*
X28422515Y-30174508D01*
X28422515Y-30174508D02*
X28441562Y-30164984D01*
X28441562Y-30164984D02*
X28479658Y-30164984D01*
X28479658Y-30164984D02*
X28498705Y-30174508D01*
X28498705Y-30174508D02*
X28508229Y-30184031D01*
X28508229Y-30184031D02*
X28517753Y-30203079D01*
X28517753Y-30203079D02*
X28517753Y-30212603D01*
X28517753Y-30212603D02*
X28508229Y-30231650D01*
X28508229Y-30231650D02*
X28498705Y-30241174D01*
X28498705Y-30241174D02*
X28479658Y-30250698D01*
X28479658Y-30250698D02*
X28441562Y-30250698D01*
X28441562Y-30250698D02*
X28422515Y-30260222D01*
X28422515Y-30260222D02*
X28412991Y-30269746D01*
X28412991Y-30269746D02*
X28403467Y-30288793D01*
X28403467Y-30288793D02*
X28403467Y-30326888D01*
X28403467Y-30326888D02*
X28412991Y-30345936D01*
X28412991Y-30345936D02*
X28422515Y-30355460D01*
X28422515Y-30355460D02*
X28441562Y-30364984D01*
X28441562Y-30364984D02*
X28479658Y-30364984D01*
X28479658Y-30364984D02*
X28498705Y-30355460D01*
X28498705Y-30355460D02*
X28508229Y-30345936D01*
X28508229Y-30345936D02*
X28517753Y-30326888D01*
X28517753Y-30326888D02*
X28517753Y-30288793D01*
X28517753Y-30288793D02*
X28508229Y-30269746D01*
X28508229Y-30269746D02*
X28498705Y-30260222D01*
X28498705Y-30260222D02*
X28479658Y-30250698D01*
X28641562Y-30164984D02*
X28660610Y-30164984D01*
X28660610Y-30164984D02*
X28679658Y-30174508D01*
X28679658Y-30174508D02*
X28689182Y-30184031D01*
X28689182Y-30184031D02*
X28698705Y-30203079D01*
X28698705Y-30203079D02*
X28708229Y-30241174D01*
X28708229Y-30241174D02*
X28708229Y-30288793D01*
X28708229Y-30288793D02*
X28698705Y-30326888D01*
X28698705Y-30326888D02*
X28689182Y-30345936D01*
X28689182Y-30345936D02*
X28679658Y-30355460D01*
X28679658Y-30355460D02*
X28660610Y-30364984D01*
X28660610Y-30364984D02*
X28641562Y-30364984D01*
X28641562Y-30364984D02*
X28622515Y-30355460D01*
X28622515Y-30355460D02*
X28612991Y-30345936D01*
X28612991Y-30345936D02*
X28603467Y-30326888D01*
X28603467Y-30326888D02*
X28593943Y-30288793D01*
X28593943Y-30288793D02*
X28593943Y-30241174D01*
X28593943Y-30241174D02*
X28603467Y-30203079D01*
X28603467Y-30203079D02*
X28612991Y-30184031D01*
X28612991Y-30184031D02*
X28622515Y-30174508D01*
X28622515Y-30174508D02*
X28641562Y-30164984D01*
X28832039Y-30164984D02*
X28851086Y-30164984D01*
X28851086Y-30164984D02*
X28870134Y-30174508D01*
X28870134Y-30174508D02*
X28879658Y-30184031D01*
X28879658Y-30184031D02*
X28889182Y-30203079D01*
X28889182Y-30203079D02*
X28898705Y-30241174D01*
X28898705Y-30241174D02*
X28898705Y-30288793D01*
X28898705Y-30288793D02*
X28889182Y-30326888D01*
X28889182Y-30326888D02*
X28879658Y-30345936D01*
X28879658Y-30345936D02*
X28870134Y-30355460D01*
X28870134Y-30355460D02*
X28851086Y-30364984D01*
X28851086Y-30364984D02*
X28832039Y-30364984D01*
X28832039Y-30364984D02*
X28812991Y-30355460D01*
X28812991Y-30355460D02*
X28803467Y-30345936D01*
X28803467Y-30345936D02*
X28793943Y-30326888D01*
X28793943Y-30326888D02*
X28784420Y-30288793D01*
X28784420Y-30288793D02*
X28784420Y-30241174D01*
X28784420Y-30241174D02*
X28793943Y-30203079D01*
X28793943Y-30203079D02*
X28803467Y-30184031D01*
X28803467Y-30184031D02*
X28812991Y-30174508D01*
X28812991Y-30174508D02*
X28832039Y-30164984D01*
X28984420Y-30364984D02*
X28984420Y-30231650D01*
X28984420Y-30250698D02*
X28993943Y-30241174D01*
X28993943Y-30241174D02*
X29012991Y-30231650D01*
X29012991Y-30231650D02*
X29041563Y-30231650D01*
X29041563Y-30231650D02*
X29060610Y-30241174D01*
X29060610Y-30241174D02*
X29070134Y-30260222D01*
X29070134Y-30260222D02*
X29070134Y-30364984D01*
X29070134Y-30260222D02*
X29079658Y-30241174D01*
X29079658Y-30241174D02*
X29098705Y-30231650D01*
X29098705Y-30231650D02*
X29127277Y-30231650D01*
X29127277Y-30231650D02*
X29146324Y-30241174D01*
X29146324Y-30241174D02*
X29155848Y-30260222D01*
X29155848Y-30260222D02*
X29155848Y-30364984D01*
X29251086Y-30364984D02*
X29251086Y-30231650D01*
X29251086Y-30250698D02*
X29260610Y-30241174D01*
X29260610Y-30241174D02*
X29279658Y-30231650D01*
X29279658Y-30231650D02*
X29308229Y-30231650D01*
X29308229Y-30231650D02*
X29327277Y-30241174D01*
X29327277Y-30241174D02*
X29336801Y-30260222D01*
X29336801Y-30260222D02*
X29336801Y-30364984D01*
X29336801Y-30260222D02*
X29346324Y-30241174D01*
X29346324Y-30241174D02*
X29365372Y-30231650D01*
X29365372Y-30231650D02*
X29393943Y-30231650D01*
X29393943Y-30231650D02*
X29412991Y-30241174D01*
X29412991Y-30241174D02*
X29422515Y-30260222D01*
X29422515Y-30260222D02*
X29422515Y-30364984D01*
X29812991Y-30155460D02*
X29641563Y-30412603D01*
X30070134Y-30164984D02*
X30089182Y-30164984D01*
X30089182Y-30164984D02*
X30108229Y-30174508D01*
X30108229Y-30174508D02*
X30117753Y-30184031D01*
X30117753Y-30184031D02*
X30127277Y-30203079D01*
X30127277Y-30203079D02*
X30136801Y-30241174D01*
X30136801Y-30241174D02*
X30136801Y-30288793D01*
X30136801Y-30288793D02*
X30127277Y-30326888D01*
X30127277Y-30326888D02*
X30117753Y-30345936D01*
X30117753Y-30345936D02*
X30108229Y-30355460D01*
X30108229Y-30355460D02*
X30089182Y-30364984D01*
X30089182Y-30364984D02*
X30070134Y-30364984D01*
X30070134Y-30364984D02*
X30051086Y-30355460D01*
X30051086Y-30355460D02*
X30041563Y-30345936D01*
X30041563Y-30345936D02*
X30032039Y-30326888D01*
X30032039Y-30326888D02*
X30022515Y-30288793D01*
X30022515Y-30288793D02*
X30022515Y-30241174D01*
X30022515Y-30241174D02*
X30032039Y-30203079D01*
X30032039Y-30203079D02*
X30041563Y-30184031D01*
X30041563Y-30184031D02*
X30051086Y-30174508D01*
X30051086Y-30174508D02*
X30070134Y-30164984D01*
X30222515Y-30345936D02*
X30232039Y-30355460D01*
X30232039Y-30355460D02*
X30222515Y-30364984D01*
X30222515Y-30364984D02*
X30212991Y-30355460D01*
X30212991Y-30355460D02*
X30222515Y-30345936D01*
X30222515Y-30345936D02*
X30222515Y-30364984D01*
X30422515Y-30364984D02*
X30308229Y-30364984D01*
X30365372Y-30364984D02*
X30365372Y-30164984D01*
X30365372Y-30164984D02*
X30346325Y-30193555D01*
X30346325Y-30193555D02*
X30327277Y-30212603D01*
X30327277Y-30212603D02*
X30308229Y-30222127D01*
X30593944Y-30231650D02*
X30593944Y-30364984D01*
X30546325Y-30155460D02*
X30498706Y-30298317D01*
X30498706Y-30298317D02*
X30622515Y-30298317D01*
X30708229Y-30364984D02*
X30746325Y-30364984D01*
X30746325Y-30364984D02*
X30765372Y-30355460D01*
X30765372Y-30355460D02*
X30774896Y-30345936D01*
X30774896Y-30345936D02*
X30793944Y-30317365D01*
X30793944Y-30317365D02*
X30803467Y-30279269D01*
X30803467Y-30279269D02*
X30803467Y-30203079D01*
X30803467Y-30203079D02*
X30793944Y-30184031D01*
X30793944Y-30184031D02*
X30784420Y-30174508D01*
X30784420Y-30174508D02*
X30765372Y-30164984D01*
X30765372Y-30164984D02*
X30727277Y-30164984D01*
X30727277Y-30164984D02*
X30708229Y-30174508D01*
X30708229Y-30174508D02*
X30698706Y-30184031D01*
X30698706Y-30184031D02*
X30689182Y-30203079D01*
X30689182Y-30203079D02*
X30689182Y-30250698D01*
X30689182Y-30250698D02*
X30698706Y-30269746D01*
X30698706Y-30269746D02*
X30708229Y-30279269D01*
X30708229Y-30279269D02*
X30727277Y-30288793D01*
X30727277Y-30288793D02*
X30765372Y-30288793D01*
X30765372Y-30288793D02*
X30784420Y-30279269D01*
X30784420Y-30279269D02*
X30793944Y-30269746D01*
X30793944Y-30269746D02*
X30803467Y-30250698D01*
X30974896Y-30164984D02*
X30936801Y-30164984D01*
X30936801Y-30164984D02*
X30917753Y-30174508D01*
X30917753Y-30174508D02*
X30908229Y-30184031D01*
X30908229Y-30184031D02*
X30889182Y-30212603D01*
X30889182Y-30212603D02*
X30879658Y-30250698D01*
X30879658Y-30250698D02*
X30879658Y-30326888D01*
X30879658Y-30326888D02*
X30889182Y-30345936D01*
X30889182Y-30345936D02*
X30898706Y-30355460D01*
X30898706Y-30355460D02*
X30917753Y-30364984D01*
X30917753Y-30364984D02*
X30955848Y-30364984D01*
X30955848Y-30364984D02*
X30974896Y-30355460D01*
X30974896Y-30355460D02*
X30984420Y-30345936D01*
X30984420Y-30345936D02*
X30993944Y-30326888D01*
X30993944Y-30326888D02*
X30993944Y-30279269D01*
X30993944Y-30279269D02*
X30984420Y-30260222D01*
X30984420Y-30260222D02*
X30974896Y-30250698D01*
X30974896Y-30250698D02*
X30955848Y-30241174D01*
X30955848Y-30241174D02*
X30917753Y-30241174D01*
X30917753Y-30241174D02*
X30898706Y-30250698D01*
X30898706Y-30250698D02*
X30889182Y-30260222D01*
X30889182Y-30260222D02*
X30879658Y-30279269D01*
X31070134Y-30164984D02*
X31070134Y-30203079D01*
X31146325Y-30164984D02*
X31146325Y-30203079D01*
X31441563Y-30441174D02*
X31432039Y-30431650D01*
X31432039Y-30431650D02*
X31412991Y-30403079D01*
X31412991Y-30403079D02*
X31403468Y-30384031D01*
X31403468Y-30384031D02*
X31393944Y-30355460D01*
X31393944Y-30355460D02*
X31384420Y-30307841D01*
X31384420Y-30307841D02*
X31384420Y-30269746D01*
X31384420Y-30269746D02*
X31393944Y-30222127D01*
X31393944Y-30222127D02*
X31403468Y-30193555D01*
X31403468Y-30193555D02*
X31412991Y-30174508D01*
X31412991Y-30174508D02*
X31432039Y-30145936D01*
X31432039Y-30145936D02*
X31441563Y-30136412D01*
X31603468Y-30164984D02*
X31565372Y-30164984D01*
X31565372Y-30164984D02*
X31546325Y-30174508D01*
X31546325Y-30174508D02*
X31536801Y-30184031D01*
X31536801Y-30184031D02*
X31517753Y-30212603D01*
X31517753Y-30212603D02*
X31508229Y-30250698D01*
X31508229Y-30250698D02*
X31508229Y-30326888D01*
X31508229Y-30326888D02*
X31517753Y-30345936D01*
X31517753Y-30345936D02*
X31527277Y-30355460D01*
X31527277Y-30355460D02*
X31546325Y-30364984D01*
X31546325Y-30364984D02*
X31584420Y-30364984D01*
X31584420Y-30364984D02*
X31603468Y-30355460D01*
X31603468Y-30355460D02*
X31612991Y-30345936D01*
X31612991Y-30345936D02*
X31622515Y-30326888D01*
X31622515Y-30326888D02*
X31622515Y-30279269D01*
X31622515Y-30279269D02*
X31612991Y-30260222D01*
X31612991Y-30260222D02*
X31603468Y-30250698D01*
X31603468Y-30250698D02*
X31584420Y-30241174D01*
X31584420Y-30241174D02*
X31546325Y-30241174D01*
X31546325Y-30241174D02*
X31527277Y-30250698D01*
X31527277Y-30250698D02*
X31517753Y-30260222D01*
X31517753Y-30260222D02*
X31508229Y-30279269D01*
X31860610Y-30364984D02*
X31860610Y-30164984D01*
X31946325Y-30364984D02*
X31946325Y-30260222D01*
X31946325Y-30260222D02*
X31936801Y-30241174D01*
X31936801Y-30241174D02*
X31917753Y-30231650D01*
X31917753Y-30231650D02*
X31889182Y-30231650D01*
X31889182Y-30231650D02*
X31870134Y-30241174D01*
X31870134Y-30241174D02*
X31860610Y-30250698D01*
X32070134Y-30364984D02*
X32051087Y-30355460D01*
X32051087Y-30355460D02*
X32041563Y-30345936D01*
X32041563Y-30345936D02*
X32032039Y-30326888D01*
X32032039Y-30326888D02*
X32032039Y-30269746D01*
X32032039Y-30269746D02*
X32041563Y-30250698D01*
X32041563Y-30250698D02*
X32051087Y-30241174D01*
X32051087Y-30241174D02*
X32070134Y-30231650D01*
X32070134Y-30231650D02*
X32098706Y-30231650D01*
X32098706Y-30231650D02*
X32117753Y-30241174D01*
X32117753Y-30241174D02*
X32127277Y-30250698D01*
X32127277Y-30250698D02*
X32136801Y-30269746D01*
X32136801Y-30269746D02*
X32136801Y-30326888D01*
X32136801Y-30326888D02*
X32127277Y-30345936D01*
X32127277Y-30345936D02*
X32117753Y-30355460D01*
X32117753Y-30355460D02*
X32098706Y-30364984D01*
X32098706Y-30364984D02*
X32070134Y-30364984D01*
X32251087Y-30364984D02*
X32232039Y-30355460D01*
X32232039Y-30355460D02*
X32222515Y-30336412D01*
X32222515Y-30336412D02*
X32222515Y-30164984D01*
X32403468Y-30355460D02*
X32384420Y-30364984D01*
X32384420Y-30364984D02*
X32346325Y-30364984D01*
X32346325Y-30364984D02*
X32327277Y-30355460D01*
X32327277Y-30355460D02*
X32317753Y-30336412D01*
X32317753Y-30336412D02*
X32317753Y-30260222D01*
X32317753Y-30260222D02*
X32327277Y-30241174D01*
X32327277Y-30241174D02*
X32346325Y-30231650D01*
X32346325Y-30231650D02*
X32384420Y-30231650D01*
X32384420Y-30231650D02*
X32403468Y-30241174D01*
X32403468Y-30241174D02*
X32412991Y-30260222D01*
X32412991Y-30260222D02*
X32412991Y-30279269D01*
X32412991Y-30279269D02*
X32317753Y-30298317D01*
X32489182Y-30355460D02*
X32508230Y-30364984D01*
X32508230Y-30364984D02*
X32546325Y-30364984D01*
X32546325Y-30364984D02*
X32565372Y-30355460D01*
X32565372Y-30355460D02*
X32574896Y-30336412D01*
X32574896Y-30336412D02*
X32574896Y-30326888D01*
X32574896Y-30326888D02*
X32565372Y-30307841D01*
X32565372Y-30307841D02*
X32546325Y-30298317D01*
X32546325Y-30298317D02*
X32517753Y-30298317D01*
X32517753Y-30298317D02*
X32498706Y-30288793D01*
X32498706Y-30288793D02*
X32489182Y-30269746D01*
X32489182Y-30269746D02*
X32489182Y-30260222D01*
X32489182Y-30260222D02*
X32498706Y-30241174D01*
X32498706Y-30241174D02*
X32517753Y-30231650D01*
X32517753Y-30231650D02*
X32546325Y-30231650D01*
X32546325Y-30231650D02*
X32565372Y-30241174D01*
X32641563Y-30441174D02*
X32651087Y-30431650D01*
X32651087Y-30431650D02*
X32670134Y-30403079D01*
X32670134Y-30403079D02*
X32679658Y-30384031D01*
X32679658Y-30384031D02*
X32689182Y-30355460D01*
X32689182Y-30355460D02*
X32698706Y-30307841D01*
X32698706Y-30307841D02*
X32698706Y-30269746D01*
X32698706Y-30269746D02*
X32689182Y-30222127D01*
X32689182Y-30222127D02*
X32679658Y-30193555D01*
X32679658Y-30193555D02*
X32670134Y-30174508D01*
X32670134Y-30174508D02*
X32651087Y-30145936D01*
X32651087Y-30145936D02*
X32641563Y-30136412D01*
M02*
