%TF.GenerationSoftware,KiCad,Pcbnew,7.0.7*%
%TF.CreationDate,2024-02-29T18:23:33-07:00*%
%TF.ProjectId,Torpedo Circuit board,546f7270-6564-46f2-9043-697263756974,rev?*%
%TF.SameCoordinates,Original*%
%TF.FileFunction,Drillmap*%
%TF.FilePolarity,Positive*%
%FSLAX45Y45*%
G04 Gerber Fmt 4.5, Leading zero omitted, Abs format (unit mm)*
G04 Created by KiCad (PCBNEW 7.0.7) date 2024-02-29 18:23:33*
%MOMM*%
%LPD*%
G01*
G04 APERTURE LIST*
%ADD10C,0.100000*%
%ADD11C,0.200000*%
%ADD12C,0.320000*%
G04 APERTURE END LIST*
D10*
X15350000Y-11210000D02*
G75*
G03*
X15350000Y-11210000I-900000J0D01*
G01*
D11*
D12*
X14290000Y-10910000D02*
X14610000Y-11230000D01*
X14610000Y-10910000D02*
X14290000Y-11230000D01*
D11*
X13805777Y-12426484D02*
X13805777Y-12226484D01*
X13805777Y-12226484D02*
X13853396Y-12226484D01*
X13853396Y-12226484D02*
X13881967Y-12236008D01*
X13881967Y-12236008D02*
X13901015Y-12255055D01*
X13901015Y-12255055D02*
X13910539Y-12274103D01*
X13910539Y-12274103D02*
X13920062Y-12312198D01*
X13920062Y-12312198D02*
X13920062Y-12340769D01*
X13920062Y-12340769D02*
X13910539Y-12378865D01*
X13910539Y-12378865D02*
X13901015Y-12397912D01*
X13901015Y-12397912D02*
X13881967Y-12416960D01*
X13881967Y-12416960D02*
X13853396Y-12426484D01*
X13853396Y-12426484D02*
X13805777Y-12426484D01*
X14005777Y-12426484D02*
X14005777Y-12293150D01*
X14005777Y-12331246D02*
X14015301Y-12312198D01*
X14015301Y-12312198D02*
X14024824Y-12302674D01*
X14024824Y-12302674D02*
X14043872Y-12293150D01*
X14043872Y-12293150D02*
X14062920Y-12293150D01*
X14129586Y-12426484D02*
X14129586Y-12293150D01*
X14129586Y-12226484D02*
X14120062Y-12236008D01*
X14120062Y-12236008D02*
X14129586Y-12245531D01*
X14129586Y-12245531D02*
X14139110Y-12236008D01*
X14139110Y-12236008D02*
X14129586Y-12226484D01*
X14129586Y-12226484D02*
X14129586Y-12245531D01*
X14253396Y-12426484D02*
X14234348Y-12416960D01*
X14234348Y-12416960D02*
X14224824Y-12397912D01*
X14224824Y-12397912D02*
X14224824Y-12226484D01*
X14358158Y-12426484D02*
X14339110Y-12416960D01*
X14339110Y-12416960D02*
X14329586Y-12397912D01*
X14329586Y-12397912D02*
X14329586Y-12226484D01*
X14586729Y-12426484D02*
X14586729Y-12226484D01*
X14586729Y-12226484D02*
X14653396Y-12369341D01*
X14653396Y-12369341D02*
X14720062Y-12226484D01*
X14720062Y-12226484D02*
X14720062Y-12426484D01*
X14901015Y-12426484D02*
X14901015Y-12321722D01*
X14901015Y-12321722D02*
X14891491Y-12302674D01*
X14891491Y-12302674D02*
X14872443Y-12293150D01*
X14872443Y-12293150D02*
X14834348Y-12293150D01*
X14834348Y-12293150D02*
X14815301Y-12302674D01*
X14901015Y-12416960D02*
X14881967Y-12426484D01*
X14881967Y-12426484D02*
X14834348Y-12426484D01*
X14834348Y-12426484D02*
X14815301Y-12416960D01*
X14815301Y-12416960D02*
X14805777Y-12397912D01*
X14805777Y-12397912D02*
X14805777Y-12378865D01*
X14805777Y-12378865D02*
X14815301Y-12359817D01*
X14815301Y-12359817D02*
X14834348Y-12350293D01*
X14834348Y-12350293D02*
X14881967Y-12350293D01*
X14881967Y-12350293D02*
X14901015Y-12340769D01*
X14996253Y-12293150D02*
X14996253Y-12493150D01*
X14996253Y-12302674D02*
X15015301Y-12293150D01*
X15015301Y-12293150D02*
X15053396Y-12293150D01*
X15053396Y-12293150D02*
X15072443Y-12302674D01*
X15072443Y-12302674D02*
X15081967Y-12312198D01*
X15081967Y-12312198D02*
X15091491Y-12331246D01*
X15091491Y-12331246D02*
X15091491Y-12388388D01*
X15091491Y-12388388D02*
X15081967Y-12407436D01*
X15081967Y-12407436D02*
X15072443Y-12416960D01*
X15072443Y-12416960D02*
X15053396Y-12426484D01*
X15053396Y-12426484D02*
X15015301Y-12426484D01*
X15015301Y-12426484D02*
X14996253Y-12416960D01*
X15177205Y-12407436D02*
X15186729Y-12416960D01*
X15186729Y-12416960D02*
X15177205Y-12426484D01*
X15177205Y-12426484D02*
X15167682Y-12416960D01*
X15167682Y-12416960D02*
X15177205Y-12407436D01*
X15177205Y-12407436D02*
X15177205Y-12426484D01*
X15177205Y-12302674D02*
X15186729Y-12312198D01*
X15186729Y-12312198D02*
X15177205Y-12321722D01*
X15177205Y-12321722D02*
X15167682Y-12312198D01*
X15167682Y-12312198D02*
X15177205Y-12302674D01*
X15177205Y-12302674D02*
X15177205Y-12321722D01*
X13345000Y-12655000D02*
X13545000Y-12855000D01*
X13545000Y-12655000D02*
X13345000Y-12855000D01*
X13786729Y-12646484D02*
X13910539Y-12646484D01*
X13910539Y-12646484D02*
X13843872Y-12722674D01*
X13843872Y-12722674D02*
X13872443Y-12722674D01*
X13872443Y-12722674D02*
X13891491Y-12732198D01*
X13891491Y-12732198D02*
X13901015Y-12741722D01*
X13901015Y-12741722D02*
X13910539Y-12760769D01*
X13910539Y-12760769D02*
X13910539Y-12808388D01*
X13910539Y-12808388D02*
X13901015Y-12827436D01*
X13901015Y-12827436D02*
X13891491Y-12836960D01*
X13891491Y-12836960D02*
X13872443Y-12846484D01*
X13872443Y-12846484D02*
X13815301Y-12846484D01*
X13815301Y-12846484D02*
X13796253Y-12836960D01*
X13796253Y-12836960D02*
X13786729Y-12827436D01*
X13996253Y-12827436D02*
X14005777Y-12836960D01*
X14005777Y-12836960D02*
X13996253Y-12846484D01*
X13996253Y-12846484D02*
X13986729Y-12836960D01*
X13986729Y-12836960D02*
X13996253Y-12827436D01*
X13996253Y-12827436D02*
X13996253Y-12846484D01*
X14081967Y-12665531D02*
X14091491Y-12656008D01*
X14091491Y-12656008D02*
X14110539Y-12646484D01*
X14110539Y-12646484D02*
X14158158Y-12646484D01*
X14158158Y-12646484D02*
X14177205Y-12656008D01*
X14177205Y-12656008D02*
X14186729Y-12665531D01*
X14186729Y-12665531D02*
X14196253Y-12684579D01*
X14196253Y-12684579D02*
X14196253Y-12703627D01*
X14196253Y-12703627D02*
X14186729Y-12732198D01*
X14186729Y-12732198D02*
X14072443Y-12846484D01*
X14072443Y-12846484D02*
X14196253Y-12846484D01*
X14320062Y-12646484D02*
X14339110Y-12646484D01*
X14339110Y-12646484D02*
X14358158Y-12656008D01*
X14358158Y-12656008D02*
X14367682Y-12665531D01*
X14367682Y-12665531D02*
X14377205Y-12684579D01*
X14377205Y-12684579D02*
X14386729Y-12722674D01*
X14386729Y-12722674D02*
X14386729Y-12770293D01*
X14386729Y-12770293D02*
X14377205Y-12808388D01*
X14377205Y-12808388D02*
X14367682Y-12827436D01*
X14367682Y-12827436D02*
X14358158Y-12836960D01*
X14358158Y-12836960D02*
X14339110Y-12846484D01*
X14339110Y-12846484D02*
X14320062Y-12846484D01*
X14320062Y-12846484D02*
X14301015Y-12836960D01*
X14301015Y-12836960D02*
X14291491Y-12827436D01*
X14291491Y-12827436D02*
X14281967Y-12808388D01*
X14281967Y-12808388D02*
X14272443Y-12770293D01*
X14272443Y-12770293D02*
X14272443Y-12722674D01*
X14272443Y-12722674D02*
X14281967Y-12684579D01*
X14281967Y-12684579D02*
X14291491Y-12665531D01*
X14291491Y-12665531D02*
X14301015Y-12656008D01*
X14301015Y-12656008D02*
X14320062Y-12646484D01*
X14510539Y-12646484D02*
X14529586Y-12646484D01*
X14529586Y-12646484D02*
X14548634Y-12656008D01*
X14548634Y-12656008D02*
X14558158Y-12665531D01*
X14558158Y-12665531D02*
X14567682Y-12684579D01*
X14567682Y-12684579D02*
X14577205Y-12722674D01*
X14577205Y-12722674D02*
X14577205Y-12770293D01*
X14577205Y-12770293D02*
X14567682Y-12808388D01*
X14567682Y-12808388D02*
X14558158Y-12827436D01*
X14558158Y-12827436D02*
X14548634Y-12836960D01*
X14548634Y-12836960D02*
X14529586Y-12846484D01*
X14529586Y-12846484D02*
X14510539Y-12846484D01*
X14510539Y-12846484D02*
X14491491Y-12836960D01*
X14491491Y-12836960D02*
X14481967Y-12827436D01*
X14481967Y-12827436D02*
X14472443Y-12808388D01*
X14472443Y-12808388D02*
X14462920Y-12770293D01*
X14462920Y-12770293D02*
X14462920Y-12722674D01*
X14462920Y-12722674D02*
X14472443Y-12684579D01*
X14472443Y-12684579D02*
X14481967Y-12665531D01*
X14481967Y-12665531D02*
X14491491Y-12656008D01*
X14491491Y-12656008D02*
X14510539Y-12646484D01*
X14662920Y-12846484D02*
X14662920Y-12713150D01*
X14662920Y-12732198D02*
X14672443Y-12722674D01*
X14672443Y-12722674D02*
X14691491Y-12713150D01*
X14691491Y-12713150D02*
X14720063Y-12713150D01*
X14720063Y-12713150D02*
X14739110Y-12722674D01*
X14739110Y-12722674D02*
X14748634Y-12741722D01*
X14748634Y-12741722D02*
X14748634Y-12846484D01*
X14748634Y-12741722D02*
X14758158Y-12722674D01*
X14758158Y-12722674D02*
X14777205Y-12713150D01*
X14777205Y-12713150D02*
X14805777Y-12713150D01*
X14805777Y-12713150D02*
X14824824Y-12722674D01*
X14824824Y-12722674D02*
X14834348Y-12741722D01*
X14834348Y-12741722D02*
X14834348Y-12846484D01*
X14929586Y-12846484D02*
X14929586Y-12713150D01*
X14929586Y-12732198D02*
X14939110Y-12722674D01*
X14939110Y-12722674D02*
X14958158Y-12713150D01*
X14958158Y-12713150D02*
X14986729Y-12713150D01*
X14986729Y-12713150D02*
X15005777Y-12722674D01*
X15005777Y-12722674D02*
X15015301Y-12741722D01*
X15015301Y-12741722D02*
X15015301Y-12846484D01*
X15015301Y-12741722D02*
X15024824Y-12722674D01*
X15024824Y-12722674D02*
X15043872Y-12713150D01*
X15043872Y-12713150D02*
X15072443Y-12713150D01*
X15072443Y-12713150D02*
X15091491Y-12722674D01*
X15091491Y-12722674D02*
X15101015Y-12741722D01*
X15101015Y-12741722D02*
X15101015Y-12846484D01*
X15491491Y-12636960D02*
X15320063Y-12894103D01*
X15748634Y-12646484D02*
X15767682Y-12646484D01*
X15767682Y-12646484D02*
X15786729Y-12656008D01*
X15786729Y-12656008D02*
X15796253Y-12665531D01*
X15796253Y-12665531D02*
X15805777Y-12684579D01*
X15805777Y-12684579D02*
X15815301Y-12722674D01*
X15815301Y-12722674D02*
X15815301Y-12770293D01*
X15815301Y-12770293D02*
X15805777Y-12808388D01*
X15805777Y-12808388D02*
X15796253Y-12827436D01*
X15796253Y-12827436D02*
X15786729Y-12836960D01*
X15786729Y-12836960D02*
X15767682Y-12846484D01*
X15767682Y-12846484D02*
X15748634Y-12846484D01*
X15748634Y-12846484D02*
X15729586Y-12836960D01*
X15729586Y-12836960D02*
X15720063Y-12827436D01*
X15720063Y-12827436D02*
X15710539Y-12808388D01*
X15710539Y-12808388D02*
X15701015Y-12770293D01*
X15701015Y-12770293D02*
X15701015Y-12722674D01*
X15701015Y-12722674D02*
X15710539Y-12684579D01*
X15710539Y-12684579D02*
X15720063Y-12665531D01*
X15720063Y-12665531D02*
X15729586Y-12656008D01*
X15729586Y-12656008D02*
X15748634Y-12646484D01*
X15901015Y-12827436D02*
X15910539Y-12836960D01*
X15910539Y-12836960D02*
X15901015Y-12846484D01*
X15901015Y-12846484D02*
X15891491Y-12836960D01*
X15891491Y-12836960D02*
X15901015Y-12827436D01*
X15901015Y-12827436D02*
X15901015Y-12846484D01*
X16101015Y-12846484D02*
X15986729Y-12846484D01*
X16043872Y-12846484D02*
X16043872Y-12646484D01*
X16043872Y-12646484D02*
X16024825Y-12675055D01*
X16024825Y-12675055D02*
X16005777Y-12694103D01*
X16005777Y-12694103D02*
X15986729Y-12703627D01*
X16177206Y-12665531D02*
X16186729Y-12656008D01*
X16186729Y-12656008D02*
X16205777Y-12646484D01*
X16205777Y-12646484D02*
X16253396Y-12646484D01*
X16253396Y-12646484D02*
X16272444Y-12656008D01*
X16272444Y-12656008D02*
X16281967Y-12665531D01*
X16281967Y-12665531D02*
X16291491Y-12684579D01*
X16291491Y-12684579D02*
X16291491Y-12703627D01*
X16291491Y-12703627D02*
X16281967Y-12732198D01*
X16281967Y-12732198D02*
X16167682Y-12846484D01*
X16167682Y-12846484D02*
X16291491Y-12846484D01*
X16462920Y-12646484D02*
X16424825Y-12646484D01*
X16424825Y-12646484D02*
X16405777Y-12656008D01*
X16405777Y-12656008D02*
X16396253Y-12665531D01*
X16396253Y-12665531D02*
X16377206Y-12694103D01*
X16377206Y-12694103D02*
X16367682Y-12732198D01*
X16367682Y-12732198D02*
X16367682Y-12808388D01*
X16367682Y-12808388D02*
X16377206Y-12827436D01*
X16377206Y-12827436D02*
X16386729Y-12836960D01*
X16386729Y-12836960D02*
X16405777Y-12846484D01*
X16405777Y-12846484D02*
X16443872Y-12846484D01*
X16443872Y-12846484D02*
X16462920Y-12836960D01*
X16462920Y-12836960D02*
X16472444Y-12827436D01*
X16472444Y-12827436D02*
X16481967Y-12808388D01*
X16481967Y-12808388D02*
X16481967Y-12760769D01*
X16481967Y-12760769D02*
X16472444Y-12741722D01*
X16472444Y-12741722D02*
X16462920Y-12732198D01*
X16462920Y-12732198D02*
X16443872Y-12722674D01*
X16443872Y-12722674D02*
X16405777Y-12722674D01*
X16405777Y-12722674D02*
X16386729Y-12732198D01*
X16386729Y-12732198D02*
X16377206Y-12741722D01*
X16377206Y-12741722D02*
X16367682Y-12760769D01*
X16605777Y-12646484D02*
X16624825Y-12646484D01*
X16624825Y-12646484D02*
X16643872Y-12656008D01*
X16643872Y-12656008D02*
X16653396Y-12665531D01*
X16653396Y-12665531D02*
X16662920Y-12684579D01*
X16662920Y-12684579D02*
X16672444Y-12722674D01*
X16672444Y-12722674D02*
X16672444Y-12770293D01*
X16672444Y-12770293D02*
X16662920Y-12808388D01*
X16662920Y-12808388D02*
X16653396Y-12827436D01*
X16653396Y-12827436D02*
X16643872Y-12836960D01*
X16643872Y-12836960D02*
X16624825Y-12846484D01*
X16624825Y-12846484D02*
X16605777Y-12846484D01*
X16605777Y-12846484D02*
X16586729Y-12836960D01*
X16586729Y-12836960D02*
X16577206Y-12827436D01*
X16577206Y-12827436D02*
X16567682Y-12808388D01*
X16567682Y-12808388D02*
X16558158Y-12770293D01*
X16558158Y-12770293D02*
X16558158Y-12722674D01*
X16558158Y-12722674D02*
X16567682Y-12684579D01*
X16567682Y-12684579D02*
X16577206Y-12665531D01*
X16577206Y-12665531D02*
X16586729Y-12656008D01*
X16586729Y-12656008D02*
X16605777Y-12646484D01*
X16748634Y-12646484D02*
X16748634Y-12684579D01*
X16824825Y-12646484D02*
X16824825Y-12684579D01*
X17120063Y-12922674D02*
X17110539Y-12913150D01*
X17110539Y-12913150D02*
X17091491Y-12884579D01*
X17091491Y-12884579D02*
X17081968Y-12865531D01*
X17081968Y-12865531D02*
X17072444Y-12836960D01*
X17072444Y-12836960D02*
X17062920Y-12789341D01*
X17062920Y-12789341D02*
X17062920Y-12751246D01*
X17062920Y-12751246D02*
X17072444Y-12703627D01*
X17072444Y-12703627D02*
X17081968Y-12675055D01*
X17081968Y-12675055D02*
X17091491Y-12656008D01*
X17091491Y-12656008D02*
X17110539Y-12627436D01*
X17110539Y-12627436D02*
X17120063Y-12617912D01*
X17301015Y-12846484D02*
X17186730Y-12846484D01*
X17243872Y-12846484D02*
X17243872Y-12646484D01*
X17243872Y-12646484D02*
X17224825Y-12675055D01*
X17224825Y-12675055D02*
X17205777Y-12694103D01*
X17205777Y-12694103D02*
X17186730Y-12703627D01*
X17539111Y-12846484D02*
X17539111Y-12646484D01*
X17624825Y-12846484D02*
X17624825Y-12741722D01*
X17624825Y-12741722D02*
X17615301Y-12722674D01*
X17615301Y-12722674D02*
X17596253Y-12713150D01*
X17596253Y-12713150D02*
X17567682Y-12713150D01*
X17567682Y-12713150D02*
X17548634Y-12722674D01*
X17548634Y-12722674D02*
X17539111Y-12732198D01*
X17748634Y-12846484D02*
X17729587Y-12836960D01*
X17729587Y-12836960D02*
X17720063Y-12827436D01*
X17720063Y-12827436D02*
X17710539Y-12808388D01*
X17710539Y-12808388D02*
X17710539Y-12751246D01*
X17710539Y-12751246D02*
X17720063Y-12732198D01*
X17720063Y-12732198D02*
X17729587Y-12722674D01*
X17729587Y-12722674D02*
X17748634Y-12713150D01*
X17748634Y-12713150D02*
X17777206Y-12713150D01*
X17777206Y-12713150D02*
X17796253Y-12722674D01*
X17796253Y-12722674D02*
X17805777Y-12732198D01*
X17805777Y-12732198D02*
X17815301Y-12751246D01*
X17815301Y-12751246D02*
X17815301Y-12808388D01*
X17815301Y-12808388D02*
X17805777Y-12827436D01*
X17805777Y-12827436D02*
X17796253Y-12836960D01*
X17796253Y-12836960D02*
X17777206Y-12846484D01*
X17777206Y-12846484D02*
X17748634Y-12846484D01*
X17929587Y-12846484D02*
X17910539Y-12836960D01*
X17910539Y-12836960D02*
X17901015Y-12817912D01*
X17901015Y-12817912D02*
X17901015Y-12646484D01*
X18081968Y-12836960D02*
X18062920Y-12846484D01*
X18062920Y-12846484D02*
X18024825Y-12846484D01*
X18024825Y-12846484D02*
X18005777Y-12836960D01*
X18005777Y-12836960D02*
X17996253Y-12817912D01*
X17996253Y-12817912D02*
X17996253Y-12741722D01*
X17996253Y-12741722D02*
X18005777Y-12722674D01*
X18005777Y-12722674D02*
X18024825Y-12713150D01*
X18024825Y-12713150D02*
X18062920Y-12713150D01*
X18062920Y-12713150D02*
X18081968Y-12722674D01*
X18081968Y-12722674D02*
X18091492Y-12741722D01*
X18091492Y-12741722D02*
X18091492Y-12760769D01*
X18091492Y-12760769D02*
X17996253Y-12779817D01*
X18158158Y-12922674D02*
X18167682Y-12913150D01*
X18167682Y-12913150D02*
X18186730Y-12884579D01*
X18186730Y-12884579D02*
X18196253Y-12865531D01*
X18196253Y-12865531D02*
X18205777Y-12836960D01*
X18205777Y-12836960D02*
X18215301Y-12789341D01*
X18215301Y-12789341D02*
X18215301Y-12751246D01*
X18215301Y-12751246D02*
X18205777Y-12703627D01*
X18205777Y-12703627D02*
X18196253Y-12675055D01*
X18196253Y-12675055D02*
X18186730Y-12656008D01*
X18186730Y-12656008D02*
X18167682Y-12627436D01*
X18167682Y-12627436D02*
X18158158Y-12617912D01*
X18520063Y-12922674D02*
X18510539Y-12913150D01*
X18510539Y-12913150D02*
X18491492Y-12884579D01*
X18491492Y-12884579D02*
X18481968Y-12865531D01*
X18481968Y-12865531D02*
X18472444Y-12836960D01*
X18472444Y-12836960D02*
X18462920Y-12789341D01*
X18462920Y-12789341D02*
X18462920Y-12751246D01*
X18462920Y-12751246D02*
X18472444Y-12703627D01*
X18472444Y-12703627D02*
X18481968Y-12675055D01*
X18481968Y-12675055D02*
X18491492Y-12656008D01*
X18491492Y-12656008D02*
X18510539Y-12627436D01*
X18510539Y-12627436D02*
X18520063Y-12617912D01*
X18596253Y-12713150D02*
X18596253Y-12846484D01*
X18596253Y-12732198D02*
X18605777Y-12722674D01*
X18605777Y-12722674D02*
X18624825Y-12713150D01*
X18624825Y-12713150D02*
X18653396Y-12713150D01*
X18653396Y-12713150D02*
X18672444Y-12722674D01*
X18672444Y-12722674D02*
X18681968Y-12741722D01*
X18681968Y-12741722D02*
X18681968Y-12846484D01*
X18805777Y-12846484D02*
X18786730Y-12836960D01*
X18786730Y-12836960D02*
X18777206Y-12827436D01*
X18777206Y-12827436D02*
X18767682Y-12808388D01*
X18767682Y-12808388D02*
X18767682Y-12751246D01*
X18767682Y-12751246D02*
X18777206Y-12732198D01*
X18777206Y-12732198D02*
X18786730Y-12722674D01*
X18786730Y-12722674D02*
X18805777Y-12713150D01*
X18805777Y-12713150D02*
X18834349Y-12713150D01*
X18834349Y-12713150D02*
X18853396Y-12722674D01*
X18853396Y-12722674D02*
X18862920Y-12732198D01*
X18862920Y-12732198D02*
X18872444Y-12751246D01*
X18872444Y-12751246D02*
X18872444Y-12808388D01*
X18872444Y-12808388D02*
X18862920Y-12827436D01*
X18862920Y-12827436D02*
X18853396Y-12836960D01*
X18853396Y-12836960D02*
X18834349Y-12846484D01*
X18834349Y-12846484D02*
X18805777Y-12846484D01*
X18929587Y-12713150D02*
X19005777Y-12713150D01*
X18958158Y-12646484D02*
X18958158Y-12817912D01*
X18958158Y-12817912D02*
X18967682Y-12836960D01*
X18967682Y-12836960D02*
X18986730Y-12846484D01*
X18986730Y-12846484D02*
X19005777Y-12846484D01*
X19224825Y-12713150D02*
X19224825Y-12913150D01*
X19224825Y-12722674D02*
X19243873Y-12713150D01*
X19243873Y-12713150D02*
X19281968Y-12713150D01*
X19281968Y-12713150D02*
X19301015Y-12722674D01*
X19301015Y-12722674D02*
X19310539Y-12732198D01*
X19310539Y-12732198D02*
X19320063Y-12751246D01*
X19320063Y-12751246D02*
X19320063Y-12808388D01*
X19320063Y-12808388D02*
X19310539Y-12827436D01*
X19310539Y-12827436D02*
X19301015Y-12836960D01*
X19301015Y-12836960D02*
X19281968Y-12846484D01*
X19281968Y-12846484D02*
X19243873Y-12846484D01*
X19243873Y-12846484D02*
X19224825Y-12836960D01*
X19434349Y-12846484D02*
X19415301Y-12836960D01*
X19415301Y-12836960D02*
X19405777Y-12817912D01*
X19405777Y-12817912D02*
X19405777Y-12646484D01*
X19596254Y-12846484D02*
X19596254Y-12741722D01*
X19596254Y-12741722D02*
X19586730Y-12722674D01*
X19586730Y-12722674D02*
X19567682Y-12713150D01*
X19567682Y-12713150D02*
X19529587Y-12713150D01*
X19529587Y-12713150D02*
X19510539Y-12722674D01*
X19596254Y-12836960D02*
X19577206Y-12846484D01*
X19577206Y-12846484D02*
X19529587Y-12846484D01*
X19529587Y-12846484D02*
X19510539Y-12836960D01*
X19510539Y-12836960D02*
X19501015Y-12817912D01*
X19501015Y-12817912D02*
X19501015Y-12798865D01*
X19501015Y-12798865D02*
X19510539Y-12779817D01*
X19510539Y-12779817D02*
X19529587Y-12770293D01*
X19529587Y-12770293D02*
X19577206Y-12770293D01*
X19577206Y-12770293D02*
X19596254Y-12760769D01*
X19662920Y-12713150D02*
X19739111Y-12713150D01*
X19691492Y-12646484D02*
X19691492Y-12817912D01*
X19691492Y-12817912D02*
X19701015Y-12836960D01*
X19701015Y-12836960D02*
X19720063Y-12846484D01*
X19720063Y-12846484D02*
X19739111Y-12846484D01*
X19881968Y-12836960D02*
X19862920Y-12846484D01*
X19862920Y-12846484D02*
X19824825Y-12846484D01*
X19824825Y-12846484D02*
X19805777Y-12836960D01*
X19805777Y-12836960D02*
X19796254Y-12817912D01*
X19796254Y-12817912D02*
X19796254Y-12741722D01*
X19796254Y-12741722D02*
X19805777Y-12722674D01*
X19805777Y-12722674D02*
X19824825Y-12713150D01*
X19824825Y-12713150D02*
X19862920Y-12713150D01*
X19862920Y-12713150D02*
X19881968Y-12722674D01*
X19881968Y-12722674D02*
X19891492Y-12741722D01*
X19891492Y-12741722D02*
X19891492Y-12760769D01*
X19891492Y-12760769D02*
X19796254Y-12779817D01*
X20062920Y-12846484D02*
X20062920Y-12646484D01*
X20062920Y-12836960D02*
X20043873Y-12846484D01*
X20043873Y-12846484D02*
X20005777Y-12846484D01*
X20005777Y-12846484D02*
X19986730Y-12836960D01*
X19986730Y-12836960D02*
X19977206Y-12827436D01*
X19977206Y-12827436D02*
X19967682Y-12808388D01*
X19967682Y-12808388D02*
X19967682Y-12751246D01*
X19967682Y-12751246D02*
X19977206Y-12732198D01*
X19977206Y-12732198D02*
X19986730Y-12722674D01*
X19986730Y-12722674D02*
X20005777Y-12713150D01*
X20005777Y-12713150D02*
X20043873Y-12713150D01*
X20043873Y-12713150D02*
X20062920Y-12722674D01*
X20139111Y-12922674D02*
X20148635Y-12913150D01*
X20148635Y-12913150D02*
X20167682Y-12884579D01*
X20167682Y-12884579D02*
X20177206Y-12865531D01*
X20177206Y-12865531D02*
X20186730Y-12836960D01*
X20186730Y-12836960D02*
X20196254Y-12789341D01*
X20196254Y-12789341D02*
X20196254Y-12751246D01*
X20196254Y-12751246D02*
X20186730Y-12703627D01*
X20186730Y-12703627D02*
X20177206Y-12675055D01*
X20177206Y-12675055D02*
X20167682Y-12656008D01*
X20167682Y-12656008D02*
X20148635Y-12627436D01*
X20148635Y-12627436D02*
X20139111Y-12617912D01*
M02*
